<svg width="22" height="27" viewBox="0 0 22 27" fill="none" xmlns="http://www.w3.org/2000/svg">
<g clip-path="url(#clip0_20_6005)">
<path d="M5.5843 13.5539C5.75675 13.4737 5.85059 14.0125 6.19041 14.3758C6.81935 15.0549 7.70442 14.4961 7.89716 14.3758C8.35618 14.0851 8.47283 13.7594 8.696 13.9148C8.92171 14.0726 8.95214 14.4685 9.35791 15.0649C9.43399 15.1777 9.53035 15.2904 9.65969 15.4057C10.0274 15.7315 10.3191 15.7741 10.4306 16.2276C10.5397 16.6787 10.3901 17.2074 10.3216 17.4605C9.97162 18.7259 9.77381 20.1367 9.3858 21.3645C8.33842 24.6697 8.39168 26.9274 7.95548 26.9098C7.62073 26.8973 7.25047 25.5667 6.91064 24.3414C6.70015 23.5821 6.61646 23.0885 6.33243 22.8529C6.07376 22.6374 5.82776 22.7878 5.42453 23.0058C4.29347 23.6222 3.7254 23.9254 3.60874 23.725C3.39318 23.3491 3.87502 22.2992 4.48874 19.1043C5.3028 14.867 5.31548 14.7918 5.31548 14.7918C5.34592 14.258 5.41693 13.6391 5.59191 13.5589L5.5843 13.5539Z" stroke="black" stroke-width="0.75" stroke-miterlimit="10"/>
<path d="M15.0868 12.96C14.8484 12.7546 14.7292 13.4512 14.3767 13.8797C13.763 14.6264 12.7841 14.1503 12.6142 14.0676C12.1755 13.8546 11.8889 13.5263 11.7342 13.817C11.6099 14.0475 11.719 14.3833 11.5998 14.9496C11.511 15.3681 11.369 15.5786 11.1737 15.8668C10.7756 16.4531 10.5676 16.3353 10.5575 16.6786C10.5473 17.032 10.7578 17.3627 11.2625 18.4728C11.4907 18.9765 11.7012 19.5127 11.9244 20.0214C13.2279 22.9557 13.8518 25.3287 14.2423 25.2535C14.4832 25.2084 14.605 23.8803 14.8484 21.2267C14.8636 21.0563 14.9144 20.6127 15.097 20.277C15.1401 20.1968 15.1933 20.1316 15.2643 20.0765C15.627 19.7984 16.1393 20.0464 16.2204 20.089C17.0218 20.5 17.8866 20.9435 17.9627 20.4975C17.9779 20.4023 17.9601 20.2619 17.5873 19.2922C17.2019 18.2823 16.8975 17.5882 16.7124 17.1372C16.5095 16.6461 16.2356 15.9269 15.944 14.9822C15.7031 14.4385 15.5103 13.9523 15.3582 13.5514C15.2136 13.1705 15.1705 13.0327 15.0868 12.9575V12.96Z" stroke="black" stroke-width="0.75" stroke-miterlimit="10"/>
<path d="M8.88622 1.22285C10.0325 0.902108 10.0426 0.135333 10.9303 0.0952398C11.9294 0.0526412 12.1019 1.01737 13.4511 1.27547C14.8509 1.54359 15.5686 0.676586 16.4486 1.05997C17.3312 1.44587 16.7834 2.39055 17.8105 3.15232C18.8021 3.88652 19.9255 3.46554 20.3998 4.11705C20.8461 4.73097 19.9306 5.20958 20.1943 6.20939C20.5063 7.3771 21.9772 7.5525 21.8986 8.35436C21.825 9.1061 20.519 9.12615 20.1943 10.0708C19.8596 11.0456 21.0414 11.6319 20.6026 12.3235C20.202 12.9575 19.1292 12.5917 18.0818 13.3434C16.9558 14.1528 17.458 15.1125 16.5146 15.4884C15.5737 15.8642 14.8788 14.9872 13.517 15.2729C12.2059 15.5485 12.0639 16.5258 11.0647 16.5057C10.2379 16.4907 10.2126 15.8191 9.0891 15.4859C7.59792 15.0448 6.6672 15.9344 5.68068 15.4332C4.88437 15.0273 5.351 14.3708 4.45325 13.6616C3.40587 12.8347 2.22155 13.2983 1.65855 12.5892C1.12852 11.9201 2.077 11.3688 1.65855 10.2813C1.24772 9.21635 0.121722 9.17877 0.0912901 8.40448C0.0583218 7.5525 1.41256 7.39965 1.65855 6.25951C1.86143 5.32234 1.0423 5.00661 1.3872 4.38266C1.84368 3.55074 3.38558 3.94666 4.45325 2.93431C5.26478 2.16503 4.79561 1.53608 5.54374 1.16271C6.49728 0.689115 7.44829 1.61626 8.88368 1.21533L8.88622 1.22285Z" fill="#F9F9F9" stroke="black" stroke-width="0.75" stroke-miterlimit="10"/>
<path d="M11.7494 13.8295C15.0234 13.5313 18.3861 11.3989 18.4952 8.46457C18.6144 5.27719 14.8332 2.83905 11.1356 2.72378C8.34856 2.63608 5.15064 3.8539 3.98153 6.26448C3.03052 8.22151 3.70257 10.374 5.27744 11.8449C6.99179 13.4461 9.55571 14.03 11.7519 13.8295H11.7494Z" stroke="black" stroke-width="0.75" stroke-miterlimit="10"/>
<path d="M6.12705 8.54476C6.04336 8.79534 6.69766 8.94568 7.76279 9.77761C8.8406 10.6196 8.81016 10.9629 9.60394 11.2786C9.71552 11.3237 10.9201 11.7898 11.648 11.3863C12.0411 11.1683 12.0309 10.8426 12.3302 10.0984C12.6218 9.37167 12.9566 8.87051 13.2837 8.38188C13.7706 7.6552 14.3133 6.84332 15.3277 6.02142C15.7437 5.68564 15.9998 5.5403 15.9415 5.37742C15.8172 5.04415 14.4351 4.89381 13.4207 5.3248C13.0479 5.48267 12.8526 5.66309 12.4671 6.02142C12.2313 6.23942 11.6023 6.85334 10.8314 8.16638C10.3876 8.92063 10.3115 9.20128 10.0148 9.23886C9.54054 9.299 9.34527 8.64248 8.44751 8.32675C7.49397 7.99097 6.23864 8.21399 6.12959 8.54225L6.12705 8.54476Z" fill="#3F6B68"/>
</g>
<defs>
<clipPath id="clip0_20_6005">
<rect width="22" height="27" fill="white"/>
</clipPath>
</defs>
</svg>
