<svg width="21" height="22" viewBox="0 0 21 22" fill="none" xmlns="http://www.w3.org/2000/svg">
<path d="M7.91735 14.0966H5.20001L6.79681 12.0747C6.89407 11.9517 6.96563 11.8404 7.01201 11.7407C7.05813 11.641 7.08118 11.5478 7.08118 11.4613C7.08118 11.3279 7.04196 11.2191 6.96325 11.135C6.88453 11.0511 6.78117 11.0089 6.65343 11.0089C6.50104 11.0089 6.38389 11.061 6.30227 11.1648C6.22037 11.2687 6.17956 11.4196 6.17956 11.6169V11.6637H5.32405V11.6377C5.32405 11.2062 5.44198 10.8668 5.67759 10.6188C5.91347 10.3711 6.23548 10.2473 6.64389 10.2473C7.0523 10.2473 7.35999 10.3572 7.59666 10.5774C7.83333 10.7974 7.95154 11.0903 7.95154 11.4558C7.95154 11.6344 7.91417 11.8078 7.8397 11.9769C7.76522 12.1457 7.64198 12.3309 7.47025 12.5317L6.82861 13.2878H7.91761V14.096L7.91735 14.0966Z" fill="#383838"/>
<path d="M9.62221 14.0965V13.2442H8.00342V12.4957L9.32803 10.3127H10.434V12.4957H10.8278V13.2442H10.434V14.0965H9.62221ZM9.62221 12.4957V11.3886C9.62221 11.2864 9.62407 11.2012 9.62831 11.1327C9.63228 11.0642 9.63838 11.0059 9.64659 10.9574C9.61585 11.0319 9.5814 11.1064 9.54323 11.181C9.50507 11.2555 9.45842 11.3385 9.40356 11.4303L8.74974 12.4957H9.62248H9.62221Z" fill="#383838"/>
<path d="M10.6307 14.5901L12.3736 10.2058H12.9108L11.1727 14.5901H10.6307Z" fill="#383838"/>
<path d="M13.4341 14.0965L14.7709 11.1807H13.2687V10.3284H15.9861V10.5103L14.4378 14.0968H13.4339L13.4341 14.0965Z" fill="#383838"/>
<path d="M19.2325 15.9437C18.9243 16.4579 18.5716 16.9489 18.1761 17.4113C14.3987 21.8296 7.84825 22.2472 3.5744 18.3423C3.48005 18.2563 3.4713 18.1072 3.55452 18.01C3.63774 17.9124 3.78191 17.9034 3.876 17.9894C7.96168 21.7222 14.2238 21.3231 17.8348 17.0993C19.5842 15.0533 20.4578 12.4256 20.2953 9.70018C20.1326 6.97473 18.9532 4.47805 16.974 2.66957C15.8232 1.61808 14.4936 0.875622 13.0221 0.463023C12.9008 0.429051 12.8289 0.299737 12.8618 0.173985C12.8944 0.0485073 13.0197 -0.0257384 13.1414 0.00823381C14.6809 0.44001 16.0721 1.21644 17.2758 2.31643C19.3462 4.20791 20.5802 6.81994 20.7504 9.67087C20.8837 11.9056 20.3507 14.0779 19.2328 15.9431L19.2325 15.9437Z" fill="#383838"/>
<path d="M2.18771 16.2419C2.17234 16.2676 2.15193 16.2906 2.12676 16.3093C2.02446 16.3849 1.88214 16.3605 1.80899 16.255C0.326153 14.114 -0.274931 11.5017 0.116781 8.89922C0.136128 8.77073 0.252475 8.68279 0.376774 8.70279C0.501072 8.72279 0.586146 8.84306 0.566799 8.97155C0.193639 11.4512 0.766366 13.9405 2.1795 15.9808C2.23462 16.0605 2.23489 16.1635 2.18798 16.2419H2.18771Z" fill="#383838"/>
<path d="M11.3896 19.505C11.3533 19.5659 11.2907 19.6086 11.2165 19.6157C7.45124 19.9716 3.84632 17.8303 2.24581 14.287C0.147315 9.64103 2.09633 4.09616 6.59069 1.92659C8.7679 0.875642 11.2107 0.764137 13.469 1.61235C15.7273 2.46056 17.5311 4.16739 18.5474 6.41805C18.6007 6.53586 18.5514 6.67585 18.4375 6.7312C18.3235 6.78626 18.1878 6.7353 18.1345 6.6175C16.1428 2.20659 11.0506 0.293731 6.78363 2.35343C2.51694 4.41286 0.666506 9.67692 2.65872 14.0878C4.17813 17.4516 7.60045 19.4845 11.1749 19.1467C11.3002 19.1349 11.411 19.2302 11.4224 19.3598C11.4272 19.4127 11.4145 19.4631 11.3893 19.505H11.3896Z" fill="#383838"/>
<path d="M9.87924 9.44474C9.83127 9.44474 9.7833 9.42912 9.74248 9.39761L5.53595 6.13628C5.43524 6.0582 5.41483 5.91053 5.49037 5.80669C5.56563 5.70258 5.70848 5.68149 5.8092 5.75957L9.86281 8.90228L15.1477 3.77356C15.2394 3.68452 15.3836 3.68918 15.4697 3.78398C15.5559 3.87877 15.5514 4.02781 15.4597 4.11685L10.0353 9.3809C9.99187 9.42309 9.93569 9.44474 9.8795 9.44474H9.87924Z" fill="#383838"/>
</svg>
