<svg width="29" height="24" viewBox="0 0 29 24" fill="none" xmlns="http://www.w3.org/2000/svg">
<g clip-path="url(#clip0_518_4251)">
<path d="M27.18 18.0244C27.5024 18.0848 27.817 17.8735 27.8784 17.5565L28.3849 14.9529C28.4156 14.802 28.3849 14.6435 28.2929 14.5152C28.2008 14.3869 28.0626 14.2963 27.9091 14.2661L26.8884 14.0775C26.8423 13.5265 26.7272 12.9832 26.543 12.4625L27.4026 11.8889C27.6789 11.7078 27.748 11.338 27.5638 11.0738L26.0519 8.88526C25.9598 8.75697 25.8216 8.6664 25.6681 8.63622C25.5146 8.60603 25.3535 8.63622 25.223 8.72678L24.3634 9.30034C23.9337 8.94564 23.4655 8.63622 22.959 8.39472L23.1509 7.39099C23.2123 7.07403 22.9974 6.76461 22.675 6.70423L20.0273 6.20614C19.8738 6.17596 19.7126 6.20614 19.5822 6.29671C19.4517 6.38727 19.3596 6.52311 19.3289 6.67405L19.137 7.67777C18.5768 7.72305 18.0319 7.83626 17.4947 8.01738L16.9114 7.17214C16.8193 7.04384 16.6812 6.95328 16.5277 6.92309C16.3742 6.8929 16.213 6.92309 16.0749 7.01365L13.8492 8.50037C13.7188 8.59094 13.6267 8.71923 13.596 8.87771C13.5653 9.02865 13.596 9.18713 13.6881 9.32298L14.2713 10.1682C13.9106 10.5908 13.596 11.0512 13.3504 11.5493L12.3296 11.3606C12.1762 11.3304 12.015 11.3606 11.8845 11.4512C11.7541 11.5417 11.662 11.67 11.6313 11.8285L11.1247 14.4322C11.0633 14.7491 11.2782 15.0586 11.6006 15.1189L12.6213 15.3076C12.6673 15.8585 12.7825 16.4019 12.9666 16.9226L12.1071 17.4962C11.9766 17.5867 11.8845 17.7226 11.8538 17.8735C11.8231 18.0244 11.8538 18.1829 11.9459 18.3188L13.4578 20.5073C13.5499 20.6356 13.6881 20.7262 13.8415 20.7564C13.995 20.7866 14.1562 20.7564 14.2867 20.6658L15.1462 20.0923C15.576 20.447 16.0442 20.7564 16.5507 20.9979L16.3588 22.0016C16.2974 22.3186 16.5123 22.628 16.8347 22.6884L19.4824 23.1865C19.4824 23.1865 19.5591 23.194 19.5975 23.194C19.8815 23.194 20.1271 22.9978 20.1885 22.7186L20.3803 21.7148C20.9406 21.6696 21.4855 21.5564 22.0227 21.3828L22.606 22.228C22.6981 22.3563 22.8362 22.4469 22.9897 22.4771C23.1432 22.5073 23.3043 22.4771 23.4348 22.3865L25.6605 20.8998C25.9367 20.7187 26.0058 20.3489 25.8216 20.0847L25.2384 19.2395C25.5991 18.8169 25.9137 18.3565 26.1593 17.8584L27.18 18.0471V18.0244ZM25.2537 16.9377C24.9697 17.6094 24.563 18.2207 24.0411 18.7489C23.8416 18.9527 23.8186 19.2621 23.9797 19.4885L24.4939 20.2281L23.2583 21.0583L22.7441 20.3187C22.5829 20.0923 22.2836 20.0017 22.0227 20.1074C21.332 20.3866 20.6029 20.5375 19.8661 20.5451C19.5822 20.5451 19.3442 20.7488 19.2905 21.0205L19.1217 21.9035L17.6558 21.6243L17.8247 20.7413C17.8784 20.4696 17.7249 20.1979 17.464 20.0847C16.7809 19.8055 16.1593 19.4055 15.6221 18.8923C15.4148 18.6961 15.1002 18.6735 14.8699 18.832L14.1178 19.3376L13.2736 18.1226L14.0257 17.6169C14.2637 17.4584 14.3481 17.1641 14.2406 16.9075C13.9567 16.2283 13.8032 15.5189 13.7955 14.7869C13.7955 14.5076 13.5883 14.2737 13.312 14.2209L12.4141 14.0548L12.6904 12.6134L13.5883 12.7794C13.8646 12.8322 14.1409 12.6889 14.256 12.4247C14.5399 11.753 14.9467 11.1418 15.4686 10.6135C15.6681 10.4097 15.6911 10.1003 15.53 9.87389L15.0158 9.13431L16.2514 8.30416L16.7656 9.04375C16.9267 9.27015 17.2261 9.36071 17.487 9.25506C18.1777 8.97582 18.9068 8.82489 19.6436 8.81734C19.9275 8.81734 20.1654 8.61358 20.2192 8.34189L20.388 7.45891L21.8538 7.73815L21.685 8.62112C21.6313 8.89281 21.7848 9.16449 22.0457 9.2777C22.7288 9.55693 23.3504 9.95691 23.8876 10.4701C24.0948 10.6663 24.4095 10.6889 24.6397 10.5305L25.3918 10.0248L26.2361 11.2399L25.4839 11.7455C25.246 11.904 25.1616 12.1983 25.2691 12.4549C25.553 13.1341 25.7065 13.8435 25.7142 14.5756C25.7142 14.8548 25.9214 15.0887 26.1977 15.1416L27.0956 15.3076L26.8117 16.749L25.9137 16.583C25.6374 16.5302 25.3535 16.6811 25.246 16.9377H25.2537Z" fill="#272525"/>
<path d="M20.5648 10.529C19.4366 10.3176 18.2931 10.5516 17.3414 11.1855C16.3898 11.8195 15.7451 12.7854 15.5302 13.8948C15.3153 15.0042 15.5533 16.1287 16.1979 17.0645C16.8426 18.0003 17.8249 18.6342 18.9531 18.8455C19.2217 18.8984 19.498 18.921 19.759 18.921C21.7851 18.921 23.5963 17.5022 23.9877 15.4797C24.4328 13.1854 22.8979 10.9667 20.5648 10.529ZM22.8134 15.2608C22.66 16.0608 22.1918 16.7551 21.5088 17.2154C20.8257 17.6758 19.9969 17.8418 19.1834 17.6909C18.3698 17.5399 17.6638 17.0796 17.1956 16.4079C16.7275 15.7363 16.5586 14.9212 16.7121 14.1212C16.8656 13.3213 17.3338 12.627 18.0168 12.1666C18.5387 11.8195 19.1373 11.6383 19.759 11.6383C19.9508 11.6383 20.1504 11.661 20.3499 11.6912C22.0306 12.0081 23.1435 13.6081 22.8211 15.2608H22.8134Z" fill="#272525"/>
<path d="M0.595452 8.31102C0.633825 8.55252 0.856389 8.72609 1.10198 8.68836L1.87711 8.5827C2.04595 8.96004 2.26084 9.31474 2.52178 9.6468L2.05363 10.2656C1.98456 10.3562 1.95386 10.477 1.96921 10.5977C1.98456 10.7109 2.04595 10.8166 2.14572 10.892L3.76507 12.0844C3.96461 12.2354 4.24857 12.1901 4.39439 11.9939L4.86254 11.375C5.25394 11.526 5.66837 11.6316 6.0828 11.6844L6.19025 12.4467C6.2056 12.5599 6.26699 12.6655 6.36676 12.7334C6.44351 12.7938 6.54328 12.824 6.63537 12.824C6.6584 12.824 6.68142 12.824 6.69677 12.824L8.69985 12.5372C8.94543 12.4995 9.11427 12.2806 9.08358 12.0391L8.97613 11.2769C9.35986 11.1109 9.72824 10.8996 10.0583 10.643L10.6876 11.1033C10.8871 11.2467 11.1711 11.209 11.3169 11.0128L12.5295 9.4204C12.6753 9.22418 12.6369 8.94495 12.4374 8.80156L11.8081 8.34121C11.9616 7.94877 12.069 7.54879 12.1227 7.14126L12.8979 7.02806C13.013 7.01297 13.1204 6.95259 13.1972 6.85449C13.2662 6.76392 13.2969 6.64317 13.2816 6.52997L12.9976 4.56026C12.9593 4.31876 12.7367 4.15273 12.4911 4.18291L11.716 4.28857C11.5471 3.91123 11.3322 3.55653 11.0713 3.22447L11.5395 2.61318C11.6085 2.52262 11.6392 2.40187 11.6239 2.28112C11.6085 2.16792 11.5471 2.06226 11.4474 1.98679L9.82801 0.794397C9.73592 0.726476 9.61312 0.696288 9.498 0.711382C9.38289 0.726476 9.27544 0.78685 9.1987 0.884959L8.73054 1.5038C8.33914 1.35286 7.92471 1.24721 7.51028 1.19438L7.40284 0.43215C7.36446 0.190652 7.1419 0.0246224 6.89631 0.0548097L4.89324 0.341588C4.77812 0.356682 4.67067 0.424603 4.59393 0.515165C4.52485 0.605727 4.49416 0.726476 4.50951 0.847225L4.61695 1.60945C4.23322 1.77548 3.86484 1.98679 3.53483 2.24338L2.90551 1.78303C2.81342 1.71511 2.69062 1.68492 2.56783 1.70001C2.45271 1.71511 2.34526 1.78303 2.26852 1.87359L1.0636 3.45087C0.994532 3.54144 0.963833 3.66218 0.979182 3.77539C0.994532 3.88859 1.05593 3.99424 1.1557 4.06971L1.78502 4.53007C1.63152 4.91495 1.52408 5.32248 1.47036 5.73001L0.695222 5.83567C0.580102 5.85076 0.472658 5.91868 0.395912 6.00924C0.32684 6.0998 0.296142 6.22055 0.311491 6.3413L0.595452 8.31102ZM1.93851 6.56016C2.14572 6.52997 2.30689 6.3564 2.32224 6.15263C2.36061 5.60926 2.49876 5.07344 2.73667 4.57535C2.82876 4.38668 2.76737 4.16027 2.59853 4.03198L2.04595 3.62445L2.72132 2.74147L3.27389 3.149C3.44273 3.2773 3.68065 3.2622 3.84181 3.12636C4.26392 2.76411 4.73974 2.48488 5.26162 2.29621C5.46116 2.22074 5.58395 2.02453 5.55325 1.82076L5.45348 1.15664L6.5663 0.998161L6.66607 1.66228C6.69677 1.87359 6.87329 2.02453 7.0805 2.03962C7.63307 2.07735 8.17797 2.2132 8.6845 2.44715C8.87636 2.53771 9.1066 2.47734 9.23707 2.31131L9.6515 1.77548L10.5494 2.4396L10.135 2.97543C10.0045 3.14145 10.0199 3.37541 10.158 3.53389C10.5264 3.94896 10.8104 4.41687 11.0022 4.93005C11.079 5.12627 11.2785 5.24701 11.4857 5.21683L12.1611 5.11872L12.3223 6.21301L11.6469 6.30357C11.432 6.33376 11.2785 6.50733 11.2632 6.7111C11.2248 7.25447 11.0867 7.79029 10.8487 8.28838C10.7566 8.47705 10.818 8.70345 10.9869 8.83175L11.5318 9.23928L10.8564 10.1223L10.3115 9.71473C10.1427 9.58643 9.90476 9.60152 9.74359 9.73737C9.32149 10.0996 8.84566 10.3788 8.32379 10.5675C8.12425 10.6354 8.00146 10.8392 8.03215 11.043L8.13192 11.7071L7.0191 11.8656L6.91933 11.2014C6.88864 10.9901 6.71212 10.8392 6.50491 10.8241C5.95233 10.7939 5.40743 10.6581 4.90091 10.4166C4.83951 10.3864 4.77812 10.3788 4.70904 10.3788C4.5709 10.3788 4.43276 10.4392 4.34834 10.5524L3.93391 11.0882L3.03598 10.4241L3.45041 9.8883C3.58088 9.72227 3.56553 9.48832 3.42738 9.32984C3.059 8.91476 2.77504 8.44686 2.58318 7.93368C2.50643 7.73746 2.30689 7.61671 2.09968 7.6469L1.42431 7.74501L1.26314 6.65072L1.93851 6.55261V6.56016Z" fill="#272525"/>
<path d="M6.79591 9.61702C6.9494 9.61702 7.10289 9.60948 7.25639 9.58684C9.02155 9.33779 10.2495 7.72277 9.99622 5.98701C9.74296 4.25124 8.10059 3.04375 6.33543 3.2928C4.57027 3.54184 3.34233 5.15686 3.59559 6.89262C3.82583 8.47745 5.21494 9.62457 6.79591 9.62457V9.61702ZM6.4659 4.16068C6.58102 4.14559 6.68846 4.13804 6.79591 4.13804C7.93943 4.13804 8.93713 4.96819 9.10597 6.10776C9.29016 7.36053 8.3999 8.53028 7.12592 8.71141C5.85193 8.89253 4.66236 8.0171 4.48585 6.76433C4.30166 5.51156 5.19191 4.3418 6.4659 4.16823V4.16068Z" fill="#272525"/>
</g>
<defs>
<clipPath id="clip0_518_4251">
<rect width="28.0968" height="23.1385" fill="white" transform="translate(0.303711 0.0473633)"/>
</clipPath>
</defs>
</svg>
