<svg width="24" height="24" viewBox="0 0 24 24" fill="none" xmlns="http://www.w3.org/2000/svg">
<path d="M11.85 1.36387C8.20782 1.64512 5.09063 4.3498 4.29375 7.92168C4.13907 8.6248 4.07813 9.2623 4.07813 10.1717V10.9076L3.27657 12.1451C2.83125 12.8248 2.44219 13.4482 2.40938 13.5326C2.30157 13.7857 2.325 14.1982 2.46563 14.4748C2.62032 14.7889 2.75157 14.8826 3.49219 15.2342C3.825 15.3936 4.10625 15.5248 4.11094 15.5342C4.11563 15.5389 4.22813 16.1529 4.35938 16.8982C4.67344 18.6607 4.7625 18.9092 5.2875 19.4623C5.59688 19.7857 5.90157 19.9873 6.31875 20.1467C6.62344 20.2639 6.675 20.2686 8.0625 20.292C9.62813 20.3248 9.66563 20.3295 9.79219 20.6107C9.825 20.6811 9.93282 21.1311 10.0359 21.6045C10.1719 22.2467 10.2422 22.4951 10.3125 22.5701C10.4063 22.6639 10.4484 22.6639 14.4047 22.6779C16.5984 22.6826 18.4688 22.6779 18.5531 22.6639C18.7547 22.6264 18.8906 22.4857 18.8906 22.317C18.8906 22.2467 18.7641 21.5764 18.6047 20.8311C18.3703 19.7107 18.3234 19.3967 18.3188 19.0076C18.3141 17.9811 18.4453 17.6482 19.6453 15.6795C20.6953 13.9498 20.9672 13.4248 21.2344 12.6186C21.5672 11.6014 21.6328 11.1467 21.6328 9.89043C21.6281 8.93418 21.6141 8.72324 21.525 8.29668C20.8641 5.18418 18.7313 2.75605 15.8109 1.78105C14.5969 1.37793 13.3594 1.24668 11.85 1.36387ZM13.7109 2.11387C15.7641 2.29199 17.5172 3.16387 18.9281 4.71074C19.8281 5.6998 20.4703 6.9748 20.7703 8.37168C20.8688 8.82637 20.8828 9.00449 20.8828 9.9373C20.8781 11.1186 20.8266 11.4607 20.5031 12.4311C20.2688 13.1389 19.9828 13.6826 18.9656 15.3514C17.8359 17.2029 17.6719 17.5732 17.5828 18.5576C17.5313 19.1389 17.5781 19.5842 17.8313 20.7842C17.9484 21.3467 18.0469 21.8342 18.0469 21.8717C18.0469 21.9279 17.4984 21.9373 14.4609 21.9373H10.875L10.8516 21.8295C10.8375 21.7732 10.7625 21.4404 10.6922 21.0889C10.6172 20.7326 10.5141 20.367 10.4625 20.2686C10.3453 20.0389 10.1156 19.8232 9.84375 19.6826C9.6375 19.5748 9.59063 19.5701 8.17969 19.5467L6.72657 19.5232L6.39844 19.3639C6.22032 19.2748 5.97188 19.1014 5.84532 18.9748C5.45625 18.5857 5.38125 18.3514 5.08594 16.6873C4.94532 15.8764 4.80469 15.1639 4.78125 15.1029C4.74844 15.0232 4.52813 14.8967 3.99375 14.6436C3.59063 14.4467 3.22032 14.2545 3.17813 14.217C3.12657 14.1701 3.09375 14.0717 3.09375 13.9686C3.09375 13.8232 3.22969 13.5889 3.95157 12.4873L4.80469 11.1795L4.8375 10.0311C4.875 8.55918 4.98282 7.96855 5.39063 6.91387C6.11719 5.0623 7.69219 3.46387 9.5625 2.68574C10.8141 2.16543 12.1641 1.97793 13.7109 2.11387Z" fill="black"/>
<path d="M10.3969 4.40128C9.37501 4.7294 8.71876 5.80284 8.89688 6.85753C9.01407 7.53721 9.09845 7.6544 10.6594 9.22471C12.2438 10.8185 12.3328 10.8888 12.8625 10.8841C13.4063 10.8794 13.4625 10.8372 15.0281 9.2669C16.3313 7.95909 16.4531 7.82315 16.6125 7.49503C16.9172 6.88096 16.9172 6.16846 16.6172 5.54034C16.4016 5.08565 16.05 4.73878 15.5859 4.51378C14.7938 4.13878 13.7859 4.29346 13.0969 4.89815L12.8625 5.09971L12.6094 4.88878C11.9719 4.35909 11.1188 4.17159 10.3969 4.40128ZM11.7422 5.20753C11.8688 5.26846 12.1359 5.47003 12.3281 5.65284C12.5203 5.83565 12.7172 5.99971 12.7641 6.01378C12.9047 6.06534 13.0828 5.95753 13.4531 5.60596C13.8797 5.19815 14.1797 5.06221 14.6438 5.06221C15.0797 5.06221 15.3516 5.17471 15.6609 5.4794C15.9703 5.78878 16.0969 6.10284 16.0922 6.54346C16.0875 7.10128 16.0031 7.21846 14.4938 8.73253C13.1016 10.1294 13.0125 10.195 12.7266 10.1153C12.6328 10.0919 12.1406 9.63253 11.2172 8.70909C10.1203 7.61221 9.82501 7.29346 9.74532 7.11065C9.41251 6.32315 9.78751 5.42315 10.5797 5.12784C10.8516 5.02471 11.4516 5.0669 11.7422 5.20753Z" fill="#3F6B68"/>
<path d="M5.90157 10.6875C5.7797 10.7578 5.70938 10.9781 5.76095 11.1234C5.88282 11.4375 6.54845 11.7188 7.1672 11.7188C8.12813 11.7188 8.50782 10.7578 8.50782 10.7578L7.87501 10.7906C7.60782 10.9312 7.53751 10.9453 7.17188 10.9453C6.80626 10.9453 6.74063 10.9312 6.47813 10.7906C6.17813 10.6359 6.03282 10.6125 5.90157 10.6875Z" fill="black"/>
</svg>
