<svg width="24" height="24" viewBox="0 0 24 24" fill="none" xmlns="http://www.w3.org/2000/svg">
<g clip-path="url(#clip0_51_7711)">
<path d="M11.4047 0.0471001C10.5984 0.192413 9.77812 0.712725 9.30937 1.37835C8.925 1.9221 8.75156 2.36272 8.66719 3.01897C8.625 3.33772 8.60156 3.40335 8.49375 3.48772C7.52812 4.22835 6.77812 5.45647 6.51094 6.72679C6.34687 7.51429 6.4125 7.82835 6.74531 7.82835C6.98906 7.82835 7.07812 7.70647 7.12969 7.28929C7.36875 5.2971 8.83125 3.62366 10.7578 3.11741C13.0031 2.53616 15.3562 3.6096 16.3828 5.69554C16.7719 6.48304 16.9219 7.1721 16.9219 8.17991V8.65335L16.4437 8.6346C15.9984 8.62054 15.9516 8.61116 15.8578 8.50335C15.7781 8.41429 15.75 8.32991 15.75 8.16116C15.75 7.42054 15.3984 6.69397 14.8828 6.37522C14.7937 6.31897 14.7187 6.25804 14.7187 6.24397C14.7187 6.22522 14.85 6.12679 15.0047 6.02835C15.3094 5.83147 15.3984 5.69085 15.3281 5.51272C15.2812 5.39085 15.1125 5.25022 15.0047 5.25022C14.9672 5.25022 14.7141 5.38616 14.4375 5.55022C12.8344 6.51585 10.8234 7.22366 9 7.4721C8.59219 7.52835 8.32969 7.78616 8.26875 8.19397C8.2125 8.5596 8.14687 8.5971 7.5375 8.62991C6.92344 8.66272 6.675 8.7471 6.39844 9.02366C6.14062 9.28147 6.02344 9.56741 6.02812 9.93772C6.03281 10.2893 6.1125 10.5049 6.32812 10.7533C6.5625 11.0205 6.83906 11.1612 7.20469 11.194L7.51875 11.2268L7.58437 11.6252C7.75781 12.6752 8.34375 13.6783 9.16875 14.3393C9.37031 14.5033 9.58125 14.658 9.64219 14.6862C9.75 14.733 9.75 14.7424 9.75 15.5487C9.75 16.4534 9.72656 16.5518 9.45937 16.7487C9.375 16.8096 8.52656 17.194 7.57031 17.6018C6.61875 18.0049 5.7375 18.394 5.61562 18.4596C5.325 18.6143 4.92187 19.0409 4.75781 19.3549C4.52812 19.8143 4.5 20.0674 4.5 21.9987V23.7705L4.61719 23.883C4.75781 24.0237 4.91719 24.033 5.08125 23.9018L5.20312 23.808V22.0127C5.20312 20.5127 5.21719 20.1799 5.27812 19.969C5.41406 19.519 5.65781 19.219 6.07031 19.0174C6.3375 18.8862 8.18437 18.094 8.22187 18.094C8.23594 18.094 8.25 18.5908 8.25 19.1955V20.2971H7.56094C6.79219 20.2971 6.61406 20.344 6.34687 20.6159C6.04219 20.9205 6.02344 21.0096 6.02344 22.1487C6.02344 23.1237 6.02812 23.1893 6.12656 23.3721C6.38906 23.869 7.02187 24.1455 7.33125 23.9018C7.575 23.7096 7.42031 23.2971 7.09687 23.2971C7.04062 23.2971 6.92812 23.2455 6.85781 23.1846L6.72656 23.0721L6.7125 22.1768L6.69844 21.2815L6.83906 21.1409L6.975 21.0002H8.625H10.2703L10.3828 21.1174C10.5 21.2299 10.5 21.2346 10.5 22.1487C10.5 23.0627 10.5 23.0674 10.3828 23.1799C10.3219 23.2455 10.2141 23.2971 10.1484 23.2971C9.97031 23.2971 9.8625 23.3721 9.80625 23.5221C9.75 23.6815 9.83437 23.9205 9.96094 23.9721C10.2187 24.0705 10.7156 23.8924 10.9406 23.6205C11.1891 23.3299 11.2031 23.2409 11.2031 22.1393C11.2031 20.9721 11.175 20.8643 10.8328 20.5737C10.5656 20.3393 10.3734 20.2971 9.61406 20.2971H8.95312V19.308C8.95312 18.469 8.9625 18.3237 9.01875 18.3424C9.05625 18.3565 9.63281 18.7315 10.2984 19.1768C11.6625 20.0909 11.8172 20.1612 12.2484 20.0534C12.4266 20.0065 12.8109 19.7768 13.7016 19.1768C14.3672 18.7315 14.9437 18.3565 14.9812 18.3424C15.0375 18.3237 15.0469 18.5252 15.0469 19.6924V21.0705L14.7891 21.183C14.4656 21.319 14.1047 21.7034 13.9969 22.0127C13.9031 22.2987 13.9031 22.7487 13.9969 23.0346C14.1 23.3346 14.4656 23.7237 14.775 23.8643C15.1453 24.0284 15.6844 24.0237 16.0172 23.8455C16.5516 23.569 16.8469 23.0955 16.8469 22.519C16.8516 21.9283 16.5234 21.4315 15.975 21.1737L15.75 21.0705V19.5846C15.75 18.7643 15.7641 18.094 15.7781 18.094C15.8156 18.094 17.6625 18.8862 17.9297 19.0174C18.3422 19.219 18.5859 19.519 18.7219 19.969C18.7828 20.1799 18.7969 20.5127 18.7969 22.0127V23.808L18.9187 23.9018C19.0734 24.0237 19.2234 24.0284 19.3641 23.9112L19.4766 23.8221L19.4906 22.069C19.5047 20.1612 19.4812 19.8705 19.2703 19.4205C19.0969 19.0549 18.6797 18.6143 18.3422 18.4362C18.1922 18.3565 17.3109 17.9674 16.3828 17.5737C15.4547 17.1799 14.625 16.8096 14.5406 16.7487C14.2734 16.5518 14.25 16.4534 14.25 15.5533L14.2547 14.7424L14.4609 14.6112C15.4828 13.9643 16.2141 12.8299 16.425 11.5783L16.4812 11.2268L16.7859 11.1987C16.95 11.1846 17.1703 11.1283 17.2781 11.0768C17.9672 10.7158 18.1969 9.83929 17.7609 9.2346C17.625 9.05179 17.625 9.04241 17.625 8.39085C17.625 7.25647 17.5078 6.52991 17.1891 5.75179C16.875 4.96897 16.2516 4.10179 15.6609 3.62366C15.3984 3.40804 15.3844 3.3846 15.3516 3.14085C15.3047 2.7096 15.1875 2.26897 15.0422 1.96429C14.4844 0.787725 13.4109 0.0658493 12.15 0.0236626C11.8734 0.0142879 11.5406 0.0236626 11.4047 0.0471001ZM12.5766 0.773663C13.3125 0.92835 14.025 1.48616 14.3578 2.16585C14.5547 2.56898 14.6391 2.89241 14.5266 2.84554C13.7297 2.50335 13.2375 2.36272 12.525 2.28773C11.6391 2.19398 10.6781 2.33929 9.83906 2.69554C9.62344 2.7846 9.44062 2.8596 9.42656 2.8596C9.37031 2.8596 9.48281 2.4846 9.63281 2.17054C9.75937 1.91741 9.89531 1.72523 10.1203 1.50491C10.7859 0.839287 11.6625 0.576788 12.5766 0.773663ZM14.3297 6.8721C14.7891 7.09241 14.9859 7.44866 15.0422 8.1471C15.0797 8.63929 15.1219 8.75179 15.3469 8.99085C15.5906 9.25335 15.7219 9.29554 16.3266 9.32835C16.95 9.36116 17.0672 9.41272 17.2219 9.7221C17.2969 9.8721 17.3016 9.92835 17.2547 10.0737C17.2266 10.1674 17.1516 10.2987 17.0812 10.3643C16.9734 10.4627 16.9078 10.4815 16.4672 10.5049C15.8484 10.5377 15.8203 10.5612 15.7734 11.119C15.7266 11.6299 15.5578 12.2158 15.3141 12.6799C15.1641 12.9658 15.0094 13.1627 14.6484 13.5237C14.2453 13.9315 14.1187 14.0299 13.7344 14.2174C13.125 14.5221 12.6656 14.6346 12.0234 14.6346C11.3578 14.6393 10.9359 14.5408 10.3359 14.2502C9.55781 13.8705 9.00469 13.3174 8.625 12.5393C8.37656 12.0237 8.27344 11.6533 8.22187 11.0955C8.17969 10.5705 8.14219 10.5377 7.55625 10.5049C7.00781 10.4721 6.8625 10.3971 6.75469 10.0924C6.69375 9.92366 6.69844 9.89085 6.77812 9.72679C6.93281 9.41272 7.05 9.36116 7.67344 9.32835C8.25937 9.30022 8.36719 9.26272 8.61562 9.02835C8.81719 8.84554 8.90625 8.66741 8.94844 8.40022L8.97656 8.18929L9.60937 8.08147C10.8891 7.86585 12.3797 7.3971 13.5234 6.84397C13.8422 6.69397 13.9547 6.69397 14.3297 6.8721ZM11.0156 15.244C11.7187 15.4174 12.8437 15.3565 13.4672 15.1174C13.5422 15.0846 13.5469 15.1362 13.5469 15.7596C13.5469 16.2565 13.5656 16.4955 13.6219 16.6549C13.7297 16.969 14.0578 17.3112 14.4187 17.4893C14.5828 17.569 14.7187 17.644 14.7187 17.6487C14.7187 17.6533 14.1375 18.0424 13.4297 18.5159C12.4828 19.1487 12.1031 19.3737 12 19.3737C11.8969 19.3737 11.5172 19.1487 10.5703 18.5159C9.8625 18.0424 9.28125 17.6533 9.28125 17.644C9.28125 17.6346 9.40781 17.5737 9.5625 17.5033C9.90937 17.3487 10.2703 16.9737 10.3781 16.6596C10.4344 16.4955 10.4531 16.2565 10.4531 15.7596C10.4531 15.1362 10.4578 15.0846 10.5375 15.1174C10.5797 15.1315 10.7953 15.1924 11.0156 15.244ZM15.7594 21.8533C16.2281 22.1159 16.2937 22.7159 15.8953 23.0768C15.5953 23.344 15.1922 23.3674 14.9062 23.1237C14.7094 22.9596 14.625 22.7815 14.625 22.5237C14.625 21.9237 15.2391 21.5627 15.7594 21.8533Z" fill="black"/>
<path d="M9.98439 9.43594C9.81095 9.525 9.74533 9.68906 9.76408 9.99375C9.78283 10.3219 9.88127 10.4531 10.111 10.4531C10.3688 10.4531 10.4531 10.3266 10.4531 9.92344C10.4531 9.65156 10.4344 9.5625 10.3735 9.50625C10.2469 9.39375 10.1156 9.37031 9.98439 9.43594Z" fill="black"/>
<path d="M13.7813 9.40798C13.5891 9.47829 13.5469 9.57204 13.5469 9.9236C13.5469 10.2049 13.5656 10.2845 13.6406 10.3595C13.7672 10.4861 14.0203 10.4814 14.1375 10.3549C14.2688 10.2095 14.2641 9.65173 14.1328 9.52048C14.025 9.41735 13.8844 9.37048 13.7813 9.40798Z" fill="black"/>
<path d="M10.6172 11.7656C10.5141 11.8781 10.5047 12.1031 10.5985 12.2156C10.7063 12.3469 10.9922 12.5063 11.2922 12.6094C11.8594 12.8016 12.6797 12.7125 13.1625 12.4031C13.3969 12.2578 13.4672 12.1594 13.4672 12C13.4672 11.6813 13.1344 11.5734 12.8156 11.7891C12.5906 11.9438 12.3703 12 12 12C11.6297 12 11.4094 11.9438 11.1844 11.7891C10.9735 11.6438 10.7344 11.6344 10.6172 11.7656Z" fill="black"/>
<path d="M2.34844 10.5518C1.875 10.6362 1.41094 11.0159 1.2375 11.4659C1.15781 11.6674 1.14844 11.8268 1.14844 12.844C1.14844 13.9221 1.15313 14.0112 1.25625 14.3065C1.39688 14.7143 1.65469 15.1034 1.98281 15.4128L2.25 15.6612V16.1487V16.6315L1.51406 16.8799C1.10625 17.0112 0.698438 17.1612 0.604688 17.2081C0.379688 17.3206 0.121875 17.6206 0.05625 17.8549C0.01875 17.9768 0 18.544 0 19.5893V21.1456L0.117188 21.2581C0.2625 21.4081 0.440625 21.4081 0.585938 21.2581L0.703125 21.1456V19.5987C0.703125 18.0612 0.703125 18.0518 0.80625 17.9346C0.88125 17.8549 1.11094 17.7518 1.54688 17.6065C1.89375 17.4893 2.19375 17.3909 2.2125 17.3909C2.23594 17.3909 2.25 17.7893 2.25 18.2815V19.1721H1.95C1.72031 19.1721 1.62188 19.1956 1.5 19.2753C1.19531 19.4862 1.14844 19.594 1.13438 20.1706C1.125 20.4659 1.13906 20.7659 1.16719 20.8643C1.275 21.2159 1.74375 21.4737 2.01094 21.3237C2.27344 21.1784 2.24531 20.8081 1.96875 20.7049C1.82813 20.6534 1.82813 20.6487 1.82813 20.2643V19.8753H2.60156H3.375V20.2737C3.375 20.6018 3.36094 20.6721 3.30469 20.6721C3.1875 20.6721 3 20.8924 3 21.0237C3 21.094 3.05156 21.1971 3.12188 21.2674C3.33281 21.4784 3.73125 21.3565 3.975 21.0003C4.06875 20.8596 4.07812 20.7893 4.07812 20.2784C4.07812 19.7768 4.06406 19.6878 3.97031 19.5284C3.82969 19.2799 3.60938 19.1721 3.24844 19.1721H2.95312V18.5393C2.95312 18.1924 2.9625 17.9065 2.97188 17.9065C2.98125 17.9065 3.09844 17.9768 3.22969 18.0659C3.69844 18.3846 3.8625 18.3518 4.6125 17.7893L5.16563 17.3768L5.41875 17.4378C5.65781 17.494 5.68594 17.494 5.80313 17.4049C5.95781 17.2878 5.99531 17.0487 5.88281 16.9174C5.83594 16.8706 5.66719 16.7862 5.50313 16.7346L5.20312 16.6315V16.1487V15.6659L5.41406 15.4971C5.69531 15.2628 6.01875 14.8034 6.17344 14.4096C6.3 14.0956 6.3 14.0581 6.31875 12.9237C6.3375 11.6018 6.31406 11.4659 6 11.0674C5.86875 10.9034 5.72344 10.7909 5.49844 10.6784L5.17969 10.5237L3.89063 10.5143C3.18281 10.5096 2.48438 10.5284 2.34844 10.5518ZM5.21719 11.3159C5.325 11.3674 5.4375 11.4799 5.50781 11.6018C5.61094 11.7753 5.625 11.8503 5.625 12.2721C5.625 12.8346 5.6625 12.8159 4.95938 12.6378C4.49063 12.5206 3.96094 12.2768 3.47344 11.9628C3.25781 11.8174 3.12656 11.7659 2.99531 11.7659C2.74688 11.7659 2.65313 11.8081 2.20781 12.1409L1.81875 12.4315L1.8375 12.0753C1.85625 11.7003 1.92188 11.5596 2.16563 11.3768C2.36719 11.2268 2.55469 11.2081 3.82031 11.2174C4.90781 11.2268 5.05781 11.2362 5.21719 11.3159ZM3.22969 12.6331C3.75 13.0081 4.66875 13.3549 5.3625 13.4346L5.63906 13.4674L5.61094 13.7487C5.54063 14.5221 4.86094 15.2253 4.04063 15.3753C2.97188 15.5674 1.91719 14.7284 1.84688 13.6315L1.82344 13.2893L2.37656 12.8815C2.68125 12.6565 2.94375 12.4737 2.9625 12.469C2.98594 12.469 3.10313 12.544 3.22969 12.6331ZM3.95625 16.0971C4.11094 16.0831 4.29375 16.0503 4.36875 16.0315L4.5 15.9893V16.3034C4.5 16.4768 4.51406 16.6924 4.52813 16.7862C4.55625 16.9503 4.55156 16.9596 4.16719 17.2456C3.95156 17.4049 3.75938 17.5362 3.74063 17.5456C3.72188 17.5503 3.525 17.419 3.30469 17.2549C2.96719 17.0065 2.90156 16.9362 2.925 16.8565C2.93906 16.8003 2.95312 16.5893 2.95312 16.3784V16.0034L3.31875 16.0643C3.53438 16.1018 3.7875 16.1159 3.95625 16.0971Z" fill="#3F6B68"/>
<path d="M19.2281 10.5469C18.6469 10.6313 18.1078 11.0438 17.8266 11.6156L17.6953 11.8828V12.9844C17.6953 14.0766 17.6953 14.0906 17.8266 14.4094C17.9859 14.8078 18.3 15.2531 18.5813 15.4875L18.7969 15.6609V16.1484V16.6313L18.4969 16.7344C18.3328 16.7859 18.1641 16.8703 18.1172 16.9172C18.0047 17.0484 18.0422 17.2875 18.1969 17.4047C18.3141 17.4938 18.3422 17.4938 18.5813 17.4375L18.8391 17.3766L19.3875 17.7891C19.6875 18.0141 20.0109 18.2203 20.1 18.2438C20.3438 18.3094 20.5594 18.2297 21 17.9063C21.2063 17.7516 21.3844 17.625 21.3984 17.625C21.4125 17.625 21.4219 17.9813 21.4219 18.4219V19.2188L21.2484 19.3078C20.7281 19.5703 20.5266 20.2219 20.7938 20.7563C21.1313 21.4359 21.9844 21.5719 22.5328 21.0375C23.0391 20.5406 22.9547 19.7203 22.3547 19.3453L22.125 19.2047V18.3469V17.4891L22.6078 17.6531C23.3484 17.9016 23.2969 17.7516 23.2969 19.5984V21.1453L23.4141 21.2578C23.475 21.3234 23.5828 21.375 23.6484 21.375C23.7141 21.375 23.8219 21.3234 23.8828 21.2578L24 21.1453V19.5891C24 18.5438 23.9813 17.9766 23.9438 17.8547C23.8781 17.6203 23.6203 17.3203 23.3953 17.2078C23.3016 17.1609 22.8938 17.0109 22.4906 16.8797L21.75 16.6313V16.1484V15.6609L22.0312 15.3938C22.3641 15.075 22.5656 14.775 22.725 14.3531C22.8328 14.0672 22.8469 13.9594 22.8656 13.1484C22.8797 12.5438 22.8656 12.1781 22.8281 12C22.6547 11.2172 22.0547 10.6641 21.2578 10.5469C20.8781 10.4953 19.5938 10.4953 19.2281 10.5469ZM21.4688 11.325C21.7219 11.4422 21.9375 11.6484 22.0594 11.8922C22.1391 12.0469 22.1484 12.1828 22.1484 13.0078V13.9453L21.9984 14.2594C21.2906 15.7547 19.275 15.7781 18.5484 14.3016L18.3984 13.9969L18.3844 13.0641C18.3703 12.1406 18.3703 12.1313 18.4922 11.8828C18.6609 11.5359 18.9703 11.3063 19.3594 11.2313C19.425 11.2219 19.8797 11.2172 20.3672 11.2219C21.1547 11.2313 21.2813 11.2406 21.4688 11.325ZM20.0438 16.0969C20.2125 16.1156 20.4656 16.1016 20.6859 16.0641L21.0469 16.0031V16.3781C21.0469 16.5891 21.0609 16.8 21.075 16.8563C21.0984 16.9359 21.0328 17.0063 20.7094 17.2453C20.4938 17.4047 20.3063 17.5359 20.2875 17.5453C20.2688 17.55 20.0719 17.4188 19.8516 17.2547C19.4484 16.9547 19.4438 16.95 19.4719 16.7859C19.4859 16.6922 19.5 16.4766 19.5 16.3031V15.9891L19.6313 16.0313C19.7063 16.05 19.8891 16.0828 20.0438 16.0969ZM21.9891 19.9359C22.0875 20.0109 22.1719 20.175 22.1719 20.2969C22.1719 20.4375 21.9234 20.6719 21.7734 20.6719C21.5953 20.6719 21.375 20.4375 21.375 20.25C21.375 19.9641 21.7641 19.7625 21.9891 19.9359Z" fill="#3F6B68"/>
</g>
<defs>
<clipPath id="clip0_51_7711">
<rect width="24" height="24" fill="white"/>
</clipPath>
</defs>
</svg>
