<svg width="25" height="25" viewBox="0 0 25 25" fill="none" xmlns="http://www.w3.org/2000/svg">
<g clip-path="url(#clip0_62_22968)">
<path d="M11.096 10.624C11.1894 10.7284 11.3141 10.7779 11.4309 10.7779C11.5477 10.7779 11.6763 10.7284 11.7658 10.624L16.1123 5.83938C16.1123 5.83938 16.1162 5.83388 16.1201 5.82839C16.4317 5.47682 16.6809 5.05383 16.8367 4.58141C16.9536 4.21885 17.0198 3.82883 17.0198 3.42232C17.0198 1.53263 15.6333 0 13.9274 0C12.8953 0 11.9839 0.56581 11.4231 1.42826C10.8623 0.56581 9.95092 0 8.91883 0C7.21296 0 5.82645 1.53263 5.82645 3.42232C5.82645 3.81784 5.88876 4.20237 6.00171 4.55944C6.13023 4.96594 6.32886 5.33399 6.57423 5.6526C6.67159 5.77895 6.78454 5.8998 6.89749 6.00967L11.0921 10.624H11.096ZM6.74949 4.27379C6.6638 4.00461 6.61707 3.71896 6.61707 3.42232C6.61707 2.74116 6.85854 2.09844 7.29474 1.61503C7.73095 1.13162 8.30736 0.867941 8.91883 0.867941C9.8185 0.867941 10.6403 1.45572 11.0181 2.36761C11.0882 2.5434 11.2479 2.65326 11.4231 2.65326C11.5984 2.65326 11.7581 2.5379 11.8282 2.36761C12.2021 1.45572 13.0277 0.867941 13.9274 0.867941C14.5389 0.867941 15.1192 1.13711 15.5515 1.61503C15.9877 2.09844 16.2292 2.74116 16.2292 3.42232C16.2292 3.72446 16.1824 4.0156 16.0928 4.29027C15.9799 4.64184 15.793 4.96594 15.5515 5.23511L11.4309 9.76708L7.45832 5.39991L7.43495 5.37794C7.34148 5.29005 7.2558 5.19666 7.1779 5.09229C6.99096 4.85058 6.84685 4.57042 6.74949 4.27379Z" fill="#3F6B68"/>
<path d="M24.9026 15.5738C24.8053 15.4365 24.6534 15.3541 24.4898 15.3541C23.2357 15.3541 22.3789 14.6509 21.3857 13.8324C21.1676 13.6567 20.9495 13.4754 20.7275 13.2996C19.8084 12.591 18.64 11.8604 16.9653 11.8604C16.2447 11.8604 15.6917 11.8658 15.2399 11.8823H11.7152C10.9207 11.8823 10.2742 12.58 10.2742 13.4424C10.2742 14.3049 10.9207 15.0025 11.7152 15.0025H14.9751C15.3918 15.1014 15.6917 15.5134 15.6917 16.0078C15.6917 16.3594 15.5281 16.689 15.2633 16.8757L14.0598 17.2273C13.6548 17.3372 13.2419 17.458 12.8096 17.5954L12.7239 17.6173C10.4845 18.271 9.71725 18.4908 9.48746 18.5567C9.39788 18.5567 9.31999 18.5567 9.25768 18.5457L4.14395 14.8762L3.20923 14.1291C3.20923 14.1291 3.17417 14.1016 3.1547 14.0906C3.10407 14.0577 3.05344 14.0247 2.99891 13.9972C2.89376 13.9368 2.79639 13.8929 2.69123 13.8599C2.61334 13.8379 2.52766 13.816 2.43418 13.7995C2.18882 13.761 2.00577 13.7665 1.80324 13.8105C0.771152 13.9258 -0.00389099 14.8542 -0.00389099 15.9858C-0.00389099 16.5571 0.198633 17.101 0.572523 17.513C0.580312 17.5239 0.588101 17.5349 0.599785 17.5404C0.7361 17.6887 0.887992 17.8096 1.04767 17.9085L9.54588 24.7311C9.59262 24.7696 9.64325 24.7971 9.69777 24.8135L9.78346 24.8465C10.0444 24.9454 10.2937 24.9948 10.5429 24.9948C10.6909 24.9948 10.8428 24.9783 10.9986 24.9454C11.0103 24.9454 11.0181 24.9454 11.0298 24.9399L11.0687 24.9289C14.1143 24.072 19.6136 22.5228 22.2231 21.8087C22.2426 21.8087 22.2581 21.7977 22.2776 21.7922L22.4451 21.7263C23.3525 21.4736 24.0731 21.3363 24.482 21.3363C24.7624 21.3363 24.9922 21.1001 24.9922 20.8089V20.4629C24.9961 20.4299 25 20.4024 25 20.3695L24.9922 15.9748C25.0156 15.8375 24.9844 15.6892 24.9026 15.5738ZM23.9796 20.3145C23.5044 20.375 22.893 20.5068 22.1569 20.7101C22.1374 20.7155 22.1218 20.721 22.1024 20.732L21.9388 20.7979C19.3138 21.5176 13.8417 23.0557 10.8 23.9126H10.7766C10.5624 23.9621 10.3638 23.9456 10.1573 23.8687L10.1145 23.8522L1.64356 17.0515C1.62409 17.035 1.60072 17.0186 1.57735 17.0076C1.49556 16.9581 1.41378 16.8977 1.33588 16.8153L1.3242 16.8043C1.12557 16.5901 1.01652 16.2989 1.01652 15.9968C1.01652 15.4035 1.40988 14.9201 1.93177 14.8707C1.95124 14.8707 1.97072 14.8707 1.99019 14.8597C2.08756 14.8377 2.19271 14.8377 2.2745 14.8542C2.31345 14.8597 2.35239 14.8707 2.38355 14.8762C2.4225 14.8927 2.46924 14.9091 2.51597 14.9366C2.54713 14.9531 2.57829 14.9696 2.60555 14.9915C2.60555 14.9915 2.61334 14.997 2.61723 14.997L3.53248 15.7331C3.53248 15.7331 3.54806 15.7441 3.55196 15.7496L8.76305 19.4851C8.81368 19.5235 8.86431 19.5455 8.92273 19.562C9.11747 19.6114 9.33557 19.6334 9.59262 19.6169C9.62378 19.6169 9.65493 19.6114 9.68609 19.6004C9.92367 19.54 11.0414 19.2159 13.0005 18.6446L13.0939 18.6171C13.5185 18.4798 13.9157 18.3644 14.3208 18.26L15.6099 17.881C15.6528 17.87 15.6917 17.8535 15.7306 17.8261C16.3343 17.458 16.7082 16.7659 16.7082 16.0188C16.7082 14.997 16.0344 14.1346 15.1114 13.9643C15.0841 13.9643 15.053 13.9588 15.0218 13.9588H11.7152C11.4815 13.9588 11.2907 13.7336 11.2907 13.4534C11.2907 13.1732 11.4815 12.948 11.7152 12.948H15.2555C15.7073 12.9315 16.2681 12.9261 16.9653 12.9261C18.3362 12.9261 19.2904 13.5193 20.12 14.1566C20.3381 14.3213 20.5484 14.4971 20.7548 14.6674C21.6856 15.431 22.6437 16.222 23.9757 16.3868V19.7927L23.9835 20.2981C23.9835 20.2981 23.9835 20.3145 23.9835 20.32L23.9796 20.3145Z" fill="black"/>
</g>
<defs>
<clipPath id="clip0_62_22968">
<rect width="25" height="25" fill="white"/>
</clipPath>
</defs>
</svg>
