<svg width="24" height="24" viewBox="0 0 24 24" fill="none" xmlns="http://www.w3.org/2000/svg">
<g clip-path="url(#clip0_51_6786)">
<path d="M10.6172 0.492188L10.5 0.604687V1.875V3.14531L10.6172 3.25781L10.7297 3.375H12H13.2703L13.3828 3.25781L13.5 3.14531V1.875V0.604687L13.3828 0.492188L13.2703 0.375H12H10.7297L10.6172 0.492188ZM12.75 1.875V2.625H12H11.25V1.875V1.125H12H12.75V1.875Z" fill="black"/>
<path d="M17.7422 1.61719L17.625 1.72969V3V4.27031L17.7422 4.38281C17.85 4.49531 17.8781 4.5 18.4922 4.5H19.125V4.875V5.25H18.6797C18.2672 5.25 18.2203 5.25937 18.1172 5.36719L18 5.47969V6.5625V7.64531L18.1172 7.75781L18.2297 7.875H19.3125H20.3953L20.5078 7.75781C20.6156 7.65469 20.625 7.60781 20.625 7.19531V6.75H21.6328C22.6453 6.75 22.6453 6.75 22.7578 6.63281L22.875 6.52031V4.875V3.22969L22.7578 3.11719C22.6453 3 22.6453 3 21.6328 3H20.625V2.36719C20.625 1.75312 20.6203 1.725 20.5078 1.61719L20.3953 1.5H19.125H17.8547L17.7422 1.61719ZM19.875 2.625V3H19.6172C19.4016 3 19.3359 3.01875 19.2422 3.11719C19.1438 3.21094 19.125 3.27656 19.125 3.49219V3.75H18.75H18.375V3V2.25H19.125H19.875V2.625ZM22.125 4.875V6H21H19.875V4.875V3.75H21H22.125V4.875ZM19.125 6.25781C19.125 6.47344 19.1438 6.53906 19.2422 6.63281C19.3359 6.73125 19.4016 6.75 19.6172 6.75H19.875V6.9375V7.125H19.3125H18.75V6.5625V6H18.9375H19.125V6.25781Z" fill="black"/>
<path d="M3.49219 2.74219L3.375 2.85469V3.9375V5.02031L3.49219 5.13281L3.60469 5.25H4.6875H5.77031L5.88281 5.13281L6 5.02031V3.9375V2.85469L5.88281 2.74219L5.77031 2.625H4.6875H3.60469L3.49219 2.74219ZM5.25 3.9375V4.5H4.6875H4.125V3.9375V3.375H4.6875H5.25V3.9375Z" fill="#3F6B68"/>
<path d="M11.0813 4.9875C10.9688 5.08125 10.95 5.1375 10.9313 5.41406L10.9125 5.72812L10.7016 5.81719C10.5844 5.86406 10.4719 5.90625 10.4438 5.90625C10.4156 5.90625 10.2891 5.8125 10.1672 5.69531C9.82031 5.36719 9.7875 5.38125 9.08438 6.08437C8.38125 6.7875 8.36719 6.82031 8.69531 7.16719C8.8125 7.28906 8.90625 7.41562 8.90625 7.44375C8.90625 7.47187 8.86406 7.58437 8.81719 7.70156L8.72813 7.90781L8.40938 7.93594C8.1375 7.95469 8.07188 7.97812 7.98281 8.08594C7.87969 8.20312 7.875 8.24531 7.875 9C7.875 9.75469 7.87969 9.79687 7.98281 9.91406C8.07188 10.0219 8.1375 10.0453 8.40938 10.0641L8.72813 10.0922L8.81719 10.2984C8.86406 10.4156 8.90625 10.5281 8.90625 10.5562C8.90625 10.5844 8.8125 10.7109 8.69531 10.8328C8.36719 11.1797 8.38125 11.2125 9.08438 11.9156C9.7875 12.6187 9.82031 12.6328 10.1672 12.3047C10.2891 12.1875 10.4156 12.0938 10.4438 12.0938C10.4719 12.0938 10.5844 12.1359 10.7016 12.1828L10.9078 12.2719L10.9359 12.5906C10.9547 12.8625 10.9781 12.9281 11.0859 13.0172C11.2031 13.1203 11.2453 13.125 12 13.125C12.7547 13.125 12.7969 13.1203 12.9141 13.0172C13.0219 12.9281 13.0453 12.8625 13.0641 12.5906L13.0922 12.2719L13.2984 12.1828C13.4156 12.1359 13.5281 12.0938 13.5563 12.0938C13.5844 12.0938 13.7109 12.1875 13.8328 12.3047C14.1797 12.6281 14.2125 12.6141 14.8922 11.9391C15.6047 11.2312 15.6234 11.175 15.3094 10.8375C15.1922 10.7109 15.0938 10.5844 15.0938 10.5562C15.0938 10.5281 15.1359 10.4156 15.1828 10.2984L15.2719 10.0922L15.5906 10.0641C15.8625 10.0453 15.9281 10.0219 16.0172 9.91406C16.1203 9.79687 16.125 9.75469 16.125 9C16.125 8.24531 16.1203 8.20312 16.0172 8.08594C15.9281 7.97812 15.8625 7.95469 15.5906 7.93594L15.2719 7.90781L15.1828 7.70156C15.1359 7.58437 15.0938 7.47187 15.0938 7.44375C15.0938 7.41562 15.1875 7.28906 15.3047 7.16719C15.6328 6.82031 15.6188 6.7875 14.9156 6.08437C14.2125 5.38125 14.1797 5.36719 13.8328 5.69531C13.7109 5.8125 13.5844 5.90625 13.5563 5.90625C13.5281 5.90625 13.4156 5.86406 13.2984 5.81719L13.0922 5.72812L13.0641 5.40937C13.0453 5.1375 13.0219 5.07187 12.9141 4.98281C12.7969 4.87969 12.7547 4.875 12 4.875C11.2359 4.875 11.2031 4.87969 11.0813 4.9875ZM12.3281 5.79844C12.3281 6.00469 12.4594 6.24844 12.6188 6.3375C12.7781 6.42656 13.2188 6.60937 13.4016 6.66562C13.6125 6.72656 13.8422 6.67969 14.0203 6.52969L14.1656 6.40781L14.3766 6.62344L14.5922 6.83437L14.4703 6.97969C14.3203 7.15781 14.2734 7.3875 14.3344 7.59844C14.3906 7.78125 14.5734 8.22187 14.6625 8.38125C14.7516 8.54062 14.9953 8.67188 15.2016 8.67188H15.375V9V9.32812H15.2016C14.9953 9.32812 14.7516 9.45937 14.6625 9.61875C14.5734 9.77812 14.3906 10.2188 14.3344 10.4016C14.2734 10.6125 14.3203 10.8422 14.4703 11.0203L14.5922 11.1656L14.3766 11.3766L14.1656 11.5922L14.0203 11.4703C13.8422 11.3203 13.6125 11.2734 13.4016 11.3344C13.2188 11.3906 12.7781 11.5734 12.6188 11.6625C12.4594 11.7516 12.3281 11.9953 12.3281 12.1969V12.375H12H11.6719V12.1969C11.6719 11.9953 11.5406 11.7516 11.3813 11.6625C11.2219 11.5734 10.7812 11.3906 10.5984 11.3344C10.3875 11.2734 10.1578 11.3203 9.97969 11.4703L9.83438 11.5922L9.62344 11.3766L9.40781 11.1656L9.525 11.0203C9.66563 10.8562 9.72656 10.5844 9.66094 10.3828C9.60469 10.2094 9.41719 9.76406 9.3375 9.61875C9.24844 9.45937 9.00469 9.32812 8.80313 9.32812H8.625V9V8.67188H8.78906C9 8.67188 9.20156 8.56875 9.31406 8.40469C9.42656 8.24062 9.70313 7.5375 9.70313 7.41094C9.70313 7.27031 9.61406 7.06875 9.50156 6.94687L9.40313 6.83906L9.61875 6.62344L9.83438 6.40781L9.97969 6.52969C10.1578 6.67969 10.3875 6.72656 10.5984 6.66562C10.7812 6.60937 11.2219 6.42656 11.3813 6.3375C11.5406 6.24844 11.6719 6.00469 11.6719 5.79844V5.625H12H12.3281V5.79844Z" fill="#3F6B68"/>
<path d="M11.4422 6.82511C10.2562 7.14386 9.52031 8.37667 9.82031 9.53917C10.1344 10.7392 11.3625 11.4845 12.5391 11.1798C13.65 10.8892 14.3812 9.81573 14.2172 8.70011C14.0297 7.37355 12.7078 6.48292 11.4422 6.82511ZM12.6328 7.64542C12.9281 7.78605 13.2094 8.0673 13.3594 8.3673C13.4531 8.55948 13.4766 8.67198 13.4766 9.00011C13.4719 9.36105 13.4578 9.42667 13.3172 9.69386C13.1391 10.022 12.9891 10.1673 12.6375 10.3501C12.4359 10.4532 12.3375 10.472 12 10.472C11.6719 10.4767 11.5594 10.4532 11.3672 10.3595C10.1484 9.75948 10.2516 8.03917 11.5312 7.57511C11.8266 7.4673 12.3281 7.50011 12.6328 7.64542Z" fill="#3F6B68"/>
<path d="M2.74219 6.49219C2.625 6.60469 2.625 6.60469 2.625 7.61719V8.625H1.99219C1.37813 8.625 1.35 8.62969 1.24219 8.74219L1.125 8.85469V10.125V11.3953L1.24219 11.5078L1.35469 11.625H2.625H3.89531L4.00781 11.5078C4.12031 11.4 4.125 11.3719 4.125 10.7578V10.125H5.13281C6.14531 10.125 6.14531 10.125 6.25781 10.0078L6.375 9.89531V8.25V6.60469L6.25781 6.49219L6.14531 6.375H4.5H2.85469L2.74219 6.49219ZM5.625 8.25V9.375H4.5H3.375V8.25V7.125H4.5H5.625V8.25ZM2.625 9.63281C2.625 9.99844 2.75156 10.125 3.11719 10.125H3.375V10.5V10.875H2.625H1.875V10.125V9.375H2.25H2.625V9.63281Z" fill="black"/>
<path d="M17.3672 11.7421C17.25 11.8546 17.25 11.864 17.25 12.7499C17.25 13.9546 17.1703 13.8749 18.375 13.8749C19.5797 13.8749 19.5 13.9546 19.5 12.7499C19.5 11.5452 19.5797 11.6249 18.375 11.6249C17.4891 11.6249 17.4797 11.6249 17.3672 11.7421ZM18.75 12.7499V13.1249H18.375H18V12.7499V12.3749H18.375H18.75V12.7499Z" fill="#3F6B68"/>
<path d="M10.875 15.375V16.5H11.25H11.625V15.375V14.25H11.25H10.875V15.375Z" fill="#3F6B68"/>
<path d="M12.375 15.5625V16.875H12.75H13.125V15.5625V14.25H12.75H12.375V15.5625Z" fill="black"/>
<path d="M9.375 16.5V18.375H9.75H10.125V16.5V14.625H9.75H9.375V16.5Z" fill="black"/>
<path d="M13.875 16.6875V18.375H14.25H14.625V16.6875V15H14.25H13.875V16.6875Z" fill="black"/>
<path d="M10.875 17.625V18H11.25H11.625V17.625V17.25H11.25H10.875V17.625Z" fill="black"/>
<path d="M3.15 17.7047C3.0375 17.8031 0.75 23.1281 0.75 23.2875C0.75 23.3484 0.801563 23.4469 0.867188 23.5078L0.979688 23.625H12H23.0203L23.1328 23.5078C23.1984 23.4469 23.25 23.3484 23.25 23.2875C23.25 23.1281 20.9625 17.8031 20.85 17.7047C20.7609 17.6297 20.5781 17.625 18.4406 17.625H16.125V18V18.375H18.2531H20.3813L21.3375 20.6156L22.2984 22.8516L17.1516 22.8656C14.3156 22.8703 9.68438 22.8703 6.84844 22.8656L1.70156 22.8516L2.6625 20.6109L3.61875 18.375H5.74688H7.875V18V17.625H5.55938C3.42188 17.625 3.23906 17.6297 3.15 17.7047Z" fill="black"/>
<path d="M12.375 19.125V20.625H12.75H13.125V19.125V17.625H12.75H12.375V19.125Z" fill="#3F6B68"/>
<path d="M3.9 18.8297C3.79219 18.9187 2.625 21.9797 2.625 22.1672C2.625 22.2234 2.67656 22.3219 2.74219 22.3828L2.85469 22.5H12H21.1453L21.2578 22.3828C21.3234 22.3219 21.375 22.2234 21.375 22.1672C21.375 21.9797 20.2078 18.9187 20.1 18.8297C20.0156 18.7594 19.8609 18.75 18.4406 18.75H16.875V19.125V19.5H18.2484H19.6172L20.0297 20.5922C20.2547 21.1969 20.4375 21.7031 20.4375 21.7172C20.4375 21.7359 16.6406 21.75 12 21.75C7.35938 21.75 3.5625 21.7359 3.5625 21.7172C3.5625 21.7031 3.74531 21.1969 3.97031 20.5922L4.38281 19.5H5.75156H7.125V19.125V18.75H5.55938C4.13906 18.75 3.98438 18.7594 3.9 18.8297Z" fill="black"/>
<path d="M10.875 19.6875V20.625H11.25H11.625V19.6875V18.75H11.25H10.875V19.6875Z" fill="black"/>
<path d="M9.375 19.5V19.875H9.75H10.125V19.5V19.125H9.75H9.375V19.5Z" fill="#3F6B68"/>
<path d="M13.875 19.5V19.875H14.25H14.625V19.5V19.125H14.25H13.875V19.5Z" fill="#3F6B68"/>
</g>
<defs>
<clipPath id="clip0_51_6786">
<rect width="24" height="24" fill="white"/>
</clipPath>
</defs>
</svg>
