<svg width="19" height="21" viewBox="0 0 19 21" fill="none" xmlns="http://www.w3.org/2000/svg">
<g clip-path="url(#clip0_518_4307)">
<path d="M13.5936 20.5692C13.6982 20.5692 13.7959 20.5317 13.8796 20.469L18.2956 16.7304C18.3793 16.6615 18.4212 16.5613 18.4212 16.4611C18.463 16.3985 18.4909 16.3233 18.4909 16.2357V2.40203C18.4909 1.53781 17.7096 0.836426 16.7469 0.836426H2.04779C1.08506 0.836426 0.303711 1.53781 0.303711 2.40203V19.1038C0.303711 19.9681 1.08506 20.6694 2.04779 20.6694H13.2796C13.3982 20.6694 13.5029 20.6319 13.5866 20.5692H13.5936ZM14.0052 19.3418V17.9077C14.0052 17.3128 14.5424 16.8369 15.1981 16.8369H16.9701L14.0052 19.3481V19.3418ZM12.7983 19.8052H2.04779C1.62223 19.8052 1.27342 19.4921 1.27342 19.1101V2.40203C1.27342 2.02002 1.62223 1.7069 2.04779 1.7069H16.7469C17.1724 1.7069 17.5212 2.02002 17.5212 2.40203V15.8036H15.2609C13.9005 15.8036 12.7983 16.793 12.7983 18.0142V19.799V19.8052Z" fill="#272525"/>
<path d="M4.07023 6.61096H14.7231C14.9882 6.61096 15.2044 6.41683 15.2044 6.17886V5.40232C15.2044 5.16435 14.9882 4.97021 14.7231 4.97021H4.07023C3.80513 4.97021 3.58887 5.16435 3.58887 5.40232V6.17886C3.58887 6.41683 3.80513 6.61096 4.07023 6.61096ZM4.1679 5.48373H14.6254V6.08492H4.1679V5.48373Z" fill="#272525"/>
<path d="M4.07023 9.32727H14.7231C14.9882 9.32727 15.2044 9.13314 15.2044 8.89517V8.11863C15.2044 7.88066 14.9882 7.68652 14.7231 7.68652H4.07023C3.80513 7.68652 3.58887 7.88066 3.58887 8.11863V8.89517C3.58887 9.13314 3.80513 9.32727 4.07023 9.32727ZM4.1679 8.20004H14.6254V8.80123H4.1679V8.20004Z" fill="#272525"/>
<path d="M15.2044 11.6208V10.8442C15.2044 10.6062 14.9882 10.4121 14.7231 10.4121H4.07023C3.80513 10.4121 3.58887 10.6062 3.58887 10.8442V11.6208C3.58887 11.8587 3.80513 12.0529 4.07023 12.0529H14.7231C14.9882 12.0529 15.2044 11.8587 15.2044 11.6208ZM14.6254 11.5331H4.1679V10.9319H14.6254V11.5331Z" fill="#272525"/>
</g>
<defs>
<clipPath id="clip0_518_4307">
<rect width="18.1803" height="19.833" fill="white" transform="translate(0.303711 0.836426)"/>
</clipPath>
</defs>
</svg>
