<svg width="23" height="28" viewBox="0 0 23 28" fill="none" xmlns="http://www.w3.org/2000/svg">
<path d="M3.03134 26.4076C3.93687 26.3022 4.61505 25.8671 5.18246 25.437C5.80234 24.9701 6.38725 24.4631 6.59517 23.8824C6.73314 23.4942 6.69816 23.0925 6.6593 22.6976C6.62238 22.2993 6.76034 21.9245 6.72148 21.5346C6.66318 20.9723 6.57768 20.4117 6.50578 19.8494C6.41834 19.1667 6.32895 18.4772 6.02193 17.8162C5.56916 16.8423 4.64225 15.9052 4.8016 14.8994C4.99203 13.6996 4.53538 12.6202 4.85018 11.4287C4.93956 11.089 5.05421 10.751 5.2427 10.4263C5.56139 9.87579 6.088 9.37711 6.50384 8.84998C6.83613 8.42827 7.39188 7.67021 7.12955 7.19998C6.8886 6.76656 5.73433 6.68456 5.35152 6.2913C5.2155 6.15074 5.1708 5.98674 5.13194 5.82776C4.94928 5.06803 4.86766 4.29825 4.88515 3.53015C4.8871 3.41635 4.89293 3.29921 4.95899 3.19044C5.06976 3.00971 5.34375 2.8089 5.14943 2.65494C4.97843 2.5194 4.61116 2.57462 4.37798 2.67335C3.8708 2.88755 3.556 3.23395 3.41415 3.59374C3.27229 3.95353 3.28784 4.3267 3.33059 4.69485C3.37334 5.05799 3.44135 5.4228 3.60264 5.77254C3.92132 6.46702 4.60145 7.1163 4.63254 7.83588C4.6442 8.09191 4.55675 8.36468 4.25556 8.54709C3.99517 8.70439 3.62013 8.77133 3.2859 8.86839C2.82536 9.00226 2.42311 9.20307 2.1258 9.45074C1.90234 9.3905 1.64389 9.30515 1.39905 9.3018C1.24165 8.937 1.37378 8.46174 1.45151 8.08857C1.65361 7.09455 0.975428 6.1909 1.00069 5.19019C1.01235 4.73 1.02401 4.26813 1.19501 3.81965C1.34075 3.44145 1.59725 3.08167 1.85181 2.72523C2.16467 2.28679 2.55137 1.80652 3.30533 1.64085C3.81445 1.52873 4.42461 1.59901 4.82491 1.81656C5.08725 1.9588 5.29517 2.16798 5.64689 2.20312C5.92477 2.22989 6.19682 2.13283 6.38919 2.01067C6.58157 1.88851 6.71759 1.73958 6.90803 1.61742C7.18591 1.43836 7.56483 1.32289 7.94958 1.2342C9.98606 0.770663 12.3956 1.01833 14.162 1.77305C14.8227 2.05586 15.4134 2.41397 15.7399 2.85576C16.0644 3.29754 16.0935 3.83136 15.6874 4.24972C15.5378 4.40368 15.326 4.55429 15.3474 4.73167C15.3551 4.80028 15.3998 4.86554 15.4542 4.92579C15.7651 5.27051 16.4414 5.52487 16.453 5.91478C16.0994 5.83781 15.6971 5.99344 15.5417 6.19592C15.3843 6.39841 15.4076 6.63101 15.4348 6.85358L15.5417 7.76727C15.5495 7.8409 15.5533 7.9229 15.464 7.97477C15.4076 8.00657 15.326 8.01828 15.2483 8.02665C14.3097 8.12036 13.377 7.88608 12.4811 7.69866C11.9429 7.58487 11.3755 7.48613 10.8061 7.52295C10.6778 7.53131 10.5438 7.54805 10.4485 7.59993C10.3417 7.6585 10.3067 7.74886 10.2795 7.83253C10.1396 8.25256 10.0521 8.67929 10.0152 9.10769C8.86872 9.07254 7.72612 8.98887 6.59906 8.85667" fill="#FAFCFC"/>
<path d="M3.03134 26.4076C3.93687 26.3022 4.61505 25.8671 5.18246 25.437C5.80234 24.9701 6.38725 24.4631 6.59517 23.8824C6.73314 23.4942 6.69816 23.0925 6.6593 22.6976C6.62238 22.2993 6.76034 21.9245 6.72148 21.5346C6.66318 20.9723 6.57768 20.4117 6.50578 19.8494C6.41834 19.1667 6.32895 18.4772 6.02193 17.8162C5.56916 16.8423 4.64225 15.9052 4.8016 14.8994C4.99203 13.6996 4.53538 12.6202 4.85018 11.4287C4.93956 11.089 5.05421 10.751 5.2427 10.4263C5.56139 9.87579 6.088 9.37711 6.50384 8.84998C6.83613 8.42827 7.39188 7.67021 7.12955 7.19998C6.8886 6.76656 5.73433 6.68456 5.35152 6.2913C5.2155 6.15074 5.1708 5.98674 5.13194 5.82776C4.94928 5.06803 4.86766 4.29825 4.88515 3.53015C4.8871 3.41635 4.89293 3.29921 4.95899 3.19044C5.06976 3.00971 5.34375 2.8089 5.14943 2.65494C4.97843 2.5194 4.61116 2.57462 4.37798 2.67335C3.8708 2.88755 3.556 3.23395 3.41415 3.59374C3.27229 3.95353 3.28784 4.3267 3.33059 4.69485C3.37334 5.05799 3.44135 5.4228 3.60264 5.77254C3.92132 6.46702 4.60145 7.1163 4.63254 7.83588C4.6442 8.09191 4.55675 8.36468 4.25556 8.54709C3.99517 8.70439 3.62013 8.77133 3.2859 8.86839C2.82536 9.00226 2.42311 9.20307 2.1258 9.45074C1.90234 9.39049 1.64389 9.30515 1.39905 9.3018C1.24165 8.937 1.37378 8.46174 1.45151 8.08857C1.65361 7.09455 0.975428 6.1909 1.00069 5.19019C1.01235 4.73 1.02401 4.26813 1.19501 3.81965C1.34075 3.44145 1.59725 3.08167 1.85181 2.72523C2.16467 2.28679 2.55137 1.80652 3.30533 1.64085C3.81445 1.52873 4.42461 1.59901 4.82491 1.81656C5.08725 1.9588 5.29517 2.16798 5.64689 2.20312C5.92477 2.22989 6.19682 2.13283 6.38919 2.01067C6.58157 1.88851 6.71759 1.73958 6.90803 1.61742C7.18591 1.43836 7.56483 1.32289 7.94958 1.2342C9.98606 0.770663 12.3956 1.01833 14.162 1.77305C14.8227 2.05586 15.4134 2.41397 15.7399 2.85576C16.0644 3.29754 16.0935 3.83136 15.6874 4.24972C15.5378 4.40368 15.326 4.55429 15.3474 4.73167C15.3551 4.80028 15.3998 4.86554 15.4542 4.92579C15.7651 5.27051 16.4414 5.52487 16.453 5.91478C16.0994 5.83781 15.6971 5.99344 15.5417 6.19592C15.3843 6.39841 15.4076 6.63101 15.4348 6.85358L15.5417 7.76727C15.5495 7.8409 15.5533 7.9229 15.464 7.97477C15.4076 8.00657 15.326 8.01828 15.2483 8.02665C14.3097 8.12036 13.377 7.88608 12.4811 7.69866C11.9429 7.58487 11.3755 7.48613 10.8061 7.52295C10.6778 7.53131 10.5438 7.54805 10.4485 7.59993C10.3417 7.6585 10.3067 7.74886 10.2795 7.83253C10.1396 8.25256 10.0521 8.67929 10.0152 9.10769C8.86872 9.07254 7.72612 8.98887 6.59906 8.85667" stroke="black" stroke-width="0.75" stroke-miterlimit="10"/>
<path d="M10.1529 9.18803C10.219 9.15289 10.3122 9.13615 10.3997 9.14619C10.491 9.15623 10.5707 9.1897 10.6445 9.22317C11.995 9.82728 13.3475 10.4314 14.6203 11.0907C15.6969 11.648 16.7404 12.2655 17.3272 13.0369C17.539 13.3147 17.6886 13.6159 17.642 13.9188C17.5837 14.3054 17.2067 14.6568 16.7267 14.9229C16.2468 15.1889 15.6658 15.3814 15.0925 15.5722C15.9106 15.8198 16.6995 16.1043 17.4496 16.4206C18.3804 16.8122 19.3268 17.1251 19.9952 17.6723C20.6229 18.1877 21.0115 18.7902 21.3885 19.3842C21.5459 19.6336 21.7033 19.8846 21.7946 20.144C21.9306 20.5322 21.9151 20.9322 21.9015 21.3288C21.8782 21.9513 21.8529 22.5822 21.5867 23.1846C21.474 23.4423 21.3127 23.6933 21.099 23.9276C20.9163 24.1267 20.6753 24.2589 20.6676 24.4848C20.654 24.9634 20.9474 25.422 20.3022 25.8236C19.9661 26.0328 19.4744 26.1248 19.0022 26.2001C18.7088 26.247 18.4057 26.2905 18.1025 26.2771C17.5623 26.2537 17.0163 26.0579 16.513 26.1767C16.3051 26.2252 16.1418 26.3239 15.9611 26.4026C15.6891 26.5231 15.3743 26.6017 15.0614 26.677C14.1539 26.8946 13.229 27.0854 12.2885 27.246C12.2166 27.2577 12.0942 27.2343 12.1388 27.1975" fill="#FAFCFC"/>
<path d="M10.1529 9.18803C10.219 9.15289 10.3122 9.13615 10.3997 9.14619C10.491 9.15623 10.5707 9.1897 10.6445 9.22317C11.995 9.82728 13.3475 10.4314 14.6203 11.0907C15.6969 11.648 16.7404 12.2655 17.3272 13.0369C17.539 13.3147 17.6886 13.6159 17.642 13.9188C17.5837 14.3054 17.2067 14.6568 16.7267 14.9229C16.2468 15.1889 15.6658 15.3814 15.0925 15.5722C15.9106 15.8198 16.6995 16.1043 17.4496 16.4206C18.3804 16.8122 19.3268 17.1251 19.9952 17.6723C20.6229 18.1877 21.0115 18.7902 21.3885 19.3842C21.5459 19.6336 21.7033 19.8846 21.7946 20.144C21.9306 20.5322 21.9151 20.9322 21.9015 21.3288C21.8782 21.9513 21.8529 22.5822 21.5867 23.1846C21.474 23.4423 21.3127 23.6933 21.099 23.9276C20.9163 24.1267 20.6753 24.2589 20.6676 24.4848C20.654 24.9634 20.9474 25.422 20.3022 25.8236C19.9661 26.0328 19.4744 26.1248 19.0022 26.2001C18.7088 26.247 18.4057 26.2905 18.1025 26.2771C17.5623 26.2537 17.0163 26.0579 16.513 26.1767C16.3051 26.2252 16.1418 26.3239 15.9611 26.4026C15.6891 26.5231 15.3743 26.6017 15.0614 26.677C14.1539 26.8946 13.229 27.0854 12.2885 27.246C12.2166 27.2577 12.0942 27.2343 12.1388 27.1975" stroke="black" stroke-width="0.75" stroke-miterlimit="10"/>
<path d="M20.6315 25.0253C20.5129 25.0337 20.3924 25.0287 20.2758 25.012L20.6315 25.0253Z" fill="#FAFCFC"/>
<path d="M20.6315 25.0253C20.5129 25.0337 20.3924 25.0287 20.2758 25.012" stroke="black" stroke-width="0.75" stroke-miterlimit="10"/>
<path d="M20.4176 25.0402C20.2252 25.0068 20.0037 25.0135 19.8055 25.0017C19.5879 24.9884 19.3683 24.9917 19.1507 25.0017C19.0185 25.0084 18.8864 25.0185 18.7542 25.0084C18.6221 24.9984 18.49 24.9699 18.4045 24.9114" fill="#FAFCFC"/>
<path d="M20.4176 25.0402C20.2252 25.0068 20.0037 25.0135 19.8055 25.0017C19.5879 24.9884 19.3683 24.9917 19.1507 25.0017C19.0185 25.0084 18.8864 25.0185 18.7542 25.0084C18.6221 24.9984 18.49 24.9699 18.4045 24.9114" stroke="black" stroke-width="0.75" stroke-miterlimit="10"/>
<path d="M18.4972 24.9199C18.2931 24.699 17.887 24.5735 17.5547 24.4162C17.1039 24.202 16.7736 23.9125 16.4568 23.6263C15.561 22.8097 14.741 21.9629 14.0006 21.0927C13.1145 20.0502 12.9746 18.9608 12.654 17.8229C12.5665 17.5116 12.4791 17.2003 12.4519 16.8857C12.4266 16.5828 12.4558 16.28 12.446 15.9771C12.4305 15.4365 12.2906 14.901 12.1526 14.3672L11.8922 13.3632C11.8164 13.072 11.7407 12.7775 11.5871 12.4963C11.4783 12.2955 11.3306 12.1014 11.2296 11.8989C11.08 11.596 10.9478 11.2178 10.4348 11.1291C9.8849 11.0338 9.55456 10.8815 8.98325 10.9116C8.41195 10.9417 7.84454 11.1158 7.56277 11.4103C7.28101 11.7081 7.3257 12.0713 7.32764 12.4127C7.33153 13.0218 7.17413 13.6276 7.14498 14.2367C7.07114 15.7963 7.83288 17.3208 8.58684 18.8169C9.17174 19.9749 9.76442 21.1446 10.7904 22.1905C11.0333 22.4382 11.3034 22.6808 11.6221 22.8967C11.9466 23.1176 12.3217 23.3117 12.6384 23.5376C13.1534 23.9041 13.5031 24.3459 14.0317 24.7073C14.8187 25.2428 15.9963 25.5959 16.4879 26.2435" fill="#FAFCFC"/>
<path d="M18.4972 24.9199C18.2931 24.699 17.887 24.5735 17.5547 24.4162C17.1039 24.202 16.7736 23.9125 16.4568 23.6263C15.561 22.8097 14.741 21.9629 14.0006 21.0927C13.1145 20.0502 12.9746 18.9608 12.654 17.8229C12.5665 17.5116 12.4791 17.2003 12.4519 16.8857C12.4266 16.5828 12.4558 16.28 12.446 15.9771C12.4305 15.4365 12.2906 14.901 12.1526 14.3672L11.8922 13.3632C11.8164 13.072 11.7407 12.7775 11.5871 12.4963C11.4783 12.2955 11.3306 12.1014 11.2296 11.8989C11.08 11.596 10.9478 11.2178 10.4348 11.1291C9.8849 11.0338 9.55456 10.8815 8.98325 10.9116C8.41195 10.9417 7.84454 11.1158 7.56277 11.4103C7.28101 11.7081 7.3257 12.0713 7.32764 12.4127C7.33153 13.0218 7.17413 13.6276 7.14498 14.2367C7.07114 15.7963 7.83288 17.3208 8.58684 18.8169C9.17174 19.9749 9.76442 21.1446 10.7904 22.1905C11.0333 22.4382 11.3034 22.6808 11.6221 22.8967C11.9466 23.1176 12.3217 23.3117 12.6384 23.5376C13.1534 23.9041 13.5031 24.3459 14.0317 24.7073C14.8187 25.2428 15.9963 25.5959 16.4879 26.2435" stroke="black" stroke-width="0.75" stroke-miterlimit="10"/>
</svg>
