<svg width="24" height="24" viewBox="0 0 24 24" fill="none" xmlns="http://www.w3.org/2000/svg">
<path d="M4.99219 2.74219C4.88438 2.84531 4.875 2.89219 4.875 3.26719V3.675L4.57969 3.38437C4.13438 2.93906 4.11094 2.94375 3.34219 3.71719C2.56875 4.48594 2.56406 4.50937 3.00938 4.95469L3.3 5.25H2.89219C2.51719 5.25 2.47031 5.25937 2.36719 5.36719C2.25 5.47969 2.25 5.48906 2.25 6.375C2.25 7.26094 2.25 7.27031 2.36719 7.38281C2.47031 7.49062 2.51719 7.5 2.89219 7.5H3.3L3.00938 7.79531C2.56406 8.24062 2.56875 8.26406 3.34219 9.03281C4.11094 9.80625 4.13438 9.81094 4.57969 9.36562L4.875 9.075V9.48281C4.875 9.85781 4.88438 9.90469 4.99219 10.0078C5.10469 10.125 5.11406 10.125 6 10.125C6.88594 10.125 6.89531 10.125 7.00781 10.0078C7.11563 9.90469 7.125 9.85781 7.125 9.48281V9.075L7.42031 9.36562C7.86563 9.81094 7.88906 9.80625 8.65781 9.03281C9.43125 8.26406 9.43594 8.24062 8.99063 7.79531L8.7 7.5H9.10781C9.48281 7.5 9.52969 7.49062 9.63281 7.38281C9.75 7.27031 9.75 7.26094 9.75 6.375C9.75 5.48906 9.75 5.47969 9.63281 5.36719C9.52969 5.25937 9.48281 5.25 9.10781 5.25H8.7L8.99063 4.95469C9.43594 4.50937 9.43125 4.48594 8.65781 3.71719C7.88906 2.94375 7.86563 2.93906 7.42031 3.38437L7.125 3.675V3.26719C7.125 2.89219 7.11563 2.84531 7.00781 2.74219C6.89531 2.625 6.88594 2.625 6 2.625C5.11406 2.625 5.10469 2.625 4.99219 2.74219ZM6.375 3.87656C6.37969 4.22344 6.39844 4.41094 6.44063 4.4625C6.53438 4.58906 6.92344 4.74375 7.04531 4.71094C7.10156 4.69219 7.30781 4.52344 7.5 4.33125L7.85625 3.98437L8.12344 4.25625L8.39063 4.52812L8.04375 4.87031C7.85156 5.0625 7.68281 5.26875 7.66406 5.32969C7.63125 5.46094 7.78594 5.84062 7.9125 5.93437C7.96406 5.97656 8.15156 5.99531 8.49844 6H9V6.375V6.75H8.49844C8.15625 6.75469 7.96406 6.77344 7.9125 6.81562C7.81875 6.88594 7.64531 7.24687 7.64062 7.37812C7.64062 7.425 7.80938 7.63594 8.01562 7.84687L8.39063 8.23125L8.11875 8.49844L7.84688 8.76562L7.50469 8.41875C7.3125 8.22656 7.10625 8.05781 7.04531 8.03906C6.91406 8.00625 6.53438 8.16094 6.44063 8.2875C6.39844 8.33906 6.37969 8.52656 6.375 8.86875V9.375H6H5.625V8.86875C5.62031 8.53125 5.60156 8.33906 5.55938 8.2875C5.48906 8.19375 5.12813 8.02031 4.99688 8.01562C4.95 8.01562 4.73906 8.18437 4.52813 8.39062L4.14375 8.76562L3.87656 8.49375L3.60938 8.22187L3.95625 7.87969C4.14844 7.6875 4.31719 7.48125 4.33594 7.42031C4.36875 7.28906 4.21406 6.90937 4.0875 6.81562C4.03594 6.77344 3.84844 6.75469 3.50625 6.75H3V6.375V6H3.50625C3.84844 5.99531 4.03594 5.97656 4.0875 5.93437C4.21406 5.84062 4.36875 5.46094 4.33594 5.32969C4.31719 5.26875 4.14844 5.0625 3.95625 4.87031L3.60938 4.52812L3.87656 4.25625L4.14375 3.98437L4.5 4.33125C4.69219 4.52344 4.89844 4.69219 4.95469 4.70625C5.10469 4.75312 5.50781 4.56562 5.57344 4.425C5.60156 4.35938 5.625 4.09687 5.625 3.84375V3.375H6H6.375V3.87656Z" fill="#3F6B68"/>
<path d="M5.53124 4.95003C4.46718 5.33441 4.15781 6.64691 4.94531 7.42972C5.25468 7.73909 5.53124 7.85159 5.99999 7.84691C6.33749 7.84691 6.43593 7.82816 6.63749 7.72503C6.98906 7.54222 7.13906 7.39691 7.31718 7.06878C7.45781 6.80159 7.47187 6.73597 7.47656 6.37503C7.47656 5.90628 7.36406 5.62972 7.05468 5.32034C6.67031 4.93597 6.01406 4.77659 5.53124 4.95003ZM6.29531 5.69066C6.77812 5.89222 6.89531 6.52034 6.52031 6.89534C5.99531 7.42503 5.13281 6.95159 5.26874 6.21097C5.35312 5.77034 5.86874 5.50784 6.29531 5.69066Z" fill="#3F6B68"/>
<path d="M14.7422 4.61719C14.625 4.72969 14.625 4.74375 14.625 5.50781C14.625 6.16875 14.6156 6.29062 14.55 6.31406C14.5031 6.33281 14.3063 6.17344 13.9266 5.79375C13.4391 5.31562 13.3547 5.25 13.2141 5.25C13.0734 5.25 12.9703 5.33437 12.1547 6.15469C11.3344 6.97031 11.25 7.07344 11.25 7.21406C11.25 7.35469 11.3156 7.43906 11.7938 7.92656C12.1734 8.30625 12.3328 8.50312 12.3141 8.55C12.2906 8.61562 12.1688 8.625 11.5078 8.625C10.7438 8.625 10.7297 8.625 10.6172 8.74219L10.5 8.85469V10.125V11.3953L10.6172 11.5078C10.7297 11.625 10.7438 11.625 11.5078 11.625C12.1688 11.625 12.2906 11.6344 12.3141 11.7C12.3328 11.7469 12.1734 11.9437 11.7938 12.3234C11.3156 12.8109 11.25 12.8953 11.25 13.0359C11.25 13.1766 11.3344 13.2797 12.1547 14.0953C12.9703 14.9156 13.0734 15 13.2141 15C13.3547 15 13.4391 14.9344 13.9266 14.4562C14.3063 14.0766 14.5031 13.9172 14.55 13.9359C14.6156 13.9594 14.625 14.0812 14.625 14.7422C14.625 15.5062 14.625 15.5203 14.7422 15.6328L14.8547 15.75H16.125H17.3953L17.5078 15.6328C17.625 15.5203 17.625 15.5062 17.625 14.7422C17.625 14.0812 17.6344 13.9594 17.7 13.9359C17.7469 13.9172 17.9438 14.0766 18.3234 14.4562C18.8109 14.9344 18.8953 15 19.0359 15C19.1766 15 19.2797 14.9156 20.0953 14.0953C20.9156 13.2797 21 13.1766 21 13.0359C21 12.8953 20.9344 12.8109 20.4563 12.3234C20.0766 11.9437 19.9172 11.7469 19.9359 11.7C19.9594 11.6344 20.0813 11.625 20.7422 11.625C21.5063 11.625 21.5203 11.625 21.6328 11.5078L21.75 11.3953V10.125V8.85469L21.6328 8.74219C21.5203 8.625 21.5063 8.625 20.7422 8.625C20.0813 8.625 19.9594 8.61562 19.9359 8.55C19.9172 8.50312 20.0766 8.30625 20.4563 7.92656C20.9344 7.43906 21 7.35469 21 7.21406C21 7.07344 20.9156 6.97031 20.0953 6.15469C19.2797 5.33437 19.1766 5.25 19.0359 5.25C18.8953 5.25 18.8109 5.31562 18.3234 5.79375C17.9438 6.17344 17.7469 6.33281 17.7 6.31406C17.6344 6.29062 17.625 6.16875 17.625 5.50781C17.625 4.74375 17.625 4.72969 17.5078 4.61719L17.3953 4.5H16.125H14.8547L14.7422 4.61719ZM16.875 5.94844C16.875 6.77344 16.8891 6.80156 17.3906 7.00781C17.9578 7.24687 17.9297 7.25625 18.5297 6.66094L19.0594 6.14062L19.5844 6.67031L20.1047 7.19531L19.5891 7.72031C18.9938 8.32031 19.0031 8.2875 19.2422 8.85937C19.4484 9.36094 19.4766 9.375 20.3016 9.375H21V10.125V10.875H20.3016C19.4766 10.875 19.4484 10.8891 19.2422 11.3906C19.0031 11.9625 18.9938 11.9297 19.5891 12.5297L20.1047 13.0547L19.5844 13.5797L19.0594 14.1094L18.5297 13.5891C17.9297 12.9937 17.9578 13.0031 17.3906 13.2422C16.8891 13.4484 16.875 13.4766 16.875 14.3016V15H16.125H15.375V14.3016C15.375 13.4766 15.3609 13.4484 14.8594 13.2422C14.2922 13.0031 14.3203 12.9937 13.7203 13.5891L13.1906 14.1094L12.6891 13.6031C12.4125 13.3266 12.1875 13.0781 12.1875 13.0547C12.1875 13.0312 12.4078 12.7875 12.6797 12.5156C13.0312 12.1547 13.1719 11.9812 13.1719 11.9016C13.1719 11.7234 12.8953 11.1 12.7688 10.9781C12.6562 10.8797 12.6094 10.875 11.9484 10.875H11.25V10.125V9.375H11.9484C12.7734 9.375 12.8016 9.36094 13.0078 8.85937C13.2422 8.29219 13.2516 8.31562 12.6844 7.74375C12.4125 7.4625 12.1875 7.21875 12.1875 7.19531C12.1875 7.17188 12.4125 6.92344 12.6891 6.64687L13.1906 6.14062L13.7203 6.66094C14.3203 7.25625 14.2922 7.24687 14.8594 7.00781C15.3609 6.80156 15.375 6.77344 15.375 5.94844V5.25H16.125H16.875V5.94844Z" fill="#3F6B68"/>
<path d="M15.5672 7.94996C14.3812 8.26871 13.6453 9.50153 13.9453 10.664C14.2359 11.775 15.3094 12.5062 16.425 12.3422C17.4234 12.2015 18.2016 11.4281 18.3422 10.4343C18.5672 8.8734 17.0812 7.54215 15.5672 7.94996ZM16.7391 8.7609C17.0625 8.91559 17.2641 9.10778 17.4422 9.43121C17.5875 9.6984 17.6016 9.75934 17.6016 10.125C17.6016 10.4953 17.5875 10.5468 17.4328 10.8281C16.7109 12.1406 14.7562 11.7234 14.6344 10.2328C14.5828 9.55778 14.9906 8.94371 15.6562 8.69996C15.9375 8.59684 16.4531 8.62965 16.7391 8.7609Z" fill="#3F6B68"/>
<path d="M3.86719 15.8672C3.76875 15.9609 3.75 16.0266 3.75 16.2422V16.5H2.36719H0.979687L0.867187 16.6172L0.75 16.7297V19.5V22.2703L0.867187 22.3828L0.979687 22.5H2.36719H3.75V22.7578C3.75 22.9734 3.76875 23.0391 3.86719 23.1328L3.97969 23.25H5.625H7.27031L7.38281 23.1328C7.48594 23.0344 7.5 22.9781 7.5 22.6875V22.3594L7.83281 22.5281C8.53125 22.8797 8.49844 22.875 11.9484 22.875C15.2859 22.875 15.3984 22.8656 15.8953 22.6125C16.0359 22.5422 16.7719 22.1297 17.5312 21.6891C18.2906 21.2484 19.7156 20.4281 20.6953 19.8656C22.6687 18.7312 22.8797 18.5672 23.0391 18.0891C23.1469 17.7656 23.1187 17.2125 22.9781 16.9406C22.5937 16.1906 21.7266 15.8812 21.0047 16.2328C20.8875 16.2891 19.9922 16.8 19.0172 17.3625L17.2453 18.3844L17.0203 18.1734C16.8984 18.0562 16.7344 17.9297 16.6594 17.8922C16.5844 17.8547 15.2062 17.4703 13.5937 17.0344C9.94219 16.05 10.2375 16.0828 8.61562 16.4906L7.5 16.7719V16.3734C7.5 16.0172 7.49062 15.9703 7.38281 15.8672L7.27031 15.75H5.625H3.97969L3.86719 15.8672ZM6.75 19.5V22.5H5.625H4.5V19.5V16.5H5.625H6.75V19.5ZM22.0078 16.9641C22.0828 17.0062 22.1953 17.1187 22.2562 17.2078C22.35 17.3391 22.3641 17.4141 22.35 17.6297C22.3359 17.7937 22.2937 17.9391 22.2328 18.0281C22.1625 18.1219 21.1547 18.7312 18.8906 20.0391C17.1047 21.0703 15.5437 21.9562 15.4266 22.0078C15.2203 22.0969 15.0891 22.1016 12.1172 22.1156C9.84844 22.1297 8.95312 22.1156 8.76562 22.0734C8.625 22.0453 8.28281 21.9047 8.00625 21.7687L7.5 21.5156V19.5281V17.5406L8.64844 17.2547C9.48281 17.0484 9.88125 16.9687 10.1109 16.9687C10.3687 16.9687 10.9453 17.1094 13.3312 17.7469C14.9344 18.1734 16.3031 18.5625 16.3828 18.6047C16.6078 18.7312 16.7344 18.9609 16.7344 19.2375C16.7344 19.6641 16.4437 19.9687 16.0359 19.9687C15.9187 19.9687 14.8453 19.7062 13.5516 19.3594C12.2953 19.0266 11.2406 18.75 11.1984 18.75C11.1562 18.75 11.0672 18.7922 10.9969 18.8484C10.8422 18.9703 10.8234 19.2516 10.9687 19.3828C11.1187 19.5187 15.6469 20.7188 16.0078 20.7188C16.4016 20.7188 16.6875 20.6109 16.9687 20.3578C17.2641 20.0953 17.4234 19.7859 17.4703 19.4016L17.5078 19.1062L18.3516 18.6187C20.8594 17.1703 21.3609 16.8844 21.4453 16.8609C21.5859 16.8234 21.8484 16.8703 22.0078 16.9641ZM3.75 19.5V21.75H2.625H1.5V19.5V17.25H2.625H3.75V19.5Z" fill="black"/>
</svg>
