<svg width="24" height="24" viewBox="0 0 24 24" fill="none" xmlns="http://www.w3.org/2000/svg">
<g clip-path="url(#clip0_51_7737)">
<path d="M0.117188 0.117187L0 0.229687V3.75V7.27031L0.117188 7.38281L0.229688 7.5H5.25H10.2703L10.3828 7.38281L10.5 7.27031V3.75V0.229687L10.3828 0.117187L10.2703 -4.76837e-07H5.25H0.229688L0.117188 0.117187ZM9.75 3.75V6.75H5.25H0.75V3.75V0.75H5.25H9.75V3.75Z" fill="#3F6B68"/>
<path d="M1.61719 2.36738C1.54219 2.43769 1.5 2.53613 1.5 2.62519C1.5 2.78456 1.67812 3.00019 1.80469 3.00019C1.89375 3.00019 2.00625 3.25331 2.20312 3.90019C2.48906 4.82831 2.72344 5.1705 3.1125 5.23613C3.62812 5.3205 3.91406 4.96894 4.28437 3.79706C4.37812 3.50175 4.48125 3.20644 4.51875 3.1455L4.58437 3.033L4.67344 3.23925C4.72031 3.35175 4.85625 3.72675 4.96406 4.06894C5.25937 4.97831 5.52656 5.283 5.99531 5.23613C6.40312 5.19394 6.6375 4.8705 6.9375 3.92363C7.05 3.58144 7.16719 3.24394 7.20937 3.16894L7.275 3.02831L7.34062 3.15019C7.37812 3.2205 7.49062 3.54394 7.59844 3.87675C7.92187 4.88925 8.1375 5.19394 8.55937 5.24081C8.72812 5.25956 8.775 5.24081 8.87812 5.14238C9.0375 4.983 9.0375 4.77206 8.88281 4.61738C8.82187 4.55175 8.7375 4.50019 8.7 4.50019C8.60156 4.50019 8.56875 4.42519 8.29687 3.60488C7.95937 2.58769 7.78594 2.32988 7.3875 2.26425C7.15781 2.22675 7.0125 2.27363 6.81094 2.45175C6.60937 2.62988 6.45469 2.958 6.21562 3.70331C6.12187 3.99863 6.01875 4.29394 5.98125 4.35488L5.91562 4.46738L5.82656 4.26113C5.77969 4.14863 5.64375 3.77363 5.53594 3.43144C5.24062 2.52206 4.97344 2.21738 4.50469 2.26425C4.09687 2.30644 3.86719 2.6205 3.5625 3.57206C3.45469 3.91425 3.33281 4.25644 3.29531 4.33144L3.225 4.47206L3.15937 4.35019C3.12656 4.28456 3 3.93769 2.88281 3.57675C2.63906 2.82675 2.4375 2.46113 2.20312 2.33456C1.97344 2.21269 1.75312 2.22675 1.61719 2.36738Z" fill="#3F6B68"/>
<path d="M14.2453 0.0609102C13.7625 0.196848 13.3125 0.585911 13.0875 1.06872L12.961 1.33591L12.9375 3.1406L12.9141 4.94529L12.6656 5.74216C12.2438 7.09685 12.1735 7.40622 12.1969 7.87497C12.211 8.22654 12.2391 8.32966 12.3797 8.60622C12.4641 8.78435 12.5391 8.94372 12.5391 8.96247C12.5391 8.98122 12.3797 9.13591 12.1875 9.30935C11.0485 10.3359 10.4203 11.625 10.3313 13.1297C10.2985 13.6265 10.2985 13.6312 10.4203 13.7531C10.575 13.9078 10.7906 13.9172 10.9406 13.7672C11.0344 13.6734 11.0531 13.5937 11.0766 13.1953C11.161 11.7937 11.85 10.4859 12.9094 9.68435C13.7766 9.03279 14.6953 8.70466 15.8485 8.63904C18.1078 8.51716 20.0672 9.8156 20.7422 11.8922C20.8828 12.3187 21 12.989 21 13.3734C21 13.5984 21.0188 13.664 21.1172 13.7578C21.2719 13.9172 21.4828 13.9125 21.6422 13.7531C21.7594 13.6312 21.7641 13.6218 21.736 13.1343C21.6516 11.5453 20.9344 10.1203 19.7203 9.11247L19.5 8.92966L19.6594 8.62497C19.8656 8.23591 19.9406 7.84216 19.875 7.49529C19.8469 7.35466 19.711 6.79216 19.5703 6.24372L19.3125 5.24529V3.47341C19.3125 2.47029 19.2938 1.58904 19.2656 1.44841C19.1625 0.899973 18.8016 0.426536 18.2906 0.178098L17.9766 0.0234108L16.2188 0.0140352C14.925 0.00466061 14.4047 0.0187235 14.2453 0.0609102ZM17.9766 0.862473C18.2531 0.989036 18.3375 1.0781 18.4641 1.35935C18.5485 1.54685 18.5625 1.66872 18.5625 2.37654V3.18747H16.125H13.6875V2.37654C13.6875 1.62654 13.6969 1.55154 13.8 1.33122C13.861 1.19997 13.9735 1.04529 14.0531 0.989036C14.3813 0.754661 14.4047 0.754661 16.125 0.749973C17.7281 0.749973 17.7469 0.749973 17.9766 0.862473ZM18.5625 4.88435C18.5625 5.40935 18.5391 5.92966 18.511 6.04216C18.4313 6.4031 18.2297 6.74997 17.925 7.0781C16.9641 8.09529 15.45 8.13747 14.4281 7.17654C13.8 6.58591 13.6875 6.23904 13.6875 4.88904V3.93747H16.125H18.5625V4.88435ZM13.3313 7.00779C13.4813 7.29372 13.9219 7.79997 14.175 7.97341C14.2688 8.03435 14.3438 8.09997 14.3438 8.11404C14.3438 8.13279 14.2828 8.15622 14.2078 8.17029C14.1375 8.18435 13.8844 8.28279 13.65 8.38122L13.2235 8.56404L13.1485 8.45154C13.0266 8.26404 12.9375 7.97341 12.9375 7.74841C12.9375 7.53279 13.1156 6.74997 13.1672 6.74997C13.1813 6.74997 13.2563 6.86716 13.3313 7.00779ZM19.0969 7.4156C19.186 7.8281 19.1531 8.0531 18.9563 8.35779L18.8438 8.53122L18.6188 8.42341C18.4969 8.36247 18.286 8.27341 18.1547 8.22654C17.9344 8.14685 17.8266 8.06247 17.9531 8.06247C18.0375 8.06247 18.6563 7.44372 18.8063 7.20935C18.886 7.08747 18.9703 6.99841 18.9891 7.01716C19.0031 7.0406 19.0547 7.21872 19.0969 7.4156Z" fill="black"/>
<path d="M3.85311 13.5938C2.39061 13.9781 1.39686 15.1969 1.32186 16.6922C1.27968 17.6297 1.57968 18.4734 2.20311 19.1391L2.54061 19.5H1.38749H0.229675L0.117175 19.6172C-0.0375122 19.7672 -0.0375122 19.9828 0.117175 20.1328L0.229675 20.25H12H23.7703L23.8828 20.1328C24.0234 19.9969 24.0328 19.7859 23.9109 19.6359L23.8219 19.5234L20.5312 19.5L17.2406 19.4766L18.1687 18.1641C18.9 17.1281 19.0969 16.8188 19.0969 16.7016C19.0969 16.4297 18.8484 16.2703 18.5906 16.3781C18.5109 16.4109 18.1078 16.9453 17.4 17.9531L16.3312 19.4766L13.1906 19.4906C9.68905 19.5047 9.6328 19.5 9.11249 19.1906C8.56405 18.8719 8.19843 18.3469 8.0953 17.7469C7.92186 16.7156 8.64843 15.6797 9.72186 15.4453C10.0078 15.3844 10.4766 15.375 13.0875 15.3844L16.1203 15.3984L15.6984 15.9844C15.4641 16.3078 15.2484 16.5984 15.2203 16.6313C15.1734 16.6781 14.7234 16.6688 12.9703 16.5891C10.9594 16.5 10.7672 16.5 10.6641 16.5656C10.4578 16.7016 10.4531 17.0438 10.6547 17.175C10.8094 17.2781 15.4359 17.4703 15.5672 17.3813C15.6141 17.3484 15.9703 16.8891 16.35 16.3594L17.0437 15.3984L20.4328 15.375L23.8219 15.3516L23.9109 15.2391C24.0328 15.0891 24.0234 14.8781 23.8828 14.7422L23.7703 14.625H16.8516C10.6219 14.625 9.89999 14.6344 9.5953 14.7C8.9953 14.8359 8.54999 15.0844 8.12343 15.5156L7.87968 15.7594L7.76249 15.5016C7.45311 14.8031 6.8578 14.1844 6.17811 13.8563C5.93905 13.7438 5.59218 13.6172 5.40468 13.575C4.94999 13.4719 4.27968 13.4813 3.85311 13.5938ZM5.53593 14.4C6.36561 14.7047 6.90936 15.2672 7.19999 16.125C7.32186 16.4813 7.32186 17.2688 7.19999 17.625C7.05468 18.0563 6.83905 18.4172 6.5578 18.7031C5.28749 19.9922 3.12655 19.6453 2.34374 18.0281C1.58436 16.4625 2.47968 14.6672 4.1953 14.2922C4.52343 14.2219 5.19374 14.2781 5.53593 14.4ZM7.6828 18.7922C7.73436 18.8906 7.88436 19.0922 8.0203 19.2375L8.25936 19.5H7.54686H6.83436L7.11561 19.2C7.2703 19.0313 7.43436 18.8344 7.48124 18.7547C7.52811 18.675 7.57499 18.6094 7.57968 18.6094C7.58436 18.6094 7.63124 18.6891 7.6828 18.7922Z" fill="black"/>
<path d="M0.117188 23.3672C0.0421875 23.4375 0 23.5359 0 23.625C0 23.7141 0.0421875 23.8125 0.117188 23.8828L0.229688 24H12H23.7703L23.8828 23.8828C24.0375 23.7328 24.0375 23.5172 23.8828 23.3672L23.7703 23.25H12H0.229688L0.117188 23.3672Z" fill="black"/>
</g>
<defs>
<clipPath id="clip0_51_7737">
<rect width="24" height="24" fill="white"/>
</clipPath>
</defs>
</svg>
