<svg width="24" height="24" viewBox="0 0 24 24" fill="none" xmlns="http://www.w3.org/2000/svg">
<path d="M19.5937 0.684134C18.2812 0.918509 18.2531 0.932571 18.2672 1.30288C18.2719 1.5232 18.2719 1.5232 17.9625 1.77163C17.7891 1.90288 17.5687 2.03882 17.4656 2.06695C17.325 2.10445 16.8234 2.08101 15.2766 1.96851C13.1016 1.80913 12.8625 1.81382 12.225 2.02007C11.5125 2.25445 11.2406 2.44663 10.3125 3.35132C6.45468 7.12007 6.5625 7.00757 6.5625 7.1857C6.5625 7.54195 7.125 7.92163 7.70625 7.95913C8.23125 7.99195 8.42812 7.89351 9.64687 6.97945L10.7016 6.18726L10.8891 6.35601C11.1234 6.57163 11.4937 6.74038 11.8406 6.79663C12.1406 6.8482 12.2766 6.82945 13.6641 6.5857C14.7984 6.38882 15.0469 6.38413 15.6703 6.5482C16.0734 6.65601 16.2422 6.67476 16.7578 6.67476C17.5734 6.67007 18.1641 6.5107 18.7828 6.11226C18.9187 6.0232 19.0406 5.95288 19.05 5.95288C19.0594 5.95288 19.0828 6.04195 19.1016 6.14976C19.1391 6.37007 19.3078 6.56226 19.4625 6.56226C19.6312 6.56226 21.7594 6.18726 21.9 6.1357C22.1719 6.02788 22.1719 6.04195 21.6844 3.2482C21.2578 0.815383 21.2297 0.674759 21.1172 0.571634C21.0469 0.515384 20.9391 0.468509 20.8687 0.473197C20.7984 0.477884 20.2266 0.571634 19.5937 0.684134ZM20.9531 3.42163C21.2719 5.22632 21.3047 5.46538 21.2391 5.49351C21.1641 5.52632 19.8141 5.77007 19.8 5.75132C19.7672 5.71382 19.0734 1.58413 19.0969 1.5607C19.1578 1.49976 20.5547 1.28413 20.5734 1.33101C20.5875 1.35913 20.7562 2.30132 20.9531 3.42163ZM18.675 3.72163C18.8812 4.89351 18.9 5.06695 18.8391 5.13726C18.6937 5.31538 18.0844 5.66226 17.6906 5.79351C17.1141 5.98101 16.4625 5.98101 15.7641 5.7982C15.0891 5.62007 14.775 5.62945 13.3359 5.88257C12.0094 6.11226 11.8969 6.11226 11.4984 5.87788C11.325 5.77945 11.0719 5.50288 11.1141 5.46538C11.1234 5.45601 11.7656 5.33882 12.5391 5.20757C13.3125 5.07163 14.0156 4.94038 14.1 4.91695C14.4937 4.79038 14.4047 4.21851 13.9875 4.21851C13.7719 4.21851 10.6125 4.76695 10.4437 4.83257C10.2656 4.90288 10.1953 5.10445 10.2562 5.35288C10.2844 5.4607 10.3031 5.55445 10.2984 5.55913C10.2937 5.56382 9.81562 5.91538 9.23906 6.34663C8.6625 6.77788 8.1375 7.15288 8.07656 7.17632C7.93593 7.22788 7.64062 7.23257 7.55625 7.18101C7.48125 7.12945 11.5078 3.19195 11.8359 2.99976C12.1406 2.81695 12.7125 2.63413 13.0875 2.60132C13.2609 2.58257 14.1703 2.62945 15.3047 2.71851C16.3641 2.7982 17.325 2.84976 17.4469 2.8357C17.6906 2.80288 18.1781 2.58726 18.2766 2.47007C18.3094 2.4232 18.3656 2.39038 18.3937 2.39038C18.4266 2.39038 18.5344 2.88726 18.675 3.72163Z" fill="black"/>
<path d="M11.1094 7.77656C9.12188 8.19844 7.6875 9.96562 7.6875 12C7.6875 14.3766 9.62344 16.3125 12 16.3125C14.3766 16.3125 16.3125 14.3766 16.3125 12C16.3125 9.26719 13.7813 7.21406 11.1094 7.77656ZM13.0547 8.59687C14.1891 8.96719 15.0234 9.79687 15.4078 10.9453C15.5203 11.2781 15.5344 11.3953 15.5344 11.9766C15.5391 12.5391 15.525 12.6844 15.4313 12.9844C15.0469 14.2078 14.2078 15.0469 12.9844 15.4312C12.6844 15.525 12.5391 15.5391 11.9766 15.5344C11.3953 15.5344 11.2781 15.5203 10.9453 15.4078C10.3547 15.2109 9.92344 14.9437 9.49688 14.5125C8.7375 13.7484 8.40469 12.9 8.45156 11.8359C8.49375 10.8984 8.83125 10.1391 9.4875 9.49219C10.0219 8.96719 10.5703 8.6625 11.2688 8.50312C11.7281 8.4 12.5906 8.44219 13.0547 8.59687Z" fill="#3F6B68"/>
<path d="M10.4016 9.65156C10.3172 9.71719 10.2891 9.7875 10.2891 9.9375C10.2891 10.2609 10.3969 10.3125 11.0531 10.3125C11.5078 10.3125 11.6297 10.3266 11.7984 10.4109C11.9109 10.4672 12.0234 10.5516 12.0516 10.5984C12.0937 10.6828 12.0703 10.6875 11.3016 10.6875C10.5937 10.6875 10.5 10.6969 10.4016 10.7766C10.3172 10.8422 10.2891 10.9125 10.2891 11.0625C10.2891 11.2125 10.3172 11.2828 10.4016 11.3484C10.5 11.4281 10.5937 11.4375 11.3016 11.4375C11.7375 11.4375 12.0937 11.4562 12.0937 11.475C12.0937 11.5406 11.8406 11.7562 11.7047 11.8078C11.6297 11.8359 11.3344 11.8594 11.0484 11.8594C10.5047 11.8641 10.425 11.8875 10.3219 12.0797C10.2141 12.2766 10.2562 12.3844 10.5375 12.6562C12.1359 14.1937 12.4172 14.4375 12.5719 14.4375C12.7922 14.4375 12.9375 14.2922 12.9375 14.0719C12.9375 13.9125 12.8906 13.8562 12.2719 13.2609L11.6016 12.6234L11.8687 12.5437C12.3234 12.4125 12.7687 11.9766 12.8672 11.5641C12.9 11.4422 12.9141 11.4375 13.1719 11.4375C13.3219 11.4375 13.4812 11.4234 13.5234 11.4094C13.6406 11.3625 13.7437 11.1187 13.7109 10.9641C13.6641 10.7625 13.5234 10.6875 13.1953 10.6875H12.9141L12.8344 10.5L12.7547 10.3125H13.1016C13.2891 10.3125 13.4812 10.2984 13.5234 10.2844C13.6406 10.2375 13.7437 9.99375 13.7109 9.83906C13.65 9.56719 13.6219 9.5625 11.9953 9.5625C10.6078 9.5625 10.5047 9.56719 10.4016 9.65156Z" fill="#3F6B68"/>
<path d="M15.7969 16.0734C15.5297 16.1578 15.2578 16.3406 14.3016 17.0578L13.2984 17.8125L13.1109 17.6438C12.8766 17.4281 12.5063 17.2594 12.1594 17.2031C11.8594 17.1516 11.7234 17.1703 10.3359 17.4141C9.20157 17.6109 8.95313 17.6156 8.3297 17.4516C7.92657 17.3438 7.75313 17.325 7.2422 17.325C6.43126 17.325 5.84063 17.4891 5.2172 17.8875C5.08126 17.9766 4.95938 18.0469 4.95001 18.0469C4.94063 18.0469 4.9172 17.9578 4.89845 17.85C4.86095 17.6297 4.6922 17.4375 4.53751 17.4375C4.36876 17.4375 2.24063 17.8125 2.10001 17.8641C1.82813 17.9719 1.82813 17.9578 2.31563 20.7516C2.7422 23.1844 2.77032 23.325 2.88282 23.4234C2.95313 23.4844 3.0422 23.5312 3.08438 23.5312C3.12657 23.5312 3.70313 23.4375 4.35938 23.3203C5.72345 23.0813 5.74688 23.0672 5.73282 22.6969C5.72813 22.4766 5.72813 22.4766 6.03751 22.2281C6.21095 22.0969 6.43126 21.9609 6.53438 21.9328C6.67501 21.8953 7.17657 21.9188 8.72345 22.0313C10.9266 22.1906 11.1469 22.1859 11.8078 21.9609C12.525 21.7172 12.7594 21.5531 13.6641 20.6719C17.3344 17.0953 17.4375 16.9875 17.4375 16.8141C17.4375 16.5938 17.2781 16.4156 16.9125 16.2188C16.6688 16.0875 16.5609 16.0594 16.2656 16.0453C16.0734 16.0406 15.8625 16.05 15.7969 16.0734ZM16.4438 16.8188C16.5188 16.8703 12.4922 20.8078 12.1641 21.0047C11.8688 21.1734 11.3063 21.3609 10.9406 21.3984C10.7719 21.4172 9.89532 21.3703 8.71876 21.2813C7.65001 21.2016 6.67501 21.15 6.55313 21.1641C6.30938 21.1969 5.82188 21.4125 5.72345 21.5297C5.69063 21.5766 5.63438 21.6094 5.60626 21.6094C5.57345 21.6094 5.46563 21.1125 5.32501 20.2781C5.12813 19.1578 5.1047 18.9328 5.15626 18.8672C5.30626 18.6844 5.91563 18.3375 6.30938 18.2063C6.88595 18.0188 7.5422 18.0141 8.22657 18.2016C8.8922 18.3844 9.2297 18.3703 10.6688 18.1172C11.9859 17.8875 12.1031 17.8875 12.4828 18.1125C12.6703 18.2203 12.9281 18.4969 12.8859 18.5344C12.8766 18.5438 12.2344 18.6609 11.4609 18.7922C10.6875 18.9281 9.98438 19.0594 9.90001 19.0828C9.50157 19.2094 9.59532 19.7813 10.0172 19.7813C10.2328 19.7813 13.3875 19.2328 13.5563 19.1672C13.7344 19.0969 13.8047 18.8953 13.7438 18.6469C13.7156 18.5391 13.6969 18.4453 13.7016 18.4406C13.7063 18.4359 14.1844 18.0844 14.7609 17.6531C15.3375 17.2172 15.8578 16.8469 15.9094 16.8281C16.0359 16.7766 16.3641 16.7719 16.4438 16.8188ZM4.21876 18.2672C4.21876 18.2906 4.37813 19.2281 4.57501 20.3578C4.77188 21.4875 4.92188 22.425 4.90313 22.4391C4.88907 22.4531 4.54688 22.5234 4.14845 22.5938L3.42188 22.7203L3.39845 22.575C3.15001 21.2203 2.69063 18.5344 2.7047 18.5203C2.71876 18.5016 4.02188 18.2484 4.16251 18.2391C4.19063 18.2344 4.21876 18.2484 4.21876 18.2672Z" fill="black"/>
</svg>
