<svg width="22" height="32" viewBox="0 0 22 32" fill="none" xmlns="http://www.w3.org/2000/svg">
<g clip-path="url(#clip0_20_6293)">
<path d="M18.7529 0.0996094H0.0997314V26.661H18.7529V0.0996094Z" stroke="black" stroke-width="0.75" stroke-miterlimit="10"/>
<path d="M2.21552 4.11768H15.3404" stroke="black" stroke-width="0.75" stroke-miterlimit="10"/>
<path d="M2.74048 7.78699H15.8654" stroke="black" stroke-width="0.75" stroke-miterlimit="10"/>
<path d="M2.74048 11.9807H15.8654" stroke="black" stroke-width="0.75" stroke-miterlimit="10"/>
<path d="M11.4869 24.0688C11.5972 24.0217 11.6575 24.3362 11.8728 24.5511C12.2744 24.9495 12.8388 24.6219 12.9621 24.5511C13.2561 24.3807 13.3296 24.1894 13.4714 24.2811C13.6158 24.3729 13.6341 24.6061 13.894 24.9547C13.9439 25.0203 14.0043 25.0858 14.0856 25.1539C14.3193 25.3453 14.5083 25.3689 14.5765 25.6362C14.6474 25.9009 14.5503 26.2102 14.5056 26.3596C14.2825 27.1014 14.1565 27.9296 13.9098 28.6478C13.243 30.5847 13.2771 31.9109 12.9963 31.9004C12.7836 31.8926 12.5474 31.1141 12.3295 30.3934C12.1957 29.9478 12.1405 29.6568 11.962 29.5206C11.7967 29.3947 11.6418 29.4812 11.3819 29.6097C10.66 29.9714 10.2978 30.1496 10.2217 30.0317C10.0825 29.8115 10.3923 29.1955 10.7834 27.3215C11.3032 24.8368 11.311 24.7922 11.311 24.7922C11.332 24.4777 11.3767 24.116 11.4869 24.0688Z" fill="white" stroke="black" stroke-width="0.75" stroke-miterlimit="10"/>
<path d="M17.5506 23.7228C17.3984 23.6022 17.3223 24.0111 17.0965 24.2627C16.7054 24.7004 16.0807 24.4226 15.973 24.3728C15.6922 24.247 15.511 24.0557 15.4113 24.226C15.3325 24.3597 15.4008 24.5589 15.3247 24.8891C15.2695 25.1355 15.1777 25.2587 15.0517 25.4264C14.797 25.7698 14.6658 25.7017 14.6579 25.9035C14.65 26.1105 14.7865 26.3045 15.1068 26.9545C15.2538 27.2507 15.385 27.5652 15.5294 27.8614C16.3615 29.5834 16.7605 30.9751 17.0099 30.9306C17.1648 30.9044 17.2409 30.1259 17.3958 28.569C17.4063 28.4694 17.4378 28.21 17.5533 28.0108C17.5795 27.9636 17.6163 27.9243 17.6609 27.8928C17.8919 27.7303 18.22 27.8745 18.2725 27.9007C18.7844 28.1418 19.3356 28.4013 19.3829 28.1392C19.3934 28.0842 19.3829 28.0029 19.144 27.4315C18.8973 26.8392 18.703 26.4303 18.5849 26.1682C18.4563 25.8799 18.2804 25.4579 18.094 24.9049C17.9418 24.5851 17.8158 24.2994 17.7213 24.0661C17.6294 23.8434 17.6031 23.7621 17.548 23.7175L17.5506 23.7228Z" fill="white" stroke="black" stroke-width="0.75" stroke-miterlimit="10"/>
<path d="M13.5948 16.8374C14.3271 16.6487 14.3324 16.1979 14.8994 16.1769C15.5373 16.1507 15.6475 16.7195 16.5085 16.8689C17.401 17.0261 17.8604 16.5176 18.4221 16.743C18.9839 16.9684 18.6347 17.5241 19.291 17.9697C19.9236 18.3995 20.6402 18.1531 20.9447 18.5358C21.2309 18.8949 20.6455 19.178 20.8135 19.7625C21.013 20.4465 21.9527 20.5514 21.9002 21.0205C21.853 21.4609 21.0209 21.474 20.8135 22.027C20.6009 22.5984 21.3542 22.9444 21.0734 23.348C20.8187 23.7202 20.1336 23.5053 19.4642 23.9456C18.745 24.42 19.0652 24.9835 18.4641 25.2037C17.863 25.4239 17.422 24.9101 16.5505 25.0779C15.7131 25.2404 15.6239 25.8118 14.986 25.8013C14.4584 25.7908 14.4426 25.3976 13.726 25.2037C12.7758 24.9442 12.1799 25.4658 11.5525 25.1722C11.0433 24.9337 11.3425 24.5484 10.7703 24.1343C10.1009 23.6494 9.34492 23.9194 8.98792 23.5053C8.6493 23.1121 9.25567 22.7897 8.98792 22.1528C8.72542 21.529 8.00618 21.5054 7.9878 21.052C7.9668 20.5514 8.83042 20.4623 8.98792 19.7939C9.11655 19.2461 8.59418 19.06 8.81467 18.6931C9.10605 18.2056 10.0904 18.4388 10.7703 17.8439C11.2874 17.3931 10.9882 17.0235 11.4659 16.8059C12.0749 16.5281 12.6813 17.0733 13.5974 16.8374H13.5948Z" fill="#F9F9F9" stroke="black" stroke-width="0.75" stroke-miterlimit="10"/>
<path d="M15.4191 24.2313C17.5086 24.0557 19.6532 22.8055 19.7241 21.0835C19.8002 19.2147 17.3879 17.7836 15.028 17.7155C13.2509 17.6657 11.2086 18.3786 10.4631 19.7913C9.85677 20.9393 10.2846 22.2026 11.29 23.065C12.3846 24.0033 14.02 24.3466 15.4217 24.2287L15.4191 24.2313Z" stroke="black" stroke-width="0.75" stroke-miterlimit="10"/>
<path d="M11.8334 21.1306C11.7809 21.2774 12.1983 21.3665 12.8782 21.854C13.5659 22.3467 13.5449 22.5486 14.0515 22.7346C14.1224 22.7609 14.8915 23.0334 15.3561 22.7976C15.6081 22.6691 15.6003 22.4804 15.7919 22.0427C15.9783 21.6155 16.1935 21.3219 16.4009 21.0362C16.7106 20.609 17.0571 20.132 17.7055 19.6523C17.9706 19.4558 18.136 19.3693 18.0966 19.2749C18.0179 19.0783 17.1333 18.9918 16.4875 19.2435C16.2486 19.3352 16.1253 19.4426 15.8785 19.6523C15.7289 19.7808 15.3273 20.1398 14.8338 20.9104C14.5503 21.3534 14.503 21.5185 14.3114 21.5395C14.0095 21.5762 13.8835 21.1909 13.3113 21.0048C12.7023 20.8082 11.9017 20.9393 11.8334 21.1306Z" fill="#3F6B68"/>
</g>
<defs>
<clipPath id="clip0_20_6293">
<rect width="22" height="32" fill="white"/>
</clipPath>
</defs>
</svg>
