<svg width="24" height="24" viewBox="0 0 24 24" fill="none" xmlns="http://www.w3.org/2000/svg">
<g clip-path="url(#clip0_51_6732)">
<path d="M3.09375 0.440901C2.08125 0.656526 1.2 1.32684 0.754686 2.21278C0.468749 2.78934 0.398436 3.1034 0.403124 3.79715C0.407811 4.46746 0.506249 4.85653 0.820311 5.42371C1.05469 5.84559 1.65469 6.44559 2.07656 6.67996C3.65156 7.55184 5.57344 7.08309 6.56719 5.58778C7.26562 4.5284 7.29844 3.13621 6.65156 2.02528C6.42187 1.6409 5.80781 1.03621 5.42344 0.820589C4.72969 0.436214 3.81562 0.290901 3.09375 0.440901ZM4.24687 1.17684C4.69687 1.25653 5.24531 1.54715 5.5875 1.88934C6.1125 2.41434 6.35156 2.9909 6.35156 3.75028C6.35156 4.50028 6.1125 5.08621 5.59687 5.59715C5.08594 6.11278 4.5 6.35184 3.75 6.35184C2.99062 6.35184 2.41406 6.11278 1.88906 5.58778C0.778124 4.47684 0.918749 2.55965 2.18437 1.65965C2.83594 1.19559 3.49219 1.0409 4.24687 1.17684Z" fill="black"/>
<path d="M3.375 2.91562V3.95625L3.06094 4.275L2.74219 4.59375L3.01406 4.86562L3.28594 5.13281L3.70313 4.70625L4.125 4.27969V3.075V1.875H3.75H3.375V2.91562Z" fill="black"/>
<path d="M11.0016 0.407811L10.7344 0.426561L10.7625 0.693748C10.8094 1.17656 10.8047 1.17187 11.0344 1.17187C11.1469 1.17187 11.3063 1.15781 11.3859 1.14375L11.5313 1.11094V0.745311V0.374998L11.4047 0.384373C11.3297 0.389061 11.1516 0.398436 11.0016 0.407811Z" fill="black"/>
<path d="M12.2812 0.750391V1.12539H12.4406C12.525 1.12539 12.6938 1.13945 12.8109 1.15352L13.0219 1.18164L13.0406 0.806641L13.0547 0.431641L12.8203 0.403516C12.6938 0.389453 12.5156 0.375391 12.4359 0.375391H12.2812V0.750391Z" fill="black"/>
<path d="M19.4578 0.454688C19.275 0.548438 19.1344 0.75 19.0969 0.993751C19.0687 1.14375 19.0312 1.18594 18.7875 1.33125C18.5156 1.49063 18.5016 1.49531 18.3656 1.425C18.0984 1.28438 17.7187 1.35469 17.5266 1.575C17.3391 1.79531 16.9078 2.56406 16.8891 2.71875C16.8562 2.94844 16.9828 3.21563 17.1844 3.34219C17.3391 3.44063 17.3437 3.45469 17.3437 3.75938C17.3437 4.05938 17.3391 4.07344 17.1891 4.1625C16.9922 4.27969 16.8562 4.55156 16.8891 4.77656C16.9125 4.96406 17.4094 5.82188 17.5969 5.99531C17.7516 6.14063 18.1547 6.1875 18.3516 6.07969C18.4781 6.01406 18.5016 6.01875 18.7687 6.16875C19.0219 6.30469 19.0547 6.34219 19.1016 6.52969C19.2281 7.03594 19.4016 7.125 20.25 7.125C20.7328 7.125 20.9062 7.10625 21.0328 7.04531C21.225 6.95625 21.3656 6.75469 21.4031 6.50625C21.4312 6.35625 21.4687 6.31406 21.7125 6.16875C21.9797 6.00938 22.0031 6.00469 22.1297 6.07031C22.3172 6.16875 22.6359 6.15938 22.8141 6.05156C23.0437 5.91094 23.625 4.95469 23.625 4.71563C23.625 4.50469 23.4984 4.275 23.325 4.1625C23.1609 4.05938 23.1562 4.05 23.1562 3.75C23.1562 3.45 23.1609 3.44063 23.325 3.3375C23.5031 3.22031 23.625 2.99531 23.625 2.775C23.625 2.62969 23.2031 1.86094 22.9734 1.58438C22.7625 1.33594 22.5047 1.27031 22.2141 1.39688L21.9984 1.48594L21.7125 1.32656C21.4594 1.18594 21.4219 1.14375 21.3937 0.993751C21.3516 0.745313 21.2109 0.539063 21.0281 0.45C20.7984 0.342188 19.6828 0.342188 19.4578 0.454688ZM20.6484 1.28438C20.7047 1.56563 20.8406 1.72031 21.1734 1.89844C21.3469 1.9875 21.5672 2.10469 21.6562 2.15625C21.8484 2.26875 22.0969 2.27813 22.2844 2.17969C22.3594 2.1375 22.425 2.11406 22.4297 2.11875C22.4391 2.12813 22.5281 2.26875 22.6359 2.4375L22.8234 2.74219L22.6875 2.85C22.4484 3.0375 22.4062 3.17344 22.4062 3.75C22.4062 4.32656 22.4484 4.4625 22.6875 4.65L22.8281 4.75781L22.6406 5.07188L22.4531 5.38594L22.2891 5.31563C22.0641 5.22188 21.8484 5.23125 21.6562 5.34375C21.5672 5.39531 21.3469 5.5125 21.1734 5.60156C20.8266 5.78438 20.6719 5.97188 20.6719 6.22031V6.375H20.25H19.8281V6.22031C19.8281 5.94844 19.6875 5.79844 19.1531 5.5125C18.6328 5.23594 18.4828 5.20313 18.2109 5.31563L18.0469 5.38594L17.8594 5.07188L17.6719 4.75781L17.8125 4.65C18.0469 4.46719 18.0937 4.32188 18.0937 3.80156C18.0937 3.25781 18.0187 3.00469 17.8031 2.85469C17.6484 2.74219 17.6484 2.72813 17.8828 2.36719L18.0469 2.10938L18.1875 2.17969C18.3937 2.2875 18.6141 2.26406 18.8953 2.10938C19.0359 2.02969 19.2328 1.92656 19.3406 1.87969C19.5844 1.76719 19.7719 1.5375 19.8094 1.30781L19.8422 1.125H20.2312H20.6203L20.6484 1.28438Z" fill="black"/>
<path d="M19.7953 2.40942C19.0172 2.66255 18.6094 3.55786 18.9375 4.30317C19.0875 4.64536 19.4719 4.99224 19.8188 5.09067C20.3438 5.24536 20.9063 5.0813 21.2719 4.66411C22.0313 3.79692 21.45 2.42349 20.2969 2.36255C20.1188 2.35317 19.9078 2.37192 19.7953 2.40942ZM20.5125 3.1688C20.9766 3.38911 20.9719 4.11099 20.4984 4.33599C20.1609 4.49536 19.7906 4.35474 19.6359 4.00317C19.5328 3.77817 19.5609 3.55317 19.7156 3.33286C19.875 3.11255 20.2313 3.03755 20.5125 3.1688Z" fill="black"/>
<path d="M13.7859 0.871999C13.7156 1.2845 13.7156 1.2845 14.0672 1.33137C14.1937 1.35012 14.325 1.37356 14.3625 1.38762C14.4094 1.40637 14.4469 1.322 14.5031 1.07356C14.5453 0.890749 14.5781 0.721999 14.5781 0.698561C14.5781 0.679811 14.4562 0.637624 14.3109 0.609499C14.1609 0.581374 13.9969 0.543874 13.9406 0.529811C13.8516 0.511061 13.8375 0.539186 13.7859 0.871999Z" fill="black"/>
<path d="M9.525 0.628353C9.38906 0.665853 9.26719 0.703353 9.25313 0.712728C9.23906 0.72679 9.2625 0.890853 9.30469 1.07367C9.39375 1.44867 9.37969 1.43929 9.81094 1.35492C10.1109 1.29398 10.1063 1.30804 10.0266 0.85804C9.97031 0.525228 9.96563 0.525228 9.525 0.628353Z" fill="black"/>
<path d="M15.2344 1.2C15.1828 1.36875 15.1406 1.52813 15.1406 1.54688C15.1406 1.58438 15.6703 1.78125 15.7734 1.78125C15.8203 1.78125 16.0547 1.22344 16.0453 1.14375C16.0359 1.09688 15.525 0.895313 15.4125 0.895313C15.3516 0.890625 15.3047 0.975 15.2344 1.2Z" fill="black"/>
<path d="M8.05312 1.05967L7.73906 1.18154L7.8375 1.42061C7.88906 1.55654 7.95 1.71123 7.97343 1.76748L8.01093 1.87061L8.30625 1.77217C8.47031 1.72061 8.62031 1.65967 8.63906 1.64092C8.69531 1.58936 8.49375 0.937793 8.42343 0.94248C8.39062 0.94248 8.22656 0.99873 8.05312 1.05967Z" fill="black"/>
<path d="M10.4484 7.0223C10.1672 7.11605 9.84843 7.31762 9.64687 7.53324C9.46874 7.72074 7.41093 11.0864 7.29843 11.3676C7.17187 11.6957 7.17187 12.2629 7.30312 12.6239C7.50468 13.1817 7.94999 13.6036 8.52656 13.7864C8.88281 13.8942 9.16874 13.8989 9.53906 13.8051C10.1016 13.6551 10.425 13.3692 10.8844 12.5957C11.0672 12.2957 11.2312 12.0473 11.2453 12.0473C11.2641 12.0473 11.325 12.1457 11.3859 12.2676C11.6203 12.7551 12.1547 13.2942 12.6562 13.5473C13.2094 13.8286 14.025 13.9364 14.625 13.8098C15.7453 13.5754 16.6875 12.6661 16.9406 11.5786C17.0344 11.1895 17.0344 10.5614 16.9406 10.1723C16.7484 9.35199 16.1344 8.57855 15.375 8.20824C14.6344 7.8473 13.8187 7.78168 13.0969 8.03012L12.7641 8.14262L12.6375 7.89418C12.4687 7.57543 12.1172 7.2473 11.7797 7.09262C11.4234 6.92855 10.8281 6.90043 10.4484 7.0223ZM11.5078 7.77699C11.7422 7.88012 12.0187 8.18012 12.0937 8.41449C12.1266 8.50824 12.1406 8.71918 12.1312 8.88324C12.1125 9.1598 12.0844 9.22543 11.6719 9.9098C11.4281 10.3129 11.2125 10.6411 11.1937 10.6411C11.1703 10.6411 9.34687 9.54418 9.29531 9.4973C9.27187 9.47387 10.1109 8.15668 10.2375 8.02074C10.3172 7.93637 10.4672 7.82387 10.5703 7.77699C10.8187 7.66449 11.2594 7.6598 11.5078 7.77699ZM14.3437 8.68637C14.3437 8.75199 12.9984 12.7973 12.9656 12.8301C12.9281 12.8723 12.5297 12.5676 12.3516 12.3661C12.1359 12.1176 11.8734 11.5879 11.8312 11.3207C11.8031 11.1332 11.8266 11.0911 12.2625 10.3786C12.5953 9.83949 12.75 9.53949 12.825 9.28637C12.9141 8.96762 12.9422 8.93012 13.1062 8.84574C13.3594 8.71449 13.7062 8.6348 14.0531 8.63012C14.2594 8.62543 14.3437 8.64418 14.3437 8.68637ZM15.6281 9.3098C16.05 9.73168 16.2656 10.2661 16.2656 10.8754C16.2656 11.9207 15.5812 12.7832 14.55 13.0551C14.2828 13.1254 13.7766 13.1489 13.725 13.0973C13.7062 13.0786 14.8828 9.45043 15.0703 8.96293C15.1031 8.87387 15.3375 9.01918 15.6281 9.3098ZM9.85781 10.7114C10.3641 11.0207 10.7812 11.2926 10.7812 11.3161C10.7812 11.3723 10.0312 12.6051 9.89531 12.7645C9.70312 12.9895 9.44062 13.0973 9.06562 13.102C8.77968 13.102 8.70468 13.0832 8.50781 12.9614C8.38124 12.8817 8.21249 12.727 8.13281 12.6145C8.00156 12.427 7.99218 12.3848 7.99218 12.0098V11.602L8.43749 10.8661C8.68124 10.4629 8.89218 10.1348 8.90624 10.1395C8.92031 10.1442 9.35156 10.402 9.85781 10.7114Z" fill="#3F6B68"/>
<path d="M22.4812 7.83291C22.3031 7.90791 22.1484 7.97354 22.1437 7.98291C22.1344 7.9876 22.1859 8.14229 22.2469 8.32979L22.3687 8.6626L22.6781 8.56885C22.8516 8.51729 23.0109 8.45635 23.0344 8.4376C23.0672 8.40479 22.8469 7.67354 22.8094 7.69229C22.8094 7.69229 22.6594 7.75791 22.4812 7.83291Z" fill="black"/>
<path d="M1.10626 7.95977C1.04532 8.06758 0.895318 8.64883 0.923443 8.67227C0.946881 8.69102 1.10157 8.74727 1.27501 8.79883L1.58907 8.89258L1.68282 8.57852C1.78126 8.25508 1.80001 8.15664 1.75782 8.15664C1.74844 8.15664 1.59844 8.10508 1.42969 8.04414C1.26563 7.97852 1.12032 7.94102 1.10626 7.95977Z" fill="black"/>
<path d="M22.9266 9.28613C22.7391 9.33301 22.5797 9.3752 22.5703 9.38457C22.5609 9.39395 22.5891 9.55332 22.6313 9.74082L22.7063 10.083L22.8938 10.0549C23.4094 9.9752 23.4141 9.9752 23.4047 9.76895C23.3953 9.67051 23.3672 9.50176 23.3344 9.39863L23.2734 9.20645L22.9266 9.28613Z" fill="black"/>
<path d="M0.609379 9.68935C0.581254 9.83935 0.543754 10.0081 0.529692 10.0597C0.506254 10.1722 0.553129 10.1909 0.993754 10.2425C1.28438 10.28 1.275 10.2893 1.33594 9.91435C1.35 9.81122 1.37344 9.69403 1.3875 9.65185C1.40157 9.5956 1.33125 9.56278 1.06875 9.50185C0.881254 9.45497 0.712504 9.42216 0.693754 9.42216C0.675004 9.42216 0.637504 9.54403 0.609379 9.68935Z" fill="black"/>
<path d="M23.4141 10.7114C23.3906 10.7207 23.2453 10.7395 23.1 10.7582C22.7953 10.7911 22.7953 10.7957 22.8562 11.2692L22.8891 11.4848H23.2547C23.6766 11.4848 23.6531 11.5223 23.5969 10.9739C23.5687 10.7067 23.5406 10.6692 23.4141 10.7114Z" fill="black"/>
<path d="M0.403125 11.1516C0.389062 11.2641 0.375 11.4375 0.375 11.5359V11.7188H0.745312H1.11094L1.13906 11.3812C1.15312 11.1937 1.1625 11.0344 1.15312 11.025C1.14375 11.0156 0.975 10.9922 0.782812 10.9734L0.43125 10.9406L0.403125 11.1516Z" fill="black"/>
<path d="M5.51719 11.9815C5.27344 12.1737 5.00626 12.5487 4.92188 12.8159C4.88907 12.9144 4.87501 13.0972 4.88438 13.219C5.00157 14.4144 6.90938 15.305 10.125 15.6659C10.8234 15.7409 13.1672 15.7409 13.875 15.6659C15.1594 15.5253 16.3266 15.2769 17.1563 14.9675C18.8953 14.3253 19.5469 13.3175 18.8438 12.3612C18.7031 12.169 18.3047 11.8128 18.2297 11.8128C18.2109 11.8128 18.1031 11.9394 18 12.094L17.8078 12.38L18.0656 12.6237C18.4641 13.0034 18.4734 13.2378 18.1031 13.594C17.4703 14.2034 15.8953 14.6956 13.875 14.9159C13.1766 14.9909 10.8234 14.9909 10.125 14.9159C8.13282 14.7003 6.52032 14.1987 5.90626 13.6034C5.52657 13.2378 5.53594 13.0034 5.93438 12.6237L6.19219 12.38L6.00001 12.094C5.89688 11.9394 5.79376 11.8128 5.77032 11.8128C5.75157 11.8128 5.63907 11.8878 5.51719 11.9815Z" fill="black"/>
<path d="M22.875 12.5347C22.875 12.6988 22.8656 12.8675 22.8469 12.905C22.8281 12.9566 22.8984 12.98 23.1844 13.0034C23.3812 13.0222 23.5547 13.0269 23.5687 13.0128C23.5828 12.9988 23.6016 12.8159 23.6156 12.6097L23.6391 12.2347H23.2547H22.875V12.5347Z" fill="black"/>
<path d="M0.375 12.6189C0.375 12.7033 0.389063 12.8861 0.407813 13.0221L0.435938 13.2705L0.651563 13.2424C1.19531 13.1721 1.17188 13.1861 1.17188 12.9939C1.17188 12.9002 1.15781 12.7408 1.14375 12.6424L1.11094 12.4689H0.745313H0.375V12.6189Z" fill="black"/>
<path d="M22.6875 13.9547C22.6594 14.1047 22.6219 14.2641 22.6125 14.3063C22.5937 14.3672 22.6547 14.4 22.9406 14.461C23.1328 14.5031 23.3109 14.5266 23.3344 14.5125C23.3578 14.4985 23.3906 14.3766 23.4094 14.2406C23.4281 14.1047 23.4516 13.9453 23.4656 13.8938C23.4937 13.786 23.4797 13.7813 22.9594 13.711L22.7437 13.6781L22.6875 13.9547Z" fill="black"/>
<path d="M0.87188 13.9878C0.717192 14.0159 0.585942 14.0675 0.57188 14.1003C0.557817 14.1518 0.60938 14.4471 0.68438 14.7237C0.707817 14.8034 0.712505 14.8034 1.27032 14.6675L1.43438 14.6253L1.36407 14.2737C1.28438 13.8846 1.3125 13.8987 0.87188 13.9878Z" fill="black"/>
<path d="M22.3172 15.4219C22.2609 15.6094 22.2187 15.7641 22.2281 15.7687C22.2516 15.7875 22.875 16.0312 22.8937 16.0312C22.9125 16.0312 23.0062 15.75 23.1328 15.3422C23.1422 15.3094 23.0531 15.2578 22.9078 15.2156C22.3875 15.0656 22.4391 15.0469 22.3172 15.4219Z" fill="black"/>
<path d="M1.22813 15.4315C0.890629 15.5347 0.895317 15.5112 1.08282 16.0081L1.17657 16.2612L1.42032 16.1675C1.55625 16.1112 1.71094 16.0503 1.76719 16.0269L1.87032 15.9894L1.78594 15.7409C1.61719 15.2581 1.67344 15.2909 1.22813 15.4315Z" fill="black"/>
<path d="M1.725 17.7141C1.37344 17.8312 1.16719 17.9625 0.928125 18.2297C0.614063 18.5812 0.375 19.1578 0.375 19.5703C0.375 19.6828 0.384375 19.6875 0.69375 19.6875C0.867188 19.6875 1.03125 19.6687 1.05938 19.65C1.0875 19.6312 1.125 19.5328 1.14375 19.4344C1.25156 18.8484 1.74844 18.375 2.25 18.375C2.56875 18.375 2.7375 18.4734 3.15 18.8953C3.71719 19.4812 3.74063 19.4812 4.23281 18.9844C4.44375 18.7687 4.70156 18.5578 4.80469 18.5109C5.04375 18.3984 5.40938 18.3984 5.64844 18.5109C6.00938 18.675 6.375 19.2234 6.375 19.6031C6.375 19.6781 6.41719 19.6875 6.69375 19.6875C7.13906 19.6875 7.15313 19.6687 7.08281 19.2891C6.80156 17.7422 5.12813 17.1094 4.02656 18.1266L3.75 18.3891L3.49219 18.1453C3.14062 17.8125 2.80781 17.6672 2.35313 17.6437C2.08594 17.6297 1.92656 17.6484 1.725 17.7141Z" fill="black"/>
<path d="M21.1172 17.7422L21 17.8547V19.9922V22.125H21.375H21.75V20.25V18.375H22.125H22.5V20.25V22.125H22.875H23.25V19.9922V17.8547L23.1328 17.7422C23.0203 17.625 23.0109 17.625 22.125 17.625C21.2391 17.625 21.2297 17.625 21.1172 17.7422Z" fill="black"/>
<path d="M18.1172 19.2422L18 19.3547V20.7422V22.125H18.375H18.75V21V19.875H19.125H19.5V21V22.125H19.875H20.25V20.7422V19.3547L20.1328 19.2422C20.0203 19.125 20.0109 19.125 19.125 19.125C18.2391 19.125 18.2297 19.125 18.1172 19.2422Z" fill="black"/>
<path d="M2.84063 20.0625L2.45625 20.4375H1.41563H0.375V20.8125V21.1875H0.670313L0.960938 21.1922L1.19531 21.4969C1.56563 21.975 2.07188 22.4437 2.87813 23.0578C3.40781 23.4609 3.66094 23.625 3.75 23.625C3.83906 23.625 4.10156 23.4562 4.64531 23.0437C5.40938 22.4672 6.14062 21.7781 6.39844 21.3844L6.52969 21.1875H6.825H7.125V20.8125V20.4375H5.74219H4.35938L4.15313 20.625L3.94688 20.8172L3.84375 20.3625C3.72656 19.8422 3.61406 19.6875 3.37031 19.6875C3.24844 19.6875 3.15469 19.7531 2.84063 20.0625ZM3.28125 21.2672C3.46406 22.0687 3.675 22.1297 4.26563 21.5391L4.61719 21.1875H5.07656C5.325 21.1875 5.53125 21.2062 5.53125 21.2297C5.53125 21.3 4.82344 21.9469 4.275 22.3734L3.75 22.7859L3.15469 22.3312C2.82188 22.0781 2.40938 21.7219 2.22656 21.5437L1.89844 21.2109L2.35313 21.1875C2.80781 21.1641 2.8125 21.1641 2.98594 20.9859C3.08438 20.8922 3.16406 20.8125 3.17344 20.8125C3.17813 20.8125 3.225 21.0141 3.28125 21.2672Z" fill="black"/>
<path d="M15.6703 22.2516L15.3375 22.3641L15.4547 22.7156C15.5203 22.9031 15.5906 23.0625 15.6094 23.0625C15.6328 23.0625 15.7969 23.0063 15.9797 22.9406L16.3031 22.8188L16.1672 22.4859C16.0922 22.3031 16.0266 22.1484 16.0172 22.1438C16.0125 22.1438 15.8578 22.1906 15.6703 22.2516Z" fill="black"/>
<path d="M8.09062 22.5563C8.02499 22.7392 7.97812 22.8985 7.98749 22.9079C7.99687 22.922 8.16562 22.9782 8.3578 23.0392L8.71405 23.147L8.8078 22.8282C8.86405 22.6548 8.90624 22.4907 8.90624 22.4673C8.90624 22.4345 8.33437 22.2188 8.24062 22.2188C8.22655 22.2188 8.16093 22.3688 8.09062 22.5563Z" fill="black"/>
<path d="M14.3391 22.6175C13.9031 22.7066 13.9266 22.6785 13.9969 23.0675C14.0344 23.255 14.0719 23.4191 14.0859 23.4285C14.1094 23.4519 14.6953 23.3394 14.7656 23.2972C14.8172 23.2644 14.7 22.655 14.6297 22.5894C14.6156 22.5753 14.4844 22.5847 14.3391 22.6175Z" fill="black"/>
<path d="M9.54375 22.9363C9.50156 23.1145 9.46875 23.2879 9.46875 23.316C9.46875 23.3488 9.59531 23.4004 9.76875 23.4285C10.2141 23.5129 10.2047 23.5176 10.2375 23.2457C10.2562 23.1098 10.2797 22.9457 10.2937 22.8754C10.3219 22.7535 10.3125 22.7488 9.97031 22.6785L9.61406 22.6082L9.54375 22.9363Z" fill="black"/>
<path d="M11.0344 22.8984C11.0297 22.9219 11.0156 23.0859 11.0016 23.2547L10.9781 23.5688L11.1516 23.5969C11.2453 23.6109 11.4187 23.625 11.5453 23.625H11.7656V23.2547V22.8844L11.4094 22.8656C11.1984 22.8563 11.0437 22.8703 11.0344 22.8984Z" fill="black"/>
<path d="M12.6234 22.8611C12.5203 22.8799 12.5156 22.9033 12.5156 23.2549V23.6299L12.8578 23.6018C13.3078 23.5596 13.3125 23.5596 13.2891 23.4049C13.2797 23.3346 13.2563 23.1752 13.2422 23.0486L13.2141 22.8283L12.9703 22.833C12.8344 22.8377 12.6797 22.8518 12.6234 22.8611Z" fill="black"/>
<path d="M17.625 23.25V23.625H20.625H23.625V23.25V22.875H20.625H17.625V23.25Z" fill="black"/>
</g>
<defs>
<clipPath id="clip0_51_6732">
<rect width="24" height="24" fill="white"/>
</clipPath>
</defs>
</svg>
