<svg width="24" height="24" viewBox="0 0 24 24" fill="none" xmlns="http://www.w3.org/2000/svg">
<path d="M5.92969 1.26562C3.69844 1.6125 1.77188 3.01875 0.773438 5.03906C0.440626 5.71406 0.281251 6.15937 0.131251 6.8625C-0.00468677 7.5 -0.0140618 8.81719 0.107813 9.44531C0.342188 10.6266 0.778126 11.6156 1.45781 12.5062C1.69688 12.8156 8.0625 19.3078 10.6734 21.9C11.5453 22.7672 11.5641 22.7812 11.7609 22.7812C12 22.7812 12.1266 22.725 12.2859 22.5375L12.4078 22.3922L12.5906 22.5141C12.8906 22.7109 13.2703 22.7953 13.7344 22.7719C14.0813 22.7578 14.1938 22.7297 14.4656 22.5938C15.0469 22.3078 15.45 21.7781 15.5672 21.1266L15.6234 20.8172L15.8625 20.7891C17.1938 20.6203 18.2391 19.5937 18.3703 18.3281L18.3984 18.0281L18.75 17.9719C19.2094 17.8969 19.5703 17.7656 19.8984 17.5594C20.6203 17.0953 21.0891 16.3312 21.1781 15.4734L21.2109 15.1734L21.4688 15.1125C22.4297 14.8687 23.2594 14.0531 23.5078 13.0969C23.5875 12.7875 23.6016 12.0797 23.5266 11.7656C23.5031 11.6484 23.4047 11.3953 23.3156 11.1984L23.1469 10.8422L23.3953 10.5187C23.925 9.81562 24.1031 9.05625 23.9297 8.22656C23.8359 7.78594 23.5828 7.27969 23.2922 6.96094C23.1141 6.76875 23.0625 6.68906 23.1 6.64219C23.2172 6.50625 23.4422 5.98594 23.5078 5.70937C23.5875 5.3625 23.5969 4.70156 23.5266 4.35C23.4984 4.21406 23.3859 3.90937 23.2734 3.675C22.9406 2.98125 22.3594 2.46562 21.5719 2.16094C21.2859 2.05312 21.1969 2.04375 20.6016 2.04375C20.2406 2.04375 19.8938 2.06719 19.8281 2.09531C19.725 2.1375 19.6875 2.11875 19.4719 1.92656C18.9797 1.47656 18.3047 1.21875 17.6344 1.21875C17.1281 1.21875 16.8328 1.28437 16.3781 1.50469L15.9938 1.68281L15.675 1.51875C15.2344 1.29844 14.9156 1.21875 14.4141 1.21875C13.9219 1.21875 13.5563 1.30312 13.1297 1.51406C12.5859 1.78125 11.9484 2.47969 11.8031 2.9625C11.775 3.06094 11.7422 3.14062 11.7281 3.14062C11.7188 3.14062 11.5875 3.0375 11.4422 2.91562C10.5141 2.12344 9.57188 1.64062 8.44219 1.37344C8.02969 1.27969 7.8 1.25625 7.07813 1.24219C6.6 1.23281 6.08438 1.24219 5.92969 1.26562ZM7.90781 2.08594C9.15938 2.2875 10.2281 2.84062 11.2172 3.79219L11.5781 4.13906L11.5734 12.9094V21.6797L9.27656 19.3594C3.06563 13.0828 2.18906 12.1781 1.88906 11.7328C1.41094 11.0156 1.11094 10.3078 0.928126 9.45469C0.848438 9.07969 0.825001 8.81719 0.825001 8.22656C0.825001 7.12969 0.984376 6.41719 1.44844 5.46094C2.31094 3.68906 3.96563 2.44219 5.92969 2.08594C6.38438 2.00156 7.39219 2.00156 7.90781 2.08594ZM14.9813 2.08594C15.1078 2.12344 15.2484 2.17969 15.2953 2.2125C15.375 2.27344 15.3703 2.29219 15.2156 2.55C15.0656 2.79844 14.9109 3.19687 14.8406 3.52969C14.8219 3.6 14.775 3.67031 14.7281 3.68906C14.2688 3.84375 13.9688 4.10156 13.9688 4.35C13.9688 4.72969 14.3578 4.86094 14.6953 4.59375C15 4.35 15.3469 4.35 15.7078 4.59375C15.9656 4.76719 16.1813 4.77656 16.3359 4.61719C16.5141 4.43906 16.4953 4.24219 16.2703 4.03125C16.1719 3.9375 15.9891 3.81562 15.8672 3.76875C15.6563 3.68437 15.6516 3.675 15.675 3.52031C15.75 3.02812 16.2328 2.44219 16.7672 2.19375C17.025 2.07187 17.1563 2.03906 17.4891 2.025C17.9953 2.00156 18.3047 2.08594 18.7078 2.35781C19.2234 2.7 19.5188 3.20625 19.5891 3.8625C19.6172 4.13437 19.6453 4.20469 19.7531 4.29844C19.95 4.46719 20.2266 4.41562 20.3438 4.19062C20.4234 4.04062 20.3766 3.47812 20.2547 3.13125L20.1609 2.85938L20.2781 2.83125C20.4938 2.775 21.1078 2.84531 21.3844 2.94844C21.9281 3.15937 22.425 3.65156 22.65 4.20469C22.7391 4.43437 22.7578 4.56094 22.7578 5.01562C22.7578 5.54062 22.7531 5.56406 22.5844 5.91562L22.4156 6.27187L22.0969 6.15937C21.5016 5.94375 20.7094 5.9625 20.1656 6.21094L19.9125 6.32812L19.7344 6.23438C19.4953 6.1125 19.0594 6 18.8297 6C18.7031 6 18.6188 6.03281 18.5391 6.11719C18.2859 6.36562 18.4641 6.79687 18.8109 6.79687C19.0266 6.79687 19.3406 6.90937 19.5328 7.05937C19.7766 7.24687 19.9172 7.49531 19.9875 7.87969C20.0625 8.26875 20.1656 8.39062 20.4141 8.39062C20.5313 8.39062 20.6016 8.35312 20.6906 8.24531C20.7563 8.16562 20.8125 8.06719 20.8125 8.02031C20.8125 7.82344 20.7 7.36406 20.6063 7.1625L20.4984 6.94219L20.6438 6.89531C20.925 6.81094 21.1922 6.79687 21.5063 6.84375C22.8328 7.05937 23.5781 8.475 22.9875 9.67031C22.7391 10.1812 22.1953 10.6219 21.6656 10.7437C21.3469 10.8141 21.1641 11.0062 21.2063 11.2219C21.2766 11.5641 21.5672 11.6344 22.1016 11.4422C22.2563 11.3859 22.4063 11.3344 22.4297 11.3297C22.4578 11.325 22.5422 11.4469 22.6172 11.6016C22.7484 11.8641 22.7578 11.9203 22.7578 12.3984C22.7578 12.8625 22.7438 12.9422 22.6266 13.1906C21.9984 14.5312 20.2594 14.8078 19.2984 13.7156C19.1672 13.5703 18.9844 13.2562 18.9844 13.1812C18.9844 13.1625 19.1016 13.1062 19.2469 13.0547C19.5844 12.9422 20.1188 12.5672 20.2734 12.3422C20.4141 12.1266 20.4234 11.9578 20.2922 11.7937C20.2172 11.7 20.1563 11.6719 20.0109 11.6719C19.8516 11.6719 19.7906 11.7047 19.6031 11.8875C19.2797 12.2062 18.8766 12.3844 18.4781 12.3844C18.0984 12.3891 17.8828 12.3234 17.5219 12.1078C17.2172 11.9203 17.0344 11.925 16.875 12.1266C16.6828 12.3703 16.7859 12.6 17.2031 12.8484C17.3625 12.9469 17.6344 13.0641 17.8078 13.1062C18.1219 13.1859 18.1266 13.1906 18.1828 13.3922C18.2766 13.7109 18.6938 14.2875 19.0078 14.5453C19.3359 14.8078 19.7438 15.0187 20.1094 15.1078C20.3484 15.1687 20.3672 15.1828 20.3813 15.3234C20.4 15.5156 20.2734 15.9516 20.1234 16.2094C19.8516 16.6687 19.3359 17.0391 18.8063 17.1516C18.4453 17.2266 18.2813 17.2172 18.2531 17.1187C18.1734 16.8797 17.9297 16.4484 17.7563 16.2328C17.5313 15.9609 17.1 15.6094 16.875 15.5156C16.7953 15.4828 16.7391 15.4453 16.7484 15.4266C16.9453 15.0562 17.1188 14.6391 17.1563 14.4422C17.2359 14.0203 17.2172 13.8844 17.0672 13.7297C16.8984 13.5609 16.7391 13.5562 16.5563 13.7109C16.4438 13.8047 16.4156 13.8703 16.3875 14.1141C16.3078 14.9109 15.7031 15.5109 14.9156 15.5906C14.6625 15.6187 14.6063 15.6422 14.5031 15.7641C14.4094 15.8766 14.3906 15.9422 14.4094 16.05C14.4469 16.2562 14.6391 16.4062 14.85 16.4062C15.0891 16.4062 15.5766 16.2844 15.7969 16.1719C16.0359 16.05 16.1156 16.0547 16.4297 16.1953C16.7953 16.3547 17.2172 16.7719 17.4047 17.1516C17.5453 17.4469 17.5547 17.4891 17.5547 18C17.5547 18.5203 17.55 18.5531 17.4 18.8578C17.0109 19.6406 16.1484 20.1047 15.3188 19.9688C15.1594 19.9453 14.8734 19.8516 14.6813 19.7578C14.4891 19.6687 14.2922 19.5937 14.2406 19.5937C14.1891 19.5937 14.0859 19.6547 14.0109 19.7297C13.8563 19.8891 13.8328 20.0812 13.9594 20.2312C14.0578 20.3531 14.3953 20.5453 14.6438 20.625L14.8219 20.6812L14.7891 20.925C14.7094 21.5531 14.2266 21.9844 13.6078 21.9844C13.1297 21.9844 12.6656 21.6797 12.4875 21.2531C12.4313 21.1219 12.4219 19.6687 12.4219 12.3609C12.4219 3.90469 12.4266 3.61406 12.5109 3.36562C12.7172 2.76562 13.1625 2.32031 13.7578 2.11406C14.0953 1.99687 14.6438 1.98281 14.9813 2.08594Z" fill="black"/>
<path d="M5.98592 2.8875C4.89842 3.08438 3.94685 3.6 3.14529 4.42969C2.2406 5.3625 1.73904 6.45938 1.61717 7.75781C1.58435 8.07188 1.58904 8.1 1.71092 8.24063C1.80935 8.35781 1.87498 8.39062 1.99685 8.39062C2.25467 8.39062 2.37654 8.23594 2.41404 7.84688C2.52654 6.68906 3.01404 5.65313 3.80623 4.89375C4.59373 4.13438 5.54529 3.69375 6.53904 3.62813C7.0406 3.59531 7.10623 3.57656 7.21873 3.45938C7.34998 3.31406 7.3406 3.07031 7.19529 2.92969C7.09217 2.82188 7.04529 2.8125 6.71717 2.81719C6.5156 2.81719 6.18748 2.85 5.98592 2.8875Z" fill="#3F6B68"/>
<path d="M1.91719 9.32322C1.75313 9.48728 1.75313 9.54822 1.87969 9.92791C2.03907 10.4013 2.31563 10.5326 2.58282 10.2701C2.74219 10.106 2.75157 9.99822 2.625 9.62791C2.47032 9.17791 2.18438 9.05603 1.91719 9.32322Z" fill="#3F6B68"/>
<path d="M15.8063 7.66396C14.7703 7.88896 13.8844 8.78428 13.6641 9.8249C13.575 10.2374 13.575 10.4249 13.6641 10.589C13.8375 10.9312 14.3906 10.7905 14.3906 10.4062C14.3906 9.90459 14.686 9.24834 15.061 8.92021C15.4172 8.60615 15.9563 8.39521 16.3969 8.39053C16.7906 8.39053 16.936 7.84209 16.5891 7.66396C16.4297 7.57959 16.2 7.57959 15.8063 7.66396Z" fill="black"/>
</svg>
