<svg width="27" height="19" viewBox="0 0 27 19" fill="none" xmlns="http://www.w3.org/2000/svg">
<g clip-path="url(#clip0_518_4291)">
<path d="M3.81259 6.85377H14.7547C14.9363 6.85377 15.079 6.72631 15.079 6.56409C15.079 6.40187 14.9363 6.27441 14.7547 6.27441H3.81259C3.63098 6.27441 3.48828 6.40187 3.48828 6.56409C3.48828 6.72631 3.63098 6.85377 3.81259 6.85377Z" fill="#272525"/>
<path d="M14.7547 14.2759H3.81259C3.63098 14.2759 3.48828 14.4033 3.48828 14.5656C3.48828 14.7278 3.63098 14.8552 3.81259 14.8552H14.7547C14.9363 14.8552 15.079 14.7278 15.079 14.5656C15.079 14.4033 14.9363 14.2759 14.7547 14.2759Z" fill="#272525"/>
<path d="M26.1575 1.29663C26.1575 1.29663 26.1445 1.27925 26.138 1.27925C25.7164 0.90267 25.2429 0.711481 24.75 0.711481C23.9781 0.711481 23.4268 1.19235 23.3814 1.2329L19.1589 5.00453C19.1006 5.05667 19.0616 5.13199 19.0616 5.2073C19.0616 5.23627 19.0616 5.25944 19.0746 5.28262L18.8217 5.50857L18.7049 5.40428L18.2638 5.79825V0.630371H0.303711V18.8106H18.2638V10.7749L21.4939 7.88973L21.3772 7.78545L21.6302 7.5595C21.6302 7.5595 21.6885 7.57108 21.7145 7.57108C21.7988 7.57108 21.8831 7.54212 21.9415 7.48418L26.1056 3.7647C26.1056 3.7647 26.7348 3.2201 26.7477 2.4959C26.7542 2.06139 26.5596 1.66163 26.1575 1.29084V1.29663ZM17.6152 11.3601V18.2313H0.952326V1.20973H17.6152V6.3834L13.9895 9.62201L14.2489 9.85376L14.1581 10.3057H3.81272C3.6311 10.3057 3.48841 10.4331 3.48841 10.5953C3.48841 10.7576 3.6311 10.885 3.81272 10.885H14.0479L13.7754 12.3044L16.5256 11.8815L16.7785 12.1075L17.6217 11.3543L17.946 11.0646L17.6217 11.3543L17.6152 11.3601ZM14.6186 12.0264L14.0154 12.1248H13.97L14.0803 11.5513L14.223 11.6787L14.5278 10.1087L16.2402 11.6382L14.4824 11.9105L14.6121 12.0321L14.6186 12.0264ZM16.772 11.2906L14.904 9.62201L18.7049 6.22697L20.5729 7.89552L16.772 11.2906ZM21.0334 7.69275L18.9384 5.82142L19.1525 5.63023L21.2475 7.50156L21.0334 7.69275ZM25.6516 3.36494L21.7145 6.88165L19.8465 5.2131L23.8419 1.64425C23.8419 1.64425 24.2376 1.29663 24.75 1.29084C25.0678 1.29084 25.3727 1.4183 25.671 1.67901C25.671 1.6848 25.684 1.6906 25.684 1.69639C25.9629 1.94551 26.0991 2.21781 26.0991 2.49011C26.0991 2.97098 25.6581 3.35336 25.6516 3.35915V3.36494Z" fill="#272525"/>
<path d="M19.1462 4.25809C19.2564 4.35659 19.4381 4.35659 19.5483 4.25809L22.5449 1.58146C22.6552 1.48297 22.6552 1.32075 22.5449 1.22226C22.4347 1.11797 22.253 1.11797 22.1428 1.22226L19.1462 3.89889C19.0359 3.99738 19.0359 4.1596 19.1462 4.25809Z" fill="#272525"/>
</g>
<defs>
<clipPath id="clip0_518_4291">
<rect width="26.444" height="18.1803" fill="white" transform="translate(0.303711 0.630859)"/>
</clipPath>
</defs>
</svg>
