<svg width="19" height="21" viewBox="0 0 19 21" fill="none" xmlns="http://www.w3.org/2000/svg">
<g clip-path="url(#clip0_518_4298)">
<path d="M9.39748 0.89209C8.57475 0.89209 7.65736 1.48629 7.65736 2.28515V4.39126C3.47088 5.1307 0.303711 8.47802 0.303711 12.4856C0.303711 17.0279 4.38098 20.7317 9.39748 20.7317C14.414 20.7317 18.4913 17.0345 18.4913 12.4856C18.4913 8.47802 15.3241 5.13731 11.1449 4.39786V2.28515C11.1449 1.48629 10.2275 0.89209 9.40476 0.89209H9.39748ZM8.67668 2.28515C8.67668 2.07388 9.06256 1.8164 9.39748 1.8164C9.7324 1.8164 10.1183 2.06728 10.1183 2.28515V10.4983C10.1183 10.7096 9.7324 10.9604 9.39748 10.9604C9.06256 10.9604 8.67668 10.7096 8.67668 10.4983V2.28515ZM9.39748 11.8914C10.2202 11.8914 11.1376 11.2972 11.1376 10.4983V7.93004C13.2126 8.58365 14.7052 10.3795 14.7052 12.479C14.7052 15.133 12.3244 17.2986 9.3902 17.2986C6.45602 17.2986 4.07519 15.1396 4.07519 12.479C4.07519 10.3729 5.56776 8.58365 7.6428 7.93004V10.4983C7.6428 11.2972 8.56019 11.8914 9.38292 11.8914H9.39748ZM17.4647 12.479C17.4647 16.5129 13.8461 19.7942 9.39748 19.7942C4.94889 19.7942 1.33031 16.5129 1.33031 12.4856C1.33031 8.99299 4.03878 6.06822 7.65008 5.34858V6.96611C4.99985 7.65274 3.05587 9.87108 3.05587 12.4922C3.05587 15.6612 5.8954 18.2361 9.3902 18.2361C12.885 18.2361 15.7245 15.6546 15.7245 12.4922C15.7245 9.87108 13.7805 7.65935 11.1303 6.96611V5.34858C14.7416 6.07482 17.4501 8.99959 17.4501 12.4856L17.4647 12.479Z" fill="#272525"/>
</g>
<defs>
<clipPath id="clip0_518_4298">
<rect width="18.1803" height="19.833" fill="white" transform="translate(0.303711 0.89209)"/>
</clipPath>
</defs>
</svg>
