<svg width="17" height="24" viewBox="0 0 17 24" fill="none" xmlns="http://www.w3.org/2000/svg">
<g clip-path="url(#clip0_20_6013)">
<path d="M8.24958 22.7188C8.62665 22.7188 8.93232 22.5061 8.93232 22.2438C8.93232 21.9815 8.62665 21.7688 8.24958 21.7688C7.87251 21.7688 7.56683 21.9815 7.56683 22.2438C7.56683 22.5061 7.87251 22.7188 8.24958 22.7188Z" stroke="black" stroke-width="0.75" stroke-miterlimit="10"/>
<path d="M14.9041 0.0925237H2.0989C1.00174 0.0925237 0.113281 0.798908 0.113281 1.67093V22.329C0.113281 23.201 1.00174 23.9098 2.0989 23.9098H14.9041C16.0012 23.9098 16.8897 23.2035 16.8897 22.329V1.67093C16.8897 0.798908 16.0012 0.0900879 14.9041 0.0900879V0.0925237Z" stroke="black" stroke-width="0.75" stroke-miterlimit="10"/>
<path d="M1.78884 1.94128H15.2141C15.232 1.94128 15.2469 1.95346 15.2469 1.96807V20.6751C15.2469 20.6897 15.232 20.7043 15.2111 20.7043H1.78884C1.77095 20.7043 1.75604 20.6921 1.75604 20.6775V1.96807C1.75604 1.95346 1.77095 1.93884 1.79182 1.93884L1.78884 1.94128Z" stroke="black" stroke-width="0.25" stroke-miterlimit="10"/>
<path d="M9.50471 9.53134C9.50471 8.96623 8.94123 8.5083 8.24656 8.5083C7.55189 8.5083 6.9884 8.96623 6.9884 9.53134C6.9884 9.9162 7.24779 10.2499 7.63239 10.4253L7.65922 9.74569C7.65922 9.46801 7.93649 9.24148 8.27935 9.24148H8.31513C8.58346 9.24148 8.80408 9.41929 8.80408 9.63851V10.4496C9.22148 10.284 9.50769 9.93568 9.50769 9.53134H9.50471Z" fill="#0DB04B"/>
<path d="M8.98596 9.48502C8.98596 9.1708 8.63117 8.91504 8.18992 8.91504H8.13327C7.57575 8.91504 7.12257 9.239 7.12257 9.63847L7.08084 10.6152L6.98543 12.766C6.96456 12.8318 6.95263 14.3274 6.95263 14.3274C6.77673 14.1983 6.57996 14.0522 6.40405 13.9109C5.99262 13.582 5.23534 13.3604 4.73447 13.319C4.46912 13.2971 4.26638 13.3238 4.13222 13.3969C4.09048 13.4213 4.04576 13.4456 4.007 13.4749C3.74762 13.6576 3.55085 13.9547 3.73271 14.1715C3.81023 14.2665 3.94439 14.3298 4.0875 14.3956C4.27831 14.4833 4.59732 14.5783 4.83583 14.7975C5.23832 15.1653 6.16852 15.9911 6.73797 16.4295C6.85723 16.4831 7.10767 16.6633 7.22692 16.7072C7.58767 16.8728 7.88283 17.0287 7.9842 17.1115C8.0647 17.1773 8.53576 17.3502 8.53576 17.3502C8.91738 17.5232 9.61205 17.6864 10.4141 17.6864C11.2161 17.6864 11.9435 17.7205 12.4802 17.3819H12.51L12.5249 17.3551C13.0735 16.9946 13.4134 16.4977 13.4134 15.9472V13.3141C13.4134 13.185 13.3746 12.7514 12.8678 12.6223C12.6233 12.559 12.3937 12.5834 12.1969 12.6443H12.1373C12.0479 12.408 11.8302 12.2545 11.5023 12.2156C11.1087 12.1668 10.8374 12.2521 10.6734 12.3373C10.5095 12.0865 10.1845 11.9549 9.74025 11.9817C9.40932 12.0012 9.16186 12.1181 8.98297 12.2716V9.48502H8.98596Z" fill="#FCFCFC" stroke="black" stroke-width="0.75" stroke-miterlimit="10"/>
<path d="M11.0551 11.2315L11.3055 11.4581C11.3532 11.5019 11.4397 11.4995 11.4844 11.4507C11.9674 10.9076 12.2327 10.2523 12.2327 9.56543C12.2327 7.77998 10.4469 6.32581 8.24956 6.32581C8.09751 6.32581 7.94546 6.33311 7.79639 6.34529C5.96282 6.51093 4.49 7.71422 4.29323 9.20736C4.1859 10.0185 4.44826 10.8101 5.01473 11.4507C5.05647 11.4995 5.14293 11.5019 5.19361 11.4581L5.44405 11.2315C5.47983 11.1999 5.48281 11.1511 5.453 11.117C5.05349 10.6421 4.84479 10.0745 4.86566 9.48505C4.91634 8.05279 6.33251 6.87873 8.09154 6.81053C10.0354 6.73259 11.6424 8.00164 11.6424 9.56543C11.6424 10.1257 11.4337 10.664 11.0521 11.117C11.0223 11.1536 11.0253 11.1999 11.061 11.2315H11.0551Z" fill="black"/>
<path d="M9.93407 10.2183L10.1994 10.457C10.2531 10.5057 10.3515 10.4959 10.3872 10.435C10.5542 10.1671 10.6407 9.87237 10.6407 9.56302C10.6407 8.64472 9.83867 7.84334 8.73554 7.65579C8.41355 7.59976 8.07367 7.59976 7.75168 7.65579C6.64856 7.84334 5.84656 8.64716 5.84656 9.56302C5.84656 9.86993 5.93302 10.1671 6.09998 10.435C6.13575 10.4935 6.23414 10.5057 6.28781 10.457L6.55315 10.2183C6.58297 10.1915 6.58893 10.1525 6.57402 10.1208C6.48458 9.94544 6.43688 9.75789 6.43688 9.56546C6.43688 8.95164 6.9139 8.39627 7.62348 8.18679C8.02001 8.06987 8.46424 8.06987 8.86076 8.18679C9.57034 8.39871 10.0474 8.95164 10.0474 9.56546C10.0474 9.75545 9.99966 9.94544 9.9132 10.1208C9.89531 10.1549 9.90426 10.1915 9.93407 10.2183Z" fill="#0DB04B"/>
</g>
<defs>
<clipPath id="clip0_20_6013">
<rect width="17" height="24" fill="white"/>
</clipPath>
</defs>
</svg>
