<svg width="27" height="19" viewBox="0 0 27 19" fill="none" xmlns="http://www.w3.org/2000/svg">
<g clip-path="url(#clip0_518_4323)">
<path d="M3.81259 6.42701H14.7547C14.9363 6.42701 15.079 6.29956 15.079 6.13734C15.079 5.97512 14.9363 5.84766 14.7547 5.84766H3.81259C3.63098 5.84766 3.48828 5.97512 3.48828 6.13734C3.48828 6.29956 3.63098 6.42701 3.81259 6.42701Z" fill="#272525"/>
<path d="M14.7547 13.8481H3.81259C3.63098 13.8481 3.48828 13.9756 3.48828 14.1378C3.48828 14.3 3.63098 14.4275 3.81259 14.4275H14.7547C14.9363 14.4275 15.079 14.3 15.079 14.1378C15.079 13.9756 14.9363 13.8481 14.7547 13.8481Z" fill="#272525"/>
<path d="M26.1575 0.870364C26.1575 0.870364 26.1445 0.852983 26.138 0.852983C25.7164 0.4764 25.2429 0.285212 24.75 0.285212C23.9781 0.285212 23.4268 0.766079 23.3814 0.806634L19.1589 4.57826C19.1006 4.6304 19.0616 4.70572 19.0616 4.78103C19.0616 4.81 19.0616 4.83317 19.0746 4.85635L18.8217 5.0823L18.7049 4.97801L18.2638 5.37198V0.204102H0.303711V18.3844H18.2638V10.3487L21.4939 7.46346L21.3772 7.35918L21.6302 7.13323C21.6302 7.13323 21.6885 7.14481 21.7145 7.14481C21.7988 7.14481 21.8831 7.11585 21.9415 7.05791L26.1056 3.33843C26.1056 3.33843 26.7348 2.79383 26.7477 2.06964C26.7542 1.63512 26.5596 1.23536 26.1575 0.86457V0.870364ZM17.6152 10.9338V17.805H0.952325V0.78346H17.6152V5.95713L13.9895 9.19574L14.2489 9.42749L14.1581 9.87939H3.81272C3.6311 9.87939 3.48841 10.0068 3.48841 10.1691C3.48841 10.3313 3.6311 10.4587 3.81272 10.4587H14.0479L13.7754 11.8782L16.5256 11.4552L16.7785 11.6812L17.6217 10.928L17.6152 10.9338ZM14.6186 11.6001L14.0154 11.6986H13.97L14.0803 11.125L14.223 11.2525L14.5278 9.6824L16.2402 11.2119L14.4824 11.4842L14.6121 11.6059L14.6186 11.6001ZM16.772 10.8643L14.904 9.19574L18.7049 5.8007L20.5729 7.46926L16.772 10.8643ZM21.0334 7.26648L18.9384 5.39515L19.1524 5.20396L21.2475 7.07529L21.0334 7.26648ZM25.6516 2.93867L21.7145 6.45538L19.8465 4.78683L23.8419 1.21798C23.8419 1.21798 24.2376 0.870364 24.75 0.86457C25.0678 0.86457 25.3727 0.992029 25.671 1.25274C25.671 1.25853 25.684 1.26433 25.684 1.27012C25.9629 1.51925 26.0991 1.79154 26.0991 2.06384C26.0991 2.54471 25.6581 2.92709 25.6516 2.93288V2.93867Z" fill="#272525"/>
<path d="M19.1462 3.83134C19.2564 3.92983 19.4381 3.92983 19.5483 3.83134L22.5449 1.1547C22.6552 1.05621 22.6552 0.893989 22.5449 0.795499C22.4347 0.691214 22.253 0.691214 22.1428 0.795499L19.1462 3.47213C19.0359 3.57062 19.0359 3.73285 19.1462 3.83134Z" fill="#272525"/>
</g>
<defs>
<clipPath id="clip0_518_4323">
<rect width="26.444" height="18.1803" fill="white" transform="translate(0.303711 0.203613)"/>
</clipPath>
</defs>
</svg>
