<svg width="24" height="19" viewBox="0 0 24 19" fill="none" xmlns="http://www.w3.org/2000/svg">
<g clip-path="url(#clip0_518_4265)">
<path d="M11.2633 3.72757L9.40225 0.690061C9.30242 0.525871 9.12416 0.421387 8.93163 0.421387H0.859891C0.553279 0.421387 0.303711 0.682597 0.303711 1.00351V18.0195C0.303711 18.3404 0.553279 18.6017 0.859891 18.6017H20.2905C20.5972 18.6017 20.8467 18.3404 20.8467 18.0195V10.7579C22.3584 10.1981 23.4422 8.69057 23.4422 6.9218C23.4422 4.67539 21.6952 2.84691 19.549 2.84691C18.6363 2.84691 17.802 3.17529 17.1389 3.72757H11.2633ZM22.5509 6.9218C22.5509 8.65325 21.2032 10.0638 19.549 10.0638C17.8947 10.0638 16.547 8.65325 16.547 6.9218C16.547 5.19035 17.8947 3.77981 19.549 3.77981C21.2032 3.77981 22.5509 5.19035 22.5509 6.9218ZM1.41607 17.4374V1.58564H8.62502L10.4861 4.62315C10.5859 4.78734 10.7642 4.89182 10.9567 4.89182H16.1691C15.8411 5.48887 15.6486 6.18295 15.6486 6.9218C15.6486 9.16821 17.3956 10.9967 19.5418 10.9967C19.606 10.9967 19.6702 10.9967 19.7272 10.9892V17.4374H1.41607Z" fill="#272525"/>
<path d="M18.7916 7.82527L18.3138 7.24314C18.1926 7.09388 17.9858 7.07895 17.8432 7.20582C17.7006 7.3327 17.6864 7.54913 17.8076 7.69839L18.5064 8.54919C18.5634 8.62383 18.649 8.66114 18.7345 8.6686H18.7559C18.8344 8.6686 18.9199 8.63875 18.977 8.57905L21.5939 6.14606C21.7294 6.01918 21.7436 5.79529 21.6224 5.65349C21.5012 5.51169 21.2873 5.49676 21.1518 5.62363L18.7916 7.8178V7.82527Z" fill="#272525"/>
</g>
<defs>
<clipPath id="clip0_518_4265">
<rect width="23.1385" height="18.1803" fill="white" transform="translate(0.303711 0.421387)"/>
</clipPath>
</defs>
</svg>
