<svg width="29" height="25" viewBox="0 0 29 25" fill="none" xmlns="http://www.w3.org/2000/svg">
<g clip-path="url(#clip0_62_22985)">
<path d="M18.2421 12.2931C18.2421 17.3273 14.4046 19.698 14.4046 19.698C14.4046 19.698 10.567 17.3224 10.567 12.2931C10.567 7.26388 13.1963 5.45412 14.4046 1.47363C15.6227 5.53705 18.2421 7.259 18.2421 12.2931V12.2931Z" stroke="#3F6B68" stroke-width="0.75" stroke-miterlimit="10"/>
<path d="M20.8963 16.0441C18.4402 19.7661 14.4442 19.7027 14.4442 19.7027C14.4442 19.7027 12.7655 16.1319 15.2216 12.41C17.6776 8.68803 20.5001 8.60022 23.3375 6.22949C22.253 9.80998 23.3474 12.3222 20.8913 16.0441H20.8963Z" stroke="black" stroke-width="0.75" stroke-miterlimit="10"/>
<path d="M21.0943 19.5609C17.5687 21.4195 14.4937 19.6878 14.4937 19.6878C14.4937 19.6878 14.7413 16.2048 18.2619 14.3463C21.7876 12.4878 24.0208 13.6097 27.2543 12.9609C24.8576 15.2878 24.62 17.7024 21.0943 19.5609V19.5609Z" stroke="#3F6B68" stroke-width="0.75" stroke-miterlimit="10"/>
<path d="M7.67022 16.0441C10.1263 19.7661 14.1223 19.7027 14.1223 19.7027C14.1223 19.7027 15.8009 16.1319 13.3449 12.41C10.8888 8.68803 8.06636 8.60022 5.22902 6.22949C6.31345 9.80998 5.21912 12.3222 7.67517 16.0441H7.67022Z" stroke="black" stroke-width="0.75" stroke-miterlimit="10"/>
<path d="M7.4771 19.5609C11.0027 21.4195 14.0777 19.6878 14.0777 19.6878C14.0777 19.6878 13.8302 16.2048 10.3095 14.3463C6.78881 12.4878 4.55063 13.6097 1.31715 12.9609C3.71379 15.2878 3.95147 17.7024 7.4771 19.5609Z" stroke="#3F6B68" stroke-width="0.75" stroke-miterlimit="10"/>
<path d="M14.2857 19.6973V24.9997" stroke="black" stroke-width="0.75" stroke-miterlimit="10"/>
</g>
<defs>
<clipPath id="clip0_62_22985">
<rect width="28.5714" height="25" fill="white"/>
</clipPath>
</defs>
</svg>
