<svg width="24" height="24" viewBox="0 0 24 24" fill="none" xmlns="http://www.w3.org/2000/svg">
<g clip-path="url(#clip0_20_7909)">
<path d="M2.64844 0.0656252C2.57344 0.103125 2.3625 0.28125 2.17969 0.464063L1.85625 0.796875H1.25625C0.614063 0.796875 0.46875 0.829688 0.2625 1.02188C0.0140625 1.25625 0 1.35 0 2.59688C0 3.29063 0.01875 3.79688 0.0515625 3.87656C0.121875 4.07344 0.370313 4.30781 0.5625 4.35938C0.65625 4.3875 1.45781 4.40625 2.43281 4.40625C4.06875 4.40625 4.15313 4.40156 4.34531 4.30781C4.45313 4.25625 4.59375 4.14375 4.65 4.06406C4.75781 3.91406 4.75781 3.90469 4.75781 2.20313V0.492188L4.64531 0.332813C4.44844 0.0609379 4.24219 4.76837e-07 3.46875 0.00468779C3 0.00468779 2.74688 0.023438 2.64844 0.0656252ZM3.98438 2.20313V3.60938H2.39063H0.796875V2.60156V1.59375H1.40625C2.1375 1.59375 2.22188 1.56094 2.67188 1.10625L2.97188 0.796875H3.47813H3.98438V2.20313Z" fill="#3F6B68"/>
<path d="M20.6016 0.0703125C19.7953 0.248437 19.1109 0.76875 18.7312 1.5C18.5156 1.9125 18.4219 2.30156 18.4219 2.79844C18.4219 3.60937 18.6609 4.17656 19.2422 4.75781C19.8141 5.33437 20.4047 5.57812 21.2109 5.57812C21.7031 5.57812 22.0875 5.48438 22.5047 5.26875C23.5922 4.69687 24.1969 3.41719 23.9344 2.24062C23.8078 1.66875 23.5828 1.25625 23.1656 0.84375C22.4672 0.145312 21.5344 -0.135938 20.6016 0.0703125ZM21.6797 0.867188C22.0687 0.970312 22.3687 1.14844 22.6453 1.43906C23.5734 2.41875 23.2828 3.99375 22.0594 4.59375C21.4547 4.88906 20.6391 4.83281 20.0859 4.45312C19.4812 4.03594 19.1906 3.43594 19.2281 2.67188C19.2422 2.325 19.2703 2.2125 19.4062 1.94062C19.8328 1.07344 20.7703 0.632812 21.6797 0.867188Z" fill="#3F6B68"/>
<path d="M21.0234 1.65C20.9719 1.67813 20.9062 1.73906 20.8734 1.77656C20.8031 1.87031 20.7937 2.87344 20.8594 3.00469C20.925 3.12188 21.4266 3.375 21.6 3.375C21.7781 3.375 21.9844 3.17344 21.9844 2.99531C21.9844 2.85938 21.7828 2.57813 21.6797 2.57813C21.6375 2.57813 21.6141 2.47031 21.6 2.19844C21.5859 1.85156 21.5719 1.80938 21.4547 1.70625C21.3141 1.58438 21.1687 1.56563 21.0234 1.65Z" fill="#3F6B68"/>
<path d="M11.25 5.26875C9.62813 5.61563 8.41876 6.80625 8.08594 8.39063C7.98751 8.85 7.98751 11.55 8.08126 12C8.22657 12.675 8.55469 13.3359 9.00001 13.8422C9.13126 13.9875 9.17344 14.0672 9.13126 14.0813C9.09844 14.0906 8.92032 14.1375 8.73751 14.1891L8.40001 14.2828L7.40626 12.7125C6.85782 11.85 6.36094 11.0391 6.30001 10.9031C6.23907 10.7719 5.94844 9.85313 5.64844 8.85938C5.34844 7.86563 5.06251 6.96563 5.01094 6.85781C4.89376 6.60938 4.51407 6.25781 4.22813 6.12656C3.89532 5.97188 3.30001 5.98125 2.95313 6.14531C2.62501 6.3 2.33438 6.59063 2.17032 6.92813C2.05782 7.15781 2.03907 7.25156 2.03907 7.59375C2.03907 7.96875 2.07188 8.10469 2.62032 9.91406C2.97188 11.0906 3.27657 12 3.39844 12.2625C3.50626 12.5016 4.11094 13.4953 4.73438 14.4797L5.86876 16.2656L5.65782 16.6781C5.27813 17.4234 5.20782 17.7047 5.01563 19.3406C4.87969 20.475 4.86563 20.5641 4.75313 20.6719L4.64063 20.7891L3.29063 20.8125L1.94532 20.8359L1.69688 20.9672C1.36876 21.1406 1.09688 21.4219 0.946882 21.7453C0.843757 21.9656 0.820319 22.0734 0.825007 22.4063C0.825007 22.7438 0.843757 22.8469 0.951569 23.0672C1.10157 23.3766 1.45782 23.7328 1.77188 23.8734C1.98751 23.9719 2.04376 23.9766 3.65626 23.9766L5.32032 23.9719L5.74219 23.8453C6.55782 23.5922 7.27032 23.1188 7.75782 22.5047L7.99219 22.2141L8.01563 22.8609C8.03907 23.4469 8.04844 23.5219 8.15157 23.6672C8.21251 23.7516 8.34844 23.8641 8.45626 23.9109C8.63907 23.9953 8.83126 24 12 24C15.1688 24 15.3609 23.9953 15.5438 23.9109C15.6516 23.8641 15.7875 23.7516 15.8484 23.6672C15.9516 23.5219 15.9609 23.4469 15.9844 22.8516L16.0078 22.1953L16.1813 22.4297C16.65 23.0672 17.4047 23.5781 18.2578 23.8453L18.6797 23.9719L20.3438 23.9766C21.9563 23.9766 22.0125 23.9719 22.2281 23.8734C22.5422 23.7328 22.8984 23.3766 23.0484 23.0672C23.1563 22.8469 23.175 22.7438 23.175 22.4063C23.1797 22.0734 23.1563 21.9656 23.0531 21.7453C22.9031 21.4219 22.6313 21.1406 22.3031 20.9672L22.0547 20.8359L20.7188 20.8125C19.9828 20.7984 19.35 20.7703 19.3125 20.7516C19.1625 20.6766 19.1203 20.4984 18.9844 19.35C18.7875 17.6906 18.7125 17.3859 18.3281 16.6453L18.1313 16.2656L19.2563 14.4938C19.8703 13.5234 20.4422 12.6 20.5172 12.4453C20.7281 12.0234 20.8594 11.6344 21.4547 9.65625C21.9656 7.94063 21.9891 7.83281 21.9703 7.51406C21.9375 6.92813 21.5578 6.37969 21.0094 6.12656C20.6953 5.98125 20.0859 5.98125 19.7719 6.12656C19.4859 6.25781 19.1063 6.60938 18.9891 6.85781C18.9375 6.96563 18.6516 7.86563 18.3516 8.85938C18.0516 9.85313 17.7563 10.7719 17.6953 10.9078C17.6344 11.0438 17.1375 11.8547 16.5891 12.7172L15.5953 14.2781L15.2625 14.1891C15.0797 14.1375 14.9016 14.0906 14.8688 14.0813C14.8266 14.0672 14.8781 13.9781 15.0141 13.8188C15.4641 13.2844 15.7734 12.6609 15.9141 12C16.0172 11.5219 16.0172 8.86875 15.9141 8.39063C15.7266 7.50469 15.2344 6.68906 14.5313 6.10313C14.1844 5.81719 13.4344 5.4375 12.9844 5.32031C12.5719 5.2125 11.6391 5.18906 11.25 5.26875ZM12.6469 6.075C13.8422 6.32344 14.7891 7.23281 15.0984 8.42813C15.1781 8.7375 15.1875 8.95313 15.1875 10.1953C15.1875 11.4469 15.1781 11.6531 15.0938 11.9719C14.7328 13.3922 13.4531 14.3906 12 14.3906C10.5375 14.3906 9.27188 13.4016 8.90626 11.9672C8.82188 11.6531 8.81251 11.4469 8.81251 10.1953C8.81251 8.95313 8.82188 8.7375 8.90157 8.42813C9.32813 6.75938 10.9688 5.72813 12.6469 6.075ZM3.90469 6.8625C4.15782 6.96563 4.29844 7.18594 4.47657 7.74375C4.56563 8.02969 4.63594 8.26875 4.63126 8.27344C4.58907 8.30156 3.12657 8.71875 3.11251 8.70469C3.06094 8.65781 2.81251 7.73438 2.81251 7.60313C2.81251 7.32188 3.06094 6.95625 3.32813 6.84844C3.49688 6.78281 3.73126 6.7875 3.90469 6.8625ZM20.6578 6.84844C20.9344 6.95156 21.1828 7.31719 21.1875 7.61719C21.1875 7.74375 20.9344 8.65781 20.8875 8.70469C20.8688 8.72344 19.4672 8.31094 19.3969 8.26875C19.3828 8.25938 19.4391 8.01563 19.5234 7.72969C19.6922 7.17656 19.8141 6.98438 20.0859 6.8625C20.2594 6.7875 20.4797 6.77813 20.6578 6.84844ZM4.97344 9.38438C5.29219 10.4672 5.50313 11.1047 5.63438 11.3578C5.70938 11.5125 6.19688 12.3047 6.70782 13.1109C7.21876 13.9219 7.64063 14.5875 7.64063 14.5969C7.64063 14.6063 7.49532 14.7094 7.31719 14.8266C7.13907 14.9438 6.85782 15.1688 6.69376 15.3234L6.39376 15.6L5.83594 14.7281C4.04532 11.9156 4.05938 11.9438 3.63282 10.5C3.48282 9.99844 3.36094 9.56719 3.35626 9.54375C3.35157 9.51094 4.69688 9.06094 4.83751 9.05156C4.85626 9.04688 4.91719 9.20156 4.97344 9.38438ZM19.9922 9.3C20.3531 9.40781 20.6438 9.52031 20.6438 9.54375C20.6109 9.77344 20.0156 11.6391 19.8797 11.9297C19.7813 12.1359 19.2328 13.0453 18.6563 13.9547L17.6063 15.6047L17.3203 15.3328C17.1656 15.1828 16.8844 14.9625 16.7016 14.8359C16.5141 14.7141 16.3594 14.6016 16.3594 14.5922C16.3594 14.5828 16.7766 13.9172 17.2922 13.1109C17.8031 12.3047 18.2859 11.5172 18.3656 11.3625C18.4922 11.1094 18.7078 10.4672 19.0266 9.38438C19.1203 9.07969 19.1391 9.04688 19.2328 9.07031C19.2891 9.08438 19.6313 9.1875 19.9922 9.3ZM10.425 14.8641C10.5563 14.925 10.5516 14.9109 10.6875 15.7547L10.7906 16.3875L10.3875 18.1359C9.96094 19.9688 9.95157 20.0484 10.1297 20.3391C10.2469 20.5359 11.5547 21.5063 11.7844 21.5672C12.1031 21.6563 12.2906 21.5859 12.8813 21.1547C13.8984 20.4141 13.9781 20.325 13.9828 19.9266C13.9828 19.8094 13.8094 18.9656 13.5938 18.0516L13.2047 16.3922L13.3125 15.7547C13.4484 14.9016 13.4438 14.9203 13.5984 14.8547C13.7813 14.7797 14.5828 14.8266 15 14.9344C16.1109 15.2203 17.1328 16.0406 17.6531 17.0672C17.9203 17.6016 18.0281 18.075 18.1875 19.4344C18.2719 20.1281 18.3656 20.7703 18.4031 20.8547C18.5156 21.1219 18.675 21.3 18.9375 21.4406C19.1391 21.5531 19.2609 21.5813 19.5984 21.6L20.0156 21.6234V22.4203V23.2172L19.3969 23.1938C18.9 23.175 18.6984 23.1422 18.3984 23.0484C17.5359 22.7672 16.8375 22.1625 16.4531 21.3563C16.2563 20.9344 16.1859 20.5828 16.1016 19.5703C16.0031 18.3 15.9891 18.2344 15.8625 18.1078C15.7219 17.9672 15.5109 17.9672 15.3422 18.1125L15.2109 18.225L15.1969 20.7141L15.1828 23.2031H12H8.81251V20.7656C8.81251 18.1875 8.80782 18.1078 8.60157 18.0281C8.43282 17.9672 8.21719 18 8.11876 18.1078C8.02501 18.2063 8.00626 18.3234 7.92188 19.2938C7.80938 20.5969 7.80001 20.6578 7.65469 21.0609C7.40157 21.7594 6.89532 22.3828 6.27657 22.7484C5.77032 23.0438 5.32032 23.1656 4.60782 23.1938L3.98438 23.2172V22.4203V21.6234L4.39688 21.6C4.86563 21.5719 5.10001 21.4781 5.36251 21.2063C5.45157 21.1125 5.55938 20.9484 5.59688 20.8406C5.63907 20.7375 5.72344 20.175 5.78907 19.5938C5.93907 18.3047 5.97657 18.0609 6.10313 17.6719C6.37501 16.8188 6.97501 16.0172 7.70157 15.5203C8.04376 15.2859 8.65313 15.0188 9.04688 14.9297C9.23907 14.8875 9.42188 14.8453 9.44532 14.8359C9.56719 14.7938 10.3219 14.8172 10.425 14.8641ZM12.5906 15.2344C12.5766 15.2719 12.5438 15.4594 12.5156 15.6422L12.4594 15.9844H12H11.5406L11.4844 15.6422C11.4563 15.4594 11.4234 15.2719 11.4094 15.2344C11.3953 15.1734 11.4797 15.1641 12 15.1641C12.5203 15.1641 12.6047 15.1734 12.5906 15.2344ZM12.7078 17.7656C12.8297 18.2953 12.9938 18.9938 13.0688 19.3266L13.2047 19.9219L12.6 20.3672L11.9953 20.8125L11.4 20.3625C10.9922 20.0578 10.8094 19.8891 10.8188 19.8375C10.8469 19.6922 11.4422 17.1375 11.4891 16.9547L11.5359 16.7766L12.0141 16.7906L12.4875 16.8047L12.7078 17.7656ZM3.18751 22.4063V23.2031H2.72344C2.46563 23.2031 2.19844 23.1797 2.12344 23.1516C1.82344 23.0391 1.59376 22.6969 1.59376 22.3641C1.59376 22.1531 1.77657 21.8531 1.98282 21.7266C2.16094 21.6234 2.23126 21.6094 2.68594 21.6094H3.18751V22.4063ZM21.9328 21.675C22.3078 21.8719 22.4859 22.3125 22.3359 22.6688C22.1625 23.0906 21.9422 23.2031 21.2813 23.2031H20.8125V22.4063V21.6094H21.3047C21.6469 21.6094 21.8438 21.6328 21.9328 21.675Z" fill="black"/>
<path d="M0.890625 13.6359C0.567188 13.7343 0.28125 13.9781 0.1125 14.2968C0.028125 14.4515 0.0234375 14.6109 0.0234375 16.8046C0.0234375 19.125 0.0234375 19.1484 0.126563 19.3406C0.182813 19.4437 0.309375 19.6031 0.403125 19.6875C0.726562 19.9687 0.820313 19.9875 1.88438 20.0062C3.10313 20.0296 3.28125 19.9875 3.64219 19.6171C3.7875 19.4671 3.90469 19.2984 3.93281 19.1859C3.96563 19.0734 3.98438 18.2062 3.98438 16.7531V14.4937L3.85313 14.2453C3.7125 13.9687 3.40781 13.725 3.10313 13.6406C2.90625 13.589 1.06875 13.5843 0.890625 13.6359ZM2.96719 14.4468C3.14063 14.5359 3.18281 14.6343 3.1875 14.9156V15.1875H1.99219H0.796875V14.925C0.796875 14.7 0.815625 14.6484 0.932813 14.5265L1.06875 14.3906H1.96875C2.55938 14.3906 2.90156 14.4093 2.96719 14.4468ZM3.1875 16.7812V17.5781H1.99219H0.796875V16.7812V15.9843H1.99219H3.1875V16.7812ZM3.1875 18.6937C3.1875 18.9281 3.16875 18.9843 3.06563 19.0828C2.94844 19.1953 2.93906 19.1953 1.98281 19.1953H1.02188L0.909375 19.064C0.820313 18.9609 0.796875 18.8812 0.796875 18.675V18.4218H1.99219H3.1875V18.6937Z" fill="#3F6B68"/>
<path d="M20.0859 14.4797C19.8609 14.5829 19.7625 14.686 19.6641 14.9204C19.6031 15.0657 19.5938 15.4079 19.5938 17.2126C19.5938 19.1766 19.6031 19.3501 19.6828 19.5282C19.7859 19.7579 19.9641 19.9032 20.2125 19.9688C20.3297 20.0016 20.9484 20.0157 21.9047 20.0063C23.5875 19.9922 23.5922 19.9922 23.8453 19.6547L23.9766 19.486L23.9906 17.3251C24 16.1344 23.9906 15.0985 23.9766 15.0141C23.9391 14.8126 23.7422 14.5829 23.5078 14.4797C23.3391 14.4001 23.175 14.3907 21.7969 14.3907C20.4187 14.3907 20.2547 14.4001 20.0859 14.4797ZM23.2031 17.2032V19.2188L21.8109 19.2094L20.4141 19.1954L20.4 17.1891L20.3906 15.1876H21.7969H23.2031V17.2032Z" fill="#3F6B68"/>
<path d="M21.3891 16.0734C21.2062 16.1859 21.15 16.3875 21.2531 16.5844C21.3469 16.7625 21.4031 16.7812 21.825 16.7812C22.1062 16.7812 22.1906 16.7625 22.2656 16.6875C22.4625 16.4906 22.4156 16.1672 22.1719 16.0453C21.9891 15.9516 21.5625 15.9703 21.3891 16.0734Z" fill="#3F6B68"/>
<path d="M21.4406 17.6438C21.1219 17.7844 21.1312 18.225 21.45 18.3563C21.6656 18.4453 21.975 18.436 22.1719 18.3375C22.4766 18.1875 22.4672 17.7797 22.1484 17.6485C21.9469 17.5641 21.6328 17.5594 21.4406 17.6438Z" fill="#3F6B68"/>
</g>
<defs>
<clipPath id="clip0_20_7909">
<rect width="24" height="24" fill="white"/>
</clipPath>
</defs>
</svg>
