<svg width="20" height="21" viewBox="0 0 20 21" fill="none" xmlns="http://www.w3.org/2000/svg">
<path d="M20 17.4224V1.45667C20 1.19971 19.805 0.994141 19.5658 0.994141H0.434205C0.194949 0.994141 0 1.20399 0 1.45667V17.4224C0 17.6794 0.194949 17.8849 0.434205 17.8849H19.5628C19.8021 17.8849 19.997 17.6751 19.997 17.4224H20ZM19.1316 16.9599H0.868409V1.92348H19.1286V16.9599H19.1316Z" fill="black"/>
<path d="M2.73206 14.2959H17.2646C17.5039 14.2959 17.6988 14.086 17.6988 13.8334V3.37512C17.6988 3.11817 17.5039 2.9126 17.2646 2.9126H2.73206C2.4928 2.9126 2.29785 3.12245 2.29785 3.37512V13.8334C2.29785 14.0903 2.4928 14.2959 2.73206 14.2959ZM3.16626 3.83765H16.8304V13.3708H3.16626V3.84193V3.83765Z" fill="#3F6B68"/>
<path d="M9.99836 14.6602C9.48145 14.6602 9.06201 15.1056 9.06201 15.658C9.06201 16.2105 9.48145 16.6559 9.99836 16.6559C10.5153 16.6559 10.9317 16.2105 10.9317 15.658C10.9317 15.1056 10.5123 14.6602 9.99836 14.6602ZM9.99836 16.0991C9.77092 16.0991 9.58483 15.9021 9.58483 15.658C9.58483 15.4139 9.77092 15.2169 9.99836 15.2169C10.2258 15.2169 10.4119 15.4139 10.4119 15.658C10.4119 15.9021 10.2258 16.0991 9.99836 16.0991Z" fill="black"/>
<path d="M15.023 20.994C15.2622 20.994 15.4572 20.7841 15.4572 20.5315V18.9083C15.4572 18.6514 15.2622 18.4458 15.023 18.4458H4.97717C4.73792 18.4458 4.54297 18.6557 4.54297 18.9083V20.5315C4.54297 20.7884 4.73792 20.994 4.97717 20.994H15.023ZM5.41433 19.3709H14.5888V20.0646H5.41138V19.3709H5.41433Z" fill="black"/>
</svg>
