<svg width="24" height="24" viewBox="0 0 24 24" fill="none" xmlns="http://www.w3.org/2000/svg">
<path d="M7.19532 2.40938C4.61719 3.52501 2.46094 4.48126 2.4 4.53751L2.29219 4.64063L2.31094 9.15469L2.32969 13.6641L2.45157 14.3203C2.90157 16.7391 3.97969 18.7969 5.68125 20.4703C7.28907 22.0641 9.11719 23.0391 11.3672 23.5125C12.0563 23.6531 12.1406 23.6484 13.2422 23.3672C17.3203 22.3313 20.5734 18.9375 21.4453 14.8078C21.6938 13.6313 21.7031 13.3969 21.7031 8.8547C21.7031 4.91719 21.6984 4.64532 21.6234 4.55626C21.525 4.43907 12.1359 0.375008 11.9813 0.379694C11.9297 0.379694 9.77344 1.29376 7.19532 2.40938ZM16.5375 3.11719L20.9578 5.0297L20.9391 9.30001C20.9203 14.0203 20.9344 13.8281 20.6063 15.1031C20.3156 16.2281 19.8703 17.2313 19.2281 18.2109C17.7563 20.4609 15.5953 21.9984 12.9609 22.6688C12.1172 22.8844 11.9109 22.8844 11.0625 22.6734C9.06563 22.1719 7.41094 21.2156 5.99532 19.7438C4.33594 18.0188 3.37032 15.9281 3.09375 13.4766C3.06563 13.2281 3.04688 11.4188 3.04688 9.0422V5.0297L5.94375 3.77813C7.53282 3.09376 9.53438 2.22657 10.3828 1.85157C11.2359 1.48126 11.9719 1.18126 12.0234 1.19063C12.075 1.20001 14.1047 2.06719 16.5375 3.11719Z" fill="black"/>
<path d="M8.0625 4.08284C5.98594 4.98284 4.26094 5.75628 4.23281 5.79846C4.18594 5.8594 4.17188 6.66565 4.17188 9.45003C4.17188 13.3735 4.18594 13.6594 4.45781 14.7047C5.32969 18.1125 7.92656 20.7141 11.2922 21.5672C11.9391 21.7313 12.0375 21.736 12.6328 21.5907C13.5937 21.3563 14.55 20.9532 15.375 20.4422C17.7516 18.961 19.3922 16.4016 19.7531 13.6032C19.8562 12.7922 19.8656 5.9344 19.7625 5.79846C19.6641 5.6719 12.1687 2.43753 11.9812 2.44221C11.9016 2.44221 10.1953 3.1594 8.0625 4.08284ZM15.5766 4.74378L19.0828 6.25784L19.0641 9.84378C19.05 13.7485 19.0547 13.6688 18.7641 14.6953C17.9203 17.7188 15.5391 20.0672 12.5484 20.836L12.0422 20.9672L11.6625 20.8875C9.99375 20.5266 8.2875 19.5094 7.12031 18.1735C5.96719 16.8516 5.2125 15.2016 4.99219 13.5141C4.93594 13.0828 4.92187 12.3375 4.92187 9.61878V6.25784L6.15469 5.72815C6.82969 5.43753 8.39531 4.75784 9.63281 4.22346C10.8703 3.6844 11.925 3.23909 11.9766 3.23909C12.0281 3.2344 13.65 3.91409 15.5766 4.74378Z" fill="black"/>
<path d="M11.8078 4.92656C11.3906 4.9875 10.9828 5.29688 10.8328 5.6625C10.7859 5.775 10.7484 5.80781 10.6922 5.78438C10.3406 5.63906 9.96094 5.65781 9.60469 5.83594C9.35156 5.96719 9.16875 6.16875 9.02812 6.46875C8.93437 6.67031 8.92969 6.76406 8.91562 8.75625L8.90156 10.8328L8.60156 10.5563C8.26406 10.2375 7.8375 10.0078 7.44375 9.93281C6.91875 9.82969 6.35156 10.0313 5.8875 10.4813C5.41875 10.9406 5.42812 11.0859 5.94844 11.4703C6.45 11.8406 6.85312 12.2578 6.99844 12.5625C7.06875 12.7031 7.16719 13.0313 7.21875 13.2891C7.4625 14.4891 7.78125 14.9813 8.59687 15.4031C9.12187 15.675 9.09375 15.6141 9.09375 16.4063C9.09375 17.0344 9.10312 17.1094 9.19219 17.2219L9.28594 17.3438H12.4922C14.2547 17.3438 15.7312 17.3297 15.7687 17.3156C15.9234 17.2594 15.9609 17.0859 15.9891 16.3828C16.0125 15.7359 16.0266 15.6563 16.1531 15.375L16.2891 15.0703L16.3031 11.3672C16.3125 8.93438 16.3031 7.60781 16.2703 7.5C16.2047 7.275 15.9703 7.00313 15.7359 6.87656C15.5859 6.80156 15.4594 6.77813 15.2062 6.77813H14.8687L14.8453 6.57656C14.775 5.93906 14.0859 5.47031 13.4391 5.62031C13.2234 5.67188 13.1906 5.66719 13.1484 5.59688C12.8672 5.11406 12.3328 4.84688 11.8078 4.92656ZM12.3094 5.75625C12.3656 5.79844 12.4359 5.88281 12.4641 5.93906C12.5016 6.00938 12.5156 6.86719 12.5156 8.83594C12.5156 11.1938 12.525 11.6484 12.5859 11.7609C12.6984 11.9859 12.9656 12.0234 13.1484 11.8359L13.2656 11.7234V9.21094C13.2656 6.4875 13.2656 6.50156 13.5234 6.38438C13.7156 6.29531 13.8234 6.31875 13.9734 6.46406L14.1094 6.6V9.11719C14.1094 11.2313 14.1187 11.6484 14.1797 11.7609C14.2922 11.9859 14.5594 12.0234 14.7422 11.8359L14.8594 11.7234V9.77344C14.8594 8.15156 14.8687 7.8 14.9297 7.69219C15.0375 7.47656 15.2391 7.43906 15.4406 7.59844L15.5625 7.69688L15.5531 11.3344L15.5391 14.9766L15.3891 15.2813C15.2437 15.5672 15.2344 15.6141 15.2344 16.0875V16.5938H12.5437H9.85312L9.83437 16.0641C9.80625 15.2953 9.69375 15.1125 9.05625 14.7938C8.32031 14.4234 8.16562 14.1703 7.89844 12.8813C7.77187 12.2813 7.60312 11.9953 7.01719 11.4188C6.62812 11.0344 6.52031 10.8984 6.56719 10.8656C6.94219 10.6172 7.29844 10.5984 7.6875 10.8094C8.03906 10.9969 8.47031 11.4328 8.78437 11.9109C8.925 12.1359 9.07969 12.3328 9.12187 12.3469C9.26719 12.4031 9.46875 12.375 9.5625 12.2813C9.65625 12.1875 9.65625 12.1266 9.65625 9.5625C9.65625 6.75469 9.65625 6.74531 9.89062 6.53906C9.96094 6.47344 10.0594 6.44531 10.2 6.44531C10.3687 6.44531 10.4297 6.47344 10.5562 6.6L10.7109 6.75L10.7344 9.2625L10.7578 11.775L10.8703 11.8641C11.0625 12.0188 11.3062 11.9766 11.4141 11.7609C11.475 11.6484 11.4844 11.1938 11.4844 8.83594C11.4844 6.86719 11.4984 6.00938 11.5359 5.93906C11.6297 5.75625 11.775 5.67188 12 5.67188C12.1312 5.67188 12.2484 5.70469 12.3094 5.75625Z" fill="#3F6B68"/>
</svg>
