<svg width="21" height="31" viewBox="0 0 21 31" fill="none" xmlns="http://www.w3.org/2000/svg">
<g clip-path="url(#clip0_34_19989)">
<path d="M5.18378 7.90472C5.0327 7.3535 4.48921 6.93924 4.55003 6.37619C4.62263 5.69647 4.63832 4.80201 4.61478 4.07495C4.60693 3.84499 4.73643 3.62518 4.79725 3.4003C4.8463 3.21938 4.89535 3.03846 4.9758 2.8643C5.09156 2.61236 5.26815 2.3841 5.43885 2.15414C5.78417 1.68747 6.02158 1.24616 6.54153 0.891079C7.02223 0.561364 7.53237 0.219812 8.14257 0.121743C8.3741 0.0845446 8.60955 0.0845446 8.84499 0.0862354C9.13342 0.0879263 9.43165 0.0946897 9.69653 0.191068C10.0379 0.312809 10.2989 0.571509 10.6501 0.671269C10.8993 0.742284 11.1681 0.725376 11.429 0.710158L12.412 0.649288C12.5494 0.640833 12.6906 0.632379 12.8182 0.671269C12.9693 0.716922 13.085 0.820063 13.1929 0.919823C13.8895 1.56573 14.5782 2.29448 14.6939 3.1602" fill="#FAFCFC"/>
<path d="M5.18378 7.90472C5.0327 7.3535 4.48921 6.93924 4.55003 6.37619C4.62263 5.69647 4.63832 4.80201 4.61478 4.07495C4.60693 3.84499 4.73643 3.62518 4.79725 3.4003C4.8463 3.21938 4.89535 3.03846 4.9758 2.8643C5.09156 2.61236 5.26815 2.3841 5.43885 2.15414C5.78417 1.68747 6.02158 1.24616 6.54153 0.891079C7.02223 0.561364 7.53237 0.219812 8.14257 0.121743C8.3741 0.0845446 8.60955 0.0845446 8.84499 0.0862354C9.13342 0.0879263 9.43165 0.0946897 9.69653 0.191068C10.0379 0.312809 10.2989 0.571509 10.6501 0.671269C10.8993 0.742284 11.1681 0.725376 11.429 0.710158L12.412 0.649288C12.5494 0.640833 12.6906 0.632379 12.8182 0.671269C12.9693 0.716922 13.085 0.820063 13.1929 0.919823C13.8895 1.56573 14.5782 2.29448 14.6939 3.1602" stroke="black" stroke-width="0.75" stroke-miterlimit="10"/>
<path d="M14.7783 3.04004C14.8921 4.02411 14.9431 5.01495 14.9313 6.00409C14.9294 6.21376 14.9235 6.42512 14.8587 6.62633C14.8038 6.79879 14.7076 6.95942 14.6017 7.11498C14.4683 7.31112 14.3211 7.4988 14.1583 7.67803C14.0562 7.79132 13.9483 7.90123 13.8247 7.9976C13.5912 8.18191 13.2989 8.32225 12.981 8.36114C12.5356 8.41693 12.0922 8.27659 11.6723 8.13794C11.6076 8.11596 11.5409 8.09398 11.4957 8.04833C11.3878 7.93842 11.4781 7.77103 11.5978 7.67296C11.7194 7.57489 11.8764 7.49373 11.9313 7.36015C11.9666 7.27392 11.9529 7.17923 11.9784 7.09131C12.0039 7.00339 12.1001 6.91377 12.204 6.93744C12.2865 6.95604 12.3296 7.03382 12.3414 7.10484C12.3532 7.17585 12.3473 7.25194 12.3865 7.31619C12.4768 7.46837 12.7318 7.46837 12.932 7.4447C12.9908 7.43793 13.0536 7.42948 13.1027 7.40243C13.1713 7.36354 13.2067 7.2959 13.2302 7.22827C13.3087 6.99493 13.2753 6.74807 13.2518 6.50628C13.1969 5.95844 13.1851 5.40553 13.2184 4.85601" fill="#FAFCFC"/>
<path d="M14.7783 3.04004C14.8921 4.02411 14.9431 5.01495 14.9313 6.00409C14.9294 6.21376 14.9235 6.42512 14.8587 6.62633C14.8038 6.79879 14.7076 6.95942 14.6017 7.11498C14.4683 7.31112 14.3211 7.4988 14.1583 7.67803C14.0562 7.79132 13.9483 7.90123 13.8247 7.9976C13.5912 8.18191 13.2989 8.32225 12.981 8.36114C12.5356 8.41693 12.0922 8.27659 11.6723 8.13794C11.6076 8.11596 11.5409 8.09398 11.4957 8.04833C11.3878 7.93842 11.4781 7.77103 11.5978 7.67296C11.7194 7.57489 11.8764 7.49373 11.9313 7.36015C11.9666 7.27392 11.9529 7.17923 11.9784 7.09131C12.0039 7.00339 12.1001 6.91377 12.204 6.93744C12.2865 6.95604 12.3296 7.03382 12.3414 7.10484C12.3532 7.17585 12.3473 7.25194 12.3865 7.31619C12.4768 7.46837 12.7318 7.46837 12.932 7.4447C12.9908 7.43793 13.0536 7.42948 13.1027 7.40243C13.1713 7.36354 13.2067 7.2959 13.2302 7.22827C13.3087 6.99493 13.2753 6.74807 13.2518 6.50628C13.1969 5.95844 13.1851 5.40553 13.2184 4.85601" stroke="black" stroke-width="0.75" stroke-miterlimit="10"/>
<path d="M5.18378 7.83887C5.22498 7.88959 5.27207 7.93863 5.32308 7.98259L5.18378 7.83887Z" fill="#FAFCFC"/>
<path d="M5.18378 7.83887C5.22498 7.88959 5.27207 7.93863 5.32308 7.98259" stroke="black" stroke-miterlimit="10"/>
<path d="M5.87639 8.44067C5.70373 8.63512 5.39176 8.69261 5.10726 8.73319C4.51276 8.81604 3.91433 8.88029 3.33355 9.01218C2.75278 9.14407 2.18378 9.35035 1.73447 9.68514C1.58731 9.79504 1.45389 9.91678 1.33028 10.0436C0.979074 10.397 0.684764 10.7893 0.45324 11.2069C-0.284497 12.541 0.372796 14.105 0.339441 15.5761C0.323744 16.2439 0.337479 16.9135 0.349251 17.5831L0.374758 19.0034C0.384568 19.5276 0.412037 20.0974 0.810337 20.5015C1.02616 20.7213 1.32636 20.865 1.62067 21.0054" fill="#FAFCFC"/>
<path d="M5.87639 8.44067C5.70373 8.63512 5.39176 8.69261 5.10726 8.73319C4.51276 8.81604 3.91433 8.88029 3.33355 9.01218C2.75278 9.14407 2.18378 9.35035 1.73447 9.68514C1.58731 9.79504 1.45389 9.91678 1.33028 10.0436C0.979074 10.397 0.684764 10.7893 0.45324 11.2069C-0.284497 12.541 0.372796 14.105 0.339441 15.5761C0.323744 16.2439 0.337479 16.9135 0.349251 17.5831L0.374758 19.0034C0.384568 19.5276 0.412037 20.0974 0.810337 20.5015C1.02616 20.7213 1.32636 20.865 1.62067 21.0054" stroke="black" stroke-width="0.75" stroke-miterlimit="10"/>
<path d="M1.862 21.134C1.64813 21.32 1.35775 21.6125 1.12622 22.0217C0.894698 22.4326 0.826026 22.8333 0.696529 23.6196C0.590578 24.2688 0.53564 24.5918 0.539564 25.0618C0.543488 25.7314 0.657288 26.264 0.739695 26.5802C0.802481 26.8186 0.904509 27.2042 1.14388 27.6844C1.19686 27.7892 1.3911 28.1713 1.70896 28.5923C2.52518 29.6677 3.7083 30.3965 3.74558 30.3643C3.78286 30.3305 2.55657 29.6846 1.70896 28.5923C-0.457166 25.7974 0.710264 21.1847 2.66056 20.6572C3.12753 20.5304 3.48855 20.6809 5.56442 20.4797C6.40026 20.3985 6.62197 20.341 6.74754 20.3156C7.53629 20.1635 8.26226 19.8354 8.92348 19.4449C9.0824 19.3519 9.24722 19.2504 9.4395 19.2267C9.78286 19.1845 10.087 19.3924 10.4068 19.5074C10.707 19.6139 11.0386 19.6393 11.3623 19.663C12.2531 19.7272 13.1792 19.7881 14.017 19.5243C14.3996 19.4043 14.7979 19.154 14.7842 18.8108C14.3172 18.383 13.7698 17.9958 13.1439 17.7455C12.8986 17.6475 12.6455 17.5646 12.3904 17.4818C12.0569 17.3736 11.7214 17.2637 11.3682 17.2163C11.0817 17.1774 10.7894 17.1825 10.4971 17.1859L9.44735 17.1994C8.8862 17.2062 8.32308 17.2146 7.76389 17.2653C6.6828 17.3634 5.62132 17.6238 4.64813 18.033C4.65598 17.8893 4.61478 17.7489 4.57946 17.6086C4.38325 16.8105 4.74035 16.0733 4.92674 15.2735C5.9431 15.818 7.28515 15.9093 8.39176 15.5086C8.77828 15.3682 9.1393 15.1721 9.53956 15.0622C10.087 14.9117 10.6972 14.9303 11.2289 15.1146C11.6664 15.2668 12.051 15.5238 12.5101 15.6185C12.6965 15.6557 12.8908 15.6658 13.0811 15.6472C13.342 15.6202 13.3656 15.6066 13.3656 15.3936C13.3656 15.3293 13.4794 15.2752 13.552 15.2549C13.6265 15.2346 13.705 15.2397 13.7835 15.2465C13.9209 15.2583 14.0719 15.2786 14.1563 15.3699C14.1975 15.4156 14.2152 15.4731 14.2368 15.5272C14.3113 15.7301 14.4251 15.8603 14.5958 16.0987C14.6978 16.2407 14.7587 16.3506 15.0687 16.9458C16.0379 18.8175 16.5226 19.7543 16.6501 20.1178C16.915 20.8736 17.2623 21.9033 17.0955 23.2323C17.0248 23.7937 16.8993 24.7068 16.1733 25.6536C15.6318 26.3621 15.002 26.7645 14.5468 27.052C12.7691 28.1696 10.864 28.4689 10.86 28.4605C10.86 28.4554 11.3388 28.3201 13.4421 27.7418C13.5893 28.1324 13.8012 28.7175 14.0229 29.4395C14.223 30.0887 14.4487 30.9071 14.4173 30.9139C14.3918 30.9189 14.2662 30.3576 13.8993 29.4902C13.501 28.545 13.1851 28.1155 13.4402 27.7418C13.5304 27.6083 13.6521 27.5423 13.8914 27.4257C15.4572 26.6546 16.2891 26.5194 17.1171 25.8735C17.1661 25.8363 17.3937 25.6604 17.635 25.3865C18.2472 24.6949 18.6592 23.8597 18.6808 22.999C18.7083 21.8847 18.7103 21.0376 18.6023 20.4408C18.414 19.4026 18.0216 18.3272 17.8921 17.9755C17.8823 17.9485 17.8783 17.9383 17.6704 17.3719C17.5566 17.0624 17.433 16.7547 17.327 16.4436C17.2112 16.1054 17.0641 15.7723 16.8895 15.4528C16.8698 15.4173 16.8502 15.3817 16.8129 15.3598C16.758 15.3259 16.6913 15.3276 16.6736 15.3293C16.4284 15.3344 16.2538 15.2279 15.5298 15.2735C14.9431 15.3107 14.2524 15.4308 14.2603 15.4798C14.2662 15.5221 14.794 15.5238 17.0111 15.3615" fill="#FAFCFC"/>
<path d="M1.862 21.134C1.64813 21.32 1.35775 21.6125 1.12622 22.0217C0.894698 22.4326 0.826026 22.8333 0.696529 23.6196C0.590578 24.2688 0.53564 24.5918 0.539564 25.0618C0.543488 25.7314 0.657288 26.264 0.739695 26.5802C0.802481 26.8186 0.904509 27.2042 1.14388 27.6844C1.19686 27.7892 1.3911 28.1713 1.70896 28.5923C2.52518 29.6677 3.7083 30.3965 3.74558 30.3643C3.78286 30.3305 2.55657 29.6846 1.70896 28.5923C-0.457166 25.7974 0.710264 21.1847 2.66056 20.6572C3.12753 20.5304 3.48855 20.6809 5.56442 20.4797C6.40026 20.3985 6.62197 20.341 6.74754 20.3156C7.53629 20.1635 8.26226 19.8354 8.92347 19.4449C9.0824 19.3519 9.24722 19.2504 9.4395 19.2267C9.78286 19.1845 10.087 19.3924 10.4068 19.5074C10.707 19.6139 11.0386 19.6393 11.3623 19.663C12.2531 19.7272 13.1792 19.7881 14.017 19.5243C14.3996 19.4043 14.7979 19.154 14.7842 18.8108C14.3172 18.383 13.7698 17.9958 13.1439 17.7455C12.8986 17.6475 12.6455 17.5646 12.3904 17.4818C12.0569 17.3736 11.7214 17.2637 11.3682 17.2163C11.0817 17.1774 10.7894 17.1825 10.4971 17.1859L9.44735 17.1994C8.8862 17.2062 8.32308 17.2146 7.76389 17.2653C6.68279 17.3634 5.62132 17.6238 4.64813 18.033C4.65598 17.8893 4.61478 17.7489 4.57946 17.6086C4.38325 16.8105 4.74035 16.0733 4.92675 15.2735C5.9431 15.818 7.28515 15.9093 8.39176 15.5086C8.77828 15.3682 9.1393 15.1721 9.53956 15.0622C10.087 14.9117 10.6972 14.9303 11.2289 15.1146C11.6664 15.2668 12.051 15.5238 12.5101 15.6185C12.6965 15.6557 12.8908 15.6658 13.0811 15.6472C13.342 15.6202 13.3656 15.6066 13.3656 15.3936C13.3656 15.3293 13.4794 15.2752 13.552 15.2549C13.6265 15.2346 13.705 15.2397 13.7835 15.2465C13.9209 15.2583 14.0719 15.2786 14.1563 15.3699C14.1975 15.4156 14.2152 15.4731 14.2368 15.5272C14.3113 15.7301 14.4251 15.8603 14.5958 16.0987C14.6978 16.2407 14.7587 16.3506 15.0687 16.9458C16.0379 18.8175 16.5226 19.7543 16.6501 20.1178C16.915 20.8736 17.2623 21.9033 17.0955 23.2323C17.0248 23.7937 16.8993 24.7068 16.1733 25.6536C15.6318 26.3621 15.002 26.7645 14.5468 27.052C12.7691 28.1696 10.864 28.4689 10.86 28.4605C10.86 28.4554 11.3388 28.3201 13.4421 27.7418C13.5893 28.1324 13.8012 28.7175 14.0229 29.4395C14.223 30.0887 14.4487 30.9071 14.4173 30.9139C14.3918 30.9189 14.2662 30.3576 13.8993 29.4902C13.501 28.545 13.1851 28.1155 13.4402 27.7418C13.5304 27.6083 13.6521 27.5423 13.8914 27.4257C15.4572 26.6546 16.2891 26.5194 17.1171 25.8735C17.1661 25.8363 17.3937 25.6604 17.635 25.3865C18.2472 24.6949 18.6592 23.8597 18.6808 22.999C18.7083 21.8847 18.7103 21.0376 18.6023 20.4408C18.414 19.4026 18.0216 18.3272 17.8921 17.9755C17.8823 17.9485 17.8783 17.9383 17.6704 17.3719C17.5566 17.0624 17.433 16.7547 17.327 16.4436C17.2112 16.1054 17.0641 15.7723 16.8895 15.4528C16.8698 15.4173 16.8502 15.3817 16.8129 15.3598C16.758 15.3259 16.6913 15.3276 16.6736 15.3293C16.4284 15.3344 16.2538 15.2279 15.5298 15.2735C14.9431 15.3107 14.2524 15.4308 14.2603 15.4798C14.2662 15.5221 14.794 15.5238 17.0111 15.3615" stroke="black" stroke-width="0.75" stroke-miterlimit="10"/>
<path d="M13.603 10.4392C14.4173 11.4419 14.8313 12.6711 14.7606 13.8835C14.7489 14.0897 14.7234 14.296 14.6547 14.4956C14.533 14.8523 14.2799 15.1651 14.0307 15.4712" fill="#FAFCFC"/>
<path d="M13.603 10.4392C14.4173 11.4419 14.8313 12.6711 14.7606 13.8835C14.7489 14.0897 14.7234 14.296 14.6547 14.4956C14.533 14.8523 14.2799 15.1651 14.0307 15.4712" stroke="black" stroke-width="0.75" stroke-miterlimit="10"/>
<path d="M5.84108 8.42551C6.31786 8.27671 6.66515 7.8726 6.68084 7.44651C6.68477 7.33322 6.66122 7.20641 6.55919 7.13201C6.38065 7.00181 6.0883 7.0965 5.87836 7.00689C5.65468 6.91389 5.61348 6.66364 5.60171 6.45398C5.5919 6.28151 5.58209 6.10397 5.6331 5.93658C5.67234 5.80638 5.74886 5.68633 5.83323 5.57136C6.05298 5.27208 6.33552 5.00661 6.66318 4.79018C6.91629 4.62279 7.19883 4.48245 7.43231 4.29477C7.53238 4.2153 7.62264 4.12568 7.73055 4.05297C7.88163 3.95152 8.06214 3.88558 8.24069 3.82133C8.71354 3.65055 9.19229 3.4764 9.58078 3.19233C9.96731 2.90827 10.2538 2.49401 10.2126 2.06454C10.1949 1.88362 10.1439 1.66043 10.3205 1.55728C10.3813 1.52178 10.4598 1.50994 10.5343 1.51163C10.9268 1.52178 11.1995 1.8312 11.4035 2.11357C12.0726 3.04016 12.6671 4.00394 13.1831 4.99647" fill="#FAFCFC"/>
<path d="M5.84108 8.42551C6.31786 8.27671 6.66515 7.8726 6.68084 7.44651C6.68477 7.33322 6.66122 7.20641 6.55919 7.13201C6.38065 7.00181 6.0883 7.0965 5.87836 7.00689C5.65468 6.91389 5.61348 6.66364 5.60171 6.45398C5.5919 6.28151 5.58209 6.10397 5.6331 5.93658C5.67234 5.80638 5.74886 5.68633 5.83323 5.57136C6.05298 5.27208 6.33552 5.00661 6.66318 4.79018C6.91629 4.62279 7.19883 4.48245 7.43231 4.29477C7.53238 4.2153 7.62264 4.12568 7.73055 4.05297C7.88163 3.95152 8.06214 3.88558 8.24069 3.82133C8.71354 3.65055 9.19229 3.4764 9.58078 3.19233C9.96731 2.90827 10.2538 2.49401 10.2126 2.06454C10.1949 1.88362 10.1439 1.66043 10.3205 1.55728C10.3813 1.52178 10.4598 1.50994 10.5343 1.51163C10.9268 1.52178 11.1995 1.8312 11.4035 2.11357C12.0726 3.04016 12.6671 4.00394 13.1831 4.99647" stroke="black" stroke-width="0.75" stroke-miterlimit="10"/>
<path d="M5.17004 7.93346C5.29365 7.925 5.39764 8.00786 5.48397 8.08394L5.82145 8.38661C5.82145 8.38661 9.34336 10.7369 9.38653 12.0067H10.2891C10.2891 12.0067 9.96141 10.3243 11.8038 9.0528L12.4572 8.34264" fill="#FAFCFC"/>
<path d="M5.17004 7.93346C5.29365 7.925 5.39764 8.00786 5.48397 8.08394L5.82145 8.38661C5.82145 8.38661 9.34336 10.7369 9.38653 12.0067H10.2891C10.2891 12.0067 9.96141 10.3243 11.8038 9.0528L12.4572 8.34264" stroke="black" stroke-width="0.75" stroke-miterlimit="10"/>
<path d="M4.78156 16.5906C4.78156 16.5906 0.653368 16.8155 0.331589 15.8889L4.78156 16.5906Z" fill="#FAFCFC"/>
<path d="M4.78156 16.5906C4.78156 16.5906 0.653368 16.8155 0.331589 15.8889" stroke="black" stroke-width="0.75" stroke-miterlimit="10"/>
<path d="M5.12884 15.2716C5.12884 15.2716 3.32766 12.5578 3.69653 12.0083L5.12884 15.2716Z" fill="#FAFCFC"/>
<path d="M5.12884 15.2716C5.12884 15.2716 3.32766 12.5578 3.69653 12.0083" stroke="black" stroke-width="0.75" stroke-miterlimit="10"/>
<path d="M6.65337 7.25879C6.65337 7.25879 9.3983 9.61583 11.9333 7.36024L6.65337 7.25879Z" fill="#FAFCFC"/>
<path d="M6.65337 7.25879C6.65337 7.25879 9.3983 9.61583 11.9333 7.36024" stroke="black" stroke-width="0.75" stroke-miterlimit="10"/>
<path d="M13.8522 8.10596L14.5899 8.57432C14.5899 8.57432 16.9444 9.19824 16.862 10.441L17.0111 15.3597" fill="#FAFCFC"/>
<path d="M13.8522 8.10596L14.5899 8.57432C14.5899 8.57432 16.9444 9.19824 16.862 10.441L17.0111 15.3597" stroke="black" stroke-width="0.75" stroke-miterlimit="10"/>
<path d="M13.0929 22.6438C13.0929 21.768 12.2668 21.0544 11.2505 21.0544C10.5049 21.0544 9.86135 21.4383 9.57096 21.9878C9.28057 21.4383 8.63702 21.0544 7.89143 21.0544C6.87508 21.0544 6.04709 21.768 6.04709 22.6438C6.04709 22.8281 6.08437 23.0057 6.15108 23.1714C6.2276 23.3591 6.34532 23.5315 6.49248 23.6786C6.55526 23.7412 6.62394 23.8004 6.69849 23.8545L9.51014 26.2606C9.5278 26.2758 9.54938 26.2825 9.57292 26.2825C9.59647 26.2825 9.61805 26.2758 9.63571 26.2606L12.5513 23.7632C12.7397 23.5992 12.8888 23.4013 12.981 23.1798C13.0517 23.0124 13.0909 22.8298 13.0909 22.6405L13.0929 22.6438Z" fill="#3F6B68"/>
</g>
<defs>
<clipPath id="clip0_34_19989">
<rect width="21" height="31" fill="white"/>
</clipPath>
</defs>
</svg>
