<svg width="20" height="14" viewBox="0 0 20 14" fill="none" xmlns="http://www.w3.org/2000/svg">
<g clip-path="url(#clip0_34_11439)">
<path d="M4.33792 6.50895L5.5995 2.97696H6.70588L8.89111 9.13631L9.68961 6.83511L10.2453 6.51075H12.3354L13.597 2.97876H14.7059L15.9675 6.51075H19.5995C19.8448 5.90707 19.9975 5.25473 19.9975 4.58077C19.9975 2.04891 17.4143 0.00180203 14.2428 0.00180203C12.5832 0.00180203 11.0438 0.583859 9.99499 1.46686C8.95369 0.582057 7.44681 0 5.78473 0C2.61327 0 0 2.04531 0 4.57897C0 5.25293 0.185232 5.90526 0.430538 6.50895H4.33792Z" fill="#3F6B68"/>
<path d="M15.5069 7.39186H19.1389C16.7084 11.3437 10 13.899 10 13.899C10 13.899 3.32415 11.3437 0.891113 7.39186H4.76846L5.32165 7.06569L6.15269 4.7645L8.33792 10.9238H9.4443L10.7059 7.39006H12.7685L13.3217 7.06389L14.1201 4.7627L14.9512 7.06389L15.5044 7.39006L15.5069 7.39186Z" stroke="black" stroke-width="0.5" stroke-miterlimit="10"/>
</g>
<defs>
<clipPath id="clip0_34_11439">
<rect width="20" height="14" fill="white"/>
</clipPath>
</defs>
</svg>
