<svg width="22" height="24" viewBox="0 0 22 24" fill="none" xmlns="http://www.w3.org/2000/svg">
<g clip-path="url(#clip0_518_4277)">
<path d="M6.68311 20.5204C6.12065 20.2722 5.66533 20.0187 5.38678 19.846C5.2368 19.7543 5.11895 19.6734 5.0386 19.6194C5.0011 19.5925 4.96896 19.5709 4.94218 19.5547L4.92611 19.5439C4.6797 19.3551 4.33687 19.4036 4.14403 19.6464C3.95654 19.8892 3.99404 20.2399 4.22438 20.4341C6.32957 22.1928 8.25262 23.1854 10.1007 23.466C10.481 23.5253 10.856 23.5523 11.231 23.5523C11.7613 23.5523 12.2969 23.4929 12.8433 23.3797C13.5718 23.2286 14.3111 22.9696 15.0985 22.6028L15.5431 23.2502C15.661 23.4228 15.8645 23.5145 16.0681 23.4929C16.277 23.4714 16.4537 23.3311 16.5287 23.1369L17.7501 20.0079C17.8144 19.846 17.7983 19.6572 17.7072 19.5115C17.6162 19.3605 17.4608 19.258 17.2894 19.2364L13.9575 18.8588C13.7433 18.8318 13.5397 18.9343 13.4218 19.1123C13.304 19.2904 13.304 19.5277 13.4111 19.7112L13.7593 20.2992C12.8594 20.8441 11.8898 21.1732 10.8721 21.2703C9.1954 21.4375 7.66339 20.9574 6.67775 20.5258L6.68311 20.5204ZM14.4771 20.7254C14.6432 20.6121 14.6914 20.3909 14.5896 20.2237L14.2414 19.641L16.9841 19.9539L15.9716 22.5488L15.5377 21.9176C15.4306 21.7666 15.2324 21.7126 15.0664 21.7936C14.2254 22.209 13.454 22.4895 12.6987 22.646C11.8523 22.824 11.0435 22.851 10.2185 22.7269C9.11505 22.5596 7.97943 22.1119 6.77417 21.3728C7.8348 21.7882 9.32932 22.1766 10.9524 22.0148C12.2059 21.8907 13.3897 21.4591 14.4771 20.7308V20.7254Z" fill="#272525"/>
<path d="M16.4115 4.10897C16.5615 4.20068 16.6793 4.2816 16.7597 4.33555C16.7972 4.36252 16.8293 4.3841 16.8507 4.40029L16.8721 4.41647C17.1186 4.60529 17.4614 4.55674 17.6542 4.31397C17.8471 4.0712 17.8096 3.72593 17.5739 3.52632C15.4633 1.76221 13.5403 0.774948 11.6922 0.494415C10.7762 0.354149 9.88164 0.386518 8.94957 0.580733C8.22106 0.731789 7.48183 0.990742 6.6944 1.35759L6.24979 0.710209C6.13194 0.537574 5.92839 0.445862 5.72483 0.467441C5.51592 0.494415 5.33915 0.629287 5.26415 0.823501L4.04282 3.95251C3.97854 4.11436 3.99461 4.30318 4.08568 4.45424C4.17674 4.60529 4.33209 4.70779 4.5035 4.72398L7.83538 5.10162C7.83538 5.10162 7.87823 5.10162 7.89966 5.10162C8.0925 5.10162 8.26927 5.00451 8.37105 4.84267C8.48889 4.66464 8.48889 4.42726 8.38176 4.24384L8.03357 3.66119C8.9335 3.11631 9.90307 2.78723 10.9208 2.69012C12.5975 2.52288 14.1295 3.00302 15.1151 3.43461C15.6776 3.68277 16.1329 3.93633 16.4115 4.10897ZM10.8458 1.94563C9.59238 2.06971 8.40854 2.5013 7.32113 3.2296C7.15507 3.3429 7.10686 3.56409 7.20864 3.73133L7.55683 4.31397L4.81419 4.00107L5.82661 1.40615L6.2605 2.03734C6.36764 2.1884 6.56583 2.24235 6.73189 2.16142C7.5729 1.74602 8.34426 1.46549 9.09956 1.30904C9.94592 1.13101 10.7548 1.10403 11.5797 1.22812C12.6832 1.39536 13.8188 1.84313 15.0241 2.58222C13.9635 2.16682 12.4689 1.77839 10.8458 1.94024V1.94563Z" fill="#272525"/>
<path d="M4.2134 12.9249C5.03833 12.9249 5.80969 12.6012 6.39358 12.0131C6.97746 11.4251 7.29886 10.6428 7.29886 9.81202C7.29886 8.09646 5.91147 6.70459 4.2134 6.70459C3.38846 6.70459 2.61174 7.02828 2.03321 7.61632C1.44933 8.20436 1.12793 8.98661 1.12793 9.81202C1.12793 11.5276 2.51532 12.9195 4.2134 12.9195V12.9249ZM2.60638 8.19896C3.03492 7.76738 3.60809 7.53 4.2134 7.53C5.46687 7.53 6.48464 8.55502 6.48464 9.81742C6.48464 10.427 6.24895 10.9989 5.82041 11.4359C5.39187 11.8675 4.82406 12.1048 4.21875 12.1048C2.96528 12.1048 1.94751 11.0798 1.94751 9.81742C1.94751 9.2078 2.1832 8.63595 2.61174 8.19896H2.60638Z" fill="#272525"/>
<path d="M8.12451 17.2888C8.12451 17.1755 8.19414 14.5536 6.55499 13.0377C6.41036 12.9028 6.18538 12.892 6.03003 13.0161C6.01396 13.0323 4.19804 14.4025 2.51068 13.0161C2.35533 12.892 2.13571 12.892 1.98572 13.0269C1.92144 13.0862 0.341208 14.4997 0.303711 17.2726C0.303711 17.3805 0.346565 17.4884 0.421559 17.5639C0.496552 17.6449 0.603687 17.688 0.710821 17.688H7.7174C7.93702 17.688 8.11915 17.51 8.12451 17.2888ZM1.13936 16.8626C1.26256 15.2927 1.94286 14.3054 2.30176 13.8792C3.77486 14.8665 5.35509 14.3972 6.22823 13.8685C7.05852 14.818 7.25136 16.1882 7.29957 16.8572H1.13936V16.8626Z" fill="#272525"/>
<path d="M15.6934 7.62171C15.1095 8.20975 14.7881 8.99201 14.7881 9.81742C14.7881 11.533 16.1755 12.9249 17.8736 12.9249C18.6985 12.9249 19.4699 12.6012 20.0537 12.0131C20.6376 11.4251 20.959 10.6428 20.959 9.81202C20.959 8.09646 19.5716 6.70459 17.8736 6.70459C17.0486 6.70459 16.2719 7.02828 15.688 7.61632L15.6934 7.62171ZM20.1448 9.81742C20.1448 10.427 19.9091 10.9989 19.4806 11.4359C19.052 11.8675 18.4842 12.1048 17.8789 12.1048C16.6254 12.1048 15.6077 11.0798 15.6077 9.81742C15.6077 9.2078 15.8434 8.63595 16.2719 8.19896C16.7004 7.76738 17.2736 7.53 17.8789 7.53C19.1324 7.53 20.1502 8.55502 20.1502 9.81742H20.1448Z" fill="#272525"/>
<path d="M20.2205 13.0377C20.0759 12.9028 19.8509 12.892 19.6955 13.0161C19.6795 13.0323 17.8636 14.4025 16.1762 13.0161C16.0208 12.892 15.8012 12.892 15.6512 13.0269C15.5816 13.0862 14.0067 14.4997 13.9639 17.2726C13.9639 17.3805 14.0067 17.4884 14.0817 17.5639C14.1567 17.6449 14.2638 17.688 14.371 17.688H21.3776C21.5972 17.688 21.7793 17.51 21.7847 17.2888C21.7847 17.1755 21.8543 14.5536 20.2151 13.0377H20.2205ZM14.8049 16.8626C14.9281 15.2927 15.6084 14.3054 15.9673 13.8792C17.4404 14.8665 19.0206 14.3972 19.8937 13.8685C20.724 14.818 20.9169 16.1882 20.9651 16.8572H14.8102L14.8049 16.8626Z" fill="#272525"/>
</g>
<defs>
<clipPath id="clip0_518_4277">
<rect width="21.4858" height="23.1385" fill="white" transform="translate(0.303711 0.408203)"/>
</clipPath>
</defs>
</svg>
