<svg width="24" height="24" viewBox="0 0 24 24" fill="none" xmlns="http://www.w3.org/2000/svg">
<g clip-path="url(#clip0_20_7921)">
<path d="M9.86719 0.843726C8.31094 0.862476 8.11406 0.876539 8.00156 0.951539C7.80469 1.0781 7.73906 1.21404 7.66406 1.66404C7.53281 2.41873 7.24687 2.96716 6.72656 3.45935C6.54375 3.63279 6.2625 3.84373 6.09375 3.93279C5.30625 4.3406 5.22656 4.54216 5.41406 5.62498C6.02344 9.15935 7.80469 12.0234 10.4531 13.7484C11.1281 14.1844 11.8453 14.5453 12.0469 14.5453C12.3281 14.5453 13.4531 13.9125 14.2266 13.3172C16.1062 11.8781 17.5219 9.70779 18.2297 7.19529C18.5156 6.15935 18.7219 4.85154 18.6375 4.53279C18.5906 4.33123 18.3797 4.12966 18.0516 3.9656C17.0484 3.45935 16.4906 2.69998 16.2891 1.57966C16.2141 1.16716 16.1062 0.984351 15.8719 0.871851C15.7312 0.806227 15.4687 0.796851 13.6547 0.806227C12.525 0.810914 10.8187 0.829664 9.86719 0.843726ZM15.5859 1.67341C15.8016 2.94373 16.5047 3.93748 17.5922 4.50466C17.9437 4.68748 17.9531 4.69685 17.9531 4.8656C17.9531 5.14216 17.7797 6.11716 17.6297 6.7031C16.9031 9.50623 15.4125 11.7 13.2516 13.1437C13.0078 13.3031 12.6422 13.5234 12.4312 13.6312L12.0516 13.8328L11.7562 13.6828C8.74687 12.1781 6.63281 9.05623 6.07969 5.29685C6.04219 5.0531 6.01875 4.8281 6.03281 4.79998C6.04219 4.77185 6.15 4.70154 6.27187 4.64529C7.39687 4.09685 8.16094 3.03279 8.36719 1.72498L8.39531 1.54685L9.99844 1.53279C10.8797 1.5281 12.4922 1.51873 13.5797 1.50935L15.5578 1.49998L15.5859 1.67341Z" fill="#3F6B68"/>
<path d="M11.0719 2.15626L9.08438 2.17969L8.95313 2.32501C8.88281 2.40938 8.78438 2.58751 8.74219 2.72344C8.47031 3.54844 7.84219 4.36876 7.0875 4.87501C6.95156 4.96876 6.81094 5.10938 6.76875 5.19844C6.69375 5.35313 6.69844 5.38594 6.81563 5.97188C6.96094 6.67501 7.00781 6.79219 7.17656 6.88594C7.27969 6.94219 7.32656 6.94219 7.43906 6.89532C7.68281 6.79688 7.70156 6.67501 7.57031 6.12657C7.50469 5.86407 7.45313 5.61563 7.45313 5.57344C7.45313 5.53126 7.56563 5.40938 7.70625 5.30157C8.39063 4.77188 9.03281 3.93751 9.30938 3.21094L9.44531 2.85938H10.8563C11.6297 2.85938 12.7734 2.84532 13.3875 2.82657L14.5125 2.79844L14.6016 3.02813C14.9625 3.99376 15.5672 4.73907 16.5469 5.42813C16.5563 5.43282 16.5188 5.68126 16.4578 5.96719C16.3313 6.58594 16.3406 6.68438 16.5094 6.81094C16.6125 6.89063 16.6641 6.90001 16.7625 6.86251C16.9734 6.79219 17.0531 6.61876 17.1844 5.94844C17.3016 5.33907 17.3063 5.30626 17.2313 5.14688C17.1797 5.03907 17.0391 4.90782 16.8375 4.76719C16.4766 4.52344 15.9563 4.01251 15.7453 3.69844C15.5625 3.43126 15.2625 2.84063 15.1875 2.60157C15.0469 2.16094 14.9016 2.10469 13.8656 2.11876C13.4203 2.12344 12.1641 2.14219 11.0719 2.15626Z" fill="#3F6B68"/>
<path d="M14.0016 5.06719C13.9547 5.09531 13.4344 5.84531 12.8438 6.73594L11.775 8.35781L11.175 7.78125C10.8422 7.46719 10.5234 7.19063 10.4672 7.16719C10.2563 7.0875 10.0312 7.25156 10.0312 7.48594C10.0312 7.66875 10.0641 7.70625 11.0109 8.59688C11.5875 9.14063 11.7094 9.23438 11.8359 9.23438C11.9297 9.23438 12.0188 9.19688 12.0797 9.12656C12.3047 8.8875 14.5312 5.45625 14.5312 5.35313C14.5312 5.29688 14.4797 5.19375 14.4141 5.13281C14.2922 5.01094 14.1422 4.9875 14.0016 5.06719Z" fill="#3F6B68"/>
<path d="M16.0172 7.73905C15.9703 7.76717 15.8203 8.02499 15.6844 8.31092C14.925 9.92811 13.8609 11.1797 12.4828 12.0797C12.2766 12.2156 12.075 12.3281 12.0375 12.3281C11.9391 12.3281 11.1281 11.789 10.7344 11.4609C9.75938 10.6453 9.01406 9.68436 8.40938 8.46092C8.24531 8.12342 8.07188 7.82342 8.02969 7.79061C7.82344 7.63592 7.5 7.81874 7.5 8.09061C7.5 8.25936 8.00156 9.26717 8.3625 9.82499C9.17344 11.0672 10.2422 12.1031 11.4703 12.8344C12.0094 13.1578 12.0938 13.1578 12.6375 12.8156C13.2703 12.4219 13.7063 12.075 14.2406 11.5594C14.8125 11.0062 15.1125 10.6453 15.5391 10.0078C15.8953 9.47342 16.5469 8.19842 16.5469 8.02967C16.5469 7.96874 16.4953 7.86561 16.4297 7.80467C16.3078 7.6828 16.1578 7.65936 16.0172 7.73905Z" fill="#3F6B68"/>
<path d="M0.609375 11.9109C0.365625 11.9859 0.20625 12.1172 0.0984375 12.3422C0 12.5437 0 12.5765 0 17.2406C0 20.4422 0.0140625 21.975 0.0515625 22.064C0.1125 22.2234 0.309375 22.439 0.478125 22.5281C0.665625 22.6265 3.975 22.6265 4.16719 22.5281C4.46719 22.3687 4.61719 22.1109 4.65 21.675L4.66406 21.5297L6.67969 22.2984C7.79063 22.7156 8.83125 23.1047 8.99531 23.1562C9.50625 23.3156 9.16406 23.3578 16.0547 22.3594C16.7766 22.2562 17.4797 22.139 17.6203 22.0969C17.925 22.0078 18.4172 21.764 18.6797 21.5765C18.8813 21.4265 23.5453 17.2359 23.6813 17.0812C23.9953 16.7203 24.0797 15.975 23.85 15.539C23.6953 15.2437 23.4375 14.9859 23.1609 14.85C22.8984 14.7234 22.4391 14.6859 22.1344 14.7703C21.9797 14.8078 21.1828 15.3187 19.5234 16.4297L17.1328 18.0281L16.6406 18L16.1484 17.9765L16.1156 17.6953C15.9984 16.7578 15.3094 16.0172 14.3906 15.8437C14.25 15.8156 13.0266 15.6984 11.6719 15.5812L9.21094 15.3703L8.82188 15.2109C8.60625 15.1265 8.03438 14.8406 7.54219 14.5781C6.3375 13.9312 5.94844 13.7859 5.07656 13.6781L4.65 13.6219L4.63125 13.0312C4.61719 12.4828 4.60781 12.4265 4.49063 12.2484C4.25625 11.8875 4.22344 11.8828 2.39062 11.8734C1.40625 11.8687 0.707813 11.8828 0.609375 11.9109ZM3.88125 12.6187C3.92344 12.6609 3.9375 13.0265 3.9375 13.9781V15.2859L4.05469 15.3984C4.11563 15.464 4.22344 15.5156 4.28906 15.5156C4.35469 15.5156 4.4625 15.464 4.52344 15.3984C4.63125 15.2953 4.64062 15.2531 4.64062 14.8125C4.64062 14.264 4.59375 14.2969 5.26406 14.414C5.80313 14.5078 6.32344 14.7047 6.92813 15.0375C7.66406 15.45 8.41875 15.8156 8.78906 15.9515C9.07969 16.0547 9.38906 16.0922 11.6484 16.289C13.0406 16.4062 14.2875 16.5375 14.4234 16.575C14.9297 16.7156 15.3609 17.2265 15.4125 17.7609L15.4313 17.9812L12.1266 18.1828C10.3125 18.2953 8.75156 18.375 8.6625 18.3562C8.57344 18.3422 8.41406 18.2531 8.31094 18.164C7.99219 17.8922 7.64063 17.9859 7.64063 18.3375C7.64063 18.539 7.96406 18.8484 8.32969 18.9844C8.58281 19.0828 8.65313 19.0875 9.30469 19.0594C10.0172 19.0312 11.8453 18.9187 14.4375 18.75C15.5953 18.675 15.9984 18.6656 16.5609 18.6984C16.9453 18.7265 17.2922 18.7312 17.3344 18.7172C17.3766 18.6984 18.5016 17.9578 19.8281 17.0672C22.1766 15.4922 22.2469 15.45 22.5 15.4312C22.7109 15.4172 22.7859 15.4312 22.9172 15.525C23.2641 15.7594 23.3859 16.1344 23.2266 16.4719C23.1703 16.589 22.4391 17.2734 20.8688 18.6937C19.6172 19.8187 18.4922 20.8219 18.375 20.9203C18.1078 21.1453 17.6859 21.3515 17.3203 21.4406C17.1656 21.4781 15.4031 21.7453 13.4063 22.0359C10.7016 22.425 9.70312 22.5515 9.49219 22.5328C9.225 22.5094 8.67188 22.3078 5.13281 20.9578L4.66406 20.775L4.64062 18.6797L4.61719 16.5844L4.50469 16.4953C4.36406 16.3828 4.21406 16.3828 4.07344 16.4953L3.96094 16.5844L3.9375 19.2281L3.91406 21.8672H2.32031H0.726562L0.7125 17.2781C0.707813 13.9265 0.717188 12.675 0.754688 12.6281C0.829688 12.539 3.79219 12.5297 3.88125 12.6187Z" fill="black"/>
<path d="M1.85156 18.8531C1.68749 18.9094 1.42031 19.0969 1.29843 19.2375C0.881244 19.7156 0.956244 20.5406 1.45781 20.9672C1.65937 21.1406 2.01093 21.2812 2.24999 21.2812C2.68593 21.2812 3.17812 20.9578 3.37968 20.5406C3.68437 19.9172 3.33749 19.0922 2.67656 18.8672C2.43749 18.7875 2.06249 18.7781 1.85156 18.8531ZM2.52187 19.5656C2.87343 19.7437 2.86874 20.2687 2.52187 20.4844C2.33906 20.5969 2.19843 20.6016 2.01562 20.5078C1.81874 20.4094 1.73437 20.2594 1.73437 20.025C1.73437 19.8516 1.76249 19.7906 1.89374 19.6594C2.07187 19.4812 2.29218 19.4484 2.52187 19.5656Z" fill="black"/>
</g>
<defs>
<clipPath id="clip0_20_7921">
<rect width="24" height="24" fill="white"/>
</clipPath>
</defs>
</svg>
