<svg width="25" height="25" viewBox="0 0 25 25" fill="none" xmlns="http://www.w3.org/2000/svg">
<g clip-path="url(#clip0_62_22980)">
<path d="M23.0144 16.4866C23.4979 15.1764 23.4937 13.7931 23.4209 12.4211C23.3225 10.588 23.1642 8.75491 22.993 6.92743C22.8817 5.75783 22.0045 4.96499 20.9218 4.96499C20.5281 4.96499 20.1558 5.07745 19.8391 5.26863C20.22 3.97533 19.715 3.16562 17.9091 2.54146C17.9005 2.54146 17.8963 2.53021 17.8963 2.52459C17.9305 1.59117 17.6994 1.01762 16.8393 0.539661C15.962 0.0560806 15.1104 -0.00577276 14.3358 0.961389C14.3316 0.967012 14.1262 1.22005 14.1219 1.2088C14.0021 0.680237 13.5527 0.354101 13.189 0.196656C12.577 -0.0620031 12.0122 -0.0620031 11.5115 0.191033C11.3531 0.230395 11.1948 0.286625 11.0322 0.359724C10.6727 0.528415 10.2362 0.877043 10.1421 1.40561C10.1421 1.41685 9.92383 1.17506 9.91955 1.16382C9.10219 0.230395 8.25488 0.320363 7.39901 0.837682C6.56025 1.34375 6.35057 1.92855 6.42331 2.86197C6.42331 2.87322 6.41903 2.87884 6.41048 2.88447C4.7672 3.52549 4.24084 4.27898 4.51044 5.39796C4.20233 5.24614 3.8557 5.16179 3.49196 5.17866C2.40928 5.21802 1.56624 6.04461 1.50205 7.21982C1.40363 9.05293 1.31804 10.8917 1.29237 12.7248C1.27525 14.0968 1.32232 15.4801 1.86152 16.7734L0 19.7704L9.01233 24.9998L11.0621 21.6935C11.5243 21.5754 11.9779 21.3955 12.4187 21.1537C12.9408 21.4348 13.4757 21.6373 14.0192 21.7554L16.2016 24.983L24.9957 19.4162L23.0101 16.4866H23.0144ZM16.942 4.37457C17.3656 3.69418 17.8021 3.51425 18.3542 3.77853C18.9362 4.05968 19.0945 4.5039 18.6922 5.2124C18.3542 5.80844 18.0033 6.39886 17.6523 6.98366C17.2458 6.38199 16.8435 5.78595 16.437 5.18429C16.6039 4.91438 16.7708 4.64447 16.942 4.37457ZM18.7093 7.56845C18.6922 7.79337 18.6751 8.04079 18.6494 8.33318C18.6494 8.35005 18.6238 8.35568 18.6109 8.34443C18.4868 8.18136 18.3927 8.06328 18.3156 7.95082C18.4312 7.799 18.5596 7.65842 18.7093 7.56845ZM14.8151 1.98478C15.196 1.37749 15.6496 1.18069 16.1503 1.37749C16.8179 1.64178 16.989 2.24906 16.5654 2.93507C16.3043 3.36242 16.039 3.78415 15.7737 4.2115C15.3672 3.60984 14.9606 3.00817 14.5541 2.41213C14.6397 2.27155 14.7295 2.13098 14.8151 1.9904V1.98478ZM11.2504 20.5295C11.045 20.597 10.8311 20.6589 10.6085 20.7039L10.0265 21.6429L9.88531 21.8678L8.52876 24.0552L1.08268 19.7367L2.34081 17.7068L2.51626 17.4256L2.96559 16.7003C2.88429 16.5316 2.81582 16.3629 2.75591 16.1829C2.68744 15.9918 2.6318 15.7949 2.58901 15.5981C2.50342 15.2102 2.45635 14.8053 2.45207 14.3892C2.4264 12.0275 2.49914 9.66584 2.55906 7.30417C2.57617 6.66314 2.99983 6.23579 3.52191 6.2133C3.98408 6.19081 4.35639 6.42698 4.5404 6.85995C4.40774 6.92743 4.27936 7.02302 4.1253 7.19171C3.36785 8.01829 3.28655 9.23849 3.89421 10.1719C5.66587 12.8935 7.46748 15.5925 9.3076 18.2747C9.66707 18.7976 10.065 19.2925 10.5187 19.7367C10.8054 20.0178 11.0921 20.2709 11.3874 20.4958C11.3446 20.5127 11.3061 20.5295 11.259 20.5408L11.2504 20.5295ZM15.196 21.8903L15.0462 21.671L14.4257 20.7545C14.2032 20.7151 13.9849 20.6645 13.7795 20.6026C13.5228 20.5239 13.2788 20.434 13.0478 20.3271C11.995 19.8323 11.1434 19.0282 10.4331 18.0329C9.47022 16.6834 8.57155 15.2945 7.64293 13.9225C6.66724 12.483 5.68727 11.0491 4.72869 9.59836C4.56607 9.35095 4.29219 8.98546 4.34783 8.55248C4.39062 8.23759 4.55752 8.05203 4.80572 7.88896C5.02824 7.73714 5.49469 7.77088 5.76857 7.90021C6.05957 8.04079 6.2821 8.3613 6.47895 8.64245C6.93684 9.30035 7.38189 9.96949 7.83122 10.633C8.04947 10.9535 8.272 11.2797 8.49452 11.6002C8.73417 11.9375 9.18778 12.8878 9.73126 12.5167C10.2319 12.1793 9.57292 11.4146 9.36323 11.1053C9.14499 10.7848 8.92674 10.4587 8.70849 10.1326C7.70712 8.61434 6.68863 7.11299 5.73006 5.57228C5.29784 4.87502 5.43906 4.42518 6.00822 4.12716C6.5517 3.84038 6.99675 4.00907 7.44608 4.67259C8.61862 6.39886 9.78261 8.12513 10.9552 9.8514C11.1178 10.0932 11.2162 10.2956 11.5243 10.3968C11.7511 10.4699 11.9779 10.4306 12.0635 10.2057C12.209 9.82329 12.0892 9.62086 11.8838 9.31721C10.5101 7.2873 9.13215 5.25738 7.75847 3.22185C7.30914 2.55271 7.45464 1.9398 8.11366 1.65302C8.60579 1.43372 9.06796 1.61928 9.4745 2.2097C10.8781 4.27335 12.2732 6.33701 13.6683 8.40628C13.8951 8.74366 14.169 9.03044 14.5755 8.75491C14.9649 8.49063 14.7424 8.15325 14.537 7.8496C13.4586 6.25829 12.3802 4.66697 11.3061 3.07565C11.1648 2.86197 11.0193 2.64268 10.9423 2.40088C10.7711 1.86107 11.1563 1.29877 11.7297 1.20318C12.316 1.10196 12.607 1.44497 12.8766 1.8442C14.7039 4.55451 16.5354 7.27043 18.3884 9.96386C18.5596 10.2113 18.919 10.5037 19.1801 10.4981C19.6722 10.4868 19.6209 9.99198 19.6508 9.64335C19.7278 8.7774 19.7663 7.91146 19.8562 7.04551C19.929 6.37637 20.3569 5.994 20.9346 5.99963C21.4524 6.00525 21.8975 6.41573 21.9403 7.05676C22.0943 9.41281 22.2612 11.7689 22.334 14.1305C22.3468 14.5466 22.3168 14.9515 22.2441 15.3451C22.2099 15.5475 22.1585 15.7443 22.0986 15.9355C22.043 16.1155 21.9788 16.2898 21.906 16.4585L22.3853 17.167L22.5693 17.4425L23.9088 19.4218L16.6381 24.0271L15.196 21.8959V21.8903Z" fill="black"/>
<path d="M17.2158 11.0547C16.4242 11.0547 15.6881 11.4764 15.2687 12.1568C14.8494 11.482 14.1133 11.0547 13.3216 11.0547C12.3545 11.0547 11.4858 11.6845 11.1563 12.6179C11.0621 12.8822 11.0151 13.1521 11.0151 13.422C11.0151 13.6919 11.0579 13.9562 11.1434 14.2036C11.152 14.2317 11.1648 14.2542 11.1734 14.2767L11.5329 14.1136L11.1777 14.2767L11.5329 14.1136L11.1777 14.2767C11.1777 14.2767 11.1862 14.2936 11.1948 14.3104C11.2932 14.5578 11.4216 14.7771 11.5757 14.9627C11.6484 15.0527 11.734 15.137 11.8196 15.2157L15.2773 18.7582L18.8548 15.092C19.0902 14.8446 19.2785 14.5466 19.3898 14.2261C19.4796 13.9674 19.5267 13.6975 19.5267 13.422C19.5267 12.1174 18.4911 11.0547 17.2201 11.0547H17.2158ZM18.6409 13.9787C18.5638 14.198 18.4355 14.4004 18.2686 14.5803L15.273 17.6505L12.3802 14.6872L12.3588 14.6647C12.2946 14.6084 12.239 14.5466 12.1833 14.4847C12.0806 14.3667 11.995 14.2148 11.9266 14.0461C11.9137 14.018 11.9009 13.9843 11.888 13.9562C11.8324 13.7875 11.8025 13.6075 11.8025 13.4276C11.8025 13.2477 11.8367 13.0509 11.9009 12.8709C12.1234 12.2468 12.6926 11.825 13.3216 11.825C13.9079 11.825 14.4514 12.1905 14.6996 12.7585C14.798 12.9778 15.0205 13.124 15.2687 13.124C15.5169 13.124 15.7395 12.9834 15.8379 12.7585C16.0861 12.1905 16.6296 11.825 17.2158 11.825C18.0546 11.825 18.735 12.5448 18.735 13.4332C18.735 13.6244 18.7051 13.81 18.6409 13.9899V13.9787Z" fill="#3F6B68"/>
</g>
<defs>
<clipPath id="clip0_62_22980">
<rect width="25" height="25" fill="white"/>
</clipPath>
</defs>
</svg>
