<svg width="21" height="23" viewBox="0 0 21 23" fill="none" xmlns="http://www.w3.org/2000/svg">
<g clip-path="url(#clip0_34_20004)">
<path d="M14.0757 5.17964C14.2591 5.33629 14.4335 5.4853 14.6169 5.64195C14.6334 5.59419 14.6499 5.54643 14.665 5.49867C14.8709 4.81857 15.6196 4.38491 16.1878 4.82812C16.6328 5.17581 16.8929 5.68207 16.8974 6.38318C16.8974 6.46532 16.8974 6.54747 16.8974 6.65063C16.9395 6.64108 16.9711 6.64108 16.9996 6.6258C17.5213 6.32014 18.0565 6.3144 18.5992 6.4978C18.7916 6.56275 18.966 6.67929 19.1163 6.85122C19.2381 6.98877 19.3569 7.13205 19.4756 7.27533C19.7537 7.61729 20.0664 7.89429 20.4062 8.11399C20.5445 8.20377 20.6813 8.29165 20.8361 8.32795C20.9023 8.34323 20.9774 8.36234 21.0015 8.49415C20.9534 8.60687 20.8737 8.66991 20.767 8.64507C20.4648 8.57821 20.1837 8.68901 19.9086 8.82847C19.6019 8.98512 19.3087 9.17807 19.0321 9.41496C18.8562 9.56397 18.6713 9.69388 18.4894 9.83333C18.4233 9.88491 18.3571 9.93649 18.282 9.99572C18.3105 10.0473 18.3331 10.0912 18.3586 10.1333C18.4534 10.2823 18.5556 10.4217 18.6398 10.5784C18.724 10.735 18.8021 10.9012 18.8623 11.077C18.987 11.4361 18.9885 11.8049 18.8788 12.1774C18.8412 12.3054 18.8141 12.4391 18.7931 12.5728C18.6698 13.3847 18.5436 14.1947 18.3421 14.9799C18.1647 15.6696 17.9467 16.3363 17.6912 16.9801C17.3634 17.8073 16.9245 18.5084 16.3667 19.093C15.6947 19.7979 14.9371 20.2679 14.1253 20.6117C13.6968 20.7932 13.2594 20.9002 12.8114 20.9518C12.6234 20.9747 12.4355 21.0014 12.2476 21.0301C12.186 21.0397 12.1243 21.0568 12.0552 21.0721C12.0462 21.1294 12.0386 21.1829 12.0266 21.2345C11.9334 21.6242 11.756 21.8936 11.4313 21.9528C11.1607 22.0025 10.8931 22.0636 10.621 22.0999C10.176 22.1611 9.73104 22.2088 9.28305 22.2394C8.91623 22.2642 8.55694 22.226 8.19764 22.1458C8.09391 22.1228 7.99169 22.0942 7.88796 22.0751C7.5452 22.014 7.22649 21.8535 6.9138 21.6624C6.78452 21.5822 6.66726 21.4848 6.61163 21.2995C6.58457 21.2078 6.52594 21.1906 6.4613 21.1734C6.07043 21.0702 5.68258 20.9556 5.30223 20.7932C4.64828 20.5124 4.03192 20.1246 3.44713 19.647C3.19757 19.4426 2.96606 19.2038 2.74958 18.9421C2.14825 18.2199 1.59202 17.4462 1.12599 16.5674C1.04932 16.4242 0.975653 16.279 0.900486 16.1357C0.419421 15.2149 0.154835 14.1852 0.0375757 13.0867C-0.00151086 12.7218 -0.0195508 12.355 0.00600578 11.9863C0.0285557 11.6654 0.0496023 11.3444 0.0676423 11.0235C0.0736556 10.9223 0.0751589 10.821 0.0691456 10.7217C0.0465957 10.3434 0.109735 9.98999 0.239022 9.65567C0.384845 9.2755 0.575767 8.93545 0.80277 8.6317C1.32593 7.9325 1.9453 7.42434 2.6233 7.03271C3.22012 6.68693 3.844 6.45386 4.47991 6.26856C4.96549 6.1291 5.45407 6.01447 5.94716 5.94761C6.42071 5.88457 6.89576 5.86164 7.37081 5.86928C7.79024 5.87502 8.20967 5.88266 8.62459 5.97627C8.66518 5.98582 8.70878 5.98773 8.74937 5.97818C9.29056 5.85209 9.83477 5.86737 10.3805 5.88648C10.394 5.88648 10.4075 5.88266 10.4391 5.87693C10.6962 5.53879 11.0119 5.32291 11.3967 5.32865C11.7771 5.33438 12.1048 5.51395 12.3724 5.88457C12.5137 5.70117 12.655 5.51968 12.8053 5.32482C12.7572 5.29426 12.7151 5.26751 12.6715 5.24077C12.1349 4.90454 11.7996 4.36581 11.7199 3.57873C11.6929 3.30555 11.6794 3.03045 11.6628 2.75536C11.6448 2.46116 11.5982 2.17269 11.5395 1.88804C11.4433 1.42764 11.3471 0.965325 11.1923 0.529757C11.1442 0.39603 11.1577 0.2986 11.2178 0.260392C11.296 0.210722 11.3486 0.268034 11.4012 0.338718C11.4689 0.432327 11.5395 0.520205 11.6102 0.609993C11.768 0.808673 11.9424 0.976787 12.1379 1.10669C12.3934 1.27672 12.6475 1.45056 12.9106 1.60339C13.1947 1.7696 13.4518 1.98929 13.6818 2.26057C13.9328 2.55477 14.0982 2.91965 14.2034 3.34184C14.3433 3.89586 14.2846 4.43076 14.1298 4.95803C14.1072 5.03445 14.0847 5.10895 14.0636 5.17581L14.0757 5.17964ZM18.3481 13.0714C18.3211 13.0886 18.3 13.0982 18.2835 13.1135C17.9783 13.4134 17.634 13.614 17.2777 13.784C16.254 14.2692 15.1956 14.5577 14.1162 14.7163C13.5675 14.7965 13.0203 14.8882 12.4716 14.9646C12.0762 15.02 11.6794 15.0697 11.281 15.1022C10.821 15.1423 10.3594 15.1671 9.89941 15.1881C9.29207 15.2149 8.68322 15.2359 8.07587 15.1671C7.4986 15.1022 6.91981 15.0506 6.34254 14.978C5.99527 14.9341 5.64649 14.8806 5.30374 14.7965C4.50547 14.6017 3.72825 14.3055 2.96456 13.9407C2.33166 13.6388 1.72882 13.2587 1.1756 12.7467C0.876433 12.4697 0.601324 12.1602 0.386348 11.7666C0.372818 11.7418 0.350268 11.7246 0.311182 11.6826C0.305168 11.7514 0.300658 11.7838 0.300658 11.8182C0.306672 12.25 0.326215 12.6817 0.383341 13.1077C0.535177 14.231 0.86591 15.2493 1.37403 16.1777C1.87164 17.0871 2.45042 17.8913 3.08783 18.6307C3.37196 18.9592 3.68465 19.2401 4.0214 19.4655C4.27095 19.6317 4.5205 19.796 4.77607 19.9431C5.46008 20.3385 6.18018 20.5697 6.91981 20.6671C7.56625 20.7531 8.21719 20.7665 8.86662 20.8047C8.99892 20.8123 9.13121 20.7951 9.2635 20.7837C9.41684 20.7703 9.56868 20.7435 9.72202 20.7359C10.1835 20.7092 10.6451 20.7072 11.1051 20.6633C11.6628 20.6079 12.2175 20.5239 12.7738 20.4417C12.9812 20.4111 13.1887 20.3653 13.3947 20.3099C13.772 20.2067 14.1298 20.0214 14.4921 19.8514C15.2272 19.5056 15.8676 18.9573 16.4494 18.283C16.6283 18.0766 16.7952 17.8512 16.929 17.5914C17.0748 17.3106 17.2221 17.0298 17.3439 16.7317C17.8099 15.5912 18.1076 14.3667 18.3601 13.1211C18.3616 13.1135 18.3571 13.1039 18.3496 13.0714H18.3481ZM10.2347 6.2762C9.8483 6.24372 9.47698 6.14247 9.10114 6.27047C9.07559 6.28002 9.04552 6.2762 9.01696 6.27238C8.78545 6.24181 8.55544 6.27238 8.32693 6.30103C8.29386 6.30485 8.24425 6.30676 8.22921 6.28193C8.17209 6.18259 8.09542 6.19787 8.02025 6.19787C7.33473 6.19787 6.65072 6.24563 5.97121 6.36789C5.08876 6.52837 4.22886 6.80728 3.39301 7.20655C2.8924 7.44535 2.41133 7.73764 1.96635 8.12927C1.61607 8.43684 1.29286 8.78835 1.01173 9.201C0.84336 9.44935 0.700544 9.72253 0.593807 10.0244C0.476548 10.3568 0.457004 10.6949 0.559231 11.0426C0.620867 11.2508 0.711067 11.4361 0.822313 11.6043C0.983169 11.8488 1.17259 12.0532 1.37554 12.2366C1.79196 12.6149 2.23544 12.9243 2.70298 13.1746C3.23516 13.4592 3.78086 13.6828 4.33559 13.8776C4.97751 14.103 5.62846 14.275 6.29293 14.3457C6.62667 14.382 6.9604 14.4259 7.29565 14.4679C7.91502 14.5463 8.53589 14.6055 9.15977 14.5692C9.78215 14.5348 10.403 14.5023 11.0239 14.4469C11.5531 14.3992 12.0822 14.3323 12.6099 14.2521C13.2007 14.1623 13.7885 14.0515 14.3763 13.9464C15.1671 13.805 15.9458 13.5872 16.708 13.272C17.0011 13.1498 17.2913 13.016 17.5664 12.8345C17.7799 12.6932 17.9798 12.5232 18.1437 12.2939C18.2008 12.2137 18.2549 12.1277 18.2985 12.0341C18.4037 11.8182 18.4173 11.5852 18.3391 11.3483C18.306 11.247 18.2684 11.1458 18.2203 11.0579C18.1091 10.8573 17.9873 10.6682 17.8731 10.4714C17.7784 10.3071 17.6641 10.2402 17.4987 10.2383C17.1304 10.2383 16.7982 10.0855 16.5336 9.72635C16.5111 9.69579 16.484 9.67095 16.4509 9.63656C16.3923 9.73399 16.3472 9.82187 16.3186 9.92885C16.5967 10.1142 16.7501 10.4313 16.8764 10.7732C16.9154 10.8783 16.935 11.0025 16.9395 11.119C16.9485 11.3368 16.9365 11.5546 17.0132 11.7647C17.0507 11.8698 17.0387 11.9997 16.9711 12.101C16.9425 12.1449 16.8718 12.1373 16.8673 12.0838C16.8523 11.9386 16.7952 11.8297 16.726 11.7227C16.6749 11.6425 16.6554 11.545 16.6539 11.44C16.6539 11.3483 16.6569 11.2547 16.6479 11.1649C16.6388 11.0655 16.6298 10.9605 16.5997 10.8707C16.5336 10.6663 16.4344 10.4867 16.3171 10.3262C16.2795 10.2746 16.2284 10.2383 16.1773 10.2097C16.1487 10.1944 16.1052 10.1944 16.0781 10.2135C15.9638 10.2956 15.8526 10.3854 15.7383 10.4752C15.9623 10.7713 15.9864 10.9184 15.8436 11.0598C15.8346 11.0483 15.8165 11.0388 15.8165 11.0254C15.806 10.886 15.7534 10.7866 15.6587 10.7217C15.5895 10.672 15.5429 10.5937 15.5053 10.502C15.4226 10.3052 15.2873 10.1982 15.1295 10.1314C15.0197 10.0855 14.91 10.0836 14.7973 10.1046C14.6018 10.1409 14.4184 10.2288 14.2395 10.3339C13.8832 10.5421 13.5345 10.5249 13.1932 10.2727C13.1271 10.2231 13.0579 10.1772 12.9872 10.1371C12.7302 9.9919 12.4716 9.98808 12.216 10.1485C12.1529 10.1887 12.0883 10.2231 12.0251 10.2613C11.7891 10.4007 11.541 10.4389 11.287 10.4045C11.1923 10.3912 11.0976 10.3453 11.0074 10.2976C10.9352 10.2613 10.9066 10.1829 10.9292 10.1294C10.9593 10.0588 11.0119 10.074 11.06 10.076C11.1231 10.0798 11.1848 10.0912 11.2479 10.0951C11.2735 10.0951 11.299 10.0855 11.3426 10.076C11.302 9.98043 11.2704 9.90211 11.2374 9.82378C11.078 9.45317 11.0209 9.06918 11.1442 8.66036C11.1562 8.62215 11.1532 8.5763 11.1577 8.53045C11.1036 8.51517 11.063 8.49989 11.0224 8.49224C10.7954 8.45595 10.612 8.31076 10.4662 8.08915C10.385 7.96498 10.3083 7.82934 10.2512 7.68415C10.2046 7.56571 10.143 7.49884 10.0528 7.46255C10.0061 7.44344 9.95954 7.42625 9.91144 7.41097C9.78967 7.37276 9.6664 7.33646 9.54463 7.29825C9.24546 7.20464 8.94931 7.1053 8.64113 7.06519C8.3119 7.02316 8.01724 7.11677 7.74514 7.35365C7.64592 7.43962 7.5467 7.52559 7.44899 7.61538C7.26708 7.78731 7.07466 7.81024 6.87471 7.68988C6.60261 7.52559 6.33201 7.53896 6.05991 7.6746C5.89755 7.75674 5.7382 7.85035 5.57734 7.94396C5.43002 8.02993 5.29321 8.03566 5.17595 7.86755C5.09928 7.75674 5.00908 7.75866 4.90686 7.8045C4.66482 7.91149 4.44233 8.0605 4.26043 8.29929C4.12513 8.47696 3.96427 8.57248 3.77635 8.59349C3.54033 8.62024 3.30281 8.65272 3.06528 8.66609C2.80821 8.68328 2.59323 8.80937 2.40231 9.03097C2.12119 9.35574 1.90321 9.74546 1.68372 10.1485C1.74686 10.2211 1.74987 10.2995 1.73333 10.3988C1.67019 10.8134 1.69124 11.205 1.95131 11.5145C2.00243 11.5756 2.03851 11.6558 2.07759 11.7323C2.08511 11.7475 2.07759 11.7896 2.06707 11.8049C2.05655 11.8201 2.02347 11.8335 2.01295 11.824C1.93327 11.7495 1.85811 11.6692 1.77993 11.5928C1.5845 11.3998 1.48077 11.1381 1.43868 10.8267C1.4041 10.5669 1.42214 10.3319 1.59803 10.1524C1.51234 10.0244 1.56496 9.90211 1.60404 9.78557C1.75137 9.35192 1.95582 8.96984 2.22793 8.65654C2.47447 8.37189 2.7601 8.22288 3.09084 8.23816C3.28627 8.2458 3.48321 8.23816 3.67864 8.25345C3.92518 8.27255 4.14467 8.19995 4.35664 8.02611C4.51599 7.89429 4.69188 7.79877 4.86176 7.69561C4.98503 7.62111 5.10981 7.62111 5.21053 7.75866C5.31576 7.90002 5.41799 7.8771 5.52924 7.78158C5.57584 7.74146 5.62094 7.69752 5.67055 7.66314C5.79382 7.57717 5.91559 7.48356 6.04337 7.41479C6.32901 7.26004 6.61464 7.26578 6.89726 7.4358C6.93485 7.45872 6.97393 7.48165 7.01152 7.50457C7.12878 7.57335 7.24153 7.56762 7.35127 7.47783C7.45199 7.39568 7.55422 7.31545 7.65494 7.23139C7.96613 6.96967 8.30438 6.85122 8.6727 6.89707C8.94329 6.93146 9.21389 6.97349 9.48449 7.01743C9.68444 7.0499 9.88438 7.09193 10.0933 7.13014C10.1069 7.00023 10.1129 6.85313 10.1369 6.71176C10.1595 6.5704 10.1986 6.43285 10.2347 6.27429V6.2762ZM17.7333 8.38335C17.8039 8.65654 17.8851 8.91635 18.0084 9.15133C18.0354 9.20482 18.0625 9.25831 18.085 9.31371C18.0895 9.32517 18.085 9.35001 18.076 9.36338C18.0685 9.37484 18.049 9.39013 18.0414 9.3863C17.9978 9.36147 17.9452 9.34428 17.9137 9.30225C17.846 9.21055 17.7814 9.11121 17.7303 9.00232C17.6325 8.79026 17.5468 8.57057 17.4491 8.3375C17.3379 8.32604 17.2131 8.3184 17.0883 8.29547C16.9575 8.27064 16.8252 8.24007 16.6975 8.19613C16.5787 8.15602 16.4644 8.09297 16.3276 8.02993C16.3923 8.25153 16.4675 8.44066 16.502 8.64125C16.5366 8.85331 16.5321 9.07491 16.5471 9.31944C16.7741 9.59263 17.0447 9.79704 17.3755 9.86772C17.6521 9.92694 17.9182 9.89065 18.1812 9.77984C18.4759 9.65567 18.7525 9.48373 19.0126 9.26786C19.3869 8.95838 19.7808 8.70621 20.2017 8.53045C20.2273 8.51899 20.2483 8.48651 20.2844 8.45022C20.0845 8.36234 19.9041 8.28974 19.7161 8.263C19.4035 8.21715 19.0893 8.21333 18.7751 8.25727C18.7525 8.26109 18.7315 8.28019 18.6894 8.30503C18.7916 8.40628 18.8713 8.49415 18.96 8.56675C19.1539 8.72722 19.1554 8.72531 19.178 8.82083C19.0081 8.84184 18.7886 8.68328 18.4624 8.3012C18.2474 8.31649 18.0249 8.33177 17.8024 8.34896C17.7829 8.34896 17.7633 8.36616 17.7318 8.38144L17.7333 8.38335ZM15.5655 10.1161C15.6241 10.0855 15.6707 10.0645 15.7143 10.0377C15.7579 10.011 15.8015 9.97852 15.8421 9.94414C16.1217 9.71489 16.3562 9.19718 16.1277 8.62406C16.027 8.37189 15.9383 8.11208 15.8436 7.858C15.8285 7.81597 15.8075 7.77967 15.791 7.73764C15.7564 7.65167 15.7068 7.59245 15.6346 7.56571C15.4873 7.51222 15.34 7.44917 15.1911 7.40714C15.119 7.38613 15.0378 7.39377 14.9626 7.40714C14.7341 7.44535 14.5672 7.62493 14.4199 7.8408C14.0321 8.40628 14.0982 9.08828 14.3478 9.56779C14.441 9.74546 14.5462 9.85053 14.7326 9.79704C14.9897 9.72444 15.2302 9.81996 15.4467 10.0167C15.4813 10.0473 15.5158 10.076 15.5625 10.1161H15.5655ZM12.9361 5.83108C12.885 5.87884 12.8399 5.91704 12.7993 5.96289C12.6204 6.16539 12.5483 6.41948 12.5979 6.72705C12.6189 6.86077 12.64 6.99641 12.6715 7.12823C12.7347 7.38613 12.8414 7.60965 12.9903 7.79877C13.0564 7.88283 13.1286 7.95543 13.2188 7.98408C13.572 8.09297 13.8847 8.00892 14.1328 7.64212C14.2546 7.46255 14.3853 7.30016 14.5447 7.17981C14.5868 7.14733 14.6274 7.11486 14.668 7.08238C14.6815 6.75761 14.6063 6.47679 14.459 6.23035C14.3087 5.98009 14.1178 5.79478 13.8907 5.68398C13.6487 5.56553 13.4007 5.5598 13.1541 5.67634C13.1451 5.68016 13.1421 5.70499 13.1331 5.72983C13.1692 5.76421 13.2082 5.7986 13.2443 5.83108C13.2714 5.80433 13.2879 5.78905 13.3045 5.77377C13.327 5.75084 13.3465 5.72409 13.3691 5.70499C13.4367 5.64959 13.4728 5.65914 13.53 5.74702C13.5465 5.77377 13.5585 5.80433 13.569 5.82917C13.6277 5.82343 13.6773 5.81197 13.7239 5.8177C13.7735 5.82343 13.8081 5.90749 13.7855 5.9648C13.766 6.01256 13.7419 6.06032 13.7119 6.09471C13.6592 6.15202 13.6006 6.19978 13.5465 6.25136C13.5465 6.32587 13.551 6.39082 13.5465 6.45386C13.5375 6.54938 13.4653 6.61624 13.3931 6.59141C13.3465 6.57613 13.3029 6.54556 13.2624 6.51117C13.2218 6.47679 13.1932 6.41756 13.1511 6.39082C13.112 6.36598 13.0624 6.37172 13.0158 6.36407C13.0188 6.30294 13.0323 6.25136 13.0203 6.21506C13.0023 6.15775 12.9542 6.11572 12.9421 6.05841C12.9286 5.99537 12.9391 5.92086 12.9391 5.83299L12.9361 5.83108ZM20.1852 8.3012C20.1461 8.25918 20.1326 8.23816 20.1145 8.2267C19.6831 7.93823 19.2772 7.602 18.9119 7.18363C18.8051 7.06136 18.6773 6.98686 18.542 6.93528C18.2083 6.80919 17.8701 6.78627 17.5273 6.86651C17.3244 6.91426 17.1379 7.00787 16.9711 7.16644C16.8072 7.32309 16.6448 7.48165 16.4825 7.64021C16.4675 7.65358 16.4614 7.68033 16.4434 7.71663C16.6524 7.86946 16.8734 7.93441 17.0898 7.9879C17.3679 7.66505 17.6461 7.45108 17.9813 7.31354C18.0535 7.28297 18.1301 7.27533 18.2068 7.26387C18.2294 7.26005 18.2639 7.26195 18.2714 7.30971C18.2714 7.32118 18.2714 7.33455 18.2699 7.33646C18.2279 7.36512 18.1858 7.3995 18.1422 7.42052C17.8761 7.54469 17.6325 7.71854 17.413 7.9516C17.3875 7.97835 17.3559 8.00892 17.383 8.07578C17.7468 8.17321 18.1181 8.2267 18.4969 8.18658C18.8863 8.14646 19.2787 8.12736 19.668 8.19804C19.8334 8.22861 19.9973 8.26491 20.1912 8.30311L20.1852 8.3012ZM11.3216 8.15793C11.3817 8.05859 11.4448 7.94969 11.511 7.84462C11.7049 7.53514 11.9575 7.41861 12.2566 7.4549C12.3108 7.46064 12.3664 7.46828 12.431 7.47592C12.3814 7.26005 12.3213 7.06519 12.2942 6.86268C12.2672 6.65827 12.2732 6.44431 12.2641 6.2208C12.1288 6.1291 11.98 6.05459 11.8267 5.99346C11.6643 5.9266 11.4974 5.91322 11.3291 5.93424C10.9247 5.98391 10.5774 6.39273 10.4992 6.91618C10.4872 6.99641 10.4842 7.08238 10.4917 7.16261C10.5233 7.45299 10.6225 7.70325 10.7743 7.91531C10.9096 8.10252 11.087 8.14455 11.2704 8.16939C11.284 8.16939 11.2975 8.16557 11.3216 8.15984V8.15793ZM14.9957 7.02125C15.4091 7.03844 15.7564 7.30971 16.1187 7.57717C16.1788 7.35174 16.2916 7.16644 16.3938 6.97349C16.4103 6.94292 16.4254 6.91235 16.4419 6.8837C16.5246 6.73851 16.5562 6.57231 16.5562 6.39082C16.5562 5.86546 16.3712 5.47575 16.039 5.20638C15.8586 5.05928 15.6632 5.0268 15.4542 5.10895C15.1701 5.21975 14.913 5.51586 14.7807 5.88648C14.8409 6.07752 14.913 6.24945 14.9491 6.43476C14.9837 6.61624 14.9807 6.8111 14.9942 7.02316L14.9957 7.02125ZM11.965 3.24441C11.9169 3.59593 12.0236 4.03531 12.2356 4.35053C12.407 4.35053 12.5874 4.35053 12.7693 4.35053C12.8535 4.35053 12.9376 4.34289 13.0203 4.35053C13.0414 4.35053 13.0744 4.38683 13.0774 4.40975C13.0805 4.4365 13.0594 4.48808 13.0414 4.49572C12.9692 4.52628 12.894 4.54539 12.8189 4.56449C12.7572 4.57977 12.6941 4.5836 12.6325 4.59888C12.5753 4.61225 12.5107 4.59506 12.44 4.64855C12.4776 4.69058 12.4987 4.72687 12.5272 4.74598C12.7121 4.87588 12.897 5.00388 13.082 5.13188C13.106 5.14716 13.1361 5.16053 13.1616 5.1548C13.2849 5.13379 13.4067 5.10704 13.5269 5.08412C13.53 5.05737 13.536 5.03636 13.5315 5.02298C13.3841 4.64664 13.2428 4.26838 13.088 3.89777C12.7061 2.98269 12.216 2.16887 11.7109 1.36842C11.6929 1.33976 11.6778 1.28627 11.6297 1.31875C11.6914 1.58429 11.7605 1.8441 11.8101 2.10965C11.8613 2.38474 11.8928 2.66557 11.9349 2.95595C12.0732 3.02854 12.216 3.10114 12.3574 3.17946C12.4957 3.25588 12.6565 3.26161 12.7933 3.41826C12.7482 3.44501 12.7197 3.47939 12.6926 3.47557C12.6099 3.46602 12.5257 3.45265 12.4445 3.42399C12.2837 3.36859 12.1243 3.30364 11.9635 3.2425L11.965 3.24441ZM6.91981 21.2937C6.9153 21.3568 6.94687 21.3702 6.96942 21.3816C7.24904 21.523 7.53317 21.6567 7.83083 21.7159C8.02326 21.7541 8.21719 21.7943 8.41112 21.8267C8.61106 21.8611 8.811 21.8993 9.01546 21.8917C9.65888 21.8669 10.2978 21.8 10.9352 21.6911C11.087 21.6644 11.2404 21.6414 11.3907 21.6089C11.5711 21.5688 11.6914 21.4332 11.747 21.2059C11.7109 21.1275 11.6598 21.1065 11.6012 21.1122C11.5035 21.1199 11.4057 21.1237 11.308 21.1352C10.9172 21.1868 10.5278 21.1829 10.1369 21.1352C10.0618 21.1256 9.9836 21.1352 9.89941 21.1352C9.80921 21.2976 9.6679 21.3491 9.52208 21.3873C9.46796 21.4007 9.41083 21.4045 9.35521 21.4045C9.15977 21.4064 8.96434 21.416 8.76891 21.4045C8.23222 21.374 7.69553 21.3339 7.15734 21.2976C7.07766 21.2918 6.99648 21.2689 6.91831 21.2918L6.91981 21.2937ZM12.9888 9.83142C13.1601 9.5888 13.1977 9.32708 13.1541 9.04243C13.1346 8.91635 13.115 8.78644 13.0714 8.67373C12.8219 8.03375 12.6956 7.92486 12.18 7.9325C12.1454 7.9325 12.1108 7.94014 12.0762 7.94778C11.9996 7.96689 11.9304 8.00892 11.8733 8.0796C11.6899 8.3012 11.5561 8.56293 11.4749 8.87432C11.4418 9.00041 11.4403 9.12458 11.4719 9.25258C11.535 9.51239 11.6493 9.72826 11.7996 9.91357C11.8462 9.97088 11.8943 9.98617 11.953 9.95178C12.0176 9.91548 12.0822 9.88109 12.1454 9.84671C12.3724 9.72444 12.6039 9.70725 12.8414 9.78749C12.888 9.80277 12.9361 9.81423 12.9888 9.82951V9.83142ZM12.0281 1.38943C12.0582 1.46202 12.0627 1.47922 12.0717 1.4945C12.3333 1.9358 12.6009 2.37328 12.8565 2.82222C13.1631 3.35904 13.4398 3.9226 13.6427 4.54157C13.6953 4.70204 13.7389 4.86633 13.79 5.0268C13.8021 5.06119 13.8291 5.08794 13.8607 5.13379C13.8832 5.07074 13.9028 5.03254 13.9118 4.99051C13.9569 4.78801 14.0005 4.58551 14.0426 4.38109C14.1238 3.98373 14.0862 3.59593 13.9764 3.21958C13.9313 3.06675 13.8757 2.91965 13.769 2.79738C13.7494 2.85279 13.7329 2.89099 13.7224 2.93302C13.6863 3.07248 13.6562 3.21385 13.6171 3.3514C13.5976 3.41826 13.563 3.47748 13.53 3.53479C13.5209 3.55008 13.4894 3.55581 13.4743 3.54817C13.4578 3.54052 13.4382 3.51378 13.4337 3.49085C13.4262 3.45647 13.4247 3.41826 13.4307 3.38196C13.4473 3.27498 13.4713 3.168 13.4879 3.06102C13.5149 2.8738 13.566 2.69231 13.566 2.49936C13.1331 1.96446 12.5934 1.7142 12.0296 1.38943H12.0281ZM13.3511 8.34705C13.3871 8.50371 13.4262 8.63934 13.4488 8.78071C13.4713 8.91444 13.4909 9.05199 13.4894 9.18762C13.4864 9.33281 13.4668 9.47991 13.4367 9.61746C13.4067 9.7531 13.3526 9.88109 13.309 10.0091C13.5946 10.2173 13.9163 10.2039 14.1613 9.98043C14.1523 9.95751 14.1448 9.93076 14.1328 9.90975C13.8652 9.4589 13.769 8.95074 13.8396 8.38526C13.8441 8.34514 13.8396 8.3012 13.8396 8.25727C13.6773 8.28592 13.5269 8.31267 13.3496 8.34514L13.3511 8.34705ZM13.4022 5.85018C13.348 5.90176 13.3075 5.9648 13.2578 5.98009C13.2188 5.99346 13.1676 5.94952 13.1225 5.93042C13.1165 5.92851 13.106 5.92087 13.103 5.92278C13.082 5.93997 13.0564 5.95716 13.0414 5.98391C13.0354 5.99346 13.0534 6.04313 13.0639 6.04695C13.1872 6.07943 13.2503 6.19405 13.3014 6.32969C13.3045 6.33733 13.309 6.34688 13.3135 6.3507C13.3405 6.3679 13.3691 6.38318 13.4157 6.40992C13.4157 6.24563 13.4413 6.11763 13.5239 6.0374L13.4022 5.85018Z" fill="black"/>
<path d="M10.2963 11.0845C10.5218 11.2374 10.7548 11.1801 10.9908 11.2832C10.9502 11.3138 10.9367 11.3348 10.9217 11.3348C10.7608 11.3424 10.6 11.3444 10.4406 11.3501C10.2963 11.3558 10.164 11.31 10.0437 11.2068C10.0317 11.1973 10.0197 11.1877 10.0077 11.1781C9.63031 10.8572 9.24095 10.8629 8.8576 11.1438C8.52988 11.3845 8.19313 11.394 7.84436 11.2718C7.79174 11.2527 7.73913 11.2183 7.69703 11.1724C7.67599 11.1514 7.66847 11.0903 7.67298 11.0502C7.67599 11.0234 7.70906 10.9871 7.73161 10.9833C7.78573 10.9737 7.84286 10.9776 7.89848 10.9795C7.98868 10.9852 8.08038 11.0005 8.17058 11.0005C8.24575 11.0005 8.32092 10.9814 8.42164 10.968C8.38556 10.9031 8.36602 10.8591 8.34046 10.8247C8.23673 10.6834 8.16006 10.521 8.11346 10.3357C8.05182 10.0931 8.04881 9.84852 8.11346 9.6059C8.133 9.53713 8.15405 9.46836 8.1766 9.40149C8.43818 8.65262 8.94029 8.49979 9.38527 8.61632C9.70849 8.70038 9.99111 8.8876 10.2196 9.20854C10.2467 9.24675 10.2828 9.28687 10.3203 9.29642C10.4075 9.32126 10.4556 9.39767 10.4842 9.49128C10.5383 9.66895 10.5939 9.84852 10.63 10.0338C10.6646 10.2077 10.6315 10.3834 10.5699 10.542C10.5188 10.6719 10.4541 10.7923 10.394 10.9145C10.3684 10.9661 10.3369 11.0139 10.2978 11.0807L10.2963 11.0845ZM10.0888 10.8992C10.152 10.798 10.2091 10.7177 10.2557 10.6299C10.3579 10.4369 10.3745 10.221 10.3414 9.99753C10.3339 9.94595 10.3218 9.881 10.2933 9.84852C10.1024 9.62119 9.91745 9.37857 9.66339 9.27159C9.65136 9.26585 9.63633 9.27541 9.6228 9.27923C9.59574 9.34991 9.58521 9.41677 9.64685 9.46835C9.66489 9.48364 9.68143 9.49892 9.69646 9.51803C9.73254 9.5677 9.74757 9.62692 9.72953 9.69569C9.71149 9.76446 9.6679 9.79503 9.61679 9.79885C9.55515 9.80267 9.49201 9.79885 9.42586 9.79885C9.40482 9.85043 9.38978 9.90201 9.36573 9.94595C9.27703 10.116 9.15526 10.1274 9.05304 9.97652C9.03049 9.94213 9.01846 9.88673 8.9899 9.86954C8.81852 9.7702 8.82152 9.57916 8.83054 9.38048C8.83355 9.33081 8.86813 9.27732 8.81551 9.22C8.58249 9.37857 8.44419 9.64029 8.42765 9.97461C8.41112 10.3261 8.56896 10.5726 8.77793 10.7521C9.23193 10.5706 9.66038 10.5458 10.0888 10.9011V10.8992ZM9.45593 9.1818C9.36573 9.25057 9.29658 9.3117 9.22291 9.35755C9.13873 9.40913 9.06356 9.33654 8.98388 9.2926C8.94029 9.4206 8.95983 9.53331 8.98388 9.6422C9.05404 9.68423 9.1272 9.76956 9.20337 9.89819C9.23494 9.84852 9.27102 9.80649 9.29357 9.75491C9.33717 9.65366 9.3973 9.61354 9.48299 9.62883C9.50253 9.63265 9.52358 9.6231 9.54613 9.62119C9.50103 9.52821 9.47146 9.38175 9.45743 9.1818H9.45593ZM9.12369 9.14359C9.15977 9.19708 9.19435 9.22001 9.22442 9.14359C9.18383 9.14359 9.15376 9.14359 9.12369 9.14359Z" fill="black"/>
<path d="M5.72165 13.7535C5.65851 13.8127 5.58786 13.786 5.52021 13.7688C4.83619 13.5835 4.15669 13.3714 3.49222 13.081C3.20057 12.953 2.90592 12.8384 2.61578 12.7028C2.18132 12.5003 1.80248 12.1717 1.46423 11.7648C1.25075 11.5088 1.08689 11.1974 0.959109 10.8573C0.861393 10.5994 0.847863 10.3339 0.903486 10.0531C0.975646 9.68628 1.11696 9.37488 1.30788 9.09788C1.58149 8.69861 1.9047 8.37766 2.25348 8.10066C2.78716 7.67846 3.36744 7.42629 3.97479 7.26582C4.57762 7.10726 5.18046 6.94487 5.7893 6.8398C6.59358 6.70225 7.40087 6.59718 8.21267 6.60291C8.35849 6.60291 8.50432 6.62775 8.65014 6.6373C8.71328 6.64112 8.77491 6.63348 8.83805 6.63157C9.15225 6.62011 9.46645 6.60865 9.78214 6.601C9.85881 6.59909 9.93849 6.58763 10.0046 6.65641C10.0227 6.67551 10.0332 6.71563 10.0332 6.7481C10.0332 6.76721 10.0091 6.79968 9.99111 6.8035C9.943 6.81688 9.89339 6.82261 9.84528 6.82261C9.37625 6.8207 8.90871 6.81688 8.43967 6.81115C8.39908 6.81115 8.34647 6.81115 8.31941 6.78058C8.23823 6.6927 8.14803 6.71372 8.05933 6.72136C7.36179 6.78249 6.66574 6.86273 5.97121 6.97162C5.26915 7.08242 4.57461 7.23525 3.88459 7.4282C3.31934 7.58676 2.78716 7.85422 2.29707 8.26304C2.03549 8.48082 1.79045 8.72153 1.56645 9.00236C1.33644 9.29083 1.15154 9.62132 1.06434 10.034C1.00722 10.3052 1.02075 10.5612 1.12448 10.8077C1.31389 11.2566 1.56495 11.633 1.88065 11.9367C2.24746 12.2901 2.65787 12.5098 3.09083 12.676C3.80792 12.9511 4.53252 13.1957 5.25562 13.4421C5.39694 13.4899 5.53524 13.5548 5.67355 13.6179C5.71564 13.637 5.7442 13.6809 5.72015 13.7497L5.72165 13.7535Z" fill="black"/>
<path d="M7.75417 14.0074C7.79927 14.0017 7.84286 13.9902 7.88796 13.9921C8.44119 14.0131 8.9914 13.9788 9.54313 13.9367C9.72503 13.9234 9.90543 13.8947 10.0858 13.8737C10.3715 13.8412 10.6571 13.8068 10.9412 13.7743C11.2825 13.7342 11.6237 13.6979 11.9635 13.6521C12.2837 13.61 12.6024 13.5623 12.9211 13.5126C13.1631 13.4744 13.4067 13.4362 13.6487 13.3884C14.0907 13.3025 14.5327 13.2146 14.9731 13.1172C15.2693 13.0522 15.5579 12.9414 15.8376 12.7905C16.0255 12.6892 16.2194 12.6109 16.4058 12.5078C16.6433 12.3759 16.8794 12.2365 17.1094 12.0817C17.2191 12.0072 17.3198 11.9022 17.4146 11.7952C17.5168 11.6806 17.5874 11.5315 17.6205 11.3558C17.6295 11.3023 17.6401 11.2469 17.6596 11.1991C17.6701 11.1724 17.7032 11.1437 17.7227 11.1476C17.7438 11.1514 17.7708 11.1896 17.7769 11.2182C17.8069 11.3959 17.7889 11.564 17.7137 11.7207C17.5919 11.9748 17.4326 12.1773 17.2327 12.3224C17.1289 12.3989 17.0237 12.4715 16.9155 12.5364C16.3156 12.8898 15.7173 13.249 15.0679 13.4133C14.7116 13.5031 14.3523 13.5833 13.993 13.6483C13.5149 13.7342 13.0369 13.8202 12.5573 13.8718C11.98 13.9329 11.3997 13.9539 10.8195 13.994C10.4632 14.0189 10.1084 14.0456 9.75209 14.0743C9.20788 14.1201 8.66218 14.122 8.11797 14.1048C7.9947 14.101 7.87143 14.0857 7.75417 14.0074Z" fill="black"/>
<path d="M7.93305 13.23C7.62186 13.2013 7.32721 13.1383 7.06563 12.9224C7.04158 12.9033 7.01602 12.888 6.99347 12.8689C6.90778 12.7944 6.82209 12.8059 6.7364 12.8632C6.68078 12.9014 6.62967 12.9472 6.57555 12.9893C6.54548 13.0122 6.51692 13.0389 6.48535 13.0542C6.42221 13.0848 6.35005 13.0236 6.35456 12.9358C6.35756 12.8746 6.36658 12.8059 6.39214 12.7543C6.5079 12.5155 6.68078 12.3837 6.89425 12.3646C6.9604 12.3588 7.02955 12.399 7.09419 12.4276C7.13328 12.4448 7.16936 12.4773 7.20394 12.5059C7.35728 12.6358 7.52565 12.7218 7.70154 12.781C7.80226 12.8154 7.90148 12.8594 8.0007 12.9014C8.03377 12.9148 8.06685 12.932 8.09842 12.9511C8.14502 12.9797 8.1796 13.0236 8.17358 13.1001C8.16907 13.1593 8.12848 13.209 8.07286 13.2166C8.02475 13.2242 7.97514 13.2242 7.93756 13.2262L7.93305 13.23Z" fill="black"/>
<path d="M10.6451 12.6397C10.612 12.5919 10.5849 12.5652 10.5759 12.5308C10.5714 12.5155 10.603 12.4735 10.6255 12.4601C10.6571 12.4429 10.6992 12.4869 10.6932 12.5327C10.6887 12.5633 10.6691 12.59 10.6466 12.6397H10.6451Z" fill="black"/>
<path d="M15.0558 8.20949C15.0408 8.13308 15.0183 8.03756 15.0047 7.93822C14.9972 7.88664 15.0017 7.82742 15.0122 7.77584C15.0363 7.64975 15.1551 7.60199 15.2272 7.69178C15.2663 7.74145 15.2964 7.80449 15.3385 7.87327C15.3745 7.85416 15.4106 7.83506 15.4467 7.81595C15.4918 7.79303 15.5354 7.76246 15.582 7.751C15.6481 7.73381 15.7068 7.80258 15.7068 7.89046C15.7068 7.92676 15.6978 7.96305 15.6932 7.99744C15.6887 8.03374 15.6842 8.06813 15.6782 8.12353C15.7293 8.13117 15.7744 8.1369 15.8195 8.14263C15.8706 8.15027 15.9157 8.17511 15.9353 8.24006C15.9578 8.31648 15.9428 8.38334 15.8932 8.43683C15.8676 8.46549 15.8406 8.49223 15.812 8.5228C15.8331 8.5973 15.8571 8.66226 15.8691 8.73294C15.8812 8.79789 15.8616 8.86285 15.821 8.90487C15.7744 8.95263 15.7173 8.97556 15.6662 8.9278C15.6166 8.88195 15.573 8.82082 15.5324 8.75968C15.4918 8.70046 15.4798 8.60685 15.3971 8.5782C15.37 8.59921 15.3355 8.62978 15.2994 8.6527C15.2558 8.67945 15.2107 8.71193 15.1656 8.71957C15.0829 8.73294 15.0092 8.65652 15.0122 8.54572C15.0137 8.43874 15.0378 8.33367 15.0543 8.20949H15.0558ZM15.2332 8.20376C15.2167 8.3203 15.1295 8.40244 15.1581 8.53808C15.1866 8.52662 15.2107 8.52662 15.2242 8.51133C15.3851 8.32412 15.4843 8.35277 15.6076 8.561C15.6106 8.56483 15.6181 8.56483 15.6226 8.56865C15.6572 8.49223 15.6932 8.41582 15.7278 8.3394C15.6096 8.29228 15.5504 8.18975 15.5504 8.03183C15.5504 8.0089 15.5414 7.98789 15.5354 7.96305C15.4151 8.03055 15.2979 8.04584 15.1836 8.0089C15.2017 8.08341 15.2182 8.14836 15.2317 8.20567L15.2332 8.20376Z" fill="black"/>
<path d="M10.9983 7.13965C10.9938 7.2409 10.9953 7.3154 10.9848 7.38609C10.9713 7.48161 10.8721 7.51599 10.8179 7.45104C10.8029 7.43194 10.7849 7.41092 10.7804 7.38609C10.7593 7.25427 10.7037 7.1683 10.615 7.0938C10.5143 7.00974 10.5383 6.83399 10.6466 6.76139C10.6646 6.74802 10.6841 6.73082 10.7037 6.73082C10.7698 6.727 10.8225 6.70026 10.8555 6.6162C10.866 6.58755 10.8946 6.56653 10.9187 6.54934C10.9818 6.50731 11.057 6.55507 11.0555 6.64677C11.054 6.7442 11.06 6.81679 11.1231 6.88748C11.1848 6.95625 11.1697 7.03075 11.0991 7.08425C11.0705 7.10717 11.0374 7.11863 10.9968 7.14156L10.9983 7.13965ZM10.6841 6.94288L10.8796 7.0766C10.9277 7.02885 10.9713 6.98682 11.0119 6.9467C10.9878 6.85309 10.9653 6.76712 10.9427 6.67924C10.8691 6.72318 10.9307 6.84545 10.863 6.88748C10.8044 6.86837 10.7398 6.78432 10.6841 6.94097V6.94288Z" fill="black"/>
<path d="M16.1172 6.15767C16.0991 6.24937 16.0931 6.32388 16.0706 6.38883C16.0435 6.47098 15.9548 6.47862 15.9157 6.40602C15.8917 6.36209 15.8781 6.30859 15.8571 6.26083C15.8195 6.17487 15.7729 6.14812 15.7008 6.16914C15.6677 6.17869 15.6361 6.20352 15.603 6.21499C15.5113 6.24555 15.4557 6.17678 15.4692 6.04878C15.4768 5.98765 15.4948 5.92652 15.5083 5.86156C15.4753 5.80234 15.4407 5.74503 15.4121 5.6839C15.3745 5.60366 15.4016 5.51961 15.4707 5.48713C15.5579 5.4451 15.6346 5.47949 15.7068 5.54062C15.7474 5.5731 15.7398 5.63423 15.6932 5.66479C15.6767 5.67626 15.6557 5.68008 15.6376 5.68581C15.6557 5.80043 15.6531 5.91569 15.6301 6.03159C15.7489 6.01631 15.8691 6.00484 15.9578 6.17296C15.9909 6.10227 16.015 6.04878 16.0435 5.98574C15.9503 5.92079 15.8706 5.8501 15.9052 5.69345C15.8361 5.703 15.8691 5.78706 15.83 5.82336C15.818 5.8138 15.791 5.80234 15.7895 5.78706C15.7819 5.73548 15.7729 5.67817 15.7849 5.63232C15.8075 5.55208 15.8616 5.50623 15.9232 5.47567C16.0029 5.43555 16.0616 5.48331 16.0661 5.59793C16.0676 5.65142 16.0616 5.70491 16.0585 5.76414C16.1112 5.79279 16.1563 5.81189 16.1984 5.84055C16.251 5.87685 16.284 5.93798 16.2795 6.01822C16.275 6.09463 16.2314 6.12329 16.1803 6.13857C16.1608 6.1443 16.1397 6.15194 16.1157 6.1615L16.1172 6.15767Z" fill="black"/>
<path d="M15.821 5.88452C15.827 5.89407 15.8331 5.90554 15.8391 5.91509C15.8285 5.92082 15.8195 5.92846 15.809 5.93037C15.806 5.93037 15.8 5.91891 15.7955 5.91318L15.821 5.88452Z" fill="black"/>
<path d="M12.0642 9.47026C12.0056 9.48746 11.959 9.50465 11.9124 9.5142C11.8688 9.52184 11.8222 9.47791 11.8252 9.4225C11.8357 9.23147 11.8492 9.04234 11.8688 8.85321C11.8748 8.79399 11.95 8.76533 11.989 8.80163C12.0402 8.84748 12.0868 8.90288 12.1349 8.95446C12.198 8.87422 12.207 8.72521 12.3363 8.71948C12.3483 8.75005 12.3649 8.78635 12.3769 8.82455C12.3889 8.86658 12.3964 8.91052 12.4055 8.94682C12.4716 8.97738 12.5317 8.9984 12.5874 9.0347C12.6505 9.07481 12.658 9.17415 12.6084 9.24102C12.5889 9.26585 12.5633 9.28305 12.5423 9.30597C12.5257 9.32316 12.5122 9.34227 12.4927 9.36328C12.4881 9.41486 12.4866 9.47026 12.4761 9.52375C12.4461 9.6785 12.3408 9.73963 12.2341 9.65557C12.1755 9.60972 12.1273 9.54095 12.0627 9.47026H12.0642ZM12.3288 9.51038C12.3423 9.44925 12.3513 9.39003 12.3694 9.33463C12.3904 9.27158 12.419 9.21236 12.4476 9.13786C12.4025 9.11302 12.3634 9.06908 12.3288 9.07672C12.2326 9.09583 12.1454 9.04043 12.0537 9.03279C12.0356 9.03279 12.0161 9.04425 11.992 9.05189C11.9815 9.13022 11.971 9.20663 11.9605 9.28305C12.0792 9.29642 12.0792 9.29451 12.1875 9.20472C12.2055 9.18944 12.2446 9.19326 12.2611 9.20854C12.2777 9.22573 12.2792 9.26967 12.2822 9.30215C12.2822 9.31552 12.2672 9.33081 12.2611 9.34609C12.2341 9.41104 12.2561 9.46581 12.3273 9.51038H12.3288Z" fill="black"/>
<path d="M13.3661 6.07754L13.3601 6.10046L13.339 6.07754C13.339 6.07754 13.348 6.06226 13.3525 6.06226C13.3571 6.06226 13.3616 6.07181 13.3661 6.07754Z" fill="black"/>
<path d="M9.19586 9.60411L9.21841 9.55444C9.23194 9.56591 9.24698 9.57546 9.256 9.59074C9.259 9.59647 9.24547 9.62895 9.24247 9.62895C9.22743 9.62513 9.2124 9.61367 9.19586 9.60411Z" fill="black"/>
<path d="M13.321 7.9574C14.2824 7.9574 15.0618 7.25262 15.0618 6.38324C15.0618 5.51386 14.2824 4.80908 13.321 4.80908C12.3595 4.80908 11.5801 5.51386 11.5801 6.38324C11.5801 7.25262 12.3595 7.9574 13.321 7.9574Z" fill="#3F6B68" stroke="#FCFCFC" stroke-miterlimit="10"/>
<path d="M14.9115 10.2499C15.6588 10.2499 16.2645 9.52284 16.2645 8.62602C16.2645 7.72921 15.6588 7.0022 14.9115 7.0022C14.1643 7.0022 13.5585 7.72921 13.5585 8.62602C13.5585 9.52284 14.1643 10.2499 14.9115 10.2499Z" fill="#3F6B68" stroke="#FCFCFC" stroke-miterlimit="10"/>
<path d="M12.431 10.4409C13.1368 10.4409 13.7089 9.67111 13.7089 8.72154C13.7089 7.77198 13.1368 7.0022 12.431 7.0022C11.7253 7.0022 11.1532 7.77198 11.1532 8.72154C11.1532 9.67111 11.7253 10.4409 12.431 10.4409Z" fill="#3F6B68" stroke="#FCFCFC" stroke-miterlimit="10"/>
<path d="M10.9908 7.76648C11.5787 7.76648 12.0552 7.14724 12.0552 6.38336C12.0552 5.61949 11.5787 5.00024 10.9908 5.00024C10.403 5.00024 9.92648 5.61949 9.92648 6.38336C9.92648 7.14724 10.403 7.76648 10.9908 7.76648Z" fill="#3F6B68" stroke="#FCFCFC" stroke-miterlimit="10"/>
<path d="M9.48751 11.014C10.0753 11.014 10.5519 10.3948 10.5519 9.63092C10.5519 8.86705 10.0753 8.2478 9.48751 8.2478C8.89969 8.2478 8.42316 8.86705 8.42316 9.63092C8.42316 10.3948 8.89969 11.014 9.48751 11.014Z" fill="#3F6B68" stroke="#FCFCFC" stroke-miterlimit="10"/>
</g>
<defs>
<clipPath id="clip0_34_20004">
<rect width="21" height="22" fill="white" transform="translate(0 0.249023)"/>
</clipPath>
</defs>
</svg>
