<svg width="26" height="26" viewBox="0 0 26 26" fill="none" xmlns="http://www.w3.org/2000/svg">
<g clip-path="url(#clip0_518_4286)">
<path d="M25.0011 16.84C24.914 16.7197 24.7733 16.6461 24.6258 16.6461C23.3524 16.6461 22.4945 16.0108 21.5026 15.2751C21.2882 15.1146 21.0737 14.9541 20.8458 14.8003C19.9343 14.165 18.7883 13.5229 17.1395 13.5229C16.4425 13.5229 15.8795 13.5229 15.4238 13.543H11.9185C11.1478 13.543 10.5245 14.165 10.5245 14.9341C10.5245 15.7031 11.1478 16.3251 11.9185 16.3251H15.1691C15.6047 16.412 15.9197 16.7932 15.9197 17.2346C15.9197 17.5556 15.7522 17.8499 15.4774 18.0171C15.3031 18.0639 14.8474 18.1843 14.271 18.3381C13.8555 18.4384 13.4332 18.5521 13.0378 18.6658L12.9507 18.6858C10.6988 19.2811 9.94141 19.475 9.72024 19.5285C9.6197 19.5285 9.53258 19.5285 9.45885 19.5151L4.35851 16.2181L3.42691 15.5493C3.42691 15.5493 3.3934 15.5226 3.3733 15.5159C3.32638 15.4891 3.27947 15.4624 3.22585 15.4356C3.12532 15.3821 3.03149 15.3487 2.93096 15.3153C2.85723 15.2952 2.77681 15.2751 2.68298 15.2617C2.4551 15.2283 2.26744 15.235 2.07308 15.2684C1.06776 15.3688 0.303711 16.198 0.303711 17.2079C0.303711 17.7228 0.504776 18.211 0.873394 18.5788C0.880096 18.5855 0.886798 18.5989 0.900203 18.6056C1.03425 18.7393 1.18169 18.8464 1.34254 18.9333L9.80066 25.0525C9.84088 25.0793 9.88109 25.106 9.928 25.1194L9.99503 25.1462H10.0151C10.2698 25.2398 10.5111 25.2866 10.7457 25.2866C10.8864 25.2866 11.0339 25.2732 11.1813 25.2465C11.188 25.2465 11.2014 25.2465 11.2081 25.2465H11.2416C16.6033 23.8755 20.437 22.9058 22.3404 22.4443C22.3605 22.4443 22.3739 22.4376 22.394 22.431L22.5616 22.3708C23.4865 22.1434 24.1902 22.0163 24.6124 22.0163C24.8671 22.0163 25.0749 21.809 25.0749 21.5549V21.2472C25.0749 21.2472 25.0816 21.187 25.0816 21.1603V17.2212C25.095 17.1009 25.0682 16.9671 24.9944 16.8668L25.0011 16.84ZM24.1567 21.0934C23.6808 21.1469 23.0709 21.2606 22.3203 21.4546C22.3069 21.4546 22.2801 21.4679 22.2667 21.4746L22.1058 21.5348C20.189 22.0029 16.3621 22.9727 11.0205 24.3236H10.9936C10.7725 24.3704 10.5714 24.357 10.3234 24.2768L1.85861 18.1575C1.85861 18.1575 1.8184 18.1308 1.79829 18.1174C1.71116 18.0706 1.63074 18.0104 1.55031 17.9368L1.53691 17.9234C1.34254 17.7295 1.22861 17.4754 1.22861 17.2012C1.22861 16.6662 1.63744 16.2248 2.17361 16.1846C2.19372 16.1846 2.20712 16.1846 2.22723 16.178C2.32106 16.1579 2.40819 16.1512 2.53553 16.1713C2.57574 16.178 2.62266 16.1847 2.65617 16.198C2.70308 16.2114 2.75 16.2315 2.80361 16.2582C2.83042 16.2716 2.86393 16.2917 2.89074 16.305C2.89074 16.305 2.90415 16.3117 2.91085 16.3184L3.81564 16.9738C3.81564 16.9738 3.82904 16.9805 3.83575 16.9872L9.01651 20.3377C9.05672 20.3645 9.11034 20.3845 9.15726 20.3979C9.34492 20.4447 9.55268 20.4581 9.80066 20.4447C9.82747 20.4447 9.85428 20.4447 9.88109 20.4313C10.1157 20.3778 11.2282 20.0903 13.1718 19.5753L13.2724 19.5486C13.6745 19.4349 14.0833 19.3212 14.4922 19.2275C15.1624 19.047 15.6717 18.9199 15.7723 18.8865C15.8058 18.8798 15.846 18.8597 15.8795 18.8464C16.476 18.5187 16.8446 17.8967 16.8446 17.2279C16.8446 16.3117 16.1878 15.5426 15.283 15.3955C15.2562 15.3955 15.2361 15.3955 15.2093 15.3955H11.9185C11.6639 15.3955 11.4561 15.1882 11.4561 14.9341C11.4561 14.6799 11.6639 14.4726 11.9185 14.4726H15.4372C15.8996 14.4592 16.4559 14.4525 17.1395 14.4525C18.5269 14.4525 19.4853 14.9876 20.3163 15.5627C20.5308 15.7098 20.7453 15.8703 20.9463 16.0241C21.8712 16.713 22.8296 17.4152 24.1567 17.5556V21.0934Z" fill="#272525"/>
<path d="M16.2821 0.956271V0.929521C16.2754 0.688764 16.081 0.494821 15.8398 0.481445H15.7928C12.5423 0.481445 9.70059 2.461 8.51431 5.35677C8.29984 4.07942 7.70335 2.86226 6.73153 1.89255C6.69802 1.85911 6.66451 1.83236 6.631 1.79892C6.6176 1.78554 6.60419 1.77217 6.58409 1.75879C6.40983 1.59829 6.13504 1.59829 5.95408 1.74542L5.92728 1.77217C3.53461 4.15967 3.42737 8.0051 5.6793 10.533L5.6994 10.5531L2.87109 13.3753L3.35365 13.8568L6.18196 11.0346L6.20206 11.0547C7.41515 12.1381 8.94324 12.6731 10.4579 12.6731C12.1 12.6731 13.7286 12.0511 14.9752 10.8072C14.9752 10.8072 14.9953 10.7872 14.9953 10.7805C15.1628 10.6066 15.1494 10.3257 14.9953 10.1452C14.9886 10.1385 14.9819 10.1318 14.9752 10.1184C13.9296 9.07513 12.6026 8.46655 11.2153 8.29935C14.1977 7.17582 16.2821 4.32018 16.2754 0.949584L16.2821 0.956271ZM13.9766 10.4662C11.9257 12.1983 8.86282 12.1782 6.81866 10.3592C6.79856 10.3391 6.77175 10.319 6.75164 10.299C6.73824 10.2856 6.72483 10.2722 6.71143 10.2655C6.69132 10.2455 6.66451 10.2187 6.6377 10.1987C6.6176 10.1853 6.60419 10.1652 6.57068 10.1318C6.52377 10.085 6.48355 10.0382 6.44334 9.99134L6.36962 9.91109C4.54663 7.87134 4.53323 4.80838 6.27579 2.75526C7.95133 4.62113 8.14569 7.40989 6.70473 9.48976C6.57738 9.67702 6.59749 9.92446 6.75834 10.0783C6.91919 10.2388 7.16717 10.2588 7.34813 10.1318C9.39229 8.72068 12.1134 8.88118 13.9766 10.4528V10.4662ZM8.86282 7.87134C8.88293 7.61721 8.91644 7.3497 8.96335 7.07551C9.53974 3.93898 12.1804 1.62504 15.3304 1.41772C15.1092 4.88863 12.3613 7.64396 8.85612 7.87134H8.86282Z" fill="#272525"/>
</g>
<defs>
<clipPath id="clip0_518_4286">
<rect width="24.7913" height="24.7913" fill="white" transform="translate(0.303711 0.481445)"/>
</clipPath>
</defs>
</svg>
