<svg width="25" height="25" viewBox="0 0 25 25" fill="none" xmlns="http://www.w3.org/2000/svg">
<g clip-path="url(#clip0_62_22974)">
<path d="M24.9104 16.495C24.8208 16.3736 24.681 16.3007 24.5305 16.3007C23.2476 16.3007 22.3803 15.6596 21.3804 14.9164C21.1618 14.7561 20.9432 14.5959 20.721 14.4356C19.8036 13.7993 18.6425 13.1436 16.9832 13.1436C16.2808 13.1436 15.711 13.1484 15.2523 13.163H11.7188C10.9447 13.163 10.3139 13.7896 10.3139 14.5667C10.3139 15.3439 10.9447 15.9704 11.7188 15.9704H14.9943C15.4315 16.0579 15.7468 16.4416 15.7468 16.8885C15.7468 17.209 15.5784 17.5053 15.3025 17.6802C15.1233 17.7288 14.6646 17.8502 14.084 18.0008C13.6683 18.1028 13.2418 18.2145 12.8369 18.331L12.7509 18.3553C10.4788 18.9528 9.71545 19.1519 9.49326 19.2053C9.38933 19.2053 9.29974 19.2053 9.22807 19.1956L4.08544 15.8684L3.1465 15.1933C3.1465 15.1933 3.11067 15.169 3.09275 15.1593C3.04616 15.1301 2.99599 15.101 2.94581 15.0767C2.84547 15.0233 2.74871 14.9844 2.64478 14.9553C2.56952 14.9359 2.49068 14.9164 2.39751 14.9019C2.16815 14.8679 1.97821 14.8727 1.78111 14.9116C0.763331 15.0136 0 15.849 0 16.869C0 17.3887 0.204272 17.8793 0.576978 18.2485C0.584146 18.2582 0.594897 18.2679 0.602064 18.2728C0.738245 18.4039 0.888761 18.5156 1.04645 18.5982L9.57569 24.7668C9.61511 24.796 9.65811 24.8203 9.7047 24.8348L9.77638 24.864L9.79788 24.8737C10.0523 24.9611 10.296 25.0048 10.5361 25.0048C10.6795 25.0048 10.83 24.9903 10.9769 24.9611C10.9877 24.9611 10.9984 24.9611 11.0056 24.9563L11.0414 24.9465C16.4457 23.572 20.3161 22.6005 22.237 22.1294C22.2549 22.1294 22.2728 22.1197 22.2907 22.1148L22.4591 22.0517C23.3909 21.8185 24.1041 21.6971 24.5234 21.6971C24.7814 21.6971 24.9928 21.4882 24.9928 21.2308V20.9199C24.9964 20.8908 25 20.8616 25 20.8325L24.9928 16.8593C25.0143 16.7379 24.9857 16.6067 24.9104 16.5047V16.495ZM24.0575 20.7791C23.5808 20.8325 22.9609 20.9491 22.2047 21.1385C22.1868 21.1385 22.1653 21.1482 22.1474 21.1579L21.9861 21.2162C20.0545 21.6922 16.1948 22.6637 10.8085 24.0334H10.7834C10.5576 24.082 10.3569 24.0674 10.1097 23.9848L1.56967 17.821C1.55175 17.8065 1.53025 17.7919 1.50874 17.7822C1.42274 17.7385 1.33673 17.6753 1.25788 17.6025C1.2543 17.6025 1.25072 17.5927 1.24355 17.5879C1.04286 17.3936 0.93535 17.1313 0.93535 16.8593C0.93535 16.3202 1.34389 15.8782 1.88862 15.8296C1.90654 15.8296 1.92446 15.8296 1.94237 15.8199C2.03555 15.8004 2.12873 15.7956 2.25057 15.815C2.29358 15.8199 2.33658 15.8296 2.37242 15.8393C2.41901 15.8539 2.4656 15.8733 2.52294 15.9024C2.55161 15.917 2.58386 15.9364 2.61253 15.951C2.6197 15.951 2.62686 15.9607 2.63045 15.9656L3.54429 16.6262C3.54429 16.6262 3.55863 16.6359 3.5658 16.6407L8.79444 20.0213C8.83744 20.0505 8.88762 20.0699 8.93779 20.0845C9.12414 20.1282 9.33558 20.1476 9.59002 20.1331C9.61869 20.1331 9.64378 20.1282 9.67245 20.1233C9.90897 20.0699 11.0271 19.7785 12.9946 19.2588L13.0913 19.2345C13.4963 19.1179 13.9084 19.0062 14.3205 18.909C14.9978 18.7293 15.5067 18.5933 15.6142 18.5642C15.6501 18.5545 15.6859 18.5399 15.7182 18.5205C16.3202 18.1902 16.6894 17.5636 16.6894 16.8836C16.6894 15.9607 16.0264 15.1836 15.1161 15.0379C15.091 15.0379 15.0659 15.033 15.0409 15.033H11.7223C11.4643 15.033 11.2565 14.8241 11.2565 14.5667C11.2565 14.3093 11.4643 14.1004 11.7223 14.1004H15.2702C15.7325 14.0859 16.2952 14.081 16.9868 14.081C18.3845 14.081 19.3521 14.6201 20.1871 15.203C20.4057 15.3536 20.6171 15.509 20.825 15.6644C21.7603 16.3542 22.7208 17.0682 24.0611 17.209V20.2934L24.0682 20.7499C24.0682 20.7499 24.0682 20.7694 24.0682 20.7791H24.0575Z" fill="black"/>
<path d="M16.1124 0.480863V0.456577C16.1052 0.213717 15.9117 0.0145716 15.668 0H15.6178C12.3423 0 9.47177 1.99145 8.27481 4.92034C8.05978 3.63318 7.45772 2.40917 6.47937 1.42802C6.44711 1.39402 6.41128 1.36487 6.37544 1.33573C6.3611 1.32116 6.34677 1.31144 6.32885 1.29687C6.15683 1.13658 5.8773 1.13173 5.69812 1.28716C5.68736 1.29687 5.67661 1.30659 5.66945 1.3163C3.25761 3.72547 3.14651 7.60152 5.42217 10.1467L5.44009 10.1661L2.59103 13.0076L3.07842 13.4933L5.93106 10.647L5.95256 10.6664C7.17819 11.7593 8.7156 12.2984 10.2459 12.2984C11.8979 12.2984 13.5465 11.667 14.7972 10.4187C14.7972 10.4187 14.8151 10.3993 14.8187 10.3944C14.9835 10.2195 14.9764 9.93297 14.8187 9.75325C14.8115 9.74354 14.8043 9.73868 14.7972 9.72897C13.7436 8.67981 12.3997 8.05809 11.0056 7.89295C14.0088 6.76122 16.1124 3.88576 16.1124 0.480863ZM13.7901 10.0738C11.7188 11.8176 8.63318 11.803 6.57254 9.96697C6.55104 9.94754 6.52595 9.92811 6.50445 9.90868C6.49012 9.89897 6.47578 9.8844 6.46145 9.87468C6.43994 9.8504 6.41486 9.83097 6.38977 9.80668C6.37185 9.79211 6.35394 9.77754 6.32168 9.74354C6.27509 9.69982 6.23567 9.65125 6.19267 9.60268L6.12099 9.52011C4.27896 7.46066 4.26821 4.37634 6.02423 2.30717C7.71575 4.19176 7.90927 6.99922 6.45786 9.09753C6.32885 9.28211 6.35394 9.53468 6.51162 9.69497C6.67289 9.85526 6.92375 9.87954 7.1101 9.7484C9.17432 8.3301 11.9159 8.48553 13.7937 10.069L13.7901 10.0738ZM8.63318 7.4558C8.6511 7.19837 8.68693 6.93122 8.73711 6.65436C9.31767 3.49233 11.9804 1.15601 15.1591 0.952011C14.9369 4.45405 12.1667 7.23237 8.63318 7.46066V7.4558Z" fill="#3F6B68"/>
</g>
<defs>
<clipPath id="clip0_62_22974">
<rect width="25" height="25" fill="white"/>
</clipPath>
</defs>
</svg>
