<svg width="21" height="25" viewBox="0 0 21 25" fill="none" xmlns="http://www.w3.org/2000/svg">
<g clip-path="url(#clip0_34_19975)">
<path d="M17.9731 16.827C18.0003 17.1201 18.0547 18.1652 17.1424 18.9973C16.1558 19.8967 14.2442 20.3628 13.1397 19.7001C12.4052 19.2594 12.3073 18.4893 12.2891 18.3436C12.2819 18.289 12.1785 17.3259 13.0454 16.6103C13.0454 16.6103 14.2243 15.6363 16.2755 16.0405C16.3136 16.0477 16.3517 16.0568 16.3553 16.0568C17.224 16.2462 17.7808 16.6741 17.9749 16.827C18.412 17.1693 18.7729 17.6154 18.9089 17.9686C19.3968 19.2449 17.5142 20.889 16.1359 21.7138C13.4662 23.3087 10.2506 23.2832 8.79247 23.2723C5.95233 23.2504 4.17679 22.6332 4.00268 22.97C3.83583 23.2959 5.26678 24.2882 6.99698 24.7543C7.70248 24.9437 8.27377 24.9965 13.4571 24.7033C17.3836 24.4812 15.7042 24.5267 16.8613 24.4776C19.3677 24.3683 19.9844 24.4685 20.5176 24.0752C21.156 23.6055 20.8295 22.9791 20.8331 20.8835C20.8386 17.3841 21.02 16.5411 20.4233 14.9772C20.1403 14.2343 19.7704 13.3567 18.9107 12.816C17.808 12.1223 16.7634 12.5502 16.232 11.8783C16.0597 11.6599 16.0706 11.4905 16.105 10.6712C16.1286 10.1032 16.1975 8.46818 16.1993 7.66343C16.2011 6.58739 16.2138 6.04665 16.0415 5.55324C15.6298 4.36978 14.8681 3.95467 14.9389 3.08983C14.9896 2.46716 15.443 1.94644 15.9781 1.53132L15.6317 1.3802C10.3377 -0.329436 4.60118 1.3802 4.60118 1.3802L4.66465 1.85722C4.66465 1.85722 5.86165 3.69249 5.57872 3.39025C5.55877 3.37022 5.53338 3.36294 5.52975 3.36294C5.4826 3.34291 5.09267 3.63058 4.75896 4.24598C4.63745 4.47174 4.49599 4.79219 4.41256 5.20184C4.4851 6.37073 4.52138 7.60516 4.50687 8.89604C4.49417 10.1232 4.43795 11.2994 4.34908 12.4136C3.91925 12.4227 3.48761 12.43 3.05778 12.4391C2.68417 12.5356 2.02401 12.7486 1.38743 13.2184C0.783489 13.6644 0.469731 14.1415 0.315573 14.4255L0.090683 22.7679C0.475172 24.0096 1.1444 24.4466 1.60325 24.6269C2.25434 24.8818 2.81475 24.7507 4.37629 24.7106C5.49167 24.6815 6.4003 24.7179 6.99154 24.7525" fill="#FAFCFC"/>
<path d="M17.9731 16.827C18.0003 17.1201 18.0547 18.1652 17.1424 18.9973C16.1558 19.8967 14.2442 20.3628 13.1397 19.7001C12.4052 19.2594 12.3073 18.4893 12.2891 18.3436C12.2819 18.289 12.1785 17.3259 13.0454 16.6103C13.0454 16.6103 14.2243 15.6363 16.2755 16.0405C16.3136 16.0477 16.3517 16.0568 16.3553 16.0568C17.224 16.2462 17.7808 16.6741 17.9749 16.827C18.412 17.1693 18.7729 17.6154 18.9089 17.9686C19.3968 19.2449 17.5142 20.889 16.1359 21.7138C13.4662 23.3087 10.2506 23.2832 8.79247 23.2723C5.95233 23.2504 4.17679 22.6332 4.00268 22.97C3.83583 23.2959 5.26678 24.2882 6.99698 24.7543C7.70248 24.9437 8.27377 24.9965 13.4571 24.7033C17.3836 24.4812 15.7042 24.5267 16.8613 24.4776C19.3677 24.3683 19.9844 24.4685 20.5176 24.0752C21.156 23.6055 20.8295 22.9791 20.8331 20.8835C20.8386 17.3841 21.02 16.5411 20.4233 14.9772C20.1403 14.2343 19.7704 13.3567 18.9107 12.816C17.808 12.1223 16.7634 12.5502 16.232 11.8783C16.0597 11.6599 16.0706 11.4905 16.105 10.6712C16.1286 10.1032 16.1975 8.46818 16.1993 7.66343C16.2011 6.58739 16.2138 6.04665 16.0415 5.55324C15.6298 4.36978 14.8681 3.95467 14.9389 3.08983C14.9896 2.46716 15.443 1.94644 15.9781 1.53132L15.6317 1.3802C10.3377 -0.329436 4.60118 1.3802 4.60118 1.3802L4.66465 1.85722C4.66465 1.85722 5.86165 3.69249 5.57872 3.39025C5.55877 3.37022 5.53338 3.36294 5.52975 3.36294C5.4826 3.34291 5.09267 3.63058 4.75896 4.24598C4.63745 4.47174 4.49599 4.79219 4.41256 5.20184C4.4851 6.37073 4.52138 7.60516 4.50687 8.89604C4.49417 10.1232 4.43795 11.2994 4.34908 12.4136C3.91925 12.4227 3.48761 12.43 3.05778 12.4391C2.68417 12.5356 2.02401 12.7486 1.38743 13.2184C0.783489 13.6644 0.469731 14.1415 0.315573 14.4255L0.090683 22.7679C0.475172 24.0097 1.1444 24.4466 1.60325 24.6269C2.25434 24.8818 2.81475 24.7507 4.37629 24.7106C5.49167 24.6815 6.4003 24.7179 6.99154 24.7525" stroke="black" stroke-width="0.75" stroke-miterlimit="10"/>
<path d="M12.1477 17.8027C11.7015 17.841 11.045 17.9029 10.2561 18.0012C8.73988 18.1905 7.74238 18.3162 6.58166 18.653C5.84533 18.866 5.05459 19.0918 4.18042 19.6052C3.29718 20.1241 2.12014 20.816 2.23439 21.6845C2.34321 22.5274 3.60187 23.0263 3.84127 23.1174" fill="#FAFCFC"/>
<path d="M12.1477 17.8027C11.7015 17.841 11.045 17.9029 10.2561 18.0012C8.73988 18.1905 7.74238 18.3162 6.58166 18.653C5.84533 18.866 5.05459 19.0918 4.18042 19.6052C3.29718 20.1241 2.12014 20.816 2.23439 21.6845C2.34321 22.5274 3.60187 23.0263 3.84127 23.1174" stroke="black" stroke-width="0.75" stroke-miterlimit="10"/>
<path d="M16.6799 16.0259C16.689 15.9002 16.6981 15.7309 16.7035 15.5343C16.7144 15.1155 16.6926 15.0245 16.6038 14.9571C16.495 14.8752 16.3009 14.8406 16.1504 14.8916C16.0651 14.9207 16.0143 14.968 15.9835 14.999C15.9055 15.0755 15.8656 15.1701 15.8402 15.4341C15.8294 15.5452 15.8221 15.6909 15.8294 15.8657" fill="#FAFCFC"/>
<path d="M16.6799 16.0259C16.689 15.9002 16.6981 15.7309 16.7035 15.5343C16.7144 15.1155 16.6926 15.0245 16.6038 14.9571C16.495 14.8752 16.3009 14.8406 16.1504 14.8916C16.0651 14.9207 16.0143 14.968 15.9835 14.999C15.9055 15.0755 15.8656 15.1701 15.8402 15.4341C15.8294 15.5452 15.8221 15.6909 15.8294 15.8657" stroke="black" stroke-miterlimit="10"/>
<path d="M5.57509 3.39015C5.57509 3.39015 6.83556 4.29504 6.74125 4.64643C6.74125 4.64643 9.92417 2.9368 13.896 4.64643C13.896 4.64643 14.85 3.05696 14.9461 3.39015" fill="#3F6B68"/>
<path d="M5.57509 3.39015C5.57509 3.39015 6.83556 4.29504 6.74125 4.64643C6.74125 4.64643 9.92417 2.9368 13.896 4.64643C13.896 4.64643 14.85 3.05696 14.9461 3.39015" stroke="#FCFCFC" stroke-miterlimit="10"/>
<path d="M8.95751 10.0011C8.86683 9.96467 7.07496 9.2018 6.94076 7.58866C6.84645 6.46529 7.59366 5.38561 8.85413 4.82666C8.86864 4.97596 8.90673 5.10705 8.95932 5.22175C9.50523 6.41431 11.8611 6.62733 12.1477 6.651C12.1477 6.651 14.9679 7.87451 13.9595 8.75391C13.9595 8.75391 12.3635 10.4035 11.6906 10.3707L9.449 10.0684L8.95932 10.0029L8.95751 10.0011Z" fill="#FAFCFC" stroke="black" stroke-width="0.75" stroke-miterlimit="10"/>
<path d="M9.35651 10.2268C9.35651 10.2268 9.82987 11.7598 7.33976 12.3388L6.71043 12.3552L4.34546 12.4153" fill="#FAFCFC"/>
<path d="M9.35651 10.2268C9.35651 10.2268 9.82987 11.7598 7.33976 12.3388L6.71043 12.3552L4.34546 12.4153" stroke="black" stroke-width="0.75" stroke-miterlimit="10"/>
<path d="M6.75214 12.481C7.0532 12.8415 7.43406 13.2439 7.91104 13.6572C8.4769 14.1469 9.03912 14.5311 9.53061 14.8261C9.53061 14.8261 10.7439 15.6563 11.6417 14.2598C11.6417 14.2598 13.2486 13.1783 13.6113 12.2625C14.5399 12.2243 15.4666 12.1842 16.3952 12.146" fill="#FAFCFC"/>
<path d="M6.75214 12.481C7.0532 12.8415 7.43406 13.2439 7.91104 13.6572C8.4769 14.1469 9.03912 14.5311 9.53061 14.8261C9.53061 14.8261 10.7439 15.6563 11.6417 14.2598C11.6417 14.2598 13.2486 13.1783 13.6113 12.2625C14.5399 12.2243 15.4666 12.1842 16.3952 12.146" stroke="black" stroke-width="0.75" stroke-miterlimit="10"/>
<path d="M12.3816 10.2268C12.3816 10.2268 14.2007 12.0293 14.1753 12.1622L12.3816 10.2268Z" fill="#FAFCFC"/>
<path d="M12.3816 10.2268C12.3816 10.2268 14.2007 12.0293 14.1753 12.1622" stroke="black" stroke-width="0.75" stroke-miterlimit="10"/>
<path d="M0.469727 17.1128C0.469727 17.1128 2.92719 18.1943 4.34545 17.4387C4.34545 17.4387 4.84964 16.9453 4.75533 15.4451L4.98203 19.1975" fill="#FAFCFC"/>
<path d="M0.469727 17.1128C0.469727 17.1128 2.92719 18.1943 4.34545 17.4387C4.34545 17.4387 4.84964 16.9453 4.75533 15.4451L4.98203 19.1975" stroke="black" stroke-width="0.75" stroke-miterlimit="10"/>
<path d="M18.9379 18.0613H20.8585" stroke="black" stroke-width="0.75" stroke-miterlimit="10"/>
<path d="M13.9486 4.64643C13.1941 4.33145 11.8539 3.88538 10.14 3.91815C8.61655 3.94728 7.41774 4.34237 6.6941 4.64643L4.51775 1.36917C5.53156 0.873942 7.59729 0.0364207 10.3214 0.094683C12.9693 0.151125 14.9515 1.0287 15.9436 1.55124C15.278 2.58358 14.6142 3.61409 13.9486 4.64643Z" fill="#3F6B68" stroke="#FCFCFC" stroke-width="0.75" stroke-miterlimit="10"/>
</g>
<defs>
<clipPath id="clip0_34_19975">
<rect width="21" height="25" fill="white"/>
</clipPath>
</defs>
</svg>
