<svg width="24" height="24" viewBox="0 0 24 24" fill="none" xmlns="http://www.w3.org/2000/svg">
<path d="M11.5828 0.586134C10.8797 1.11582 9.97031 1.52832 9.02344 1.74395C8.64844 1.83301 8.40938 1.84238 6.76406 1.86113C5.75156 1.8752 4.92188 1.88926 4.92188 1.89395C4.92188 1.89863 4.78594 2.8127 4.62188 3.91895C3.89531 8.74707 3.375 12.7221 3.375 13.4439C3.375 14.0955 4.18125 14.9533 5.85 16.083L6.46875 16.5049L6.39844 16.6314C6.36094 16.7018 5.75156 17.6439 5.04375 18.7268C4.34063 19.8096 3.76406 20.7002 3.77344 20.7096C3.77813 20.7143 4.55625 20.6252 5.50313 20.5033C6.45 20.3861 7.2375 20.3018 7.25156 20.3111C7.26563 20.3252 7.56563 21.108 7.91719 22.0549L8.56406 23.7705L9.84844 21.4127L11.1375 19.0549L11.3672 19.0783C11.4984 19.0924 11.7797 19.1018 12 19.1018C12.2203 19.1018 12.5016 19.0924 12.6328 19.0783L12.8625 19.0549L14.1516 21.4127L15.4359 23.7705L16.0828 22.0549C16.4344 21.108 16.7391 20.3252 16.7531 20.3111C16.7672 20.2971 17.5547 20.3814 18.5016 20.4986C19.4484 20.6205 20.2266 20.7096 20.2313 20.7049C20.2359 20.7002 19.6594 19.8096 18.9563 18.7268C18.2484 17.6439 17.6391 16.7018 17.6016 16.6314L17.5313 16.5049L18.15 16.083C19.8188 14.9533 20.625 14.0955 20.625 13.4439C20.625 12.7221 20.0953 8.68145 19.3781 3.91895C19.2141 2.81738 19.0781 1.90332 19.0781 1.89863C19.0781 1.88926 18.2625 1.8752 17.2641 1.86582C15.3188 1.84238 15.0984 1.81895 14.25 1.54707C13.7578 1.3877 12.8531 0.914259 12.4078 0.586134C12.1828 0.417385 11.9953 0.281446 11.9859 0.286135C11.9813 0.286135 11.7984 0.422071 11.5828 0.586134ZM12.3094 1.43457C12.9938 1.89395 13.9922 2.30176 14.9016 2.49395C15.2812 2.57363 15.5859 2.59238 16.8891 2.61113C18.4125 2.63457 18.4219 2.63457 18.4453 2.7377C18.4781 2.89707 19.1016 7.14863 19.3078 8.64863C19.575 10.5658 19.7672 12.1502 19.8328 12.8955L19.8891 13.5377L19.7672 13.7439C19.3922 14.3908 17.6063 15.6518 15 17.1189C13.0875 18.1971 12.6656 18.3752 12 18.3752C11.3531 18.3752 10.9688 18.2158 9.21563 17.2408C6.54844 15.7549 4.61719 14.4002 4.23281 13.7486L4.11094 13.5377L4.16719 12.8955C4.23281 12.1314 4.43438 10.5049 4.69219 8.64863C4.90781 7.09707 5.52188 2.8877 5.55469 2.7377C5.57812 2.63457 5.5875 2.63457 7.11094 2.61113C8.82188 2.5877 9.09844 2.5502 10.0594 2.22676C10.6875 2.01582 11.6438 1.51895 11.9813 1.22363C11.9859 1.21895 12.1313 1.31738 12.3094 1.43457ZM7.9875 17.4096C8.45625 17.6814 9.17344 18.0799 9.58594 18.3002C9.99844 18.5205 10.3594 18.7174 10.3875 18.7361C10.425 18.7596 10.1719 19.2705 9.58125 20.3439C9.10781 21.2064 8.70938 21.9096 8.69063 21.9049C8.67188 21.9002 8.45156 21.3518 8.20312 20.6861C7.77656 19.5471 7.74375 19.4768 7.63594 19.4861C7.575 19.4955 7.01719 19.5611 6.40313 19.6408C5.78438 19.7158 5.27813 19.7768 5.27344 19.7674C5.25938 19.7533 7.09688 16.9268 7.12031 16.9221C7.12969 16.9221 7.51875 17.1424 7.9875 17.4096ZM17.8172 18.3424C18.3234 19.1205 18.7313 19.7627 18.7313 19.7674C18.7266 19.7721 18.2484 19.7158 17.6719 19.6408C17.0906 19.5705 16.5328 19.5002 16.4344 19.4908L16.2516 19.4768L15.7969 20.6861C15.5484 21.3518 15.3281 21.9002 15.3094 21.9049C15.2906 21.9096 14.8922 21.2064 14.4188 20.3439C13.8281 19.2705 13.575 18.7596 13.6125 18.7361C13.6406 18.7174 14.0438 18.4971 14.5031 18.2486C14.9672 18.0002 15.6844 17.6018 16.0969 17.3627C16.5141 17.1189 16.8609 16.9221 16.875 16.9221C16.8891 16.9268 17.3109 17.5643 17.8172 18.3424Z" fill="black"/>
<path d="M11.5406 2.39088C10.8469 2.78932 9.8625 3.12682 8.92969 3.2862C8.75157 3.31901 8.0625 3.35651 7.40625 3.37057L6.21094 3.39869L6.10782 4.10182C5.57813 7.65026 4.9875 12.0049 4.89844 13.0362L4.87032 13.3878L5.18907 13.6924C6.075 14.5268 8.10469 15.8159 10.7391 17.2174C11.8172 17.794 12.2297 17.7706 13.5234 17.0768C16.0031 15.7456 17.9203 14.5221 18.7688 13.7299L19.1297 13.3924L19.1016 13.0362C19.0125 12.0049 18.4219 7.65026 17.8922 4.10182L17.7891 3.39869L16.5703 3.37057C15.9 3.35182 15.2156 3.31432 15.0469 3.2862C14.0578 3.10807 13.0266 2.74245 12.2906 2.30182C12.1547 2.22213 12.0188 2.15651 11.9859 2.1612C11.9531 2.16588 11.7516 2.26901 11.5406 2.39088ZM12.4688 3.23932C13.6641 3.82057 14.7 4.06432 16.2094 4.1112C16.7578 4.12526 17.1563 4.15807 17.1563 4.18151C17.1563 4.20963 17.3344 5.46588 17.55 6.97526C17.9719 9.89557 18.3281 12.6284 18.3281 12.9424C18.3281 13.1581 18.3047 13.1815 17.6344 13.6924C16.8 14.3253 15.2625 15.2768 13.6875 16.1346C12.3141 16.8846 12.3984 16.8471 12 16.8518H11.6484L10.7953 16.3924C8.64844 15.2393 6.87657 14.1378 5.95313 13.3737C5.7 13.1674 5.67657 13.1299 5.67657 12.9612C5.67188 12.5253 6.04219 9.72213 6.80625 4.4862L6.85782 4.12526H7.50938C9.00469 4.12526 10.3875 3.82057 11.5313 3.23932C11.775 3.11276 11.9859 3.01432 12 3.01901C12.0141 3.01901 12.225 3.12213 12.4688 3.23932Z" fill="black"/>
<path d="M11.5547 3.86247C11.4281 3.9234 11.2734 4.02184 11.2172 4.08278C11.1047 4.21403 8.45157 9.26247 8.2125 9.8109C7.78594 10.7906 7.76719 12.1312 8.16094 13.1203C9.12188 15.5343 11.9953 16.4812 14.1891 15.1125C14.8547 14.7 15.4547 14.0015 15.7734 13.2843C16.1813 12.3656 16.2328 11.1093 15.9094 10.125C15.7781 9.74059 12.9844 4.33122 12.7969 4.10622C12.6422 3.9234 12.2625 3.74997 12 3.74997C11.8781 3.74997 11.6906 3.79684 11.5547 3.86247ZM12.1734 4.57028C12.3094 4.66403 15.0328 9.89997 15.2109 10.4062C15.3422 10.7859 15.3516 10.8422 15.3469 11.5312C15.3469 12.1875 15.3328 12.2953 15.2203 12.6328C15.0422 13.1718 14.7938 13.5656 14.3672 13.9922C13.9406 14.4187 13.5469 14.6672 13.0078 14.8453C12.675 14.9531 12.5578 14.9672 12 14.9672C11.4422 14.9672 11.325 14.9531 10.9922 14.8453C10.4578 14.6672 10.0641 14.4234 9.63282 13.9922C8.97188 13.3359 8.68594 12.675 8.63907 11.7187C8.60625 11.0812 8.69532 10.5609 8.91094 10.0828C9.24844 9.33747 11.7375 4.63122 11.8266 4.57028C11.9531 4.48122 12.0469 4.48122 12.1734 4.57028Z" fill="#3F6B68"/>
<path d="M10.875 9V9.75H10.125H9.375V10.875V12H10.125H10.875V12.75V13.5H12H13.125V12.75V12H13.875H14.625V10.875V9.75H13.875H13.125V9V8.25H12H10.875V9ZM12.375 9.75V10.5H13.125H13.875V10.875V11.25H13.125H12.375V12V12.75H12H11.625V12V11.25H10.875H10.125V10.875V10.5H10.875H11.625V9.75V9H12H12.375V9.75Z" fill="#3F6B68"/>
</svg>
