<svg width="26" height="25" viewBox="0 0 26 25" fill="none" xmlns="http://www.w3.org/2000/svg">
<g clip-path="url(#clip0_518_4258)">
<path d="M0.303711 7.39381C0.394872 6.95168 0.431336 6.50499 0.545288 6.06742C0.732168 5.36092 0.991977 4.69088 1.35662 4.05731C1.47057 3.85676 1.64378 3.75192 1.87624 3.79295C2.10414 3.83397 2.22721 3.97983 2.26823 4.19861C2.30014 4.35359 2.22265 4.48121 2.15428 4.60884C1.54806 5.70733 1.25179 6.87875 1.27002 8.13222C1.29281 9.54977 1.69848 10.8488 2.51437 12.0066C2.70581 12.28 2.73771 12.5171 2.58274 12.8088C2.43232 13.0914 2.31381 13.3922 2.15884 13.7386C2.5326 13.6429 2.86534 13.5791 3.1844 13.4697C3.53537 13.3512 3.79974 13.4196 4.09601 13.6475C8.25752 16.8153 14.4109 14.3175 15.2177 9.13955C15.8285 5.21962 13.1346 1.59141 9.21471 1.06723C7.69688 0.862117 6.26109 1.14016 4.91646 1.86945C4.78884 1.93782 4.66121 2.01986 4.5108 2.00619C4.29201 1.97884 4.12792 1.86489 4.07778 1.6461C4.02308 1.40453 4.10969 1.21765 4.32392 1.09458C4.84809 0.789189 5.40418 0.55217 5.98305 0.378964C6.48444 0.228548 6.9995 0.123712 7.52367 0.0781319C7.56925 0.0781319 7.61483 0.0507835 7.66041 0.0371094H8.87286C9.39703 0.123712 9.92121 0.187525 10.4363 0.328825C13.595 1.19486 15.9561 4.01629 16.2432 7.2753C16.2843 7.75846 16.2797 8.24161 16.2569 8.72021C16.3526 8.7749 16.4529 8.74755 16.5486 8.74755C18.6727 8.74755 20.7922 8.74755 22.9162 8.74755C24.2381 8.74755 25.0904 9.60447 25.095 10.9309C25.095 13.9665 25.095 16.9976 25.095 20.0333C25.095 21.3551 24.2381 22.2075 22.9117 22.2121C22.661 22.2121 22.4148 22.2121 22.1414 22.2121C22.1414 22.7362 22.1414 23.2422 22.1414 23.7481C22.1414 23.9168 22.1414 24.0854 22.1414 24.2586C22.1505 24.4865 22.0775 24.6734 21.8633 24.7782C21.6445 24.8831 21.4576 24.8101 21.2844 24.6688C20.4731 24.0034 19.6618 23.3379 18.8504 22.677C18.6681 22.5266 18.4858 22.3807 18.2898 22.2166H18.0209C15.874 22.2166 13.7272 22.2166 11.5803 22.2166C10.2722 22.2166 9.41071 21.3597 9.41071 20.0561C9.41071 18.7798 9.41071 17.5081 9.41071 16.2319C9.41071 16.1453 9.4335 16.0541 9.3788 15.9584C7.22284 16.2136 5.25832 15.7031 3.48068 14.4132C2.88813 14.5682 2.29102 14.7232 1.68936 14.8781C1.63466 14.8918 1.57997 14.9055 1.52527 14.9192C1.29737 14.9921 1.09225 14.9784 0.932723 14.7824C0.768633 14.5864 0.809655 14.3813 0.909932 14.1716C1.13784 13.6748 1.36574 13.1734 1.59364 12.6766C1.62099 12.6173 1.64378 12.5581 1.67569 12.4943C1.14239 11.6921 0.759517 10.826 0.531614 9.89618C0.431337 9.49052 0.403988 9.07118 0.312827 8.66095V7.40293L0.303711 7.39381ZM21.175 23.2604C21.175 22.7681 21.175 22.2804 21.175 21.7927C21.175 21.4281 21.3619 21.2457 21.7311 21.2412C22.1368 21.2412 22.5379 21.2412 22.9436 21.2412C23.7002 21.2412 24.1287 20.8127 24.1332 20.0561C24.1332 17.0068 24.1332 13.9574 24.1332 10.9035C24.1332 10.1469 23.7048 9.71386 22.9527 9.71386C20.7557 9.71386 18.5633 9.71386 16.3663 9.71386C16.2797 9.71386 16.1885 9.69107 16.1202 9.73209C15.3088 12.7997 13.399 14.8007 10.377 15.7578V16.0177C10.377 17.3486 10.377 18.6796 10.377 20.0105C10.377 20.8173 10.7918 21.2366 11.594 21.2366C13.8229 21.2366 16.0472 21.2366 18.2761 21.2366C18.5223 21.2366 18.7228 21.3004 18.9143 21.46C19.5934 22.0297 20.2862 22.5858 20.9745 23.1465C21.0292 23.1875 21.0702 23.2558 21.175 23.2558V23.2604Z" fill="black"/>
<path d="M4.96776 8.77073L4.50283 8.05512C4.8538 7.84545 5.50105 7.66768 6.01155 7.63578C6.15285 7.55829 6.27136 7.43522 6.36252 7.29392C6.51294 7.05234 6.56308 6.79709 6.39443 6.54184C6.23034 6.29571 5.97964 6.21822 5.69705 6.25013C5.21845 6.30026 4.80822 6.52817 4.37521 6.79253L3.90117 6.08604C4.95864 5.12429 6.44457 5.39777 6.95507 6.62845C7.17386 7.15718 7.12372 7.6221 6.80009 8.14172C7.51115 8.80264 8.19486 8.8938 8.85122 8.40609V6.25013H7.7345C7.63878 6.0359 7.50659 5.86269 7.45645 5.62111H12.7438C12.835 5.80344 12.9489 5.98576 13.0218 6.23189H11.9234V11.7061C11.6544 11.7061 11.4448 11.5967 11.2032 11.5557V6.25468H9.57595V11.697C9.31158 11.7061 9.10191 11.5876 8.86034 11.5557V9.37695C8.37262 9.459 7.91682 9.44532 7.48836 9.17184C7.49748 9.3177 7.50659 9.43621 7.51571 9.55927C7.61143 10.5575 6.80009 11.2321 5.76997 11.1045C5.1911 11.0315 4.72162 10.758 4.31595 10.3524C3.80545 9.84643 3.44992 9.23565 3.13086 8.59753C3.22658 8.47446 3.35876 8.42888 3.49095 8.34683C3.56843 8.47902 3.64592 8.6112 3.72341 8.73883C4.00145 9.21286 4.32051 9.65955 4.77176 9.99229C5.3324 10.4025 5.96597 10.439 6.45824 10.0926C6.65424 9.95583 6.80009 9.7735 6.86847 9.54104C7.04167 8.93938 6.61777 8.42888 5.98876 8.48357C5.63779 8.51092 5.31417 8.63855 4.9632 8.77529L4.96776 8.77073Z" fill="black"/>
<path d="M3.46207 2.72236C3.46207 2.99128 3.2524 3.19184 2.98348 3.19184C2.71911 3.19184 2.50488 2.98217 2.50488 2.7178C2.50488 2.44887 2.73279 2.22553 3.00171 2.23464C3.26608 2.24376 3.46663 2.45799 3.46663 2.72236H3.46207Z" fill="black"/>
<path d="M15.2498 15.9869C15.5779 15.2394 15.9061 14.4964 16.2343 13.7534C16.4075 13.3569 16.5898 12.9603 16.7585 12.5592C16.8542 12.3268 16.9909 12.1445 17.2644 12.149C17.5242 12.149 17.6564 12.3268 17.7521 12.5501C18.2125 13.6121 18.682 14.6742 19.1469 15.7362C19.1834 15.8182 19.2198 15.8957 19.2654 15.9915C19.5389 15.9915 19.8169 16.0142 19.9126 16.3287C19.9901 16.5749 19.899 16.7709 19.6665 16.9213C19.8443 17.3224 20.0175 17.719 20.1907 18.1155C20.2363 18.2203 20.2818 18.3252 20.2818 18.4391C20.2818 18.6625 20.1223 18.8585 19.9035 18.9086C19.6847 18.9587 19.4614 18.8494 19.352 18.6123C19.1469 18.1565 18.9509 17.7007 18.7503 17.2404C18.7139 17.1538 18.6683 17.0672 18.6273 16.9714H15.8788C15.6645 17.4591 15.4503 17.9423 15.2361 18.4255C15.2087 18.4847 15.1859 18.544 15.1586 18.6032C15.0218 18.8721 14.7712 18.9815 14.5205 18.8721C14.2607 18.7627 14.1604 18.4984 14.2789 18.2067C14.4156 17.8739 14.566 17.5412 14.7119 17.2085C14.7484 17.1218 14.7894 17.0307 14.835 16.9259C14.6253 16.7754 14.5068 16.5703 14.5979 16.306C14.7028 16.0097 14.9671 15.9778 15.2452 15.9823L15.2498 15.9869ZM16.3163 15.9778H18.1943L17.2553 13.84L16.3163 15.9778Z" fill="black"/>
</g>
<defs>
<clipPath id="clip0_518_4258">
<rect width="24.7913" height="24.7913" fill="white" transform="translate(0.303711 0.0336914)"/>
</clipPath>
</defs>
</svg>
