<svg width="21" height="23" viewBox="0 0 21 23" fill="none" xmlns="http://www.w3.org/2000/svg">
<path d="M13.8227 21.6855H3.0541C1.92126 21.6855 1 20.7784 1 19.6645V5.45265C1 4.33878 1.92126 3.43164 3.0541 3.43164H5.10552C5.20193 3.43164 5.27959 3.50878 5.27959 3.60134V4.14748C5.27959 4.31101 5.4135 4.4406 5.57686 4.4406H11.3026C11.466 4.4406 11.5999 4.30793 11.5999 4.14748V3.60134C11.5999 3.50878 11.6776 3.43164 11.774 3.43164H13.8254C14.9582 3.43164 15.8795 4.33878 15.8795 5.45265V6.47704C15.8795 6.5079 15.8715 6.53567 15.8554 6.56344L13.1585 11.1609L13.5576 13.2991L15.5019 12.4969L15.5554 12.4043C15.5929 12.3364 15.6733 12.3025 15.7509 12.3241C15.8259 12.3426 15.8795 12.4105 15.8795 12.4876V19.6645C15.8795 20.7784 14.9582 21.6855 13.8254 21.6855H13.8227ZM3.0541 3.77105C2.11141 3.77105 1.34547 4.52391 1.34547 5.45265V19.6645C1.34547 20.5902 2.11141 21.343 3.0541 21.343H13.8227C14.7654 21.343 15.5313 20.5902 15.5313 19.6645V12.8517L13.4906 13.691C13.4424 13.7095 13.3889 13.7095 13.3407 13.6848C13.2951 13.6601 13.263 13.6169 13.2523 13.5675L12.8024 11.1609C12.7943 11.1207 12.8024 11.0806 12.8238 11.0467L15.5313 6.43384V5.45574C15.5313 4.53008 14.7654 3.77413 13.8227 3.77413H11.9454V4.15057C11.9454 4.49923 11.6561 4.78618 11.3026 4.78618H5.57686C5.22335 4.78618 4.93412 4.50231 4.93412 4.15057V3.77413H3.0541V3.77105Z" fill="#FAFCFC" stroke="black" stroke-width="0.7" stroke-miterlimit="10"/>
<path d="M11.3026 4.78315H5.57682C5.22332 4.78315 4.93408 4.49928 4.93408 4.14753V3.05526C4.93408 2.7066 5.22332 2.42273 5.57682 2.42273H6.82214C6.90784 1.6205 7.60146 0.994141 8.43703 0.994141C9.27259 0.994141 9.9689 1.6205 10.0546 2.42273H11.3026C11.6561 2.42273 11.9453 2.7066 11.9453 3.05526V4.14753C11.9453 4.4962 11.6561 4.78315 11.3026 4.78315ZM5.57682 2.76522C5.41346 2.76522 5.27956 2.89482 5.27956 3.05835V4.15062C5.27956 4.31415 5.41346 4.44374 5.57682 4.44374H11.3026C11.466 4.44374 11.5999 4.31107 11.5999 4.15062V3.05835C11.5999 2.8979 11.466 2.76522 11.3026 2.76522H9.89123C9.79482 2.76522 9.71716 2.68809 9.71716 2.59552C9.71716 1.90128 9.14137 1.33663 8.43703 1.33663C7.73269 1.33663 7.1569 1.90128 7.1569 2.59552C7.1569 2.68809 7.07923 2.76522 6.98282 2.76522H5.57147H5.57682Z" fill="#FAFCFC" stroke="black" stroke-width="0.7" stroke-miterlimit="10"/>
<path d="M13.2258 8.60308H3.65162C3.5552 8.60308 3.47754 8.52594 3.47754 8.43338C3.47754 8.34081 3.5552 8.26367 3.65162 8.26367H13.2258C13.3222 8.26367 13.3999 8.34081 13.3999 8.43338C13.3999 8.52594 13.3222 8.60308 13.2258 8.60308Z" fill="#FAFCFC" stroke="#3F6B68" stroke-width="0.7" stroke-miterlimit="10"/>
<path d="M13.4237 13.7065C13.3942 13.7065 13.3675 13.7003 13.3407 13.6849C13.2951 13.6602 13.263 13.617 13.2523 13.5676L12.8024 11.1609C12.7943 11.1208 12.8024 11.0807 12.8238 11.0468L17.789 2.58321C17.9657 2.28083 18.2978 2.0957 18.6513 2.0957C18.8254 2.0957 18.9941 2.1389 19.1441 2.22529L20.3707 2.92262C20.8447 3.19106 21.008 3.78965 20.7349 4.25556L15.7697 12.713C15.751 12.7438 15.7215 12.7716 15.6867 12.7839L13.488 13.688C13.4665 13.6972 13.4451 13.7003 13.421 13.7003L13.4237 13.7065ZM13.1559 11.1579L13.5549 13.2961L15.5019 12.4939L20.4376 4.08586C20.6144 3.78039 20.5099 3.39162 20.1993 3.21574L18.9727 2.51842C18.6754 2.34872 18.2603 2.45979 18.0889 2.75292L13.1559 11.1579Z" fill="black"/>
<path d="M15.6197 12.8024C15.5903 12.8024 15.5608 12.7962 15.534 12.7808L12.8881 11.2782C12.805 11.2319 12.7783 11.127 12.8238 11.0468C12.872 10.9665 12.9764 10.9388 13.0595 10.9851L15.7054 12.4877C15.7884 12.534 15.8152 12.6389 15.7697 12.7191C15.7376 12.7746 15.6786 12.8055 15.6197 12.8055V12.8024Z" fill="black"/>
<path d="M14.2994 12.0496C14.27 12.0496 14.2405 12.0434 14.2137 12.028C14.1307 11.9817 14.1039 11.8768 14.1495 11.7965L18.6888 4.06116C18.737 3.98094 18.8415 3.95317 18.9245 3.99945C19.0075 4.04574 19.0343 4.15064 18.9888 4.23087L14.4494 11.9662C14.4173 12.0218 14.3584 12.0526 14.2994 12.0526V12.0496Z" fill="black"/>
<path d="M13.4236 13.7066H3.84937C3.75296 13.7066 3.67529 13.6295 3.67529 13.5369C3.67529 13.4443 3.75296 13.3672 3.84937 13.3672H13.4236C13.52 13.3672 13.5976 13.4443 13.5976 13.5369C13.5976 13.6295 13.52 13.7066 13.4236 13.7066Z" fill="#FAFCFC" stroke="#3F6B68" stroke-width="0.7" stroke-miterlimit="10"/>
<path d="M3.90583 19.7478C3.8603 19.7478 3.81745 19.7324 3.78264 19.6984C3.71568 19.6305 3.71568 19.5256 3.78264 19.4577L5.73764 17.5355C5.78853 17.4861 5.86619 17.4707 5.93315 17.5015L7.8453 18.3686L9.29951 16.9986C9.33432 16.9646 9.37985 16.9523 9.42806 16.9523L10.5047 17.0109L12.2454 15.2985C12.3124 15.2306 12.4222 15.2306 12.4891 15.2985C12.5561 15.3664 12.5561 15.4713 12.4891 15.5391L10.6948 17.3041C10.66 17.338 10.6118 17.3534 10.5636 17.3534L9.4843 17.2948L8.00063 18.6956C7.94975 18.745 7.87208 18.7573 7.80781 18.7265L5.89565 17.8594L4.02634 19.6984C3.99153 19.7324 3.94868 19.7478 3.90315 19.7478H3.90583Z" fill="#FAFCFC" stroke="black" stroke-width="0.7" stroke-miterlimit="10"/>
<path d="M12.559 16.502C12.4625 16.502 12.3849 16.4249 12.3849 16.3323V15.4283H11.5466C11.4502 15.4283 11.3726 15.3511 11.3726 15.2586C11.3726 15.166 11.4502 15.0889 11.5466 15.0889H12.5563C12.6527 15.0889 12.7304 15.166 12.7304 15.2586V16.3323C12.7304 16.4249 12.6527 16.502 12.5563 16.502H12.559Z" fill="#FAFCFC" stroke="black" stroke-width="0.7" stroke-miterlimit="10"/>
</svg>
