<svg width="20" height="17" viewBox="0 0 20 17" fill="none" xmlns="http://www.w3.org/2000/svg">
<path d="M15.0589 0.685547L13.3543 2.34227C13.2681 2.33189 13.1819 2.32152 13.099 2.31806C12.4888 2.07941 11.4044 1.90993 10.131 2.86108L10.1011 2.88529L9.6833 3.29342C8.10811 2.2558 6.86122 2.89566 6.5097 3.12048L4.94114 1.59519L0 6.39934L1.87365 8.21862C1.88692 9.03488 2.18538 9.87188 2.76571 10.7158C3.00448 11.0651 3.28304 11.3833 3.58481 11.6842C3.96949 12.0647 4.3608 12.4417 4.75211 12.8187C4.33096 13.4171 4.51003 13.9082 4.95109 14.3544C5.40541 14.8144 5.82656 14.8697 6.44338 14.6968C6.45001 14.6968 6.45332 14.6968 6.45664 14.7037C6.90101 15.3505 7.3089 15.6618 7.74996 15.6964C7.93235 15.8693 8.11474 16.0457 8.29713 16.2152C8.84099 16.7271 9.67335 16.8412 10.3333 16.4746C10.6185 16.3155 10.6649 16.1875 10.8108 15.9627C11.9217 16.8689 12.6646 16.8862 13.54 15.6133C13.54 15.6099 13.55 15.6064 13.5533 15.6064C14.1701 15.7794 14.5913 15.7275 15.0456 15.264C15.5099 14.7936 15.6856 14.2679 15.1683 13.6246C15.165 13.6211 15.0323 13.4517 15.0356 13.4517C15.4071 13.462 15.6989 13.2338 15.8614 13.0297C16.2925 12.4901 16.266 11.9229 15.805 11.3626C16.0073 11.1654 16.2096 10.9718 16.4119 10.7711C16.7136 10.4737 16.9922 10.152 17.231 9.80271C17.8113 8.95879 18.1098 8.12178 18.123 7.30552L19.9967 5.48624L15.0589 0.685547ZM3.88659 10.9856C3.31952 10.4011 2.89173 9.75775 2.70602 9.02796C2.66291 8.8654 2.63638 8.69938 2.6198 8.52645C2.60653 8.38464 2.60322 8.24283 2.60653 8.09757L0.706351 6.25061L4.78859 2.28001L6.09849 3.55282L6.18471 3.63583L6.17808 3.64966L6.81147 3.70154L6.85127 3.60124C7.09998 3.43522 8.13464 2.87837 9.51749 3.90215L11.3447 5.68684C11.4376 5.77677 11.4873 5.89782 11.4873 6.0258C11.4873 6.15377 11.4376 6.27482 11.3447 6.36129L11.2253 6.47889C11.033 6.66566 10.7246 6.6622 10.5322 6.47889L8.66191 4.65269L8.20759 4.96051L8.71497 5.53812L8.93384 5.75256C8.71829 5.96008 8.50274 6.17106 8.2905 6.37859C8.23744 6.43047 8.20759 6.48581 8.19101 6.5446C8.18106 6.55498 8.17112 6.56536 8.15785 6.57573C6.90101 7.80012 5.63754 9.02104 4.38402 10.2454C4.13198 10.491 3.96949 10.74 3.88659 10.9856ZM9.95191 15.9385C9.806 16.0734 9.66009 16.1529 9.44122 16.1391C9.14276 16.1149 8.93384 15.8935 8.79124 15.7552C8.70171 15.6721 8.61549 15.5857 8.52595 15.4992C8.73487 15.392 8.95042 15.2398 9.18919 15.0496C9.3351 15.2744 9.38153 15.4058 9.66672 15.5615C9.79274 15.6341 9.9287 15.686 10.0647 15.7206C10.0415 15.8105 10.005 15.89 9.95191 15.9385ZM12.648 15.6929C12.3661 16.0146 12.0478 16.0422 11.6365 15.6721C11.5735 15.6133 11.5105 15.558 11.4475 15.4992C11.5371 15.4404 11.6233 15.3782 11.7029 15.3021C11.9383 15.0807 12.1705 14.8593 12.4026 14.638C12.4258 14.6622 12.4523 14.6864 12.4789 14.7106C12.8635 15.0876 12.9166 15.3885 12.6513 15.6929H12.648ZM14.6012 14.7002C14.3193 15.0772 13.8849 15.0842 13.4969 14.7106C13.3046 14.5239 13.1123 14.3371 12.9199 14.1503C13.2383 13.8494 13.5566 13.5485 13.875 13.2441C14.0541 13.4171 14.2331 13.5935 14.4122 13.7664C14.7571 14.1019 14.8168 14.4201 14.6045 14.7037L14.6012 14.7002ZM15.3938 12.4763C15.2512 12.8256 14.8201 12.9916 14.4818 12.8118C14.4487 12.7945 14.4155 12.7737 14.3857 12.753C14.6908 12.459 14.9959 12.1616 15.3009 11.8641C15.4336 12.0336 15.4999 12.2238 15.3938 12.4798V12.4763ZM17.4001 7.18792C17.4034 7.33319 17.4001 7.47846 17.3868 7.6168C17.3703 7.78974 17.3404 7.95576 17.3006 8.11832C17.1116 8.85156 16.6838 9.49834 16.1134 10.0863C15.3374 10.8784 14.525 11.6393 13.7291 12.414C12.8934 13.2268 12.061 14.0431 11.2187 14.849C11.0728 14.9873 10.8672 15.2087 10.5687 15.2329C10.3532 15.2502 10.2039 15.1672 10.058 15.0323C9.9287 14.9112 9.88559 14.6103 9.93533 14.4235C9.98839 14.2195 10.1741 14.0362 10.3366 13.8736C10.718 13.4932 11.106 13.1231 11.4906 12.7461C11.6797 12.5628 11.8654 12.3795 12.0511 12.1927C12.2467 11.9955 12.8204 11.5805 12.4988 11.2865C12.2036 11.0167 11.7791 11.5355 11.6001 11.7119C11.411 11.8952 11.2253 12.0785 11.033 12.2584C10.1476 13.0989 9.27541 13.9497 8.37009 14.766C7.95888 15.136 7.64052 15.1084 7.35865 14.7867C7.09335 14.4823 7.14309 14.178 7.53109 13.8044C8.53258 12.8291 9.53739 11.8537 10.5389 10.8784C10.6782 10.74 10.8009 10.6536 10.8274 10.4426C10.8473 10.2869 10.7876 10.152 10.6251 10.1278C10.3499 10.0863 10.2305 10.1901 10.0514 10.363C8.87083 11.5113 7.69358 12.6596 6.5097 13.8044C6.1217 14.1814 5.68728 14.1711 5.40541 13.7941C5.19317 13.5139 5.25286 13.1957 5.59774 12.8568C6.79489 11.6877 7.99536 10.5221 9.19582 9.35999C9.39148 9.16977 9.54734 8.95879 9.30526 8.73743C9.07644 8.5299 8.87747 8.71322 8.70171 8.88269C7.7798 9.78196 6.85458 10.6812 5.92936 11.577C5.80666 11.6946 5.67733 11.8191 5.52479 11.8987C5.18322 12.082 4.75543 11.916 4.61283 11.5632C4.4636 11.2035 4.65594 10.9752 4.88808 10.7504C6.42348 9.26315 7.95556 7.77936 9.4777 6.27828L10.1045 6.89048C10.3167 7.098 10.5986 7.20522 10.8805 7.20522C11.159 7.20522 11.4409 7.10146 11.6531 6.89393L11.7725 6.77634C11.9781 6.57573 12.0942 6.30941 12.0942 6.02234C12.0942 5.75602 11.9914 5.50353 11.809 5.30639L10.4162 3.93674L10.1443 3.67041L10.5157 3.30725C11.0927 2.88183 11.6067 2.72965 12.0279 2.71235C12.8038 2.64318 13.4903 3.03747 13.4903 3.03747L13.9015 2.63626L15.2114 1.36345L19.297 5.33405L17.3968 7.18101L17.4001 7.18792Z" fill="#3F6B68"/>
</svg>
