<svg width="21" height="22" viewBox="0 0 21 22" fill="none" xmlns="http://www.w3.org/2000/svg">
<g clip-path="url(#clip0_34_11444)">
<path d="M11.7951 15.2568C15.2817 15.2568 18.1081 12.5487 18.1081 9.20812C18.1081 5.86752 15.2817 3.15942 11.7951 3.15942C8.3085 3.15942 5.48206 5.86752 5.48206 9.20812C5.48206 12.5487 8.3085 15.2568 11.7951 15.2568Z" stroke="black" stroke-width="0.7" stroke-linecap="round" stroke-linejoin="round"/>
<path d="M11.7951 15.257V17.9007C11.7951 19.4808 10.2243 20.7623 8.28754 20.7623C5.8151 20.7623 3.88145 20.0678 2.89813 14.7854" stroke="black" stroke-width="0.7" stroke-linecap="round" stroke-linejoin="round"/>
<path d="M2.89811 17.3328C4.32519 17.3328 5.48207 16.389 5.48207 15.2248C5.48207 14.0605 4.32519 13.1167 2.89811 13.1167C1.47103 13.1167 0.314148 14.0605 0.314148 15.2248C0.314148 16.389 1.47103 17.3328 2.89811 17.3328Z" fill="white" stroke="black" stroke-width="0.7" stroke-linecap="round" stroke-linejoin="round"/>
<path d="M2.89812 16.2307C3.57913 16.2307 4.13119 15.7803 4.13119 15.2247C4.13119 14.6691 3.57913 14.2188 2.89812 14.2188C2.21711 14.2188 1.66504 14.6691 1.66504 15.2247C1.66504 15.7803 2.21711 16.2307 2.89812 16.2307Z" fill="black"/>
<path d="M17.5761 6.97309L17.5761 6.97278C13.8143 6.19156 9.77756 6.19156 6.01723 6.97278L6.01691 6.97285C5.73306 7.03209 5.48269 6.90173 5.39905 6.75052C5.39901 6.75045 5.39897 6.75038 5.39894 6.75032L2.9724 2.33361L2.97226 2.33334C2.9295 2.25567 2.93111 2.17941 2.9672 2.1076C3.00559 2.03118 3.09278 1.94519 3.24259 1.89773L3.24271 1.8977C4.86524 1.38306 8.51616 0.343515 11.5483 0.372411L11.5483 0.372616L11.5603 0.37232C14.8197 0.291855 18.6686 1.37077 20.3451 1.89791C20.4959 1.94557 20.5837 2.03185 20.6225 2.1085C20.6588 2.1804 20.6606 2.25679 20.6179 2.33489C20.2134 3.07115 19.8092 3.80709 19.4052 4.54299L19.4002 4.55199C18.9978 5.28486 18.5954 6.0177 18.1926 6.75085C18.1095 6.90207 17.8604 7.03192 17.5761 6.97309Z" fill="white" stroke="black" stroke-width="0.7"/>
<path d="M11.7952 1.75757V5.20738" stroke="black" stroke-width="0.7" stroke-miterlimit="10" stroke-linecap="round"/>
<path d="M13.9094 3.48242H9.68085" stroke="black" stroke-width="0.7" stroke-miterlimit="10" stroke-linecap="round"/>
<path d="M11.7951 9.73995C11.7951 9.73995 12.1313 8.50586 13.4209 8.50586C14.3838 8.50586 15.0467 9.17224 15.0467 9.94883C15.0467 10.8472 14.1419 11.9108 11.7951 12.8348C9.44679 11.9108 8.54358 10.8472 8.54358 9.94883C8.54358 9.17224 9.20646 8.50586 10.1694 8.50586C11.459 8.50586 11.7951 9.73995 11.7951 9.73995Z" fill="#3F6B68"/>
</g>
<defs>
<clipPath id="clip0_34_11444">
<rect width="21" height="21" fill="white" transform="translate(0 0.0185547)"/>
</clipPath>
</defs>
</svg>
