<svg width="21" height="24" viewBox="0 0 21 24" fill="none" xmlns="http://www.w3.org/2000/svg">
<g clip-path="url(#clip0_518_4302)">
<path d="M8.10337 23.757L9.9602 21.1147C10.4427 21.2825 10.9836 21.3336 11.5173 21.2241C12.8478 20.9541 13.7908 19.8227 13.8786 18.5234C14.1198 18.2534 14.3464 17.9687 14.5657 17.6694C16.3129 15.2169 18.0308 12.7425 19.7195 10.2461C20.2971 9.39212 20.2605 8.24614 19.6026 7.45052C19.3175 7.10746 19.1274 7.07826 18.7838 6.93228C19.778 5.22426 19.6245 4.22427 17.658 3.35566C17.6507 3.35566 17.6434 3.34836 17.6507 3.33377C17.7457 2.46516 17.5703 1.91042 16.8246 1.41407C16.0644 0.903127 15.2968 0.793639 14.5292 1.64765C14.5292 1.64765 14.3172 1.87392 14.3172 1.86662C14.2441 1.37028 13.8639 1.02721 13.5423 0.859332C12.5846 0.355686 11.722 0.633056 11.0056 1.64765C9.60199 3.62574 8.21302 5.61112 6.81674 7.59651C6.7144 7.74249 6.60474 7.87388 6.42198 8.10745C6.41467 8.12205 6.39274 8.10745 6.38543 8.10015C6.3635 7.56731 6.34888 7.18775 6.31964 6.80819C6.2246 5.72791 5.42046 4.9177 4.43356 4.8885C3.45398 4.8593 2.63521 5.57463 2.49632 6.66221C2.28432 8.37023 2.08694 10.0782 1.94073 11.7936C1.83107 13.0709 1.78721 14.3702 2.18197 15.6111L0.295898 18.2972L8.09606 23.7716L8.10337 23.757ZM11.4369 20.7935C10.0699 21.0709 8.73937 20.1877 8.46157 18.8227C8.18378 17.4578 9.06833 16.1293 10.4354 15.8519C11.8024 15.5746 13.1329 16.4578 13.4107 17.8227C13.6885 19.1877 12.8039 20.5161 11.4369 20.7935ZM2.56211 16.5089L2.73756 16.2534L3.1908 15.6038C3.13232 15.4432 3.08115 15.2753 3.03728 15.1074C2.99342 14.9249 2.94956 14.7351 2.92763 14.5454C2.87646 14.1731 2.86184 13.7935 2.88377 13.4067C3.02266 11.2023 3.24197 8.99796 3.45398 6.80089C3.51246 6.20236 3.92184 5.8301 4.39701 5.8447C4.92336 5.852 5.29619 6.23155 5.34005 6.85199C5.39853 7.6622 5.40584 8.47971 5.4497 9.28993C5.46432 9.61839 5.40584 10.0782 5.85177 10.1074C6.09302 10.122 6.42198 9.85927 6.59012 9.63299C8.35192 7.16586 10.0918 4.68412 11.8317 2.19509C12.0875 1.82283 12.358 1.51626 12.8917 1.62575C13.4107 1.73524 13.7397 2.26808 13.5715 2.77173C13.4984 2.9907 13.3595 3.19508 13.2206 3.39216C12.1972 4.852 11.1737 6.31185 10.143 7.76439C9.94558 8.04176 9.74089 8.34833 10.0845 8.6111C10.4427 8.88117 10.6985 8.6257 10.9179 8.31183C12.241 6.41404 13.5715 4.52354 14.9093 2.63304C15.2968 2.0856 15.7208 1.93232 16.1594 2.15129C16.7442 2.44326 16.8612 3.0199 16.4299 3.63303C15.1213 5.49433 13.8128 7.35563 12.5042 9.21693C12.3068 9.4943 12.1972 9.68408 12.3141 10.0417C12.3872 10.2534 12.5846 10.2972 12.7966 10.2388C13.0817 10.1512 13.1768 9.96875 13.3303 9.74978C14.4415 8.16585 15.5526 6.58922 16.6711 5.00529C17.1024 4.39945 17.5045 4.25347 17.987 4.53814C18.4987 4.83741 18.6084 5.26076 18.199 5.90309C17.2852 7.31914 16.3129 8.69139 15.3552 10.0855C15.1506 10.3848 14.9459 10.6841 14.7339 10.976C14.5365 11.2534 13.9151 11.9541 14.361 12.2826C14.8435 12.6476 15.2821 11.7717 15.5088 11.4651C15.7208 11.1731 15.9328 10.8812 16.1375 10.5819C16.5688 9.97605 16.9928 9.36292 17.4241 8.75708C17.6068 8.50161 17.8188 8.20964 18.0893 8.08556C18.3379 7.97607 18.7619 7.95417 18.9593 8.10015C19.1786 8.26074 19.3248 8.44322 19.354 8.73519C19.3906 9.14394 19.1347 9.47241 18.9739 9.69868C18.0601 11.0271 17.1244 12.341 16.1959 13.6549C15.3552 14.8446 14.5438 16.0563 13.6812 17.2242C13.1621 15.9176 11.7659 15.1293 10.3403 15.4213C8.73937 15.7497 7.7013 17.3118 8.03026 18.9103C8.18378 19.6767 8.62971 20.3117 9.22185 20.7278L9.10489 20.8884L7.73054 22.8446L1.2828 18.3264L2.5548 16.5162L2.56211 16.5089Z" fill="#272525"/>
<path d="M11.0717 18.033C10.889 17.9965 10.7574 17.96 10.6623 17.9235C10.5819 17.887 10.5234 17.8505 10.4869 17.8067C10.4723 17.7921 10.465 17.7702 10.4576 17.7483C10.4503 17.7264 10.443 17.7045 10.4357 17.6826C10.4357 17.6607 10.4357 17.6461 10.4357 17.6242C10.4357 17.5877 10.4357 17.5439 10.4576 17.5074C10.4796 17.449 10.5308 17.3907 10.6039 17.3542C10.655 17.325 10.7135 17.3031 10.7939 17.2885C10.8012 17.2885 10.8085 17.2885 10.8159 17.2885C10.9548 17.2593 11.0717 17.2666 11.1668 17.2739C11.2179 17.2739 11.2618 17.2885 11.2983 17.3031C11.3349 17.3104 11.3641 17.325 11.3861 17.3323L11.503 17.3688L11.5177 17.2812L11.5908 16.8213L11.525 16.7994H11.5103C11.4153 16.7629 11.313 16.741 11.2106 16.7264C11.1594 16.7264 11.1083 16.7264 11.0571 16.7264C11.0059 16.7264 10.9474 16.7264 10.8963 16.7337L10.8012 16.2593L10.3041 16.3615L10.3407 16.5293L10.4065 16.8651C10.3553 16.887 10.3041 16.9162 10.2603 16.9454C10.2164 16.9746 10.1725 17.0111 10.1287 17.0403C9.89475 17.252 9.78509 17.5512 9.85089 17.8724C9.95323 18.3906 10.4211 18.5439 10.9036 18.6242C11.0863 18.6607 11.2252 18.7045 11.3203 18.7629C11.3641 18.7921 11.4007 18.8286 11.4299 18.8724C11.4592 18.9162 11.4738 18.96 11.4884 19.0111C11.5323 19.2374 11.3714 19.4271 11.0863 19.4782C10.8597 19.522 10.6112 19.5001 10.4065 19.4198L10.2822 19.3687L10.2018 19.9235H10.2091L10.2749 19.9527C10.3699 19.9965 10.4942 20.0257 10.6185 20.0403C10.7501 20.0549 10.889 20.0549 11.0205 20.0403L11.1229 20.5366L11.6273 20.4344L11.6127 20.3468L11.525 19.9162C11.9636 19.7118 12.1975 19.2958 12.1025 18.8578C12.0074 18.4052 11.7077 18.1644 11.0936 18.0476L11.0717 18.033ZM10.2383 17.7264C10.253 17.814 10.2895 17.8797 10.3334 17.9381C10.2895 17.8797 10.253 17.814 10.2383 17.7264Z" fill="#272525"/>
</g>
<defs>
<clipPath id="clip0_518_4302">
<rect width="19.833" height="23.1385" fill="white" transform="translate(0.303711 0.618164)"/>
</clipPath>
</defs>
</svg>
