<svg width="22" height="26" viewBox="0 0 22 26" fill="none" xmlns="http://www.w3.org/2000/svg">
<g clip-path="url(#clip0_518_4271)">
<path d="M7.12613 11.1667C3.36669 11.1667 0.303711 14.3593 0.303711 18.2778C0.303711 22.1964 3.36669 25.3967 7.12613 25.3967C10.0992 25.3967 12.638 23.3984 13.5666 20.6274C14.0309 20.6508 14.4503 20.6508 14.7948 20.6508C16.8917 20.6508 21.767 20.4166 21.767 18.2778V15.3819C21.782 15.3194 21.7895 15.257 21.7895 15.1867C21.7895 15.1165 21.7895 15.0618 21.767 14.9994V12.6498C21.782 12.5874 21.7895 12.5249 21.7895 12.4547C21.7895 12.3922 21.7895 12.3298 21.767 12.2674V9.65241C21.782 9.58996 21.7895 9.52751 21.7895 9.45726C21.7895 9.34798 21.767 9.2387 21.7296 9.13722C21.752 9.04355 21.767 8.94208 21.767 8.8406V5.94465C21.782 5.8822 21.7895 5.81975 21.7895 5.7495C21.7895 5.68705 21.7895 5.62461 21.767 5.56216V2.95502C21.782 2.89257 21.7895 2.83013 21.7895 2.75987C21.7895 2.64279 21.767 2.5335 21.7296 2.43203C21.6697 2.21347 21.5349 2.02613 21.3626 1.90904C19.9397 0.652304 15.4014 0.605469 14.8023 0.605469C14.2032 0.605469 9.66488 0.652304 8.24199 1.90904C8.06974 2.02613 7.93494 2.20566 7.87503 2.42422C7.83758 2.5257 7.81512 2.63498 7.81512 2.75207C7.81512 2.82232 7.81512 2.88477 7.83758 2.94721V5.56216C7.82261 5.62461 7.81512 5.67925 7.81512 5.7495C7.81512 5.81975 7.81512 5.8822 7.83758 5.94465V8.8406C7.83758 8.94208 7.85256 9.04355 7.87503 9.13722C7.83758 9.2387 7.81512 9.34017 7.81512 9.45726C7.81512 9.52751 7.81512 9.58996 7.83758 9.65241V11.198C7.60543 11.1745 7.37327 11.1589 7.14111 11.1589L7.12613 11.1667ZM20.9732 18.2232C20.9732 18.2232 20.9732 18.2622 20.9732 18.2778V18.3012C20.9357 19.0974 18.1798 19.7453 14.8023 19.7453C14.4653 19.7453 14.1358 19.7375 13.8212 19.7219C13.9111 19.2536 13.9635 18.7774 13.9635 18.2856C13.9635 18.1607 13.9635 18.0359 13.956 17.911C14.2706 17.9188 14.5627 17.9266 14.8098 17.9266C16.3825 17.9266 19.5128 17.7939 20.9882 16.826V18.2232H20.9732ZM20.9732 15.4912C20.9732 15.4912 20.9732 15.5302 20.9732 15.5458V15.5692C20.9357 16.3654 18.1798 17.0133 14.8023 17.0133C14.4728 17.0133 14.1582 17.0055 13.8437 16.9899C13.7089 16.2327 13.4618 15.5224 13.1248 14.8745C13.7613 14.9135 14.353 14.9291 14.8098 14.9291C16.3825 14.9291 19.5128 14.7964 20.9882 13.8285V15.4912H20.9732ZM20.9732 8.78596C20.9732 8.78596 20.9732 8.82499 20.9732 8.8406V8.86402C20.9357 9.66021 18.1798 10.3081 14.8023 10.3081C11.4248 10.3081 8.66886 9.66021 8.63141 8.86402C8.63141 8.84841 8.63141 8.8328 8.63141 8.81719C8.63141 8.80938 8.63141 8.80157 8.63141 8.78596V7.12332C10.0992 8.09124 13.2371 8.22394 14.8023 8.22394C16.3675 8.22394 19.5054 8.09124 20.9807 7.12332V8.78596H20.9732ZM14.8023 1.65145C18.3071 1.65145 20.4789 2.33055 20.8459 2.75207C20.4789 3.17358 18.3071 3.85269 14.8023 3.85269C11.2975 3.85269 9.12568 3.17358 8.75872 2.75207C9.12568 2.33055 11.2975 1.65145 14.8023 1.65145ZM14.8023 4.90647C15.3565 4.90647 19.2582 4.86744 20.9807 3.8761V5.78853C20.9807 5.78853 20.9807 5.82756 20.9807 5.84317V5.86659C20.9432 6.66278 18.1873 7.31066 14.8098 7.31066C11.4323 7.31066 8.67634 6.66278 8.6389 5.86659C8.6389 5.85098 8.6389 5.83536 8.6389 5.81975C8.6389 5.81195 8.6389 5.80414 8.6389 5.78853V3.8761C10.3614 4.86744 14.2556 4.90647 14.8098 4.90647H14.8023ZM14.8023 11.6117C15.3565 11.6117 19.2582 11.5726 20.9807 10.5813V12.4937C20.9807 12.4937 20.9807 12.5249 20.9807 12.5484V12.5718C20.9432 13.368 18.1873 14.0159 14.8098 14.0159C14.001 14.0159 13.2221 13.9768 12.5182 13.9066C11.5596 12.6342 10.2041 11.7053 8.6389 11.3463V10.5891C10.3614 11.5804 14.2631 11.6195 14.8173 11.6195L14.8023 11.6117ZM13.0873 18.2778C13.0873 21.6968 10.4138 24.4835 7.13362 24.4835C3.85347 24.4835 1.17992 21.7046 1.17992 18.2778C1.17992 14.8511 3.84598 12.0722 7.13362 12.0722C10.4213 12.0722 13.0873 14.8511 13.0873 18.2778Z" fill="#272525"/>
<path d="M2.52832 18.2781C2.52832 20.9243 4.58778 23.0709 7.12653 23.0709C9.66528 23.0709 11.7247 20.9165 11.7247 18.2781C11.7247 15.6398 9.66528 13.4854 7.12653 13.4854C4.58778 13.4854 2.52832 15.632 2.52832 18.2781ZM11.1406 18.2781C11.1406 20.5886 9.33577 22.462 7.12653 22.462C4.91729 22.462 3.11246 20.5808 3.11246 18.2781C3.11246 15.9754 4.91729 14.0942 7.12653 14.0942C9.33577 14.0942 11.1406 15.9754 11.1406 18.2781Z" fill="#272525"/>
<path d="M6.56385 15.2575V15.7727C6.32421 15.8664 6.11452 16.0069 5.94976 16.1942C5.69514 16.4753 5.55285 16.8577 5.55285 17.2558C5.55285 17.4666 5.59029 17.6695 5.66518 17.8491C5.77003 18.0989 5.94976 18.3174 6.1969 18.5048C6.38412 18.6453 6.62377 18.7702 6.94579 18.9029C7.2079 19.0121 7.31275 19.098 7.35768 19.1448C7.38764 19.1761 7.40262 19.1995 7.4101 19.2151C7.4101 19.2307 7.42508 19.2541 7.42508 19.2932C7.42508 19.3556 7.4101 19.3868 7.36517 19.4258C7.30526 19.4805 7.20041 19.5117 7.08059 19.5117C6.78852 19.5273 6.51892 19.3946 6.36914 19.2932L6.1969 19.1761C6.12201 19.1214 6.03214 19.1136 5.94227 19.137C5.85989 19.1683 5.79249 19.2385 5.76254 19.3244L5.49294 20.1128C5.448 20.2377 5.49294 20.3782 5.59778 20.464L5.69514 20.5421C5.85241 20.6592 6.05461 20.7528 6.28676 20.8231C6.36914 20.8465 6.45152 20.8699 6.5339 20.8855V21.3383C6.5339 21.5022 6.66121 21.6427 6.82597 21.6427H7.57486C7.73213 21.6427 7.86693 21.51 7.86693 21.3383V20.7997C8.13653 20.6982 8.36869 20.5343 8.54093 20.3157C8.78807 20.0191 8.92287 19.6444 8.92287 19.2463C8.92287 19.0356 8.89291 18.8404 8.833 18.6687C8.74314 18.4033 8.57838 18.1691 8.35371 17.974C8.16649 17.81 7.92684 17.6695 7.6198 17.5368C7.61231 17.5368 7.59733 17.529 7.58984 17.5212C7.2753 17.3885 7.14799 17.3027 7.09557 17.2558C7.0731 17.2402 7.06561 17.2246 7.05812 17.209C7.05812 17.209 7.05812 17.1934 7.05812 17.17C7.05812 17.1544 7.05812 17.1231 7.08059 17.1075C7.11804 17.0685 7.20041 17.0451 7.31275 17.0451C7.44755 17.0451 7.57486 17.0685 7.70217 17.1075C7.79953 17.1387 7.87442 17.1856 7.93433 17.2168L8.09909 17.3105C8.17398 17.3573 8.26384 17.3651 8.33873 17.3339C8.42111 17.3027 8.48102 17.2402 8.51098 17.1544L8.79556 16.3738C8.84798 16.2333 8.79556 16.0772 8.66825 16.0069L8.54842 15.9366C8.35371 15.8196 8.13653 15.7337 7.90437 15.6791V15.2497C7.90437 15.0858 7.77706 14.9453 7.61231 14.9453H6.8709C6.71363 14.9453 6.57883 15.078 6.57883 15.2497L6.56385 15.2575ZM7.14799 15.9913V15.562H7.30526V15.9445C7.30526 16.1006 7.41759 16.2333 7.56737 16.2489C7.77706 16.2723 7.97178 16.3269 8.14402 16.4128L8.06913 16.6158C8.00922 16.5845 7.94182 16.5533 7.86693 16.5299C7.6872 16.4674 7.49248 16.4362 7.29028 16.4362C7.02068 16.4362 6.8035 16.5143 6.65372 16.6704C6.52641 16.8031 6.45152 16.9826 6.45152 17.17C6.45152 17.2871 6.47399 17.3807 6.51143 17.4666C6.54888 17.5525 6.60879 17.6305 6.69117 17.7086C6.81848 17.8257 7.02817 17.9506 7.36517 18.0911C7.62728 18.2003 7.81451 18.3174 7.96429 18.4423C8.10658 18.5672 8.21142 18.7077 8.26384 18.8716C8.30129 18.9809 8.32376 19.1058 8.32376 19.2463C8.32376 19.4961 8.24138 19.7303 8.08411 19.9098C7.94182 20.0815 7.73213 20.2064 7.48499 20.2689C7.35768 20.3001 7.26033 20.425 7.26033 20.5655V21.0182H7.09557V20.6045C7.09557 20.4484 6.98324 20.3157 6.83346 20.3001C6.69866 20.2845 6.56385 20.2611 6.43654 20.222C6.30923 20.183 6.1969 20.1362 6.09954 20.0815L6.17443 19.8708C6.44403 20.0191 6.76606 20.105 7.06561 20.105C7.33521 20.105 7.55988 20.0269 7.73213 19.8786C7.90437 19.7303 7.99424 19.5195 7.99424 19.2853C7.99424 19.1683 7.97177 19.0668 7.93433 18.9731C7.89689 18.8794 7.84446 18.7936 7.76208 18.7155C7.62728 18.575 7.43257 18.4501 7.15548 18.333C6.88588 18.2238 6.68368 18.1145 6.5339 18.0052C6.36914 17.8803 6.2643 17.7554 6.1969 17.6071C6.15196 17.5056 6.1295 17.3807 6.1295 17.2558C6.1295 17.0139 6.21187 16.7797 6.36914 16.608C6.50394 16.4596 6.69866 16.3504 6.91583 16.2879C7.04315 16.2567 7.1405 16.1318 7.1405 15.9913H7.14799Z" fill="#272525"/>
</g>
<defs>
<clipPath id="clip0_518_4271">
<rect width="21.4858" height="24.7913" fill="white" transform="translate(0.303711 0.605469)"/>
</clipPath>
</defs>
</svg>
